<?xml version="1.0" encoding="utf-8"?>
<!-- Generator: Adobe Illustrator 25.2.1, SVG Export Plug-In . SVG Version: 6.00 Build 0)  -->
<svg version="1.1" xmlns="http://www.w3.org/2000/svg" xmlns:xlink="http://www.w3.org/1999/xlink" x="0px" y="0px"
	 viewBox="0 0 595.28 841.89" style="enable-background:new 0 0 595.28 841.89;" xml:space="preserve">
<style type="text/css">
	.st0{fill:#F6D29F;}
	.st1{fill:#F4971A;}
	.st2{fill:#010202;}
	.st3{fill:none;}
	.st4{fill:#FFFFFF;}
	.st5{fill:none;stroke:#EDCBA2;stroke-width:6;stroke-miterlimit:10;}
	.st6{fill:#F6D29F;stroke:#262626;stroke-miterlimit:10;}
</style>
<g id="Layer_2">
	<rect class="st0" width="595.28" height="841.89"/>
</g>
<g id="Layer_1">
	<rect x="0" y="410.87" class="st1" width="595.28" height="91.53"/>
	<rect y="144.34" class="st1" width="595.28" height="91.53"/>
	<g>
		<g>
			<path class="st2" d="M152.26,50.52V63.6h-2.2v-28h10.04c5.52,0,8.44,2.96,8.44,7.36c0,3.56-2.12,5.88-5.24,6.56
				c2.88,0.68,4.8,2.56,4.8,7.32v1.08c0,1.96-0.16,4.6,0.36,5.68h-2.2c-0.52-1.2-0.4-3.44-0.4-5.84v-0.72c0-4.6-1.36-6.52-6.72-6.52
				H152.26z M152.26,48.52h6.76c4.92,0,7.2-1.84,7.2-5.52c0-3.44-2.24-5.4-6.6-5.4h-7.36V48.52z"/>
			<path class="st2" d="M178.06,53.92l-3.56,9.68h-2.2l10.28-28h2.56l10.72,28h-2.36l-3.64-9.68H178.06z M189.14,51.92
				c-3.12-8.32-4.72-12.32-5.28-14.2h-0.04c-0.68,2.12-2.48,7.08-5,14.2H189.14z M179.98,30.33c0-2.04,1.48-3.84,3.84-3.84
				c2.36,0,3.88,1.72,3.88,3.76c0,2.12-1.6,3.8-3.84,3.8C181.5,34.04,179.98,32.36,179.98,30.33z M186.06,30.29
				c0-1.12-0.72-2.36-2.2-2.36c-1.48,0-2.2,1.16-2.2,2.28c0,1.2,0.68,2.4,2.2,2.4C185.3,32.6,186.06,31.44,186.06,30.29z"/>
			<path class="st2" d="M200.82,35.6h9.28c7.68,0,13,5.36,13,13.76c0,8.36-5.2,14.24-13.04,14.24h-9.24V35.6z M202.98,61.6h6.76
				c7.4,0,11.04-5.2,11.04-12.12c0-6.16-3.28-11.88-11.04-11.88h-6.76V61.6z"/>
			<path class="st2" d="M239.66,35.6h16.96v2h-14.8v10.56h13.88v2h-13.88V63.6h-2.16V35.6z"/>
			<path class="st2" d="M285.09,49.4c0,7.64-4.08,14.6-12.72,14.6c-7.88,0-12.48-6.36-12.48-14.4c0-7.92,4.44-14.4,12.76-14.4
				C280.33,35.2,285.09,41.24,285.09,49.4z M262.22,49.48c0,6.44,3.56,12.52,10.28,12.52c7.24,0,10.28-5.92,10.28-12.56
				c0-6.52-3.44-12.24-10.2-12.24C265.38,37.2,262.22,43.16,262.22,49.48z"/>
			<path class="st2" d="M293.46,50.52V63.6h-2.2v-28h10.04c5.52,0,8.44,2.96,8.44,7.36c0,3.56-2.12,5.88-5.24,6.56
				c2.88,0.68,4.8,2.56,4.8,7.32v1.08c0,1.96-0.16,4.6,0.36,5.68h-2.2c-0.52-1.2-0.4-3.44-0.4-5.84v-0.72c0-4.6-1.36-6.52-6.72-6.52
				H293.46z M293.46,48.52h6.76c4.92,0,7.2-1.84,7.2-5.52c0-3.44-2.24-5.4-6.6-5.4h-7.36V48.52z"/>
			<path class="st2" d="M326.78,35.6h16.96v2h-14.8v10.56h13.88v2h-13.88V63.6h-2.16V35.6z"/>
			<path class="st2" d="M354.9,63.6V53.08c0-0.24-0.08-0.52-0.16-0.64l-10-16.84h2.52c2.8,4.76,7.68,13.04,8.88,15.12
				c1.2-2.08,6.12-10.28,9.12-15.12h2.4l-10.44,17c-0.08,0.16-0.12,0.32-0.12,0.6v10.4H354.9z"/>
			<path class="st2" d="M371.74,56.08c0.84,3.72,3.32,5.92,7.92,5.92c5.12,0,7.08-2.56,7.08-5.6c0-3.16-1.4-5.12-7.56-6.64
				c-5.92-1.48-8.48-3.4-8.48-7.44c0-3.68,2.68-7.12,8.68-7.12c6.16,0,8.76,3.76,9.12,7.16h-2.24c-0.64-3-2.6-5.16-7-5.16
				c-4.04,0-6.24,1.88-6.24,5c0,3.08,1.84,4.28,7,5.56c7.88,1.96,9.04,5.12,9.04,8.48c0,4.12-3,7.68-9.48,7.68
				c-7,0-9.56-4.08-10.08-7.84H371.74z"/>
			<path class="st2" d="M397.18,35.6v28h-2.16v-28H397.18z"/>
			<path class="st2" d="M405.22,56.08c0.84,3.72,3.32,5.92,7.92,5.92c5.12,0,7.08-2.56,7.08-5.6c0-3.16-1.4-5.12-7.56-6.64
				c-5.92-1.48-8.48-3.4-8.48-7.44c0-3.68,2.68-7.12,8.68-7.12c6.16,0,8.76,3.76,9.12,7.16h-2.24c-0.64-3-2.6-5.16-7-5.16
				c-4.04,0-6.24,1.88-6.24,5c0,3.08,1.84,4.28,7,5.56c7.88,1.96,9.04,5.12,9.04,8.48c0,4.12-3,7.68-9.48,7.68
				c-7,0-9.56-4.08-10.08-7.84H405.22z"/>
			<path class="st2" d="M428.5,35.6h2.16v14.56c2.24-2.16,10.24-9.68,15.24-14.56h2.88l-12.56,11.92l13.28,16.08h-2.68l-12.16-14.68
				l-4,3.52V63.6h-2.16V35.6z"/>
			<path class="st2" d="M83.82,101.92l-3.56,9.68h-2.2l10.28-28h2.56l10.72,28h-2.36l-3.64-9.68H83.82z M94.9,99.92
				c-3.12-8.32-4.72-12.32-5.28-14.2h-0.04c-0.68,2.12-2.48,7.08-5,14.2H94.9z"/>
			<path class="st2" d="M106.58,83.6h2.16v14.56c2.24-2.16,10.24-9.68,15.24-14.56h2.88L114.3,95.52l13.28,16.08h-2.68l-12.16-14.68
				l-4,3.52v11.16h-2.16V83.6z"/>
			<path class="st2" d="M136.86,85.6h-9.4v-2h21.04v2h-9.44v26h-2.2V85.6z"/>
			<path class="st2" d="M154.82,83.6v28h-2.16v-28H154.82z"/>
			<path class="st2" d="M169.7,111.6l-10.4-28h2.32l5.44,14.64c1.56,4.24,3.32,8.92,3.92,11.28h0.08c0.6-2.08,2.52-7,4.08-11.12
				l5.64-14.8h2.28l-10.8,28H169.7z"/>
			<path class="st2" d="M189.7,83.6v28h-2.16v-28H189.7z"/>
			<path class="st2" d="M203.26,85.6h-9.4v-2h21.04v2h-9.44v26h-2.2V85.6z"/>
			<path class="st2" d="M235.5,97.84h-14.28v11.76h15.64l-0.32,2h-17.48v-28h17.16v2h-15v10.24h14.28V97.84z"/>
			<path class="st2" d="M248.1,85.6h-9.4v-2h21.04v2h-9.44v26h-2.2V85.6z"/>
			<path class="st2" d="M274.3,83.6h2.16v12.2h16.8V83.6h2.16v28h-2.16V97.8h-16.8v13.8h-2.16V83.6z"/>
			<path class="st2" d="M326.77,97.4c0,7.64-4.08,14.6-12.72,14.6c-7.88,0-12.48-6.36-12.48-14.4c0-7.92,4.44-14.4,12.76-14.4
				C322.01,83.2,326.77,89.24,326.77,97.4z M303.9,97.48c0,6.44,3.56,12.52,10.28,12.52c7.24,0,10.28-5.92,10.28-12.56
				c0-6.52-3.44-12.24-10.2-12.24C307.06,85.2,303.9,91.16,303.9,97.48z"/>
			<path class="st2" d="M333.14,104.08c0.84,3.72,3.32,5.92,7.92,5.92c5.12,0,7.08-2.56,7.08-5.6c0-3.16-1.4-5.12-7.56-6.64
				c-5.92-1.48-8.48-3.4-8.48-7.44c0-3.68,2.68-7.12,8.68-7.12c6.16,0,8.76,3.76,9.12,7.16h-2.24c-0.64-3-2.6-5.16-7-5.16
				c-4.04,0-6.24,1.88-6.24,5c0,3.08,1.84,4.28,7,5.56c7.88,1.96,9.04,5.12,9.04,8.48c0,4.12-3,7.68-9.48,7.68
				c-7,0-9.56-4.08-10.08-7.84H333.14z"/>
			<path class="st2" d="M373.86,111.6l-10.4-28h2.32l5.44,14.64c1.56,4.24,3.32,8.92,3.92,11.28h0.08c0.6-2.08,2.52-7,4.08-11.12
				l5.64-14.8h2.28l-10.8,28H373.86z"/>
			<path class="st2" d="M415.21,97.4c0,7.64-4.08,14.6-12.72,14.6c-7.88,0-12.48-6.36-12.48-14.4c0-7.92,4.44-14.4,12.76-14.4
				C410.45,83.2,415.21,89.24,415.21,97.4z M392.34,97.48c0,6.44,3.56,12.52,10.28,12.52c7.24,0,10.28-5.92,10.28-12.56
				c0-6.52-3.44-12.24-10.2-12.24C395.5,85.2,392.34,91.16,392.34,97.48z"/>
			<path class="st2" d="M421.38,83.6h2.16v14.56c2.24-2.16,10.24-9.68,15.24-14.56h2.88l-12.56,11.92l13.28,16.08h-2.68
				l-12.16-14.68l-4,3.52v11.16h-2.16V83.6z"/>
			<path class="st2" d="M446.14,104.08c0.84,3.72,3.32,5.92,7.92,5.92c5.12,0,7.08-2.56,7.08-5.6c0-3.16-1.4-5.12-7.56-6.64
				c-5.92-1.48-8.48-3.4-8.48-7.44c0-3.68,2.68-7.12,8.68-7.12c6.16,0,8.76,3.76,9.12,7.16h-2.24c-0.64-3-2.6-5.16-7-5.16
				c-4.04,0-6.24,1.88-6.24,5c0,3.08,1.84,4.28,7,5.56c7.88,1.96,9.04,5.12,9.04,8.48c0,4.12-3,7.68-9.48,7.68
				c-7,0-9.56-4.08-10.08-7.84H446.14z"/>
			<path class="st2" d="M469.42,111.6v-28h3.2c4.36,6.72,14.6,22.36,16.36,25.4h0.04c-0.24-4.04-0.2-8.16-0.2-12.72V83.6h2.2v28
				h-2.96c-4.16-6.48-14.56-22.76-16.56-25.84h-0.04c0.2,3.68,0.16,7.76,0.16,12.84v13H469.42z"/>
			<path class="st2" d="M515.29,97.84h-14.28v11.76h15.64l-0.32,2h-17.48v-28h17.16v2h-15v10.24h14.28V97.84z"/>
		</g>
	</g>
	<rect x="49.47" y="136.53" class="st3" width="507.16" height="115.29"/>
	<g>
		<g>
			<path class="st4" d="M135.7,191.49l-0.97,6.96h-3.27l3.91-24.04h4.57l4.06,24.04h-3.37l-1.07-6.96H135.7z M139.16,188.52
				c-0.67-4.59-1.23-8.56-1.49-11.09h-0.12c-0.1,1.93-0.88,7.19-1.43,11.09H139.16z"/>
			<path class="st4" d="M145.94,198.44v-25.1h3.22v25.1H145.94z"/>
			<path class="st4" d="M152.38,198.44v-25.1h3.22v25.1H152.38z"/>
			<path class="st4" d="M161.46,189.98v2.85c0,1.6,0.35,3.16,1.92,3.16c1.59,0,1.83-1.36,1.83-2.87V193h3.15v0.1
				c0,2.03-0.45,5.62-4.92,5.62c-4.36,0-5.12-2.76-5.12-6.51v-6.41c0-2.65,0.87-6.16,5.13-6.16c3.79,0,4.98,2.66,4.98,6.15
				c0,1.05,0,3.12,0,4.18H161.46z M165.32,187.42v-2.07c0-1.72-0.35-2.96-1.89-2.96c-1.42,0-1.95,1.09-1.95,2.97v2.06H165.32z"/>
			<path class="st4" d="M177.78,179.94c0.58,3.42,1.88,11.06,2.33,14.89h0.04c0.32-3.62,1.86-11.26,2.44-14.89h3.24l-3.96,18.5
				h-3.65l-3.87-18.5H177.78z"/>
			<path class="st4" d="M197.42,185.44v7.37c0,3.98-1.94,5.92-5.21,5.92c-3.35,0-5.13-1.95-5.13-5.86v-7.54
				c0-3.82,2.11-5.67,5.24-5.67C195.57,179.65,197.42,181.7,197.42,185.44z M190.31,185.29v7.69c0,1.71,0.55,2.89,1.96,2.89
				c1.32,0,1.92-0.94,1.92-2.94v-7.67c0-1.59-0.47-2.74-1.93-2.74C190.9,182.52,190.31,183.49,190.31,185.29z"/>
			<path class="st4" d="M203.32,188.2h0.06c0.85-2.06,2.63-5.97,3.62-8.26h3.4l-3.44,6.82l3.82,11.68h-3.52l-2.53-8.55l-1.41,2.73
				v5.82h-3.2v-25.1h3.2V188.2z"/>
			<path class="st4" d="M214.13,192.77v0.83c0,1.41,0.49,2.39,1.72,2.39c1.17,0,1.65-0.72,1.65-2.15c0-1.44-0.42-2.28-2.6-3.7
				c-2.52-1.63-3.71-2.96-3.71-5.57c0-2.96,1.53-4.91,4.67-4.91c3.41,0,4.64,1.99,4.64,5.13v0.78h-3.12v-1.09
				c0-1.41-0.44-2.09-1.51-2.09c-1.04,0-1.46,0.74-1.46,1.91c0,1.2,0.39,1.74,2.14,2.88c3.02,1.94,4.22,3.24,4.22,6.28
				c0,3.46-1.67,5.27-5.02,5.27c-3.94,0-4.88-2.53-4.88-5.13v-0.83H214.13z"/>
			<path class="st4" d="M223.16,185.62c0-3.74,0-4.81-0.04-5.68h3.08c0.06,0.42,0.12,1.11,0.12,1.75c0.54-1.19,1.58-2.04,3.4-2.04
				c2.16,0,3.74,1.28,3.74,4.73v14.06h-3.22V185c0-1.72-0.59-2.44-1.74-2.44c-1.41,0-2.12,0.73-2.12,3.65v12.23h-3.22V185.62z"/>
			<path class="st4" d="M239.33,189.98v2.85c0,1.6,0.35,3.16,1.92,3.16c1.59,0,1.83-1.36,1.83-2.87V193h3.15v0.1
				c0,2.03-0.45,5.62-4.92,5.62c-4.36,0-5.12-2.76-5.12-6.51v-6.41c0-2.65,0.87-6.16,5.13-6.16c3.79,0,4.98,2.66,4.98,6.15
				c0,1.05,0,3.12,0,4.18H239.33z M243.19,187.42v-2.07c0-1.72-0.35-2.96-1.89-2.96c-1.42,0-1.95,1.09-1.95,2.97v2.06H243.19z"/>
			<path class="st4" d="M253.65,173.34h3.22v8.22c0.57-1.17,1.67-1.91,3.29-1.91c2.71,0,3.83,2.22,3.83,5.5v6.7
				c0,4.04-0.75,6.86-4.27,6.86c-1.77,0-2.62-0.88-3.06-1.96c-0.02,0.72-0.05,1.18-0.12,1.7h-2.93c0.06-1.17,0.04-2.82,0.04-4.82
				V173.34z M260.76,192.44v-6.78c0-1.9-0.37-3.09-1.79-3.09c-1.74,0-2.1,1.52-2.1,3.82v5.95c0,2.37,0.58,3.47,2,3.47
				C260.1,195.8,260.76,194.76,260.76,192.44z"/>
			<path class="st4" d="M276.51,185.67v7.02c0,4.09-1.99,6.04-5.21,6.04c-3.3,0-5.13-2.1-5.13-5.99v-7.24
				c0-3.82,2.14-5.85,5.26-5.85C274.86,179.65,276.51,181.85,276.51,185.67z M268.01,198.53h-1.41l7.89-18.67h1.42L268.01,198.53z
				 M269.32,185.33v7.53c0,1.98,0.63,3.08,2.04,3.08c1.34,0,2-1.02,2-3.13v-7.5c0-1.65-0.54-2.89-2.02-2.89
				C270.04,182.41,269.32,183.59,269.32,185.33z"/>
			<path class="st4" d="M279.21,186.22c0-3.03,0.03-4.5-0.04-6.28h3.06c0.04,0.41,0.1,1.85,0.1,2.95c0.71-2.41,2.33-3.2,4-3.22v3.98
				c-2.18,0.01-3.9,0.87-3.9,4.48v10.31h-3.22V186.22z"/>
			<path class="st4" d="M294.92,179.94c0.58,3.42,1.88,11.06,2.33,14.89h0.04c0.32-3.62,1.86-11.26,2.44-14.89h3.24l-3.96,18.5
				h-3.65l-3.87-18.5H294.92z"/>
			<path class="st4" d="M313.82,189.94v2.79c0,1.99,0.42,3.24,1.86,3.24c1.44,0,1.69-1.33,1.72-2.91l0.03-0.29h3.25v0.18
				c0,2.87-0.74,5.79-4.88,5.79c-2.19,0-3.24-0.68-3.96-1.97c-0.6,0.96-1.44,1.97-3.71,1.97c-3.03,0-4.1-2.65-4.1-5.42v-0.14
				c0-4.21,2.65-5.68,5.88-5.68h0.9v-2.82c0-1.37-0.23-2.35-1.58-2.35c-1.33,0-1.51,1.19-1.51,2.33v0.66h-3.16v-0.28
				c0-2.87,0.74-5.37,4.67-5.37c1.52,0,2.92,0.4,3.5,1.48c0.63-0.85,1.67-1.48,3.42-1.48c3.5,0,4.59,2.65,4.59,5.77
				c0,0.88,0,3.38,0,4.52H313.82z M310.85,189.94h-0.89c-1.75,0-2.86,0.77-2.86,3.11v0.13c0,1.6,0.57,2.71,1.84,2.71
				c1.37,0,1.91-1.26,1.91-4.1V189.94z M317.52,187.48v-2.5c0-1.78-0.46-2.67-1.78-2.67c-1.45,0-1.91,1.12-1.91,2.83v2.34H317.52z"
				/>
			<path class="st4" d="M323.31,186.22c0-3.03,0.03-4.5-0.04-6.28h3.06c0.04,0.41,0.1,1.85,0.1,2.95c0.71-2.41,2.33-3.2,4-3.22v3.98
				c-2.18,0.01-3.9,0.87-3.9,4.48v10.31h-3.22V186.22z"/>
			<path class="st4" d="M334.87,189.98v2.85c0,1.6,0.34,3.16,1.92,3.16c1.59,0,1.83-1.36,1.83-2.87V193h3.15v0.1
				c0,2.03-0.45,5.62-4.92,5.62c-4.36,0-5.12-2.76-5.12-6.51v-6.41c0-2.65,0.87-6.16,5.13-6.16c3.79,0,4.98,2.66,4.98,6.15
				c0,1.05,0,3.12,0,4.18H334.87z M338.73,187.42v-2.07c0-1.72-0.35-2.96-1.89-2.96c-1.42,0-1.95,1.09-1.95,2.97v2.06H338.73z"/>
			<path class="st4" d="M349.51,198.44v-15.66h-1.88v-2.84h1.88v-2.15c0-2.43,0.96-4.62,4.16-4.62c0.5,0,1.02,0.04,1.34,0.13v2.9
				c-0.3-0.05-0.49-0.06-0.75-0.06c-1.24,0-1.53,0.74-1.53,2.03v1.76h2.3v2.84h-2.3v15.66H349.51z"/>
			<path class="st4" d="M358.65,179.94c1.09,6.34,2.11,12.3,2.27,14.59H361c0.35-3.1,1.29-7.73,2.44-14.59h3.24l-4.14,19.43
				c-1.13,5.25-2.91,5.54-4.98,5.54c-0.57,0-1.12-0.07-1.57-0.14l0.05-2.9c0.08,0.02,0.66,0.09,1.06,0.09
				c1.23,0,1.83-0.48,2.23-2.81l-4.14-19.22H358.65z"/>
			<path class="st4" d="M370.65,192.77v0.83c0,1.41,0.48,2.39,1.72,2.39c1.17,0,1.65-0.72,1.65-2.15c0-1.44-0.42-2.28-2.6-3.7
				c-2.52-1.63-3.71-2.96-3.71-5.57c0-2.96,1.53-4.91,4.67-4.91c3.41,0,4.64,1.99,4.64,5.13v0.78h-3.12v-1.09
				c0-1.41-0.44-2.09-1.51-2.09c-1.04,0-1.46,0.74-1.46,1.91c0,1.2,0.39,1.74,2.14,2.88c3.02,1.94,4.22,3.24,4.22,6.28
				c0,3.46-1.67,5.27-5.02,5.27c-3.94,0-4.88-2.53-4.88-5.13v-0.83H370.65z"/>
			<path class="st4" d="M379.68,179.94h3.22v18.5h-3.22V179.94z M379.71,173.34h3.22v3.86h-3.22V173.34z"/>
			<path class="st4" d="M388.4,192.77v0.83c0,1.41,0.48,2.39,1.72,2.39c1.17,0,1.65-0.72,1.65-2.15c0-1.44-0.42-2.28-2.6-3.7
				c-2.52-1.63-3.71-2.96-3.71-5.57c0-2.96,1.53-4.91,4.67-4.91c3.41,0,4.64,1.99,4.64,5.13v0.78h-3.12v-1.09
				c0-1.41-0.44-2.09-1.51-2.09c-1.04,0-1.46,0.74-1.46,1.91c0,1.2,0.39,1.74,2.14,2.88c3.02,1.94,4.22,3.24,4.22,6.28
				c0,3.46-1.67,5.27-5.02,5.27c-3.94,0-4.88-2.53-4.88-5.13v-0.83H388.4z"/>
			<path class="st4" d="M400.63,188.2h0.06c0.85-2.06,2.63-5.97,3.62-8.26h3.4l-3.44,6.82l3.82,11.68h-3.52l-2.53-8.55l-1.41,2.73
				v5.82h-3.2v-25.1h3.2V188.2z"/>
			<path class="st4" d="M423.25,194.9c0,1.21,0.01,2.91,0.07,3.54h-2.96c-0.08-0.39-0.19-1.13-0.22-1.42
				c-0.62,1.23-1.67,1.71-3.04,1.71c-2.74,0-3.83-2.49-3.83-5.31v-0.32c0-4.4,2.87-5.73,6.19-5.73c0.17,0,0.36,0,0.58,0v-2.6
				c0-1.54-0.22-2.46-1.48-2.46c-1.23,0-1.55,0.95-1.55,2.23v0.38h-3.17v-0.33c0-2.64,1.02-4.94,4.83-4.94
				c3.43,0,4.58,1.99,4.58,4.87V194.9z M420.11,189.85c-0.19,0-0.58,0-0.73,0c-1.85,0-3.02,0.74-3.02,3.2v0.3
				c0,1.45,0.49,2.55,1.76,2.55c1.43,0,1.99-1.06,1.99-3.67V189.85z"/>
			<path class="st4" d="M429.72,188.2h0.06c0.85-2.06,2.63-5.97,3.62-8.26h3.4l-3.44,6.82l3.82,11.68h-3.52l-2.53-8.55l-1.41,2.73
				v5.82h-3.2v-25.1h3.2V188.2z"/>
			<path class="st4" d="M436.59,179.94h2.03v-4.48h3.21v4.48h2.44v2.84h-2.44v11.56c0,0.91,0.14,1.69,1.28,1.69
				c0.33,0,0.85-0.04,1.07-0.11v2.45c-0.59,0.27-1.48,0.33-2.15,0.33c-2.1,0-3.41-0.75-3.41-3.79v-12.14h-2.03V179.94z"/>
			<path class="st4" d="M446.1,179.94h3.22v18.5h-3.22V179.94z M446.12,173.34h3.22v3.86h-3.22V173.34z"/>
			<path class="st4" d="M454.58,179.94c0.58,3.42,1.88,11.06,2.33,14.89h0.04c0.32-3.62,1.86-11.26,2.44-14.89h3.24l-3.96,18.5H455
				l-3.87-18.5H454.58z"/>
			<path class="st4" d="M467.02,189.98v2.85c0,1.6,0.34,3.16,1.92,3.16c1.59,0,1.83-1.36,1.83-2.87V193h3.15v0.1
				c0,2.03-0.45,5.62-4.92,5.62c-4.36,0-5.12-2.76-5.12-6.51v-6.41c0-2.65,0.87-6.16,5.13-6.16c3.79,0,4.98,2.66,4.98,6.15
				c0,1.05,0,3.12,0,4.18H467.02z M470.88,187.42v-2.07c0-1.72-0.35-2.96-1.89-2.96c-1.42,0-1.95,1.09-1.95,2.97v2.06H470.88z"/>
		</g>
	</g>
	<rect x="38.45" y="269.53" class="st1" width="518.38" height="115.29"/>
	<g>
		<g>
			<path class="st2" d="M62.47,336.83c0-0.77,0-1.62-0.02-2.32h0.88c0.02,0.31,0.05,1.08,0.04,1.6c0.38-0.9,1.21-1.82,2.7-1.82
				c1.26,0,2.25,0.63,2.61,1.78c0.45-0.94,1.35-1.78,2.93-1.78c1.39,0,2.83,0.79,2.83,3.29v5.92h-0.9v-5.82
				c0-1.21-0.43-2.52-2.11-2.52c-1.75,0-2.54,1.4-2.54,3.15v5.19h-0.88v-5.8c0-1.31-0.4-2.54-2.05-2.54c-1.75,0-2.59,1.55-2.59,3.38
				v4.95h-0.9V336.83z"/>
			<path class="st2" d="M77.39,330.24h0.9v1.75h-0.9V330.24z M77.39,334.5h0.9v9h-0.9V334.5z"/>
			<path class="st2" d="M81.25,336.77c0-0.79,0-1.55-0.02-2.27h0.88c0.04,0.29,0.05,1.46,0.04,1.71c0.4-0.92,1.13-1.93,2.99-1.93
				c1.6,0,3.02,0.9,3.02,3.38v5.83h-0.9v-5.69c0-1.6-0.67-2.65-2.23-2.65c-2.14,0-2.88,1.78-2.88,3.75v4.59h-0.9V336.77z"/>
			<path class="st2" d="M97.84,340.88c0,0.88,0.02,2.29,0.02,2.63H97c-0.04-0.23-0.05-0.83-0.05-1.57c-0.38,1.06-1.3,1.78-2.9,1.78
				c-1.3,0-2.95-0.5-2.95-3.26v-5.96h0.88v5.74c0,1.31,0.41,2.59,2.2,2.59c2.02,0,2.77-1.13,2.77-3.71v-4.63h0.9V340.88z"/>
			<path class="st2" d="M99.44,334.5h1.67v-2.81h0.9v2.81h2.14v0.85h-2.14v5.85c0,1.01,0.22,1.58,1.08,1.58
				c0.27,0,0.65-0.02,0.94-0.11v0.79c-0.31,0.13-0.74,0.16-1.12,0.16c-1.15,0-1.8-0.58-1.8-2.02v-6.27h-1.67V334.5z"/>
			<path class="st2" d="M104.64,334.5h1.67v-2.81h0.9v2.81h2.14v0.85h-2.14v5.85c0,1.01,0.22,1.58,1.08,1.58
				c0.27,0,0.65-0.02,0.94-0.11v0.79c-0.31,0.13-0.74,0.16-1.12,0.16c-1.15,0-1.8-0.58-1.8-2.02v-6.27h-1.67V334.5z"/>
			<path class="st2" d="M111.39,339.11c0.02,2.32,1.19,3.76,2.92,3.76c1.69,0,2.27-0.95,2.59-1.69h0.92
				c-0.38,1.19-1.33,2.54-3.55,2.54c-2.74,0-3.8-2.36-3.8-4.65c0-2.57,1.28-4.79,3.91-4.79c2.77,0,3.65,2.39,3.65,4.09
				c0,0.25,0,0.5-0.02,0.74H111.39z M117.1,338.32c-0.02-1.78-0.99-3.19-2.75-3.19c-1.85,0-2.7,1.3-2.9,3.19H117.1z"/>
			<path class="st2" d="M120.23,336.95c0-1.51-0.02-2.16-0.02-2.45h0.88c0.02,0.29,0.04,0.86,0.04,2.02
				c0.52-1.35,1.67-2.16,3.13-2.23v0.97c-1.87,0.13-3.13,1.42-3.13,3.56v4.68h-0.9V336.95z"/>
			<path class="st2" d="M130.74,330.24h0.9v1.75h-0.9V330.24z M130.74,334.5h0.9v9h-0.9V334.5z"/>
			<path class="st2" d="M146.01,340.88c0,0.88,0.02,2.29,0.02,2.63h-0.86c-0.04-0.23-0.05-0.83-0.05-1.57
				c-0.38,1.06-1.3,1.78-2.9,1.78c-1.3,0-2.95-0.5-2.95-3.26v-5.96h0.88v5.74c0,1.31,0.41,2.59,2.2,2.59c2.02,0,2.77-1.13,2.77-3.71
				v-4.63h0.9V340.88z"/>
			<path class="st2" d="M149.86,339.15c0.83-0.88,3.35-3.44,4.56-4.65h1.15l-3.56,3.58l4.02,5.42h-1.12l-3.55-4.84l-1.49,1.44v3.4
				h-0.9v-13.27h0.9V339.15z"/>
			<path class="st2" d="M157.6,339.11c0.02,2.32,1.19,3.76,2.92,3.76c1.69,0,2.27-0.95,2.59-1.69h0.92
				c-0.38,1.19-1.33,2.54-3.55,2.54c-2.74,0-3.8-2.36-3.8-4.65c0-2.57,1.28-4.79,3.91-4.79c2.77,0,3.65,2.39,3.65,4.09
				c0,0.25,0,0.5-0.02,0.74H157.6z M163.31,338.32c-0.02-1.78-0.99-3.19-2.75-3.19c-1.85,0-2.7,1.3-2.9,3.19H163.31z"/>
			<path class="st2" d="M166.44,336.77c0-0.79,0-1.55-0.02-2.27h0.88c0.04,0.29,0.05,1.46,0.04,1.71c0.4-0.92,1.13-1.93,2.99-1.93
				c1.6,0,3.02,0.9,3.02,3.38v5.83h-0.9v-5.69c0-1.6-0.67-2.65-2.23-2.65c-2.14,0-2.88,1.78-2.88,3.75v4.59h-0.9V336.77z"/>
			<path class="st2" d="M180.98,336.83c0-0.77,0-1.62-0.02-2.32h0.88c0.02,0.31,0.05,1.08,0.04,1.6c0.38-0.9,1.21-1.82,2.7-1.82
				c1.26,0,2.25,0.63,2.61,1.78c0.45-0.94,1.35-1.78,2.93-1.78c1.39,0,2.83,0.79,2.83,3.29v5.92h-0.9v-5.82
				c0-1.21-0.43-2.52-2.11-2.52c-1.75,0-2.54,1.4-2.54,3.15v5.19h-0.88v-5.8c0-1.31-0.4-2.54-2.05-2.54c-1.75,0-2.59,1.55-2.59,3.38
				v4.95h-0.9V336.83z"/>
			<path class="st2" d="M196.1,339.11c0.02,2.32,1.19,3.76,2.92,3.76c1.69,0,2.27-0.95,2.59-1.69h0.92
				c-0.38,1.19-1.33,2.54-3.55,2.54c-2.74,0-3.8-2.36-3.8-4.65c0-2.57,1.28-4.79,3.91-4.79c2.77,0,3.65,2.39,3.65,4.09
				c0,0.25,0,0.5-0.02,0.74H196.1z M201.81,338.32c-0.02-1.78-0.99-3.19-2.75-3.19c-1.85,0-2.7,1.3-2.9,3.19H201.81z"/>
			<path class="st2" d="M211.89,330.24v10.68c0,0.86,0,1.69,0.02,2.59h-0.86c-0.04-0.22-0.05-1.06-0.05-1.51
				c-0.45,1.1-1.46,1.73-3.02,1.73c-2.34,0-3.75-1.91-3.75-4.61c0-2.77,1.53-4.83,3.98-4.83c1.8,0,2.52,0.77,2.79,1.35v-5.4H211.89z
				 M205.17,339.08c0,2.47,1.28,3.8,2.83,3.8c2.38,0,3.02-1.64,3.02-4.09c0-2.32-0.56-3.66-2.86-3.66
				C206.38,335.13,205.17,336.56,205.17,339.08z"/>
			<path class="st2" d="M219.52,336.83c0-0.77,0-1.62-0.02-2.32h0.88c0.02,0.31,0.05,1.08,0.04,1.6c0.38-0.9,1.21-1.82,2.7-1.82
				c1.26,0,2.25,0.63,2.61,1.78c0.45-0.94,1.35-1.78,2.93-1.78c1.39,0,2.83,0.79,2.83,3.29v5.92h-0.9v-5.82
				c0-1.21-0.43-2.52-2.11-2.52c-1.75,0-2.54,1.4-2.54,3.15v5.19h-0.88v-5.8c0-1.31-0.4-2.54-2.05-2.54c-1.75,0-2.59,1.55-2.59,3.38
				v4.95h-0.9V336.83z"/>
			<path class="st2" d="M241.73,338.99c0,2.5-1.39,4.74-4.07,4.74c-2.43,0-3.94-2-3.94-4.72c0-2.57,1.42-4.72,4.03-4.72
				C240.15,334.29,241.73,336.16,241.73,338.99z M234.67,339.01c0,2.14,1.15,3.87,3.06,3.87c1.94,0,3.04-1.6,3.04-3.87
				c0-2.12-1.08-3.87-3.08-3.87C235.65,335.13,234.67,336.85,234.67,339.01z"/>
			<path class="st2" d="M244.16,339.11c0.02,2.32,1.19,3.76,2.92,3.76c1.69,0,2.27-0.95,2.59-1.69h0.92
				c-0.38,1.19-1.33,2.54-3.55,2.54c-2.74,0-3.8-2.36-3.8-4.65c0-2.57,1.28-4.79,3.91-4.79c2.77,0,3.65,2.39,3.65,4.09
				c0,0.25,0,0.5-0.02,0.74H244.16z M249.87,338.32c-0.02-1.78-0.99-3.19-2.75-3.19c-1.85,0-2.7,1.3-2.9,3.19H249.87z"/>
			<path class="st2" d="M259.95,330.24v10.68c0,0.86,0,1.69,0.02,2.59h-0.86c-0.04-0.22-0.05-1.06-0.05-1.51
				c-0.45,1.1-1.46,1.73-3.02,1.73c-2.34,0-3.75-1.91-3.75-4.61c0-2.77,1.53-4.83,3.98-4.83c1.8,0,2.52,0.77,2.79,1.35v-5.4H259.95z
				 M253.23,339.08c0,2.47,1.28,3.8,2.83,3.8c2.38,0,3.02-1.64,3.02-4.09c0-2.32-0.56-3.66-2.86-3.66
				C254.44,335.13,253.23,336.56,253.23,339.08z"/>
			<path class="st2" d="M262.9,336.95c0-1.51-0.02-2.16-0.02-2.45h0.88c0.02,0.29,0.04,0.86,0.04,2.02
				c0.52-1.35,1.67-2.16,3.13-2.23v0.97c-1.87,0.13-3.13,1.42-3.13,3.56v4.68h-0.9V336.95z"/>
			<path class="st2" d="M274.91,341.8c0,0.79,0.07,1.42,0.13,1.71h-0.86c-0.07-0.22-0.13-0.61-0.16-1.39
				c-0.31,0.67-1.1,1.6-2.95,1.6c-2.09,0-2.99-1.35-2.99-2.7c0-1.98,1.53-2.88,4.23-2.88c0.76,0,1.35,0,1.71,0v-0.92
				c0-0.9-0.27-2.11-2.32-2.11c-1.82,0-2.09,0.95-2.29,1.69h-0.9c0.11-0.99,0.72-2.52,3.21-2.52c2.05,0,3.21,0.86,3.21,2.84V341.8z
				 M274.02,338.92c-0.34,0-1.17,0-1.76,0c-2,0-3.24,0.52-3.24,2.07c0,1.13,0.81,1.91,2.07,1.91c2.58,0,2.94-1.71,2.94-3.65V338.92z
				"/>
			<path class="st2" d="M276.52,334.5h1.67v-2.81h0.9v2.81h2.14v0.85h-2.14v5.85c0,1.01,0.22,1.58,1.08,1.58
				c0.27,0,0.65-0.02,0.94-0.11v0.79c-0.31,0.13-0.74,0.16-1.12,0.16c-1.15,0-1.8-0.58-1.8-2.02v-6.27h-1.67V334.5z"/>
			<path class="st2" d="M121.08,365.11v-8.16h-1.55v-0.85h1.55v-1.28c0-1.51,0.43-3.17,2.45-3.17c0.27,0,0.67,0.05,0.88,0.13v0.86
				c-0.27-0.07-0.7-0.11-0.97-0.11c-1.06,0-1.46,0.76-1.46,2.32v1.24h1.96v0.85h-1.96v8.16H121.08z"/>
			<path class="st2" d="M125.13,356.1c1.82,5.15,2.61,7.27,2.92,8.25h0.02c0.36-1.1,1.08-3.19,2.83-8.25h0.94l-3.39,9.52
				c-0.95,2.67-1.6,3.26-3.22,3.26c-0.32,0-0.54-0.02-0.83-0.05v-0.9c0.27,0.04,0.52,0.05,0.81,0.05c1.3,0,1.71-0.63,2.38-2.48
				l-3.44-9.4H125.13z"/>
			<path class="st2" d="M133.55,362.62c0.31,1.17,1.13,1.87,2.56,1.87c1.6,0,2.25-0.74,2.25-1.75c0-1.03-0.43-1.53-2.45-2.02
				c-2.32-0.56-2.9-1.26-2.9-2.45c0-1.24,0.94-2.39,2.97-2.39s3.01,1.24,3.15,2.52h-0.9c-0.16-0.76-0.76-1.69-2.29-1.69
				c-1.57,0-2.02,0.77-2.02,1.49c0,0.83,0.43,1.24,2.21,1.67c2.54,0.61,3.17,1.44,3.17,2.79c0,1.64-1.33,2.65-3.22,2.65
				c-2.05,0-3.21-1.08-3.46-2.7H133.55z"/>
			<path class="st2" d="M141.55,351.84h0.9v1.75h-0.9V351.84z M141.55,356.1h0.9v9h-0.9V356.1z"/>
			<path class="st2" d="M145.4,362.62c0.31,1.17,1.13,1.87,2.56,1.87c1.6,0,2.25-0.74,2.25-1.75c0-1.03-0.43-1.53-2.45-2.02
				c-2.32-0.56-2.9-1.26-2.9-2.45c0-1.24,0.94-2.39,2.97-2.39s3.01,1.24,3.15,2.52h-0.9c-0.16-0.76-0.76-1.69-2.29-1.69
				c-1.57,0-2.02,0.77-2.02,1.49c0,0.83,0.43,1.24,2.21,1.67c2.54,0.61,3.17,1.44,3.17,2.79c0,1.64-1.33,2.65-3.22,2.65
				c-2.05,0-3.21-1.08-3.46-2.7H145.4z"/>
			<path class="st2" d="M154.29,360.75c0.83-0.88,3.35-3.44,4.56-4.65H160l-3.56,3.58l4.02,5.42h-1.12l-3.55-4.84l-1.49,1.44v3.4
				h-0.9v-13.27h0.9V360.75z"/>
			<path class="st2" d="M172.69,363.4c0,0.79,0.07,1.42,0.13,1.71h-0.86c-0.07-0.22-0.13-0.61-0.16-1.39
				c-0.31,0.67-1.1,1.6-2.95,1.6c-2.09,0-2.99-1.35-2.99-2.7c0-1.98,1.53-2.88,4.23-2.88c0.76,0,1.35,0,1.71,0v-0.92
				c0-0.9-0.27-2.11-2.32-2.11c-1.82,0-2.09,0.95-2.29,1.69h-0.9c0.11-0.99,0.72-2.52,3.21-2.52c2.05,0,3.21,0.86,3.21,2.84V363.4z
				 M171.8,360.52c-0.34,0-1.17,0-1.76,0c-2,0-3.24,0.52-3.24,2.07c0,1.13,0.81,1.91,2.07,1.91c2.58,0,2.94-1.71,2.94-3.65V360.52z"
				/>
			<path class="st2" d="M176.55,360.75c0.83-0.88,3.35-3.44,4.56-4.65h1.15l-3.56,3.58l4.02,5.42h-1.12l-3.55-4.84l-1.49,1.44v3.4
				h-0.9v-13.27h0.9V360.75z"/>
			<path class="st2" d="M182.75,356.1h1.67v-2.81h0.9v2.81h2.14v0.85h-2.14v5.85c0,1.01,0.22,1.58,1.08,1.58
				c0.27,0,0.65-0.02,0.94-0.11v0.79c-0.31,0.13-0.74,0.16-1.12,0.16c-1.15,0-1.8-0.58-1.8-2.02v-6.27h-1.67V356.1z"/>
			<path class="st2" d="M189.3,351.84h0.9v1.75h-0.9V351.84z M189.3,356.1h0.9v9h-0.9V356.1z"/>
			<path class="st2" d="M192.92,356.1c1.46,4.12,2.47,6.93,2.81,8.08h0.02c0.2-0.67,1.21-3.35,2.95-8.08h0.95l-3.4,9h-1.08l-3.21-9
				H192.92z"/>
			<path class="st2" d="M201.41,351.84h0.9v1.75h-0.9V351.84z M201.41,356.1h0.9v9h-0.9V356.1z"/>
			<path class="st2" d="M203.91,356.1h1.67v-2.81h0.9v2.81h2.14v0.85h-2.14v5.85c0,1.01,0.22,1.58,1.08,1.58
				c0.27,0,0.65-0.02,0.94-0.11v0.79c-0.31,0.13-0.74,0.16-1.12,0.16c-1.15,0-1.8-0.58-1.8-2.02v-6.27h-1.67V356.1z"/>
			<path class="st2" d="M210.66,360.71c0.02,2.32,1.19,3.76,2.92,3.76c1.69,0,2.27-0.95,2.59-1.69h0.92
				c-0.38,1.19-1.33,2.54-3.55,2.54c-2.74,0-3.8-2.36-3.8-4.65c0-2.57,1.28-4.79,3.91-4.79c2.77,0,3.65,2.39,3.65,4.09
				c0,0.25,0,0.5-0.02,0.74H210.66z M216.37,359.92c-0.02-1.78-0.99-3.19-2.75-3.19c-1.85,0-2.7,1.3-2.9,3.19H216.37z"/>
			<path class="st2" d="M218.15,356.1h1.67v-2.81h0.9v2.81h2.14v0.85h-2.14v5.85c0,1.01,0.22,1.58,1.08,1.58
				c0.27,0,0.65-0.02,0.94-0.11v0.79c-0.31,0.13-0.74,0.16-1.12,0.16c-1.15,0-1.8-0.58-1.8-2.02v-6.27h-1.67V356.1z"/>
		</g>
	</g>
	<g>
		<g>
			<g>
				<path class="st2" d="M340.39,336.14c0-0.77,0-1.62-0.02-2.32h0.88c0.02,0.31,0.05,1.08,0.04,1.6c0.38-0.9,1.21-1.82,2.7-1.82
					c1.26,0,2.25,0.63,2.61,1.78c0.45-0.94,1.35-1.78,2.93-1.78c1.39,0,2.83,0.79,2.83,3.29v5.92h-0.9v-5.82
					c0-1.21-0.43-2.52-2.11-2.52c-1.75,0-2.54,1.4-2.54,3.15v5.19h-0.88v-5.8c0-1.31-0.4-2.54-2.05-2.54
					c-1.75,0-2.59,1.55-2.59,3.38v4.95h-0.9V336.14z"/>
				<path class="st2" d="M355.31,329.55h0.9v1.75h-0.9V329.55z M355.31,333.82h0.9v9h-0.9V333.82z"/>
				<path class="st2" d="M359.16,336.09c0-0.79,0-1.55-0.02-2.27h0.88c0.04,0.29,0.05,1.46,0.04,1.71c0.4-0.92,1.13-1.93,2.99-1.93
					c1.6,0,3.02,0.9,3.02,3.38v5.83h-0.9v-5.69c0-1.6-0.67-2.65-2.23-2.65c-2.14,0-2.88,1.78-2.88,3.75v4.59h-0.9V336.09z"/>
				<path class="st2" d="M375.76,340.2c0,0.88,0.02,2.29,0.02,2.63h-0.86c-0.04-0.23-0.05-0.83-0.05-1.57
					c-0.38,1.06-1.3,1.78-2.9,1.78c-1.3,0-2.95-0.5-2.95-3.26v-5.96h0.88v5.74c0,1.31,0.41,2.59,2.2,2.59
					c2.02,0,2.77-1.13,2.77-3.71v-4.63h0.9V340.2z"/>
				<path class="st2" d="M377.36,333.82h1.67v-2.81h0.9v2.81h2.14v0.85h-2.14v5.85c0,1.01,0.22,1.58,1.08,1.58
					c0.27,0,0.65-0.02,0.94-0.11v0.79c-0.31,0.13-0.74,0.16-1.12,0.16c-1.15,0-1.8-0.58-1.8-2.02v-6.27h-1.67V333.82z"/>
				<path class="st2" d="M382.56,333.82h1.67v-2.81h0.9v2.81h2.14v0.85h-2.14v5.85c0,1.01,0.22,1.58,1.08,1.58
					c0.27,0,0.65-0.02,0.94-0.11v0.79c-0.31,0.13-0.74,0.16-1.12,0.16c-1.15,0-1.8-0.58-1.8-2.02v-6.27h-1.67V333.82z"/>
				<path class="st2" d="M389.31,338.43c0.02,2.32,1.19,3.76,2.92,3.76c1.69,0,2.27-0.95,2.59-1.69h0.92
					c-0.38,1.19-1.33,2.54-3.55,2.54c-2.74,0-3.8-2.36-3.8-4.65c0-2.57,1.28-4.79,3.91-4.79c2.77,0,3.65,2.39,3.65,4.09
					c0,0.25,0,0.5-0.02,0.74H389.31z M395.02,337.64c-0.02-1.78-0.99-3.19-2.75-3.19c-1.85,0-2.7,1.3-2.9,3.19H395.02z"/>
				<path class="st2" d="M398.15,336.27c0-1.51-0.02-2.16-0.02-2.45h0.88c0.02,0.29,0.04,0.86,0.04,2.02
					c0.52-1.35,1.67-2.16,3.13-2.23v0.97c-1.87,0.13-3.13,1.42-3.13,3.56v4.68h-0.9V336.27z"/>
				<path class="st2" d="M408.66,329.55h0.9v1.75h-0.9V329.55z M408.66,333.82h0.9v9h-0.9V333.82z"/>
				<path class="st2" d="M423.93,340.2c0,0.88,0.02,2.29,0.02,2.63h-0.86c-0.04-0.23-0.05-0.83-0.05-1.57
					c-0.38,1.06-1.3,1.78-2.9,1.78c-1.3,0-2.95-0.5-2.95-3.26v-5.96h0.88v5.74c0,1.31,0.41,2.59,2.2,2.59
					c2.02,0,2.77-1.13,2.77-3.71v-4.63h0.9V340.2z"/>
				<path class="st2" d="M427.78,338.47c0.83-0.88,3.35-3.44,4.56-4.65h1.15l-3.56,3.58l4.01,5.42h-1.12l-3.55-4.84l-1.5,1.44v3.4
					h-0.9v-13.27h0.9V338.47z"/>
				<path class="st2" d="M435.52,338.43c0.02,2.32,1.19,3.76,2.92,3.76c1.69,0,2.27-0.95,2.59-1.69h0.92
					c-0.38,1.19-1.33,2.54-3.55,2.54c-2.74,0-3.8-2.36-3.8-4.65c0-2.57,1.28-4.79,3.91-4.79c2.77,0,3.65,2.39,3.65,4.09
					c0,0.25,0,0.5-0.02,0.74H435.52z M441.23,337.64c-0.02-1.78-0.99-3.19-2.75-3.19c-1.85,0-2.7,1.3-2.9,3.19H441.23z"/>
				<path class="st2" d="M444.36,336.09c0-0.79,0-1.55-0.02-2.27h0.88c0.04,0.29,0.05,1.46,0.04,1.71c0.4-0.92,1.13-1.93,2.99-1.93
					c1.6,0,3.02,0.9,3.02,3.38v5.83h-0.9v-5.69c0-1.6-0.67-2.65-2.23-2.65c-2.14,0-2.88,1.78-2.88,3.75v4.59h-0.9V336.09z"/>
				<path class="st2" d="M458.9,336.14c0-0.77,0-1.62-0.02-2.32h0.88c0.02,0.31,0.05,1.08,0.04,1.6c0.38-0.9,1.21-1.82,2.7-1.82
					c1.26,0,2.25,0.63,2.61,1.78c0.45-0.94,1.35-1.78,2.93-1.78c1.39,0,2.83,0.79,2.83,3.29v5.92h-0.9v-5.82
					c0-1.21-0.43-2.52-2.11-2.52c-1.75,0-2.54,1.4-2.54,3.15v5.19h-0.88v-5.8c0-1.31-0.4-2.54-2.05-2.54
					c-1.75,0-2.59,1.55-2.59,3.38v4.95h-0.9V336.14z"/>
				<path class="st2" d="M474.02,338.43c0.02,2.32,1.19,3.76,2.92,3.76c1.69,0,2.27-0.95,2.59-1.69h0.92
					c-0.38,1.19-1.33,2.54-3.55,2.54c-2.74,0-3.8-2.36-3.8-4.65c0-2.57,1.28-4.79,3.91-4.79c2.77,0,3.66,2.39,3.66,4.09
					c0,0.25,0,0.5-0.02,0.74H474.02z M479.73,337.64c-0.02-1.78-0.99-3.19-2.75-3.19c-1.85,0-2.7,1.3-2.9,3.19H479.73z"/>
				<path class="st2" d="M489.81,329.55v10.68c0,0.86,0,1.69,0.02,2.59h-0.86c-0.04-0.22-0.05-1.06-0.05-1.51
					c-0.45,1.1-1.46,1.73-3.03,1.73c-2.34,0-3.75-1.91-3.75-4.61c0-2.77,1.53-4.83,3.98-4.83c1.8,0,2.52,0.77,2.79,1.35v-5.4H489.81
					z M483.09,338.4c0,2.47,1.28,3.8,2.83,3.8c2.38,0,3.02-1.64,3.02-4.09c0-2.32-0.56-3.66-2.86-3.66
					C484.3,334.45,483.09,335.87,483.09,338.4z"/>
				<path class="st2" d="M498.34,329.55v5.78c0.5-0.94,1.39-1.73,2.97-1.73c1.28,0,3.04,0.65,3.04,3.49v5.73h-0.9v-5.55
					c0-1.78-0.81-2.79-2.3-2.79c-1.78,0-2.81,1.1-2.81,3.31v5.02h-0.9v-13.27H498.34z"/>
				<path class="st2" d="M513.48,341.11c0,0.79,0.07,1.42,0.13,1.71h-0.86c-0.07-0.22-0.13-0.61-0.16-1.39
					c-0.31,0.67-1.1,1.6-2.95,1.6c-2.09,0-2.99-1.35-2.99-2.7c0-1.98,1.53-2.88,4.23-2.88c0.76,0,1.35,0,1.71,0v-0.92
					c0-0.9-0.27-2.11-2.32-2.11c-1.82,0-2.09,0.95-2.29,1.69h-0.9c0.11-0.99,0.72-2.52,3.21-2.52c2.05,0,3.21,0.86,3.21,2.84V341.11
					z M512.59,338.23c-0.34,0-1.17,0-1.76,0c-2,0-3.24,0.52-3.24,2.07c0,1.13,0.81,1.91,2.07,1.91c2.57,0,2.93-1.71,2.93-3.65
					V338.23z"/>
				<path class="st2" d="M516.44,336.27c0-1.51-0.02-2.16-0.02-2.45h0.88c0.02,0.29,0.04,0.86,0.04,2.02
					c0.52-1.35,1.67-2.16,3.13-2.23v0.97c-1.87,0.13-3.13,1.42-3.13,3.56v4.68h-0.9V336.27z"/>
				<path class="st2" d="M529.23,329.55v10.68c0,0.86,0,1.69,0.02,2.59h-0.86c-0.04-0.22-0.05-1.06-0.05-1.51
					c-0.45,1.1-1.46,1.73-3.02,1.73c-2.34,0-3.75-1.91-3.75-4.61c0-2.77,1.53-4.83,3.98-4.83c1.8,0,2.52,0.77,2.79,1.35v-5.4H529.23
					z M522.51,338.4c0,2.47,1.28,3.8,2.83,3.8c2.38,0,3.03-1.64,3.03-4.09c0-2.32-0.56-3.66-2.86-3.66
					C523.72,334.45,522.51,335.87,522.51,338.4z"/>
				<path class="st2" d="M384.59,364.42v-8.16h-1.55v-0.85h1.55v-1.28c0-1.51,0.43-3.17,2.45-3.17c0.27,0,0.67,0.05,0.88,0.13v0.86
					c-0.27-0.07-0.7-0.11-0.97-0.11c-1.06,0-1.46,0.76-1.46,2.32v1.24h1.96v0.85h-1.96v8.16H384.59z"/>
				<path class="st2" d="M388.64,355.42c1.82,5.15,2.61,7.27,2.92,8.25h0.02c0.36-1.1,1.08-3.19,2.83-8.25h0.94l-3.39,9.52
					c-0.95,2.67-1.6,3.26-3.22,3.26c-0.32,0-0.54-0.02-0.83-0.05v-0.9c0.27,0.04,0.52,0.05,0.81,0.05c1.3,0,1.71-0.63,2.38-2.48
					l-3.44-9.4H388.64z"/>
				<path class="st2" d="M397.06,361.94c0.31,1.17,1.13,1.87,2.56,1.87c1.6,0,2.25-0.74,2.25-1.75c0-1.03-0.43-1.53-2.45-2.02
					c-2.32-0.56-2.9-1.26-2.9-2.45c0-1.24,0.94-2.39,2.97-2.39c2.04,0,3.01,1.24,3.15,2.52h-0.9c-0.16-0.76-0.76-1.69-2.29-1.69
					c-1.57,0-2.02,0.77-2.02,1.49c0,0.83,0.43,1.24,2.21,1.67c2.54,0.61,3.17,1.44,3.17,2.79c0,1.64-1.33,2.65-3.22,2.65
					c-2.05,0-3.21-1.08-3.46-2.7H397.06z"/>
				<path class="st2" d="M405.05,351.15h0.9v1.75h-0.9V351.15z M405.05,355.42h0.9v9h-0.9V355.42z"/>
				<path class="st2" d="M408.91,361.94c0.31,1.17,1.13,1.87,2.56,1.87c1.6,0,2.25-0.74,2.25-1.75c0-1.03-0.43-1.53-2.45-2.02
					c-2.32-0.56-2.9-1.26-2.9-2.45c0-1.24,0.94-2.39,2.97-2.39c2.04,0,3.01,1.24,3.15,2.52h-0.9c-0.16-0.76-0.76-1.69-2.29-1.69
					c-1.57,0-2.02,0.77-2.02,1.49c0,0.83,0.43,1.24,2.21,1.67c2.54,0.61,3.17,1.44,3.17,2.79c0,1.64-1.33,2.65-3.22,2.65
					c-2.05,0-3.21-1.08-3.46-2.7H408.91z"/>
				<path class="st2" d="M417.8,360.07c0.83-0.88,3.35-3.44,4.56-4.65h1.15l-3.56,3.58l4.01,5.42h-1.12l-3.55-4.84l-1.5,1.44v3.4
					h-0.9v-13.27h0.9V360.07z"/>
				<path class="st2" d="M436.2,362.71c0,0.79,0.07,1.42,0.13,1.71h-0.86c-0.07-0.22-0.13-0.61-0.16-1.39
					c-0.31,0.67-1.1,1.6-2.95,1.6c-2.09,0-2.99-1.35-2.99-2.7c0-1.98,1.53-2.88,4.23-2.88c0.76,0,1.35,0,1.71,0v-0.92
					c0-0.9-0.27-2.11-2.32-2.11c-1.82,0-2.09,0.95-2.29,1.69h-0.9c0.11-0.99,0.72-2.52,3.21-2.52c2.05,0,3.21,0.86,3.21,2.84V362.71
					z M435.31,359.83c-0.34,0-1.17,0-1.76,0c-2,0-3.24,0.52-3.24,2.07c0,1.13,0.81,1.91,2.07,1.91c2.58,0,2.94-1.71,2.94-3.65
					V359.83z"/>
				<path class="st2" d="M440.06,360.07c0.83-0.88,3.35-3.44,4.56-4.65h1.15l-3.56,3.58l4.01,5.42h-1.12l-3.55-4.84l-1.5,1.44v3.4
					h-0.9v-13.27h0.9V360.07z"/>
				<path class="st2" d="M446.25,355.42h1.67v-2.81h0.9v2.81h2.14v0.85h-2.14v5.85c0,1.01,0.22,1.58,1.08,1.58
					c0.27,0,0.65-0.02,0.94-0.11v0.79c-0.31,0.13-0.74,0.16-1.12,0.16c-1.15,0-1.8-0.58-1.8-2.02v-6.27h-1.67V355.42z"/>
				<path class="st2" d="M452.81,351.15h0.9v1.75h-0.9V351.15z M452.81,355.42h0.9v9h-0.9V355.42z"/>
				<path class="st2" d="M456.42,355.42c1.46,4.12,2.47,6.93,2.81,8.08h0.02c0.2-0.67,1.21-3.35,2.95-8.08h0.95l-3.4,9h-1.08
					l-3.21-9H456.42z"/>
				<path class="st2" d="M464.92,351.15h0.9v1.75h-0.9V351.15z M464.92,355.42h0.9v9h-0.9V355.42z"/>
				<path class="st2" d="M467.42,355.42h1.67v-2.81h0.9v2.81h2.14v0.85H470v5.85c0,1.01,0.22,1.58,1.08,1.58
					c0.27,0,0.65-0.02,0.94-0.11v0.79c-0.31,0.13-0.74,0.16-1.12,0.16c-1.15,0-1.8-0.58-1.8-2.02v-6.27h-1.67V355.42z"/>
				<path class="st2" d="M474.17,360.03c0.02,2.32,1.19,3.76,2.92,3.76c1.69,0,2.27-0.95,2.59-1.69h0.92
					c-0.38,1.19-1.33,2.54-3.55,2.54c-2.74,0-3.8-2.36-3.8-4.65c0-2.57,1.28-4.79,3.91-4.79c2.77,0,3.66,2.39,3.66,4.09
					c0,0.25,0,0.5-0.02,0.74H474.17z M479.88,359.24c-0.02-1.78-0.99-3.19-2.75-3.19c-1.85,0-2.7,1.3-2.9,3.19H479.88z"/>
				<path class="st2" d="M481.66,355.42h1.67v-2.81h0.9v2.81h2.14v0.85h-2.14v5.85c0,1.01,0.22,1.58,1.08,1.58
					c0.27,0,0.65-0.02,0.94-0.11v0.79c-0.31,0.13-0.74,0.16-1.12,0.16c-1.15,0-1.8-0.58-1.8-2.02v-6.27h-1.67V355.42z"/>
			</g>
		</g>
	</g>
	<rect x="49.47" y="402.53" class="st3" width="507.16" height="115.29"/>
	<g>
		<g>
			<path class="st4" d="M71.89,447.78v-0.1c0-2.71,2.31-6.07,6.63-9.44c3.76-2.94,4.72-3.83,4.72-6.57c0-2.38-1.32-4.42-4.46-4.42
				c-2.97,0-4.52,1.42-5.08,4.59h-1.68c0.43-3.63,2.71-6.17,6.77-6.17c4.39,0,6.27,3,6.27,5.91c0,3.37-1.42,4.49-5.45,7.79
				c-3.2,2.61-5.15,4.69-5.81,6.8h12.15l-0.3,1.62H71.89z"/>
			<path class="st4" d="M98.32,443.23c0.56,2.15,2.08,3.43,4.69,3.43c2.94,0,4.13-1.35,4.13-3.2c0-1.88-0.79-2.8-4.49-3.7
				c-4.26-1.02-5.31-2.31-5.31-4.49c0-2.28,1.72-4.39,5.45-4.39s5.51,2.28,5.78,4.62h-1.65c-0.3-1.39-1.39-3.1-4.19-3.1
				c-2.87,0-3.7,1.42-3.7,2.74c0,1.52,0.79,2.28,4.06,3.07c4.65,1.12,5.81,2.64,5.81,5.12c0,3-2.44,4.85-5.91,4.85
				c-3.76,0-5.87-1.98-6.34-4.95H98.32z"/>
			<path class="st4" d="M110.5,431.28h3.07v-5.15h1.65v5.15h3.93v1.55h-3.93v10.73c0,1.85,0.4,2.9,1.98,2.9
				c0.5,0,1.19-0.03,1.72-0.2v1.45c-0.56,0.23-1.35,0.3-2.05,0.3c-2.11,0-3.3-1.06-3.3-3.7v-11.49h-3.07V431.28z"/>
			<path class="st4" d="M122.08,431.28c3.33,9.44,4.79,13.33,5.35,15.12h0.03c0.66-2.01,1.98-5.84,5.18-15.12h1.72l-6.21,17.46
				c-1.75,4.88-2.94,5.97-5.91,5.97c-0.59,0-0.99-0.03-1.52-0.1v-1.65c0.5,0.07,0.96,0.1,1.48,0.1c2.38,0,3.14-1.16,4.36-4.55
				l-6.3-17.23H122.08z"/>
			<path class="st4" d="M137.53,435.77c0-2.77-0.03-3.96-0.03-4.49h1.62c0.03,0.53,0.07,1.58,0.07,3.7
				c0.96-2.48,3.07-3.96,5.74-4.09v1.78c-3.43,0.23-5.74,2.61-5.74,6.54v8.58h-1.65V435.77z"/>
			<path class="st4" d="M149.87,439.79c1.52-1.62,6.14-6.3,8.35-8.52h2.11l-6.54,6.57l7.36,9.93h-2.05l-6.5-8.88l-2.74,2.64v6.24
				h-1.65v-24.33h1.65V439.79z"/>
			<path class="st4" d="M164.06,439.73c0.03,4.26,2.18,6.9,5.35,6.9c3.1,0,4.16-1.75,4.75-3.1h1.68c-0.69,2.18-2.44,4.65-6.5,4.65
				c-5.02,0-6.96-4.32-6.96-8.51c0-4.72,2.34-8.78,7.16-8.78c5.08,0,6.7,4.39,6.7,7.49c0,0.46,0,0.92-0.03,1.35H164.06z
				 M174.52,438.27c-0.03-3.27-1.81-5.84-5.05-5.84c-3.4,0-4.95,2.38-5.31,5.84H174.52z"/>
			<path class="st4" d="M193.63,439.5c0,5.25-3,8.71-7.49,8.71c-4.49,0-7.19-3.73-7.19-8.68c0-5.51,3.27-8.65,7.43-8.65
				C190.79,430.88,193.63,434.28,193.63,439.5z M181.19,448.11h-1.72l11.98-17.2h1.72L181.19,448.11z M180.62,439.53
				c0,3.99,2.15,7.16,5.61,7.16c3.56,0,5.68-2.9,5.68-7.16c0-4.19-2.01-7.13-5.68-7.13C182.47,432.4,180.62,435.67,180.62,439.53z"
				/>
			<path class="st4" d="M199.37,439.79c1.52-1.62,6.14-6.3,8.35-8.52h2.11l-6.54,6.57l7.36,9.93h-2.05l-6.5-8.88l-2.74,2.64v6.24
				h-1.65v-24.33h1.65V439.79z"/>
			<path class="st4" d="M210.72,431.28h3.07v-5.15h1.65v5.15h3.93v1.55h-3.93v10.73c0,1.85,0.4,2.9,1.98,2.9
				c0.5,0,1.19-0.03,1.72-0.2v1.45c-0.56,0.23-1.35,0.3-2.05,0.3c-2.11,0-3.3-1.06-3.3-3.7v-11.49h-3.07V431.28z"/>
			<path class="st4" d="M223.09,439.73c0.03,4.26,2.18,6.9,5.35,6.9c3.1,0,4.16-1.75,4.75-3.1h1.68c-0.69,2.18-2.44,4.65-6.5,4.65
				c-5.02,0-6.96-4.32-6.96-8.51c0-4.72,2.34-8.78,7.16-8.78c5.08,0,6.7,4.39,6.7,7.49c0,0.46,0,0.92-0.03,1.35H223.09z
				 M233.56,438.27c-0.03-3.27-1.81-5.84-5.05-5.84c-3.4,0-4.95,2.38-5.31,5.84H233.56z"/>
			<path class="st4" d="M239.3,435.77c0-2.77-0.03-3.96-0.03-4.49h1.62c0.03,0.53,0.07,1.58,0.07,3.7c0.96-2.48,3.07-3.96,5.74-4.09
				v1.78c-3.43,0.23-5.74,2.61-5.74,6.54v8.58h-1.65V435.77z"/>
			<path class="st4" d="M258.57,423.46h1.65v3.2h-1.65V423.46z M258.57,431.28h1.65v16.5h-1.65V431.28z"/>
			<path class="st4" d="M286.55,442.96c0,1.62,0.03,4.19,0.03,4.82H285c-0.07-0.43-0.1-1.52-0.1-2.87
				c-0.69,1.95-2.38,3.27-5.31,3.27c-2.38,0-5.41-0.92-5.41-5.97v-10.92h1.62v10.53c0,2.41,0.76,4.75,4.03,4.75
				c3.7,0,5.08-2.08,5.08-6.8v-8.48h1.65V442.96z"/>
			<path class="st4" d="M293.61,439.79c1.52-1.62,6.14-6.3,8.35-8.52h2.11l-6.53,6.57l7.36,9.93h-2.05l-6.5-8.88l-2.74,2.64v6.24
				h-1.65v-24.33h1.65V439.79z"/>
			<path class="st4" d="M307.8,439.73c0.03,4.26,2.18,6.9,5.35,6.9c3.1,0,4.16-1.75,4.75-3.1h1.68c-0.69,2.18-2.44,4.65-6.5,4.65
				c-5.02,0-6.96-4.32-6.96-8.51c0-4.72,2.34-8.78,7.16-8.78c5.08,0,6.7,4.39,6.7,7.49c0,0.46,0,0.92-0.03,1.35H307.8z
				 M318.27,438.27c-0.03-3.27-1.82-5.84-5.05-5.84c-3.4,0-4.95,2.38-5.31,5.84H318.27z"/>
			<path class="st4" d="M324.01,435.44c0-1.45,0-2.84-0.03-4.16h1.62c0.07,0.53,0.1,2.67,0.07,3.14c0.73-1.68,2.08-3.53,5.48-3.53
				c2.94,0,5.54,1.65,5.54,6.21v10.69h-1.65v-10.43c0-2.94-1.22-4.85-4.09-4.85c-3.93,0-5.28,3.27-5.28,6.87v8.42h-1.65V435.44z"/>
			<path class="st4" d="M350.67,435.54c0-1.42,0-2.97-0.03-4.26h1.62c0.03,0.56,0.1,1.98,0.07,2.94c0.69-1.65,2.21-3.33,4.95-3.33
				c2.31,0,4.12,1.16,4.79,3.27c0.83-1.72,2.48-3.27,5.38-3.27c2.54,0,5.18,1.45,5.18,6.04v10.86h-1.65v-10.66
				c0-2.21-0.79-4.62-3.86-4.62c-3.2,0-4.65,2.57-4.65,5.78v9.51h-1.62v-10.63c0-2.41-0.73-4.65-3.76-4.65
				c-3.2,0-4.75,2.84-4.75,6.21v9.08h-1.65V435.54z"/>
			<path class="st4" d="M378.39,439.73c0.03,4.26,2.18,6.9,5.35,6.9c3.1,0,4.16-1.75,4.75-3.1h1.68c-0.69,2.18-2.44,4.65-6.5,4.65
				c-5.02,0-6.96-4.32-6.96-8.51c0-4.72,2.34-8.78,7.16-8.78c5.08,0,6.7,4.39,6.7,7.49c0,0.46,0,0.92-0.03,1.35H378.39z
				 M388.85,438.27c-0.03-3.27-1.82-5.84-5.05-5.84c-3.4,0-4.95,2.38-5.31,5.84H388.85z"/>
			<path class="st4" d="M407.33,423.46v19.57c0,1.58,0,3.1,0.03,4.75h-1.58c-0.07-0.4-0.1-1.95-0.1-2.77
				c-0.83,2.01-2.67,3.17-5.54,3.17c-4.29,0-6.87-3.5-6.87-8.45c0-5.08,2.81-8.84,7.29-8.84c3.3,0,4.62,1.42,5.12,2.48v-9.9H407.33z
				 M395.02,439.66c0,4.52,2.34,6.96,5.18,6.96c4.36,0,5.54-3,5.54-7.49c0-4.26-1.02-6.7-5.25-6.7
				C397.23,432.43,395.02,435.04,395.02,439.66z"/>
			<path class="st4" d="M421.75,447.78v-14.95h-2.84v-1.55h2.84v-2.34c0-2.77,0.79-5.81,4.49-5.81c0.5,0,1.22,0.1,1.62,0.23v1.58
				c-0.5-0.13-1.29-0.2-1.78-0.2c-1.95,0-2.67,1.39-2.67,4.26v2.28h3.6v1.55h-3.6v14.95H421.75z"/>
			<path class="st4" d="M442.97,439.5c0,4.59-2.54,8.68-7.46,8.68c-4.46,0-7.23-3.66-7.23-8.65c0-4.72,2.61-8.65,7.39-8.65
				C440.07,430.88,442.97,434.31,442.97,439.5z M430.04,439.53c0,3.93,2.11,7.1,5.61,7.1c3.56,0,5.58-2.94,5.58-7.1
				c0-3.9-1.98-7.1-5.64-7.1C431.82,432.43,430.04,435.57,430.04,439.53z"/>
			<path class="st4" d="M448.71,439.79c1.52-1.62,6.14-6.3,8.35-8.52h2.11l-6.54,6.57l7.36,9.93h-2.05l-6.5-8.88l-2.74,2.64v6.24
				h-1.65v-24.33h1.65V439.79z"/>
			<path class="st4" d="M474.88,442.96c0,1.62,0.03,4.19,0.03,4.82h-1.58c-0.07-0.43-0.1-1.52-0.1-2.87
				c-0.69,1.95-2.38,3.27-5.31,3.27c-2.38,0-5.41-0.92-5.41-5.97v-10.92h1.62v10.53c0,2.41,0.76,4.75,4.03,4.75
				c3.7,0,5.08-2.08,5.08-6.8v-8.48h1.65V442.96z"/>
			<path class="st4" d="M480.29,443.23c0.56,2.15,2.08,3.43,4.69,3.43c2.94,0,4.12-1.35,4.12-3.2c0-1.88-0.79-2.8-4.49-3.7
				c-4.26-1.02-5.31-2.31-5.31-4.49c0-2.28,1.72-4.39,5.45-4.39s5.51,2.28,5.78,4.62h-1.65c-0.3-1.39-1.39-3.1-4.19-3.1
				c-2.87,0-3.7,1.42-3.7,2.74c0,1.52,0.79,2.28,4.06,3.07c4.65,1.12,5.81,2.64,5.81,5.12c0,3-2.44,4.85-5.91,4.85
				c-3.76,0-5.88-1.98-6.34-4.95H480.29z"/>
			<path class="st4" d="M505.17,445.34v9.04h-1.65v-19.04c0-1.35,0-2.8-0.03-4.06h1.62c0.07,0.63,0.07,1.62,0.07,2.97
				c1.02-1.98,2.84-3.37,5.81-3.37c3.89,0,6.6,3.27,6.6,8.22c0,5.94-3.17,9.08-7.16,9.08C507.52,448.18,506,446.89,505.17,445.34z
				 M515.84,439.17c0-3.83-1.85-6.7-5.12-6.7c-3.99,0-5.64,2.51-5.64,7c0,4.42,1.29,7.16,5.41,7.16
				C513.92,446.62,515.84,443.72,515.84,439.17z"/>
			<path class="st4" d="M533.03,444.64c0,1.45,0.13,2.61,0.23,3.14h-1.58c-0.13-0.4-0.23-1.12-0.3-2.54
				c-0.56,1.22-2.01,2.94-5.41,2.94c-3.83,0-5.48-2.47-5.48-4.95c0-3.63,2.81-5.28,7.76-5.28c1.39,0,2.48,0,3.14,0v-1.68
				c0-1.65-0.5-3.86-4.26-3.86c-3.33,0-3.83,1.75-4.19,3.1h-1.65c0.2-1.82,1.32-4.62,5.88-4.62c3.76,0,5.88,1.58,5.88,5.21V444.64z
				 M531.41,439.36c-0.63,0-2.15,0-3.23,0c-3.66,0-5.94,0.96-5.94,3.79c0,2.08,1.49,3.5,3.8,3.5c4.72,0,5.38-3.14,5.38-6.7V439.36z
				 M524.22,426.13c0-1.68,1.22-3.17,3.17-3.17s3.2,1.42,3.2,3.1c0,1.75-1.32,3.14-3.17,3.14
				C525.47,429.2,524.22,427.81,524.22,426.13z M529.23,426.1c0-0.92-0.59-1.95-1.82-1.95c-1.22,0-1.82,0.96-1.82,1.88
				c0,0.99,0.56,1.98,1.82,1.98C528.61,428.01,529.23,427.05,529.23,426.1z"/>
			<path class="st4" d="M129.56,463.06v19.57c0,1.58,0,3.1,0.03,4.75h-1.58c-0.07-0.4-0.1-1.95-0.1-2.77
				c-0.83,2.01-2.67,3.17-5.54,3.17c-4.29,0-6.86-3.5-6.86-8.45c0-5.08,2.81-8.85,7.29-8.85c3.3,0,4.62,1.42,5.12,2.48v-9.9H129.56z
				 M117.25,479.26c0,4.52,2.34,6.96,5.18,6.96c4.36,0,5.54-3,5.54-7.49c0-4.26-1.02-6.7-5.25-6.7
				C119.46,472.03,117.25,474.64,117.25,479.26z"/>
			<path class="st4" d="M135.33,479.33c0.03,4.26,2.18,6.9,5.35,6.9c3.1,0,4.16-1.75,4.75-3.1h1.68c-0.69,2.18-2.44,4.65-6.5,4.65
				c-5.02,0-6.96-4.32-6.96-8.52c0-4.72,2.34-8.78,7.16-8.78c5.08,0,6.7,4.39,6.7,7.49c0,0.46,0,0.92-0.03,1.35H135.33z
				 M145.8,477.88c-0.03-3.27-1.81-5.84-5.05-5.84c-3.4,0-4.95,2.38-5.31,5.84H145.8z"/>
			<path class="st4" d="M160.12,482.83c0.56,2.15,2.08,3.43,4.69,3.43c2.94,0,4.13-1.35,4.13-3.2c0-1.88-0.79-2.81-4.49-3.7
				c-4.26-1.02-5.31-2.31-5.31-4.49c0-2.28,1.72-4.39,5.45-4.39s5.51,2.28,5.78,4.62h-1.65c-0.3-1.39-1.39-3.1-4.19-3.1
				c-2.87,0-3.7,1.42-3.7,2.74c0,1.52,0.79,2.28,4.06,3.07c4.65,1.12,5.81,2.64,5.81,5.12c0,3-2.44,4.85-5.91,4.85
				c-3.76,0-5.87-1.98-6.34-4.95H160.12z"/>
			<path class="st4" d="M172.29,470.88h3.07v-5.15h1.65v5.15h3.93v1.55h-3.93v10.73c0,1.85,0.4,2.9,1.98,2.9
				c0.5,0,1.19-0.03,1.72-0.2v1.45c-0.56,0.23-1.35,0.3-2.05,0.3c-2.11,0-3.3-1.06-3.3-3.7v-11.49h-3.07V470.88z"/>
			<path class="st4" d="M197.67,479.1c0,5.25-3,8.71-7.49,8.71c-4.49,0-7.19-3.73-7.19-8.68c0-5.51,3.27-8.65,7.43-8.65
				C194.83,470.48,197.67,473.88,197.67,479.1z M185.23,487.71h-1.72l11.98-17.2h1.72L185.23,487.71z M184.67,479.13
				c0,3.99,2.15,7.16,5.61,7.16c3.56,0,5.68-2.9,5.68-7.16c0-4.19-2.01-7.13-5.68-7.13C186.51,472,184.67,475.27,184.67,479.13z"/>
			<path class="st4" d="M201.76,475.37c0-2.77-0.03-3.96-0.03-4.49h1.62c0.03,0.53,0.07,1.58,0.07,3.7
				c0.96-2.48,3.07-3.96,5.74-4.09v1.78c-3.43,0.23-5.74,2.61-5.74,6.54v8.58h-1.65V475.37z"/>
			<path class="st4" d="M212.45,482.83c0.56,2.15,2.08,3.43,4.69,3.43c2.94,0,4.13-1.35,4.13-3.2c0-1.88-0.79-2.81-4.49-3.7
				c-4.26-1.02-5.31-2.31-5.31-4.49c0-2.28,1.72-4.39,5.45-4.39s5.51,2.28,5.78,4.62h-1.65c-0.3-1.39-1.39-3.1-4.19-3.1
				c-2.87,0-3.7,1.42-3.7,2.74c0,1.52,0.79,2.28,4.06,3.07c4.65,1.12,5.81,2.64,5.81,5.12c0,3-2.44,4.85-5.91,4.85
				c-3.76,0-5.87-1.98-6.34-4.95H212.45z"/>
			<path class="st4" d="M224.63,470.88h3.07v-5.15h1.65v5.15h3.93v1.55h-3.93v10.73c0,1.85,0.4,2.9,1.98,2.9
				c0.5,0,1.19-0.03,1.72-0.2v1.45c-0.56,0.23-1.35,0.3-2.05,0.3c-2.11,0-3.3-1.06-3.3-3.7v-11.49h-3.07V470.88z"/>
			<path class="st4" d="M237,479.33c0.03,4.26,2.18,6.9,5.35,6.9c3.1,0,4.16-1.75,4.75-3.1h1.68c-0.69,2.18-2.44,4.65-6.5,4.65
				c-5.02,0-6.96-4.32-6.96-8.52c0-4.72,2.34-8.78,7.16-8.78c5.08,0,6.7,4.39,6.7,7.49c0,0.46,0,0.92-0.03,1.35H237z M247.47,477.88
				c-0.03-3.27-1.81-5.84-5.05-5.84c-3.4,0-4.95,2.38-5.31,5.84H247.47z"/>
			<path class="st4" d="M261.79,475.14c0-1.42,0-2.97-0.03-4.26h1.62c0.03,0.56,0.1,1.98,0.07,2.94c0.69-1.65,2.21-3.33,4.95-3.33
				c2.31,0,4.13,1.16,4.79,3.27c0.82-1.72,2.48-3.27,5.38-3.27c2.54,0,5.18,1.45,5.18,6.04v10.86h-1.65v-10.66
				c0-2.21-0.79-4.62-3.86-4.62c-3.2,0-4.65,2.57-4.65,5.78v9.5h-1.62v-10.63c0-2.41-0.73-4.65-3.76-4.65
				c-3.2,0-4.75,2.84-4.75,6.21v9.08h-1.65V475.14z"/>
			<path class="st4" d="M301.49,482.56c0,1.62,0.03,4.19,0.03,4.82h-1.58c-0.07-0.43-0.1-1.52-0.1-2.87
				c-0.69,1.95-2.38,3.27-5.31,3.27c-2.38,0-5.41-0.92-5.41-5.97v-10.92h1.62v10.53c0,2.41,0.76,4.75,4.03,4.75
				c3.7,0,5.08-2.08,5.08-6.8v-8.48h1.65V482.56z"/>
			<path class="st4" d="M306.9,482.83c0.56,2.15,2.08,3.43,4.69,3.43c2.94,0,4.13-1.35,4.13-3.2c0-1.88-0.79-2.81-4.49-3.7
				c-4.26-1.02-5.31-2.31-5.31-4.49c0-2.28,1.72-4.39,5.45-4.39s5.51,2.28,5.78,4.62h-1.65c-0.3-1.39-1.39-3.1-4.19-3.1
				c-2.87,0-3.7,1.42-3.7,2.74c0,1.52,0.79,2.28,4.06,3.07c4.65,1.12,5.81,2.64,5.81,5.12c0,3-2.44,4.85-5.91,4.85
				c-3.76,0-5.88-1.98-6.34-4.95H306.9z"/>
			<path class="st4" d="M323.2,479.39c1.52-1.62,6.14-6.3,8.35-8.51h2.11l-6.54,6.57l7.36,9.93h-2.05l-6.5-8.88l-2.74,2.64v6.24
				h-1.65v-24.32h1.65V479.39z"/>
			<path class="st4" d="M337.39,479.33c0.03,4.26,2.18,6.9,5.35,6.9c3.1,0,4.16-1.75,4.75-3.1h1.68c-0.69,2.18-2.44,4.65-6.5,4.65
				c-5.02,0-6.96-4.32-6.96-8.52c0-4.72,2.34-8.78,7.16-8.78c5.08,0,6.7,4.39,6.7,7.49c0,0.46,0,0.92-0.03,1.35H337.39z
				 M347.85,477.88c-0.03-3.27-1.82-5.84-5.05-5.84c-3.4,0-4.95,2.38-5.31,5.84H347.85z"/>
			<path class="st4" d="M353.59,487.38v-24.32h1.65v24.32H353.59z"/>
			<path class="st4" d="M373.26,486.26c0,5.28-2.34,8.05-7.13,8.05c-4.29,0-6.07-2.41-6.47-4.92h1.68c0.59,2.28,2.48,3.37,4.85,3.37
				c4.29,0,5.48-2.77,5.48-6.96v-1.72c-0.89,2.14-2.51,3.3-5.51,3.3c-3.86,0-6.83-3.13-6.83-8.25c0-5.54,3.17-8.65,7.06-8.65
				c3.37,0,4.82,1.58,5.28,2.9c0.03-0.96,0.07-2.11,0.1-2.51h1.55c0,0.59-0.07,3.2-0.07,4.79V486.26z M361.08,479.06
				c0,3.93,2.08,6.77,5.25,6.77c4.13,0,5.38-2.74,5.38-7.03c0-4.36-1.32-6.77-5.28-6.77C362.63,472.03,361.08,475.3,361.08,479.06z"
				/>
			<path class="st4" d="M378.67,475.37c0-2.77-0.03-3.96-0.03-4.49h1.62c0.03,0.53,0.07,1.58,0.07,3.7
				c0.96-2.48,3.07-3.96,5.74-4.09v1.78c-3.43,0.23-5.74,2.61-5.74,6.54v8.58h-1.65V475.37z"/>
			<path class="st4" d="M401.7,482.56c0,1.62,0.03,4.19,0.03,4.82h-1.58c-0.07-0.43-0.1-1.52-0.1-2.87
				c-0.69,1.95-2.38,3.27-5.31,3.27c-2.38,0-5.41-0.92-5.41-5.97v-10.92h1.62v10.53c0,2.41,0.76,4.75,4.03,4.75
				c3.7,0,5.08-2.08,5.08-6.8v-8.48h1.65V482.56z"/>
			<path class="st4" d="M408.76,484.94v9.04h-1.65v-19.04c0-1.35,0-2.81-0.03-4.06h1.62c0.07,0.63,0.07,1.62,0.07,2.97
				c1.02-1.98,2.84-3.37,5.81-3.37c3.89,0,6.6,3.27,6.6,8.22c0,5.94-3.17,9.08-7.16,9.08C411.11,487.78,409.59,486.49,408.76,484.94
				z M419.43,478.77c0-3.83-1.85-6.7-5.12-6.7c-3.99,0-5.64,2.51-5.64,7c0,4.42,1.29,7.16,5.41,7.16
				C417.51,486.22,419.43,483.32,419.43,478.77z"/>
			<path class="st4" d="M426.95,484.94v9.04h-1.65v-19.04c0-1.35,0-2.81-0.03-4.06h1.62c0.07,0.63,0.07,1.62,0.07,2.97
				c1.02-1.98,2.84-3.37,5.81-3.37c3.89,0,6.6,3.27,6.6,8.22c0,5.94-3.17,9.08-7.16,9.08C429.29,487.78,427.77,486.49,426.95,484.94
				z M437.61,478.77c0-3.83-1.85-6.7-5.12-6.7c-3.99,0-5.64,2.51-5.64,7c0,4.42,1.29,7.16,5.41,7.16
				C435.69,486.22,437.61,483.32,437.61,478.77z"/>
			<path class="st4" d="M443.84,479.33c0.03,4.26,2.18,6.9,5.35,6.9c3.1,0,4.16-1.75,4.75-3.1h1.68c-0.69,2.18-2.44,4.65-6.5,4.65
				c-5.02,0-6.96-4.32-6.96-8.52c0-4.72,2.34-8.78,7.16-8.78c5.08,0,6.7,4.39,6.7,7.49c0,0.46,0,0.92-0.03,1.35H443.84z
				 M454.31,477.88c-0.03-3.27-1.82-5.84-5.05-5.84c-3.4,0-4.95,2.38-5.31,5.84H454.31z"/>
			<path class="st4" d="M460.05,475.04c0-1.45,0-2.84-0.03-4.16h1.62c0.07,0.53,0.1,2.67,0.07,3.14c0.73-1.68,2.08-3.53,5.48-3.53
				c2.94,0,5.54,1.65,5.54,6.21v10.69h-1.65v-10.43c0-2.94-1.22-4.85-4.09-4.85c-3.93,0-5.28,3.27-5.28,6.87v8.42h-1.65V475.04z"/>
			<path class="st4" d="M478.49,479.33c0.03,4.26,2.18,6.9,5.35,6.9c3.1,0,4.16-1.75,4.75-3.1h1.68c-0.69,2.18-2.44,4.65-6.5,4.65
				c-5.02,0-6.96-4.32-6.96-8.52c0-4.72,2.34-8.78,7.16-8.78c5.08,0,6.7,4.39,6.7,7.49c0,0.46,0,0.92-0.03,1.35H478.49z
				 M488.96,477.88c-0.03-3.27-1.82-5.84-5.05-5.84c-3.4,0-4.95,2.38-5.31,5.84H488.96z"/>
		</g>
	</g>
	<g>
		<g>
			<g>
				<path class="st2" d="M90.04,798.98l-3.56,9.68h-2.2l10.28-28h2.56l10.72,28h-2.36l-3.64-9.68H90.04z M101.11,796.98
					c-3.12-8.32-4.72-12.32-5.28-14.2h-0.04c-0.68,2.12-2.48,7.08-5,14.2H101.11z"/>
				<path class="st2" d="M112.16,808.66v-29.48h2v29.48H112.16z"/>
				<path class="st2" d="M117.72,788.67h3.72v-6.24h2v6.24h4.76v1.88h-4.76v13c0,2.24,0.48,3.52,2.4,3.52c0.6,0,1.44-0.04,2.08-0.24
					v1.76c-0.68,0.28-1.64,0.36-2.48,0.36c-2.56,0-4-1.28-4-4.48v-13.92h-3.72V788.67z"/>
				<path class="st2" d="M143.11,798.9c0.04,5.16,2.64,8.36,6.48,8.36c3.76,0,5.04-2.12,5.76-3.76h2.04
					c-0.84,2.64-2.96,5.64-7.88,5.64c-6.08,0-8.44-5.24-8.44-10.32c0-5.72,2.84-10.64,8.68-10.64c6.16,0,8.12,5.32,8.12,9.08
					c0,0.56,0,1.12-0.04,1.64H143.11z M155.79,797.14c-0.04-3.96-2.2-7.08-6.12-7.08c-4.12,0-6,2.88-6.44,7.08H155.79z"/>
				<path class="st2" d="M162.75,794.11c0-3.36-0.04-4.8-0.04-5.44h1.96c0.04,0.64,0.08,1.92,0.08,4.48c1.16-3,3.72-4.8,6.96-4.96
					v2.16c-4.16,0.28-6.96,3.16-6.96,7.92v10.4h-2V794.11z"/>
				<path class="st2" d="M186.11,779.19h2v12.84c0.96-2,2.92-3.84,6.84-3.84c4.72,0,8.2,3.88,8.2,10.04
					c0,6.32-3.12,10.92-8.72,10.92c-3.36,0-5.28-1.36-6.32-3.64c0,1.28-0.04,2.6-0.08,3.16h-1.96c0.04-2.28,0.04-4.56,0.04-6.84
					V779.19z M201.03,798.26c0-5-2.48-8.2-6.28-8.2c-5,0-6.76,3.4-6.76,8.64c0,4.72,1.56,8.56,6.52,8.56
					C198.55,807.26,201.03,803.9,201.03,798.26z"/>
				<path class="st2" d="M208.55,798.9c0.04,5.16,2.64,8.36,6.48,8.36c3.76,0,5.04-2.12,5.76-3.76h2.04
					c-0.84,2.64-2.96,5.64-7.88,5.64c-6.08,0-8.44-5.24-8.44-10.32c0-5.72,2.84-10.64,8.68-10.64c6.16,0,8.12,5.32,8.12,9.08
					c0,0.56,0,1.12-0.04,1.64H208.55z M221.23,797.14c-0.04-3.96-2.2-7.08-6.12-7.08c-4.12,0-6,2.88-6.44,7.08H221.23z"/>
				<path class="st2" d="M243.63,779.19v23.72c0,1.92,0,3.76,0.04,5.76h-1.92c-0.08-0.48-0.12-2.36-0.12-3.36
					c-1,2.44-3.24,3.84-6.72,3.84c-5.2,0-8.32-4.24-8.32-10.24c0-6.16,3.4-10.72,8.84-10.72c4,0,5.6,1.72,6.2,3v-12H243.63z
					 M228.71,798.82c0,5.48,2.84,8.44,6.28,8.44c5.28,0,6.72-3.64,6.72-9.08c0-5.16-1.24-8.12-6.36-8.12
					C231.39,790.07,228.71,793.23,228.71,798.82z"/>
				<path class="st2" d="M250.19,794.11c0-3.36-0.04-4.8-0.04-5.44h1.96c0.04,0.64,0.08,1.92,0.08,4.48c1.16-3,3.72-4.8,6.96-4.96
					v2.16c-4.16,0.28-6.96,3.16-6.96,7.92v10.4h-2V794.11z"/>
				<path class="st2" d="M263.59,798.9c0.04,5.16,2.64,8.36,6.48,8.36c3.76,0,5.04-2.12,5.76-3.76h2.04
					c-0.84,2.64-2.96,5.64-7.88,5.64c-6.08,0-8.44-5.24-8.44-10.32c0-5.72,2.84-10.64,8.68-10.64c6.16,0,8.12,5.32,8.12,9.08
					c0,0.56,0,1.12-0.04,1.64H263.59z M276.27,797.14c-0.04-3.96-2.2-7.08-6.12-7.08c-4.12,0-6,2.88-6.44,7.08H276.27z"/>
				<path class="st2" d="M294.07,798.9c0.04,5.16,2.64,8.36,6.48,8.36c3.76,0,5.04-2.12,5.76-3.76h2.04
					c-0.84,2.64-2.96,5.64-7.88,5.64c-6.08,0-8.44-5.24-8.44-10.32c0-5.72,2.84-10.64,8.68-10.64c6.16,0,8.12,5.32,8.12,9.08
					c0,0.56,0,1.12-0.04,1.64H294.07z M306.75,797.14c-0.04-3.96-2.2-7.08-6.12-7.08c-4.12,0-6,2.88-6.44,7.08H306.75z"/>
				<path class="st2" d="M313.71,793.71c0-1.76,0-3.44-0.04-5.04h1.96c0.08,0.64,0.12,3.24,0.08,3.8c0.88-2.04,2.52-4.28,6.64-4.28
					c3.56,0,6.72,2,6.72,7.52v12.96h-2v-12.64c0-3.56-1.48-5.88-4.96-5.88c-4.76,0-6.4,3.96-6.4,8.32v10.2h-2V793.71z"/>
				<path class="st2" d="M335.63,793.71c0-1.76,0-3.44-0.04-5.04h1.96c0.08,0.64,0.12,3.24,0.08,3.8c0.88-2.04,2.52-4.28,6.64-4.28
					c3.56,0,6.72,2,6.72,7.52v12.96h-2v-12.64c0-3.56-1.48-5.88-4.96-5.88c-4.76,0-6.4,3.96-6.4,8.32v10.2h-2V793.71z"/>
				<path class="st2" d="M367.95,779.19h2v3.88h-2V779.19z M367.95,788.67h2v20h-2V788.67z"/>
				<path class="st2" d="M376.51,793.71c0-1.76,0-3.44-0.04-5.04h1.96c0.08,0.64,0.12,3.24,0.08,3.8c0.88-2.04,2.52-4.28,6.64-4.28
					c3.56,0,6.72,2,6.72,7.52v12.96h-2v-12.64c0-3.56-1.48-5.88-4.96-5.88c-4.76,0-6.4,3.96-6.4,8.32v10.2h-2V793.71z"/>
				<path class="st2" d="M413.71,807.3c0,6.4-2.84,9.76-8.64,9.76c-5.2,0-7.36-2.92-7.84-5.96h2.04c0.72,2.76,3,4.08,5.88,4.08
					c5.2,0,6.64-3.36,6.64-8.44v-2.08c-1.08,2.6-3.04,4-6.68,4c-4.68,0-8.28-3.8-8.28-10c0-6.72,3.84-10.48,8.56-10.48
					c4.08,0,5.84,1.92,6.4,3.52c0.04-1.16,0.08-2.56,0.12-3.04h1.88c0,0.72-0.08,3.88-0.08,5.8V807.3z M398.95,798.58
					c0,4.76,2.52,8.2,6.36,8.2c5,0,6.52-3.32,6.52-8.52c0-5.28-1.6-8.2-6.4-8.2C400.83,790.07,398.95,794.03,398.95,798.58z"/>
				<path class="st2" d="M420.71,798.9c0.04,5.16,2.64,8.36,6.48,8.36c3.76,0,5.04-2.12,5.76-3.76h2.04
					c-0.84,2.64-2.96,5.64-7.88,5.64c-6.08,0-8.44-5.24-8.44-10.32c0-5.72,2.84-10.64,8.68-10.64c6.16,0,8.12,5.32,8.12,9.08
					c0,0.56,0,1.12-0.04,1.64H420.71z M433.39,797.14c-0.04-3.96-2.2-7.08-6.12-7.08c-4.12,0-6,2.88-6.44,7.08H433.39z"/>
				<path class="st2" d="M440.35,793.71c0-1.76,0-3.44-0.04-5.04h1.96c0.08,0.64,0.12,3.24,0.08,3.8c0.88-2.04,2.52-4.28,6.64-4.28
					c3.56,0,6.72,2,6.72,7.52v12.96h-2v-12.64c0-3.56-1.48-5.88-4.96-5.88c-4.76,0-6.4,3.96-6.4,8.32v10.2h-2V793.71z"/>
				<path class="st2" d="M459.27,788.67h3.72v-6.24h2v6.24h4.76v1.88h-4.76v13c0,2.24,0.48,3.52,2.4,3.52c0.6,0,1.44-0.04,2.08-0.24
					v1.76c-0.68,0.28-1.64,0.36-2.48,0.36c-2.56,0-4-1.28-4-4.48v-13.92h-3.72V788.67z"/>
				<path class="st2" d="M473.83,779.19h2v3.88h-2V779.19z M473.83,788.67h2v20h-2V788.67z"/>
				<path class="st2" d="M482.39,793.71c0-1.76,0-3.44-0.04-5.04h1.96c0.08,0.64,0.12,3.24,0.08,3.8c0.88-2.04,2.52-4.28,6.64-4.28
					c3.56,0,6.72,2,6.72,7.52v12.96h-2v-12.64c0-3.56-1.48-5.88-4.96-5.88c-4.76,0-6.4,3.96-6.4,8.32v10.2h-2V793.71z"/>
				<path class="st2" d="M519.59,807.3c0,6.4-2.84,9.76-8.64,9.76c-5.2,0-7.36-2.92-7.84-5.96h2.04c0.72,2.76,3,4.08,5.88,4.08
					c5.2,0,6.64-3.36,6.64-8.44v-2.08c-1.08,2.6-3.04,4-6.68,4c-4.68,0-8.28-3.8-8.28-10c0-6.72,3.84-10.48,8.56-10.48
					c4.08,0,5.84,1.92,6.4,3.52c0.04-1.16,0.08-2.56,0.12-3.04h1.88c0,0.72-0.08,3.88-0.08,5.8V807.3z M504.83,798.58
					c0,4.76,2.52,8.2,6.36,8.2c5,0,6.52-3.32,6.52-8.52c0-5.28-1.6-8.2-6.4-8.2C506.71,790.07,504.83,794.03,504.83,798.58z"/>
			</g>
		</g>
	</g>
	<g>
		<g>
			<g>
				<path class="st2" d="M404.68,292.38v3.75c-3.63,6.96-6.54,16.44-7.83,27.46h-5.04c1.13-10.33,4.54-20.63,7.86-26.86h-9.03v-4.34
					H404.68z"/>
				<path class="st2" d="M420.06,296.72h-7.73c-0.15,2.61-0.4,5.79-0.57,7.55c0.66-0.86,2.06-1.41,3.74-1.41
					c4.17,0,5.79,3.04,5.79,8.29v3.23c0,5.54-1.67,9.58-7.64,9.58c-5.45,0-7.32-3.45-7.32-7.82v-0.72h4.91v1.12
					c0,1.61,0.48,3.37,2.42,3.37c2.07,0,2.52-1.48,2.52-4.92v-3.66c0-3-0.49-4.34-2.47-4.34c-1.71,0-2.27,1-2.61,2.96l-4.38-0.45
					c0.44-4.44,1.06-12.78,1.33-17.13h12.53L420.06,296.72z"/>
				<path class="st2" d="M432.15,308.6v4.52h-8.67v-4.52H432.15z"/>
				<path class="st2" d="M436.53,323.58v-25.52c-0.86,0.12-2.44,0.15-3.15,0.13v-3.74c2.01-0.19,3.59-1.17,4.48-2.23h3.62v31.36
					H436.53z"/>
				<path class="st2" d="M458.98,296.72h-7.73c-0.15,2.61-0.4,5.79-0.57,7.55c0.66-0.86,2.06-1.41,3.74-1.41
					c4.17,0,5.79,3.04,5.79,8.29v3.23c0,5.54-1.67,9.58-7.64,9.58c-5.45,0-7.32-3.45-7.32-7.82v-0.72h4.91v1.12
					c0,1.61,0.48,3.37,2.42,3.37c2.07,0,2.52-1.48,2.52-4.92v-3.66c0-3-0.49-4.34-2.47-4.34c-1.71,0-2.27,1-2.61,2.96l-4.38-0.45
					c0.44-4.44,1.06-12.78,1.33-17.13h12.53L458.98,296.72z"/>
				<path class="st2" d="M477.54,300.29v14.97c0,4.73-1.42,8.7-7.5,8.7c-5.62,0-7.15-3.92-7.15-8.65v-14.68
					c0-5.41,2.33-8.64,7.42-8.64C475.3,291.99,477.54,295.14,477.54,300.29z M467.76,300.04v15.85c0,2.33,0.7,3.59,2.46,3.59
					c1.75,0,2.41-1.31,2.41-3.73v-15.83c0-2.16-0.68-3.45-2.42-3.45C468.55,296.47,467.76,297.61,467.76,300.04z"/>
			</g>
		</g>
	</g>
	<g>
		<g>
			<path class="st2" d="M120.22,323.58v-25.52c-0.86,0.12-2.44,0.15-3.15,0.13v-3.74c2.01-0.19,3.59-1.17,4.48-2.23h3.61v31.36
				H120.22z"/>
			<path class="st2" d="M142.68,296.72h-7.73c-0.15,2.61-0.4,5.79-0.57,7.55c0.66-0.86,2.06-1.41,3.74-1.41
				c4.17,0,5.79,3.04,5.79,8.29v3.23c0,5.54-1.67,9.58-7.64,9.58c-5.45,0-7.32-3.45-7.32-7.82v-0.72h4.91v1.12
				c0,1.61,0.48,3.37,2.42,3.37c2.07,0,2.52-1.48,2.52-4.92v-3.66c0-3-0.49-4.34-2.47-4.34c-1.71,0-2.27,1-2.61,2.96l-4.38-0.45
				c0.44-4.44,1.06-12.78,1.33-17.13h12.53L142.68,296.72z"/>
			<path class="st2" d="M161.23,300.29v14.97c0,4.73-1.42,8.7-7.5,8.7c-5.62,0-7.15-3.92-7.15-8.65v-14.68
				c0-5.41,2.33-8.64,7.42-8.64C159,291.99,161.23,295.14,161.23,300.29z M151.45,300.04v15.85c0,2.33,0.7,3.59,2.46,3.59
				c1.75,0,2.41-1.31,2.41-3.73v-15.83c0-2.16-0.68-3.45-2.42-3.45C152.25,296.47,151.45,297.61,151.45,300.04z"/>
			<path class="st2" d="M172.44,308.6v4.52h-8.67v-4.52H172.44z"/>
			<path class="st2" d="M174.8,300.46v-1.02c0-3.52,1.15-7.44,6.85-7.44c5.01,0,6.66,3.16,6.66,7.46v1.06c0,3.56-1.18,5.3-3.04,6.06
				v0.05c2.26,0.8,3.76,2.47,3.76,6.25v2.5c0,5.02-1.6,8.64-7.44,8.64c-5.25,0-7.17-2.84-7.17-7.35v-1.02h4.57v0.98
				c0,1.67,0.49,3.36,2.56,3.36c2.04,0,2.56-1.61,2.56-3.91v-3.1c0-2.89-0.97-4.04-3.57-4.04h-1.34v-4.25h1.3
				c2.29,0,3.02-0.98,3.02-3.63v-1.66c0-1.82-0.3-3.31-2.1-3.31c-1.78,0-2.2,1.39-2.2,3.08v1.29H174.8z"/>
			<path class="st2" d="M206.54,300.29v14.97c0,4.73-1.42,8.7-7.5,8.7c-5.62,0-7.15-3.92-7.15-8.65v-14.68
				c0-5.41,2.33-8.64,7.42-8.64C204.31,291.99,206.54,295.14,206.54,300.29z M196.76,300.04v15.85c0,2.33,0.7,3.59,2.46,3.59
				c1.75,0,2.41-1.31,2.41-3.73v-15.83c0-2.16-0.68-3.45-2.42-3.45C197.56,296.47,196.76,297.61,196.76,300.04z"/>
			<path class="st2" d="M224.21,300.29v14.97c0,4.73-1.42,8.7-7.5,8.7c-5.62,0-7.15-3.92-7.15-8.65v-14.68
				c0-5.41,2.33-8.64,7.42-8.64C221.97,291.99,224.21,295.14,224.21,300.29z M214.42,300.04v15.85c0,2.33,0.7,3.59,2.46,3.59
				c1.75,0,2.41-1.31,2.41-3.73v-15.83c0-2.16-0.68-3.45-2.42-3.45C215.22,296.47,214.42,297.61,214.42,300.04z"/>
		</g>
	</g>
	<g>
		<g>
		</g>
	</g>
	<line class="st5" x1="0" y1="235.86" x2="595.28" y2="235.86"/>
	<line class="st5" x1="0" y1="144.34" x2="595.28" y2="144.34"/>
	<line class="st5" x1="0" y1="410.87" x2="595.28" y2="410.87"/>
	<line class="st5" x1="0" y1="505.13" x2="595.28" y2="505.13"/>
	<rect x="40.19" y="534.39" class="st1" width="240.96" height="183.62"/>
	<rect x="326.89" y="534.39" class="st1" width="240.96" height="183.62"/>
	
		<rect x="7.73" y="520.49" transform="matrix(0.9743 -0.2255 0.2255 0.9743 -119.6175 44.0092)" class="st6" width="250.28" height="50.46"/>
	
		<rect x="279.71" y="520.49" transform="matrix(0.9743 -0.2255 0.2255 0.9743 -112.88 103.0067)" class="st6" width="229.69" height="50.46"/>
	<g>
		<g>
			<path d="M67.62,596.43v8.5h-1.43v-18.2h6.53c3.59,0,5.49,1.92,5.49,4.78c0,2.31-1.38,3.82-3.41,4.26
				c1.87,0.44,3.12,1.66,3.12,4.76v0.7c0,1.27-0.1,2.99,0.23,3.69h-1.43c-0.34-0.78-0.26-2.24-0.26-3.8v-0.47
				c0-2.99-0.88-4.24-4.37-4.24H67.62z M67.62,595.13h4.39c3.2,0,4.68-1.2,4.68-3.59c0-2.24-1.46-3.51-4.29-3.51h-4.78V595.13z"/>
			<path d="M91.02,602.46c0,1.14,0.1,2.05,0.18,2.47h-1.25c-0.1-0.31-0.18-0.88-0.23-2c-0.44,0.96-1.59,2.31-4.26,2.31
				c-3.02,0-4.32-1.95-4.32-3.9c0-2.86,2.21-4.16,6.11-4.16c1.09,0,1.95,0,2.47,0v-1.33c0-1.3-0.39-3.04-3.35-3.04
				c-2.63,0-3.02,1.38-3.3,2.44h-1.3c0.16-1.43,1.04-3.64,4.63-3.64c2.96,0,4.63,1.25,4.63,4.11V602.46z M89.74,598.3
				c-0.49,0-1.69,0-2.55,0c-2.89,0-4.68,0.75-4.68,2.99c0,1.64,1.17,2.76,2.99,2.76c3.72,0,4.24-2.47,4.24-5.28V598.3z"/>
			<path d="M95.31,601.34c0.44,1.69,1.64,2.7,3.69,2.7c2.31,0,3.25-1.07,3.25-2.52c0-1.48-0.62-2.21-3.54-2.91
				c-3.35-0.81-4.19-1.82-4.19-3.54c0-1.79,1.35-3.46,4.29-3.46s4.34,1.79,4.55,3.64h-1.3c-0.23-1.09-1.09-2.44-3.3-2.44
				c-2.26,0-2.91,1.12-2.91,2.16c0,1.2,0.62,1.79,3.2,2.42c3.67,0.88,4.58,2.08,4.58,4.03c0,2.37-1.92,3.82-4.65,3.82
				c-2.96,0-4.63-1.56-4.99-3.9H95.31z"/>
			<path d="M108.15,598.64c1.2-1.27,4.84-4.97,6.58-6.71h1.66l-5.15,5.17l5.8,7.83h-1.61l-5.12-6.99l-2.16,2.08v4.91h-1.3v-19.16
				h1.3V598.64z"/>
			<path d="M135.74,604.05c0,4.16-1.85,6.34-5.62,6.34c-3.38,0-4.78-1.9-5.1-3.87h1.33c0.47,1.79,1.95,2.65,3.82,2.65
				c3.38,0,4.32-2.18,4.32-5.49v-1.35c-0.7,1.69-1.98,2.6-4.34,2.6c-3.04,0-5.38-2.47-5.38-6.5c0-4.37,2.5-6.81,5.56-6.81
				c2.65,0,3.8,1.25,4.16,2.29c0.03-0.75,0.05-1.66,0.08-1.98h1.22c0,0.47-0.05,2.52-0.05,3.77V604.05z M126.14,598.38
				c0,3.09,1.64,5.33,4.13,5.33c3.25,0,4.24-2.16,4.24-5.54c0-3.43-1.04-5.33-4.16-5.33C127.37,592.84,126.14,595.41,126.14,598.38z
				"/>
			<path d="M148.92,602.46c0,1.14,0.1,2.05,0.18,2.47h-1.25c-0.1-0.31-0.18-0.88-0.23-2c-0.44,0.96-1.59,2.31-4.26,2.31
				c-3.02,0-4.32-1.95-4.32-3.9c0-2.86,2.21-4.16,6.11-4.16c1.09,0,1.95,0,2.47,0v-1.33c0-1.3-0.39-3.04-3.35-3.04
				c-2.63,0-3.02,1.38-3.3,2.44h-1.3c0.16-1.43,1.04-3.64,4.63-3.64c2.96,0,4.63,1.25,4.63,4.11V602.46z M147.65,598.3
				c-0.49,0-1.69,0-2.55,0c-2.89,0-4.68,0.75-4.68,2.99c0,1.64,1.17,2.76,2.99,2.76c3.72,0,4.24-2.47,4.24-5.28V598.3z"/>
			<path d="M153.21,595.21c0-1.14,0-2.24-0.03-3.28h1.27c0.05,0.42,0.08,2.11,0.05,2.47c0.57-1.33,1.64-2.78,4.32-2.78
				c2.31,0,4.37,1.3,4.37,4.89v8.42h-1.3v-8.22c0-2.31-0.96-3.82-3.22-3.82c-3.09,0-4.16,2.57-4.16,5.41v6.63h-1.3V595.21z"/>
			<path d="M177.39,604.05c0,4.16-1.85,6.34-5.62,6.34c-3.38,0-4.78-1.9-5.1-3.87H168c0.47,1.79,1.95,2.65,3.82,2.65
				c3.38,0,4.32-2.18,4.32-5.49v-1.35c-0.7,1.69-1.98,2.6-4.34,2.6c-3.04,0-5.38-2.47-5.38-6.5c0-4.37,2.5-6.81,5.56-6.81
				c2.65,0,3.8,1.25,4.16,2.29c0.03-0.75,0.05-1.66,0.08-1.98h1.22c0,0.47-0.05,2.52-0.05,3.77V604.05z M167.79,598.38
				c0,3.09,1.64,5.33,4.13,5.33c3.25,0,4.24-2.16,4.24-5.54c0-3.43-1.04-5.33-4.16-5.33C169.02,592.84,167.79,595.41,167.79,598.38z
				"/>
			<path d="M181.94,598.58c0.03,3.35,1.72,5.43,4.21,5.43c2.44,0,3.28-1.38,3.74-2.44h1.33c-0.55,1.72-1.92,3.67-5.12,3.67
				c-3.95,0-5.49-3.41-5.49-6.71c0-3.72,1.85-6.92,5.64-6.92c4,0,5.28,3.46,5.28,5.9c0,0.36,0,0.73-0.03,1.07H181.94z
				 M190.18,597.44c-0.03-2.57-1.43-4.6-3.98-4.6c-2.68,0-3.9,1.87-4.19,4.6H190.18z"/>
			<path d="M66.19,617.93h1.4v7.93h10.92v-7.93h1.4v18.2h-1.4v-8.97H67.59v8.97h-1.4V617.93z"/>
			<path d="M94.32,632.33c0,1.27,0.03,3.3,0.03,3.8H93.1c-0.05-0.34-0.08-1.2-0.08-2.26c-0.55,1.53-1.87,2.57-4.19,2.57
				c-1.87,0-4.26-0.73-4.26-4.71v-8.61h1.27v8.29c0,1.9,0.6,3.74,3.17,3.74c2.91,0,4-1.64,4-5.36v-6.68h1.3V632.33z"/>
			<path d="M98.58,632.54c0.44,1.69,1.64,2.7,3.69,2.7c2.31,0,3.25-1.07,3.25-2.52c0-1.48-0.62-2.21-3.54-2.91
				c-3.35-0.81-4.19-1.82-4.19-3.54c0-1.79,1.35-3.46,4.29-3.46c2.94,0,4.34,1.79,4.55,3.64h-1.3c-0.23-1.09-1.09-2.44-3.3-2.44
				c-2.26,0-2.91,1.12-2.91,2.16c0,1.2,0.62,1.79,3.2,2.42c3.67,0.88,4.58,2.08,4.58,4.03c0,2.37-1.92,3.82-4.65,3.82
				c-2.96,0-4.63-1.56-4.99-3.9H98.58z"/>
			<path d="M119.05,633.66c0,1.14,0.1,2.05,0.18,2.47h-1.25c-0.1-0.31-0.18-0.88-0.23-2c-0.44,0.96-1.59,2.31-4.26,2.31
				c-3.02,0-4.32-1.95-4.32-3.9c0-2.86,2.21-4.16,6.11-4.16c1.09,0,1.95,0,2.47,0v-1.33c0-1.3-0.39-3.04-3.35-3.04
				c-2.63,0-3.02,1.38-3.3,2.44h-1.3c0.16-1.43,1.04-3.64,4.63-3.64c2.96,0,4.63,1.25,4.63,4.11V633.66z M117.77,629.5
				c-0.49,0-1.69,0-2.55,0c-2.89,0-4.68,0.75-4.68,2.99c0,1.64,1.17,2.76,2.99,2.76c3.72,0,4.24-2.47,4.24-5.28V629.5z"/>
			<path d="M123.34,626.67c0-2.18-0.03-3.12-0.03-3.54h1.27c0.03,0.42,0.05,1.25,0.05,2.91c0.75-1.95,2.42-3.12,4.52-3.22v1.4
				c-2.7,0.18-4.52,2.05-4.52,5.15v6.76h-1.3V626.67z"/>
			<path d="M131.76,616.97h1.3v8.35c0.62-1.3,1.9-2.5,4.45-2.5c3.07,0,5.33,2.52,5.33,6.53c0,4.11-2.03,7.1-5.67,7.1
				c-2.18,0-3.43-0.88-4.11-2.37c0,0.83-0.03,1.69-0.05,2.05h-1.27c0.03-1.48,0.03-2.96,0.03-4.45V616.97z M141.46,629.37
				c0-3.25-1.61-5.33-4.08-5.33c-3.25,0-4.39,2.21-4.39,5.62c0,3.07,1.01,5.56,4.24,5.56C139.85,635.22,141.46,633.04,141.46,629.37
				z"/>
			<path d="M146.35,629.79c0.03,3.35,1.72,5.43,4.21,5.43c2.44,0,3.28-1.38,3.74-2.44h1.33c-0.55,1.72-1.92,3.67-5.12,3.67
				c-3.95,0-5.49-3.41-5.49-6.71c0-3.72,1.85-6.92,5.64-6.92c4,0,5.28,3.46,5.28,5.9c0,0.36,0,0.73-0.03,1.07H146.35z
				 M154.59,628.64c-0.03-2.57-1.43-4.6-3.98-4.6c-2.68,0-3.9,1.87-4.19,4.6H154.59z"/>
			<path d="M159.11,616.97h1.3v2.52h-1.3V616.97z M159.11,623.13h1.3v13h-1.3V623.13z"/>
			<path d="M174.71,616.97v15.42c0,1.25,0,2.44,0.03,3.74h-1.25c-0.05-0.31-0.08-1.53-0.08-2.18c-0.65,1.59-2.11,2.5-4.37,2.5
				c-3.38,0-5.41-2.76-5.41-6.66c0-4,2.21-6.97,5.75-6.97c2.6,0,3.64,1.12,4.03,1.95v-7.8H174.71z M165.01,629.73
				c0,3.56,1.85,5.49,4.08,5.49c3.43,0,4.37-2.37,4.37-5.9c0-3.35-0.81-5.28-4.13-5.28C166.75,624.04,165.01,626.09,165.01,629.73z"
				/>
			<path d="M66.19,649.13h6.03c4.99,0,8.45,3.48,8.45,8.95c0,5.43-3.38,9.26-8.48,9.26h-6.01V649.13z M67.59,666.03h4.39
				c4.81,0,7.18-3.38,7.18-7.88c0-4-2.13-7.72-7.18-7.72h-4.39V666.03z"/>
			<path d="M93.18,664.86c0,1.14,0.1,2.05,0.18,2.47h-1.25c-0.1-0.31-0.18-0.88-0.23-2c-0.44,0.96-1.59,2.31-4.26,2.31
				c-3.02,0-4.32-1.95-4.32-3.9c0-2.86,2.21-4.16,6.11-4.16c1.09,0,1.95,0,2.47,0v-1.33c0-1.3-0.39-3.04-3.35-3.04
				c-2.63,0-3.02,1.38-3.3,2.44h-1.3c0.16-1.43,1.04-3.64,4.63-3.64c2.96,0,4.63,1.25,4.63,4.11V664.86z M91.9,660.7
				c-0.49,0-1.69,0-2.55,0c-2.89,0-4.68,0.75-4.68,2.99c0,1.64,1.17,2.76,2.99,2.76c3.72,0,4.24-2.47,4.24-5.28V660.7z"/>
			<path d="M97.47,657.6c0-1.14,0-2.24-0.03-3.28h1.27c0.05,0.42,0.08,2.11,0.05,2.47c0.57-1.33,1.64-2.78,4.32-2.78
				c2.31,0,4.37,1.3,4.37,4.89v8.42h-1.3v-8.22c0-2.31-0.96-3.82-3.22-3.82c-3.09,0-4.16,2.57-4.16,5.41v6.63h-1.3V657.6z"/>
			<path d="M111.71,663.74c0.44,1.69,1.64,2.7,3.69,2.7c2.31,0,3.25-1.07,3.25-2.52c0-1.48-0.62-2.21-3.54-2.91
				c-3.35-0.81-4.19-1.82-4.19-3.54c0-1.79,1.35-3.46,4.29-3.46c2.94,0,4.34,1.79,4.55,3.64h-1.3c-0.23-1.09-1.09-2.44-3.3-2.44
				c-2.26,0-2.91,1.12-2.91,2.16c0,1.2,0.62,1.79,3.2,2.42c3.67,0.88,4.58,2.08,4.58,4.03c0,2.37-1.92,3.82-4.65,3.82
				c-2.96,0-4.63-1.56-4.99-3.9H111.71z"/>
			<path d="M66.19,680.33h6.5c3.33,0,5.62,1.85,5.62,5.07c0,3.28-2.26,5.2-5.8,5.2h-4.89v7.93h-1.43V680.33z M67.62,689.3h5.02
				c2.94,0,4.16-1.56,4.16-3.85c0-2.44-1.61-3.82-4.06-3.82h-5.12V689.3z"/>
			<path d="M90.6,696.06c0,1.14,0.1,2.05,0.18,2.47h-1.25c-0.1-0.31-0.18-0.88-0.23-2c-0.44,0.96-1.59,2.31-4.26,2.31
				c-3.02,0-4.32-1.95-4.32-3.9c0-2.86,2.21-4.16,6.11-4.16c1.09,0,1.95,0,2.47,0v-1.33c0-1.3-0.39-3.04-3.35-3.04
				c-2.63,0-3.02,1.38-3.3,2.44h-1.3c0.16-1.43,1.04-3.64,4.63-3.64c2.96,0,4.63,1.25,4.63,4.11V696.06z M89.33,691.9
				c-0.49,0-1.69,0-2.55,0c-2.89,0-4.68,0.75-4.68,2.99c0,1.64,1.17,2.76,2.99,2.76c3.72,0,4.24-2.47,4.24-5.28V691.9z"/>
			<path d="M104.62,694.73c0,1.27,0.03,3.3,0.03,3.8h-1.25c-0.05-0.34-0.08-1.2-0.08-2.26c-0.55,1.53-1.87,2.57-4.19,2.57
				c-1.87,0-4.26-0.73-4.26-4.71v-8.61h1.27v8.29c0,1.9,0.6,3.74,3.17,3.74c2.91,0,4-1.64,4-5.36v-6.68h1.3V694.73z"/>
			<path d="M108.88,694.94c0.44,1.69,1.64,2.7,3.69,2.7c2.31,0,3.25-1.07,3.25-2.52c0-1.48-0.62-2.21-3.54-2.91
				c-3.35-0.81-4.19-1.82-4.19-3.54c0-1.79,1.35-3.46,4.29-3.46s4.34,1.79,4.55,3.64h-1.3c-0.23-1.09-1.09-2.44-3.3-2.44
				c-2.26,0-2.91,1.12-2.91,2.16c0,1.2,0.62,1.79,3.2,2.42c3.67,0.88,4.58,2.08,4.58,4.03c0,2.37-1.92,3.82-4.65,3.82
				c-2.96,0-4.63-1.56-4.99-3.9H108.88z"/>
			<path d="M120.71,692.18c0.03,3.35,1.72,5.43,4.21,5.43c2.44,0,3.28-1.38,3.74-2.44h1.33c-0.55,1.72-1.92,3.67-5.12,3.67
				c-3.95,0-5.49-3.41-5.49-6.71c0-3.72,1.85-6.92,5.64-6.92c4,0,5.28,3.46,5.28,5.9c0,0.36,0,0.73-0.03,1.07H120.71z
				 M128.95,691.04c-0.03-2.57-1.43-4.6-3.98-4.6c-2.68,0-3.9,1.87-4.19,4.6H128.95z"/>
			<path d="M143.41,697.65c0,4.16-1.85,6.34-5.62,6.34c-3.38,0-4.78-1.9-5.1-3.87h1.33c0.47,1.79,1.95,2.65,3.82,2.65
				c3.38,0,4.32-2.18,4.32-5.49v-1.35c-0.7,1.69-1.98,2.6-4.34,2.6c-3.04,0-5.38-2.47-5.38-6.5c0-4.37,2.5-6.81,5.56-6.81
				c2.65,0,3.8,1.25,4.16,2.29c0.03-0.75,0.05-1.66,0.08-1.98h1.22c0,0.47-0.05,2.52-0.05,3.77V697.65z M133.81,691.98
				c0,3.09,1.64,5.33,4.13,5.33c3.25,0,4.24-2.16,4.24-5.54c0-3.43-1.04-5.33-4.16-5.33C135.04,686.44,133.81,689.01,133.81,691.98z
				"/>
			<path d="M147.33,685.53c2.63,7.44,3.77,10.5,4.21,11.91h0.03c0.52-1.59,1.56-4.6,4.08-11.91h1.35l-4.89,13.75
				c-1.38,3.85-2.31,4.71-4.65,4.71c-0.47,0-0.78-0.03-1.2-0.08v-1.3c0.39,0.05,0.75,0.08,1.17,0.08c1.87,0,2.47-0.91,3.43-3.59
				l-4.97-13.57H147.33z"/>
			<path d="M159.5,688.88c0-1.12,0-2.34-0.03-3.35h1.27c0.03,0.44,0.08,1.56,0.05,2.31c0.55-1.3,1.74-2.63,3.9-2.63
				c1.82,0,3.25,0.91,3.77,2.57c0.65-1.35,1.95-2.57,4.24-2.57c2,0,4.08,1.14,4.08,4.76v8.55h-1.3v-8.4c0-1.74-0.62-3.64-3.04-3.64
				c-2.52,0-3.67,2.03-3.67,4.55v7.49h-1.27v-8.37c0-1.9-0.57-3.67-2.96-3.67c-2.52,0-3.74,2.24-3.74,4.89v7.15h-1.3V688.88z"/>
			<path d="M181.06,688.8c0-1.14,0-2.24-0.03-3.28h1.27c0.05,0.42,0.08,2.11,0.05,2.47c0.57-1.33,1.64-2.78,4.32-2.78
				c2.31,0,4.37,1.3,4.37,4.89v8.42h-1.3v-8.22c0-2.31-0.96-3.82-3.22-3.82c-3.09,0-4.16,2.57-4.16,5.41v6.63h-1.3V688.8z"/>
			<path d="M204.22,696.06c0,1.14,0.1,2.05,0.18,2.47h-1.25c-0.1-0.31-0.18-0.88-0.23-2c-0.44,0.96-1.59,2.31-4.26,2.31
				c-3.02,0-4.32-1.95-4.32-3.9c0-2.86,2.21-4.16,6.11-4.16c1.09,0,1.95,0,2.47,0v-1.33c0-1.3-0.39-3.04-3.35-3.04
				c-2.63,0-3.02,1.38-3.3,2.44h-1.3c0.16-1.43,1.04-3.64,4.63-3.64c2.96,0,4.63,1.25,4.63,4.11V696.06z M202.95,691.9
				c-0.49,0-1.69,0-2.55,0c-2.89,0-4.68,0.75-4.68,2.99c0,1.64,1.17,2.76,2.99,2.76c3.72,0,4.24-2.47,4.24-5.28V691.9z"/>
			<path d="M208.51,694.94c0.44,1.69,1.64,2.7,3.69,2.7c2.31,0,3.25-1.07,3.25-2.52c0-1.48-0.62-2.21-3.54-2.91
				c-3.35-0.81-4.19-1.82-4.19-3.54c0-1.79,1.35-3.46,4.29-3.46s4.34,1.79,4.55,3.64h-1.3c-0.23-1.09-1.09-2.44-3.3-2.44
				c-2.26,0-2.91,1.12-2.91,2.16c0,1.2,0.62,1.79,3.2,2.42c3.67,0.88,4.58,2.08,4.58,4.03c0,2.37-1.92,3.82-4.65,3.82
				c-2.96,0-4.63-1.56-4.99-3.9H208.51z"/>
			<path d="M218.1,685.53h2.42v-4.06h1.3v4.06h3.09v1.22h-3.09v8.45c0,1.46,0.31,2.29,1.56,2.29c0.39,0,0.94-0.03,1.35-0.16v1.14
				c-0.44,0.18-1.07,0.23-1.61,0.23c-1.66,0-2.6-0.83-2.6-2.91v-9.05h-2.42V685.53z"/>
			<path d="M227.57,679.37h1.3v2.52h-1.3V679.37z M227.57,685.53h1.3v13h-1.3V685.53z"/>
			<path d="M234.43,692.24c1.2-1.27,4.84-4.97,6.58-6.71h1.66l-5.15,5.17l5.8,7.83h-1.61l-5.12-6.99l-2.16,2.08v4.91h-1.3v-19.16
				h1.3V692.24z"/>
			<path d="M246.63,692.24c1.2-1.27,4.84-4.97,6.58-6.71h1.66l-5.15,5.17l5.8,7.83h-1.61l-5.12-6.99l-2.16,2.08v4.91h-1.3v-19.16
				h1.3V692.24z"/>
		</g>
	</g>
	<g>
		<g>
			<path d="M370.07,596.32c0,4.06-1.79,5.23-4.21,5.23c-0.78,0-1.12-0.08-1.56-0.16v-1.27c0.36,0.08,1.01,0.13,1.61,0.13
				c2.44,0,2.76-1.9,2.76-3.95v-13.21h1.4V596.32z"/>
			<path d="M385.18,594.75c0,3.61-2,6.84-5.88,6.84c-3.51,0-5.69-2.89-5.69-6.81c0-3.72,2.05-6.81,5.82-6.81
				C382.89,587.97,385.18,590.67,385.18,594.75z M374.99,594.78c0,3.09,1.66,5.59,4.42,5.59c2.81,0,4.39-2.31,4.39-5.59
				c0-3.07-1.56-5.59-4.45-5.59C376.39,589.19,374.99,591.66,374.99,594.78z"/>
			<path d="M398.33,600.4c0,4.16-1.85,6.34-5.62,6.34c-3.38,0-4.78-1.9-5.1-3.87h1.33c0.47,1.79,1.95,2.65,3.82,2.65
				c3.38,0,4.32-2.18,4.32-5.49v-1.35c-0.7,1.69-1.98,2.6-4.34,2.6c-3.04,0-5.38-2.47-5.38-6.5c0-4.37,2.5-6.81,5.56-6.81
				c2.65,0,3.8,1.25,4.16,2.29c0.03-0.75,0.05-1.66,0.08-1.98h1.22c0,0.47-0.05,2.52-0.05,3.77V600.4z M388.74,594.73
				c0,3.09,1.64,5.33,4.13,5.33c3.25,0,4.24-2.16,4.24-5.54c0-3.43-1.04-5.33-4.16-5.33C389.96,589.19,388.74,591.76,388.74,594.73z
				"/>
			<path d="M412.53,600.4c0,4.16-1.85,6.34-5.62,6.34c-3.38,0-4.78-1.9-5.1-3.87h1.33c0.47,1.79,1.95,2.65,3.82,2.65
				c3.38,0,4.32-2.18,4.32-5.49v-1.35c-0.7,1.69-1.98,2.6-4.34,2.6c-3.04,0-5.38-2.47-5.38-6.5c0-4.37,2.5-6.81,5.56-6.81
				c2.65,0,3.8,1.25,4.16,2.29c0.03-0.75,0.05-1.66,0.08-1.98h1.22c0,0.47-0.05,2.52-0.05,3.77V600.4z M402.93,594.73
				c0,3.09,1.64,5.33,4.13,5.33c3.25,0,4.24-2.16,4.24-5.54c0-3.43-1.04-5.33-4.16-5.33C404.16,589.19,402.93,591.76,402.93,594.73z
				"/>
			<path d="M416.79,582.12h1.3v2.52h-1.3V582.12z M416.79,588.28h1.3v13h-1.3V588.28z"/>
			<path d="M422.36,591.56c0-1.14,0-2.24-0.03-3.28h1.27c0.05,0.42,0.08,2.11,0.05,2.47c0.57-1.33,1.64-2.78,4.32-2.78
				c2.31,0,4.37,1.3,4.37,4.89v8.42h-1.3v-8.22c0-2.31-0.96-3.82-3.22-3.82c-3.09,0-4.16,2.57-4.16,5.41v6.63h-1.3V591.56z"/>
			<path d="M446.54,600.4c0,4.16-1.85,6.34-5.62,6.34c-3.38,0-4.78-1.9-5.1-3.87h1.33c0.47,1.79,1.95,2.65,3.82,2.65
				c3.38,0,4.32-2.18,4.32-5.49v-1.35c-0.7,1.69-1.98,2.6-4.34,2.6c-3.04,0-5.38-2.47-5.38-6.5c0-4.37,2.5-6.81,5.56-6.81
				c2.65,0,3.8,1.25,4.16,2.29c0.03-0.75,0.05-1.66,0.08-1.98h1.22c0,0.47-0.05,2.52-0.05,3.77V600.4z M436.94,594.73
				c0,3.09,1.64,5.33,4.13,5.33c3.25,0,4.24-2.16,4.24-5.54c0-3.43-1.04-5.33-4.16-5.33C438.16,589.19,436.94,591.76,436.94,594.73z
				"/>
			<path d="M366.25,627.59c0.55,2.42,2.16,3.85,5.15,3.85c3.33,0,4.6-1.66,4.6-3.64c0-2.05-0.91-3.33-4.91-4.32
				c-3.85-0.96-5.51-2.21-5.51-4.84c0-2.39,1.74-4.63,5.64-4.63c4,0,5.69,2.44,5.93,4.65h-1.46c-0.42-1.95-1.69-3.35-4.55-3.35
				c-2.63,0-4.06,1.22-4.06,3.25c0,2,1.2,2.78,4.55,3.61c5.12,1.27,5.88,3.33,5.88,5.51c0,2.68-1.95,4.99-6.16,4.99
				c-4.55,0-6.21-2.65-6.55-5.1H366.25z"/>
			<path d="M380.63,619.48c2.63,7.44,3.77,10.5,4.21,11.91h0.03c0.52-1.59,1.56-4.6,4.08-11.91h1.35l-4.89,13.75
				c-1.38,3.85-2.31,4.71-4.65,4.71c-0.47,0-0.78-0.03-1.2-0.08v-1.3c0.39,0.05,0.75,0.08,1.17,0.08c1.87,0,2.47-0.91,3.43-3.59
				l-4.97-13.57H380.63z"/>
			<path d="M394.09,626.19c1.2-1.27,4.84-4.97,6.58-6.71h1.66l-5.15,5.17l5.8,7.83h-1.61l-5.12-6.99l-2.16,2.08v4.91h-1.3v-19.16
				h1.3V626.19z"/>
			<path d="M404.99,632.48v-19.16h1.3v19.16H404.99z"/>
			<path d="M410.55,613.32h1.3v2.52h-1.3V613.32z M410.55,619.48h1.3v13h-1.3V619.48z"/>
			<path d="M416.12,622.76c0-1.14,0-2.24-0.03-3.28h1.27c0.05,0.42,0.08,2.11,0.05,2.47c0.57-1.33,1.64-2.78,4.32-2.78
				c2.31,0,4.37,1.3,4.37,4.89v8.42h-1.3v-8.22c0-2.31-0.96-3.82-3.22-3.82c-3.09,0-4.16,2.57-4.16,5.41v6.63h-1.3V622.76z"/>
			<path d="M440.3,631.6c0,4.16-1.85,6.34-5.62,6.34c-3.38,0-4.78-1.9-5.1-3.87h1.33c0.47,1.79,1.95,2.65,3.82,2.65
				c3.38,0,4.32-2.18,4.32-5.49v-1.35c-0.7,1.69-1.98,2.6-4.34,2.6c-3.04,0-5.38-2.47-5.38-6.5c0-4.37,2.5-6.81,5.56-6.81
				c2.65,0,3.8,1.25,4.16,2.29c0.03-0.75,0.05-1.66,0.08-1.98h1.22c0,0.47-0.05,2.52-0.05,3.77V631.6z M430.7,625.93
				c0,3.09,1.64,5.33,4.13,5.33c3.25,0,4.24-2.16,4.24-5.54c0-3.43-1.04-5.33-4.16-5.33C431.92,620.39,430.7,622.96,430.7,625.93z"
				/>
			<path d="M380.16,663.68h-1.17c-0.1-0.21-0.16-1.14-0.18-2.91c-0.65,1.25-2.08,3.12-5.88,3.12c-5.23,0-7.9-3.98-7.9-9.15
				c0-5.43,2.86-9.52,8.19-9.52c3.93,0,6.53,2.05,7.1,5.41h-1.4c-0.78-2.57-2.57-4.11-5.75-4.11c-4.55,0-6.63,3.54-6.63,8.14
				c0,4.16,2,7.93,6.45,7.93c4.55,0,5.82-2.96,5.82-6.99v-0.21h-5.88v-1.3h7.23V663.68z"/>
			<path d="M393.16,661.21c0,1.14,0.1,2.05,0.18,2.47h-1.25c-0.1-0.31-0.18-0.88-0.23-2c-0.44,0.96-1.59,2.31-4.26,2.31
				c-3.02,0-4.32-1.95-4.32-3.9c0-2.86,2.21-4.16,6.11-4.16c1.09,0,1.95,0,2.47,0v-1.33c0-1.3-0.39-3.04-3.35-3.04
				c-2.63,0-3.02,1.38-3.3,2.44h-1.3c0.16-1.43,1.04-3.64,4.63-3.64c2.96,0,4.63,1.25,4.63,4.11V661.21z M391.89,657.05
				c-0.49,0-1.69,0-2.55,0c-2.89,0-4.68,0.75-4.68,2.99c0,1.64,1.17,2.76,2.99,2.76c3.72,0,4.24-2.47,4.24-5.28V657.05z
				 M386.22,646.62c0-1.33,0.96-2.5,2.5-2.5c1.53,0,2.52,1.12,2.52,2.44c0,1.38-1.04,2.47-2.5,2.47
				C387.21,649.04,386.22,647.95,386.22,646.62z M390.17,646.6c0-0.73-0.47-1.53-1.43-1.53s-1.43,0.75-1.43,1.48
				c0,0.78,0.44,1.56,1.43,1.56C389.68,648.11,390.17,647.35,390.17,646.6z"/>
			<path d="M404.21,644.52h1.3v2.52h-1.3V644.52z M404.21,650.68h1.3v13h-1.3V650.68z"/>
			<path d="M414.58,650.68H417v-4.06h1.3v4.06h3.09v1.22h-3.09v8.45c0,1.46,0.31,2.29,1.56,2.29c0.39,0,0.94-0.03,1.35-0.16v1.14
				c-0.44,0.18-1.07,0.23-1.61,0.23c-1.66,0-2.6-0.83-2.6-2.91v-9.05h-2.42V650.68z"/>
			<path d="M424.05,654.22c0-2.18-0.03-3.12-0.03-3.54h1.27c0.03,0.42,0.05,1.25,0.05,2.91c0.75-1.95,2.42-3.12,4.52-3.22v1.4
				c-2.7,0.18-4.52,2.05-4.52,5.15v6.76h-1.3V654.22z"/>
			<path d="M441.39,661.21c0,1.14,0.1,2.05,0.18,2.47h-1.25c-0.1-0.31-0.18-0.88-0.23-2c-0.44,0.96-1.59,2.31-4.26,2.31
				c-3.02,0-4.32-1.95-4.32-3.9c0-2.86,2.21-4.16,6.11-4.16c1.09,0,1.95,0,2.47,0v-1.33c0-1.3-0.39-3.04-3.35-3.04
				c-2.63,0-3.02,1.38-3.3,2.44h-1.3c0.16-1.43,1.04-3.64,4.63-3.64c2.96,0,4.63,1.25,4.63,4.11V661.21z M440.11,657.05
				c-0.49,0-1.69,0-2.55,0c-2.89,0-4.68,0.75-4.68,2.99c0,1.64,1.17,2.76,2.99,2.76c3.72,0,4.24-2.47,4.24-5.28V657.05z"/>
			<path d="M446.98,661.76v7.12h-1.3v-15c0-1.07,0-2.21-0.03-3.2h1.27c0.05,0.49,0.05,1.27,0.05,2.34c0.81-1.56,2.24-2.65,4.58-2.65
				c3.07,0,5.2,2.57,5.2,6.47c0,4.68-2.5,7.15-5.64,7.15C448.82,663.99,447.63,662.98,446.98,661.76z M455.38,656.89
				c0-3.02-1.46-5.28-4.03-5.28c-3.15,0-4.45,1.98-4.45,5.51c0,3.48,1.01,5.64,4.26,5.64C453.87,662.77,455.38,660.48,455.38,656.89
				z"/>
			<path d="M461.3,661.76v7.12H460v-15c0-1.07,0-2.21-0.03-3.2h1.27c0.05,0.49,0.05,1.27,0.05,2.34c0.81-1.56,2.24-2.65,4.58-2.65
				c3.07,0,5.2,2.57,5.2,6.47c0,4.68-2.5,7.15-5.64,7.15C463.15,663.99,461.95,662.98,461.3,661.76z M469.7,656.89
				c0-3.02-1.46-5.28-4.03-5.28c-3.15,0-4.45,1.98-4.45,5.51c0,3.48,1.01,5.64,4.26,5.64C468.19,662.77,469.7,660.48,469.7,656.89z"
				/>
			<path d="M474.62,657.34c0.03,3.35,1.72,5.43,4.21,5.43c2.44,0,3.28-1.38,3.74-2.44h1.33c-0.55,1.72-1.92,3.67-5.12,3.67
				c-3.95,0-5.49-3.41-5.49-6.71c0-3.72,1.85-6.92,5.64-6.92c4,0,5.28,3.46,5.28,5.9c0,0.36,0,0.73-0.03,1.07H474.62z
				 M482.86,656.19c-0.03-2.57-1.43-4.6-3.98-4.6c-2.68,0-3.9,1.87-4.19,4.6H482.86z"/>
			<path d="M487.38,654.22c0-2.18-0.03-3.12-0.03-3.54h1.27c0.03,0.42,0.05,1.25,0.05,2.91c0.75-1.95,2.42-3.12,4.52-3.22v1.4
				c-2.7,0.18-4.52,2.05-4.52,5.15v6.76h-1.3V654.22z"/>
			<path d="M369.84,677.98h-6.11v-1.3h13.68v1.3h-6.14v16.9h-1.43V677.98z"/>
			<path d="M389.42,691.08c0,1.27,0.03,3.3,0.03,3.8h-1.25c-0.05-0.34-0.08-1.2-0.08-2.26c-0.55,1.53-1.87,2.57-4.19,2.57
				c-1.87,0-4.26-0.73-4.26-4.71v-8.61h1.27v8.29c0,1.9,0.6,3.74,3.17,3.74c2.91,0,4-1.64,4-5.36v-6.68h1.3V691.08z"/>
			<path d="M393.68,685.16c0-1.14,0-2.24-0.03-3.28h1.27c0.05,0.42,0.08,2.11,0.05,2.47c0.57-1.33,1.64-2.78,4.32-2.78
				c2.31,0,4.37,1.3,4.37,4.89v8.42h-1.3v-8.22c0-2.31-0.96-3.82-3.22-3.82c-3.09,0-4.16,2.57-4.16,5.41v6.63h-1.3V685.16z"/>
			<path d="M417.86,694c0,4.16-1.85,6.34-5.62,6.34c-3.38,0-4.78-1.9-5.1-3.87h1.33c0.47,1.79,1.95,2.65,3.82,2.65
				c3.38,0,4.32-2.18,4.32-5.49v-1.35c-0.7,1.69-1.98,2.6-4.34,2.6c-3.04,0-5.38-2.47-5.38-6.5c0-4.37,2.5-6.81,5.56-6.81
				c2.65,0,3.8,1.25,4.16,2.29c0.03-0.75,0.05-1.66,0.08-1.98h1.22c0,0.47-0.05,2.52-0.05,3.77V694z M408.26,688.33
				c0,3.09,1.64,5.33,4.13,5.33c3.25,0,4.24-2.16,4.24-5.54c0-3.43-1.04-5.33-4.16-5.33C409.49,682.79,408.26,685.36,408.26,688.33z
				"/>
			<path d="M422.41,688.54c0.03,3.35,1.72,5.43,4.21,5.43c2.44,0,3.28-1.38,3.74-2.44h1.33c-0.55,1.72-1.92,3.67-5.12,3.67
				c-3.95,0-5.49-3.41-5.49-6.71c0-3.72,1.85-6.92,5.64-6.92c4,0,5.28,3.46,5.28,5.9c0,0.36,0,0.73-0.03,1.07H422.41z
				 M430.65,687.39c-0.03-2.57-1.43-4.6-3.98-4.6c-2.68,0-3.9,1.87-4.19,4.6H430.65z"/>
			<path d="M441.93,694.88v-19.16h1.3v19.16H441.93z"/>
			<path d="M458.03,688.35c0,4.13-2.37,6.86-5.9,6.86s-5.67-2.94-5.67-6.84c0-4.34,2.57-6.81,5.85-6.81
				C455.79,681.57,458.03,684.25,458.03,688.35z M448.23,695.14h-1.35l9.44-13.55h1.35L448.23,695.14z M447.78,688.38
				c0,3.15,1.69,5.64,4.42,5.64c2.81,0,4.47-2.29,4.47-5.64c0-3.3-1.59-5.62-4.47-5.62C449.24,682.76,447.78,685.34,447.78,688.38z"
				/>
			<path d="M461.59,694.88V683.1h-2.24v-1.22h2.24v-1.85c0-2.18,0.62-4.58,3.54-4.58c0.39,0,0.96,0.08,1.27,0.18v1.25
				c-0.39-0.1-1.01-0.16-1.4-0.16c-1.53,0-2.11,1.09-2.11,3.35v1.79h2.83v1.22h-2.83v11.78H461.59z"/>
			<path d="M465.83,681.88h2.42v-4.06h1.3v4.06h3.09v1.22h-3.09v8.45c0,1.46,0.31,2.29,1.56,2.29c0.39,0,0.94-0.03,1.35-0.16v1.14
				c-0.44,0.18-1.07,0.23-1.61,0.23c-1.66,0-2.6-0.83-2.6-2.91v-9.05h-2.42V681.88z"/>
		</g>
	</g>
	<g>
		<g>
			<path d="M40.99,568.36c-1.02-4.41-1.96-8.62-2.39-10.9c-0.04,0.01-0.06,0.01-0.1,0.02c-0.2,3.23-2.2,15.38-3.42,23.15
				c-0.68,0.16-1.02,0.24-1.7,0.39c-3.43-5-11.01-16.25-12.83-19.42c-0.03,0.01-0.04,0.01-0.06,0.01c0.76,2.54,2.03,7.76,2.93,11.62
				c0.89,3.83,1.33,5.75,2.22,9.58c-0.69,0.16-1.04,0.24-1.74,0.4c-2.08-9-3.13-13.51-5.21-22.51c1.04-0.24,1.56-0.36,2.6-0.6
				c4.87,7,11.1,16.2,12.52,18.55c0.03-0.01,0.04-0.01,0.06-0.01c0.13-1.76,2.04-14.02,3.46-22.24c1.03-0.24,1.54-0.36,2.57-0.6
				c2.08,9,3.13,13.51,5.21,22.51c-0.69,0.16-1.04,0.24-1.74,0.4C42.42,574.57,41.94,572.5,40.99,568.36z"/>
			<path d="M61.93,565.92c1.03,4.47-0.52,9.03-5.31,10.14c-4.34,1-7.87-1.94-8.99-6.8c-1.06-4.6,0.59-9.01,5.25-10.09
				C57.16,558.18,60.76,560.87,61.93,565.92z M49.33,568.87c0.89,3.83,3.66,6.44,7.07,5.65c3.47-0.8,4.77-4.12,3.83-8.17
				c-0.88-3.79-3.53-6.47-7.1-5.64C49.47,561.55,48.44,565.01,49.33,568.87z"/>
			<path d="M74.9,546.45c1.77,7.63,2.65,11.44,4.41,19.07c0.36,1.54,0.7,3.02,1.1,4.62c-0.62,0.14-0.93,0.21-1.54,0.36
				c-0.15-0.37-0.54-1.87-0.72-2.68c-0.35,2.15-1.89,3.69-4.69,4.34c-4.18,0.97-7.48-1.86-8.59-6.68
				c-1.15-4.95,0.74-9.25,5.11-10.26c3.22-0.74,4.82,0.34,5.54,1.26c-0.89-3.86-1.34-5.79-2.23-9.65
				C73.94,546.68,74.26,546.6,74.9,546.45z M66.56,565.02c1.02,4.41,3.85,6.26,6.62,5.62c4.24-0.98,4.72-4.18,3.71-8.55
				c-0.96-4.15-2.51-6.3-6.62-5.34C67.09,557.48,65.52,560.51,66.56,565.02z"/>
			<path d="M84.19,561c0.99,4.14,3.68,6.23,6.76,5.51c3.02-0.7,3.66-2.64,3.93-4.09c0.66-0.15,0.98-0.23,1.64-0.38
				c-0.18,2.28-1.33,5.09-5.29,6c-4.89,1.13-7.76-2.64-8.7-6.73c-1.06-4.6,0.3-9.08,5-10.17c4.95-1.15,7.52,2.77,8.22,5.79
				c0.1,0.45,0.21,0.9,0.27,1.33C91.29,559.36,88.93,559.91,84.19,561z M94.06,557.23c-0.77-3.18-3.09-5.28-6.24-4.55
				c-3.31,0.77-4.29,3.43-3.86,6.89C88,558.63,90.02,558.16,94.06,557.23z"/>
			<path d="M99.09,553.49c-0.63-2.7-0.93-3.85-1.04-4.37c0.63-0.15,0.95-0.22,1.58-0.36c0.15,0.51,0.42,1.53,0.9,3.59
				c0.37-2.63,2.1-4.55,4.67-5.28c0.16,0.69,0.24,1.04,0.4,1.74c-3.29,1-5.01,3.84-4.12,7.66c0.77,3.34,1.16,5.02,1.93,8.36
				c-0.64,0.15-0.96,0.22-1.61,0.37C100.71,560.51,100.17,558.17,99.09,553.49z"/>
			<path d="M121.99,557.3c0.33,1.41,0.72,2.51,0.93,3c-0.62,0.14-0.93,0.21-1.54,0.36c-0.22-0.36-0.48-1.04-0.86-2.41
				c-0.27,1.32-1.3,3.32-4.61,4.08c-3.73,0.86-5.9-1.18-6.45-3.59c-0.82-3.54,1.54-5.78,6.37-6.89c1.35-0.31,2.41-0.56,3.06-0.71
				c-0.15-0.66-0.23-0.98-0.38-1.64c-0.37-1.61-1.35-3.65-5.02-2.8c-3.25,0.75-3.34,2.57-3.38,3.97c-0.64,0.15-0.96,0.22-1.61,0.37
				c-0.22-1.81,0.24-4.8,4.68-5.83c3.67-0.85,6.08,0.22,6.9,3.76C120.83,552.31,121.22,553.97,121.99,557.3z M119.22,552.53
				c-0.61,0.14-2.09,0.48-3.15,0.73c-3.57,0.83-5.57,2.27-4.93,5.04c0.47,2.03,2.24,3.07,4.49,2.55c4.6-1.06,4.53-4.27,3.73-7.74
				C119.3,552.87,119.27,552.76,119.22,552.53z"/>
			<path d="M121.7,543.65c1.2-0.28,1.79-0.42,2.99-0.69c-0.46-2.01-0.7-3.01-1.16-5.02c0.64-0.15,0.96-0.22,1.61-0.37
				c0.46,2.01,0.7,3.01,1.16,5.02c1.53-0.35,2.3-0.53,3.83-0.89c0.14,0.6,0.21,0.91,0.35,1.51c-1.53,0.35-2.3,0.53-3.83,0.89
				c0.97,4.18,1.45,6.27,2.42,10.45c0.42,1.8,1.04,2.74,2.58,2.38c0.48-0.11,1.15-0.3,1.63-0.58c0.13,0.57,0.2,0.85,0.33,1.41
				c-0.49,0.35-1.25,0.6-1.93,0.75c-2.06,0.48-3.45-0.29-4.05-2.86c-1.04-4.48-1.55-6.71-2.59-11.19c-1.2,0.28-1.79,0.42-2.99,0.69
				C121.91,544.56,121.84,544.26,121.7,543.65z"/>
			<path d="M155.81,549.48c0.33,1.41,0.72,2.51,0.93,3c-0.62,0.14-0.93,0.21-1.54,0.36c-0.22-0.36-0.48-1.04-0.86-2.41
				c-0.27,1.32-1.3,3.32-4.61,4.08c-3.73,0.86-5.9-1.18-6.45-3.59c-0.82-3.54,1.54-5.78,6.37-6.89c1.35-0.31,2.41-0.56,3.06-0.71
				c-0.15-0.66-0.23-0.98-0.38-1.64c-0.37-1.61-1.35-3.65-5.02-2.8c-3.25,0.75-3.34,2.57-3.38,3.97c-0.64,0.15-0.96,0.22-1.61,0.37
				c-0.22-1.81,0.24-4.8,4.68-5.83c3.67-0.85,6.08,0.22,6.9,3.76C154.65,544.48,155.04,546.15,155.81,549.48z M153.04,544.7
				c-0.61,0.14-2.09,0.48-3.15,0.73c-3.57,0.83-5.57,2.27-4.93,5.04c0.47,2.03,2.24,3.07,4.49,2.55c4.6-1.06,4.53-4.27,3.73-7.74
				C153.12,545.05,153.1,544.93,153.04,544.7z"/>
			<path d="M161.63,543.15c1.11-1.92,4.56-7.53,6.22-10.18c0.82-0.19,1.23-0.29,2.06-0.48c-1.95,3.15-2.93,4.72-4.89,7.87
				c3.76,3.21,5.65,4.81,9.41,8.02c-0.8,0.18-1.2,0.28-1.99,0.46c-3.33-2.87-5-4.31-8.34-7.18c-0.83,1.28-1.24,1.91-2.07,3.19
				c0.56,2.43,0.84,3.65,1.41,6.08c-0.64,0.15-0.96,0.22-1.61,0.37c-2.19-9.48-3.29-14.22-5.48-23.7c0.64-0.15,0.96-0.22,1.61-0.37
				C159.42,533.6,160.15,536.79,161.63,543.15z"/>
			<path d="M171.25,532.19c1.2-0.28,1.79-0.42,2.99-0.69c-0.46-2.01-0.7-3.01-1.16-5.02c0.64-0.15,0.96-0.22,1.61-0.37
				c0.46,2.01,0.7,3.01,1.16,5.02c1.53-0.35,2.3-0.53,3.83-0.89c0.14,0.6,0.21,0.91,0.35,1.51c-1.53,0.35-2.3,0.53-3.83,0.89
				c0.97,4.18,1.45,6.27,2.42,10.45c0.42,1.8,1.04,2.74,2.58,2.38c0.48-0.11,1.15-0.3,1.63-0.58c0.13,0.57,0.2,0.85,0.33,1.41
				c-0.49,0.35-1.25,0.6-1.93,0.75c-2.06,0.48-3.45-0.29-4.05-2.86c-1.04-4.48-1.55-6.71-2.59-11.19c-1.2,0.28-1.79,0.42-2.99,0.69
				C171.46,533.09,171.39,532.79,171.25,532.19z"/>
			<path d="M181.19,521.86c0.64-0.15,0.96-0.22,1.61-0.37c0.29,1.25,0.43,1.87,0.72,3.12c-0.64,0.15-0.96,0.22-1.61,0.37
				C181.62,523.73,181.47,523.1,181.19,521.86z M182.95,529.48c0.64-0.15,0.96-0.22,1.61-0.37c1.49,6.43,2.23,9.65,3.72,16.08
				c-0.64,0.15-0.96,0.22-1.61,0.37C185.18,539.12,184.44,535.91,182.95,529.48z"/>
			<path d="M189.57,527.95c4.31,6.76,7.27,11.36,8.36,13.28c0.01,0,0.02,0,0.03-0.01c0.08-1.27,0.77-6.48,1.93-15.66
				c0.68-0.16,1.02-0.24,1.7-0.39c-0.94,6.99-1.41,10.49-2.36,17.48c-0.77,0.18-1.16,0.27-1.93,0.45c-3.78-5.9-5.67-8.85-9.44-14.75
				C188.55,528.18,188.89,528.1,189.57,527.95z"/>
			<path d="M203.08,516.79c0.64-0.15,0.96-0.22,1.61-0.37c0.29,1.25,0.43,1.87,0.72,3.12c-0.64,0.15-0.96,0.22-1.61,0.37
				C203.51,518.66,203.37,518.04,203.08,516.79z M204.84,524.41c0.64-0.15,0.96-0.22,1.61-0.37c1.49,6.43,2.23,9.65,3.72,16.08
				c-0.64,0.15-0.96,0.22-1.61,0.37C207.07,534.06,206.33,530.84,204.84,524.41z"/>
			<path d="M209.54,523.33c1.2-0.28,1.79-0.42,2.99-0.69c-0.46-2.01-0.7-3.01-1.16-5.02c0.64-0.15,0.96-0.22,1.61-0.37
				c0.46,2.01,0.7,3.01,1.16,5.02c1.53-0.35,2.3-0.53,3.83-0.89c0.14,0.6,0.21,0.91,0.35,1.51c-1.53,0.35-2.3,0.53-3.83,0.89
				c0.97,4.18,1.45,6.27,2.42,10.45c0.42,1.8,1.04,2.74,2.58,2.38c0.48-0.11,1.15-0.3,1.63-0.58c0.13,0.57,0.2,0.85,0.33,1.41
				c-0.49,0.35-1.25,0.6-1.93,0.75c-2.06,0.48-3.45-0.29-4.05-2.86c-1.04-4.48-1.55-6.71-2.59-11.19c-1.2,0.28-1.79,0.42-2.99,0.69
				C209.74,524.23,209.67,523.93,209.54,523.33z"/>
			<path d="M223.3,528.81c0.99,4.14,3.68,6.23,6.76,5.51c3.02-0.7,3.66-2.64,3.93-4.09c0.66-0.15,0.98-0.23,1.64-0.38
				c-0.18,2.28-1.33,5.09-5.29,6c-4.89,1.13-7.76-2.64-8.7-6.73c-1.06-4.6,0.3-9.08,5-10.17c4.95-1.15,7.52,2.77,8.22,5.79
				c0.1,0.45,0.21,0.9,0.27,1.33C230.4,527.17,228.04,527.72,223.3,528.81z M233.17,525.04c-0.77-3.18-3.09-5.28-6.24-4.55
				c-3.31,0.77-4.29,3.43-3.86,6.89C227.11,526.44,229.13,525.97,233.17,525.04z"/>
			<path d="M235.03,517.43c1.2-0.28,1.79-0.42,2.99-0.69c-0.46-2.01-0.7-3.01-1.16-5.02c0.64-0.15,0.96-0.22,1.61-0.37
				c0.46,2.01,0.7,3.01,1.16,5.02c1.53-0.35,2.3-0.53,3.83-0.89c0.14,0.6,0.21,0.91,0.35,1.51c-1.53,0.35-2.3,0.53-3.83,0.89
				c0.97,4.18,1.45,6.27,2.42,10.45c0.42,1.8,1.04,2.74,2.58,2.38c0.48-0.11,1.15-0.3,1.63-0.58c0.13,0.57,0.2,0.85,0.33,1.41
				c-0.49,0.35-1.25,0.6-1.93,0.75c-2.06,0.48-3.45-0.29-4.05-2.86c-1.04-4.48-1.55-6.71-2.59-11.19c-1.2,0.28-1.79,0.42-2.99,0.69
				C235.24,518.33,235.17,518.03,235.03,517.43z"/>
		</g>
	</g>
	<g>
		<g>
			<path d="M303.71,554.02c0.69-0.16,1.04-0.24,1.74-0.4c0.91,3.92,1.36,5.88,2.27,9.81c5.4-1.25,8.1-1.88,13.51-3.13
				c-0.91-3.92-1.36-5.88-2.27-9.81c0.69-0.16,1.04-0.24,1.74-0.4c2.08,9,3.13,13.51,5.21,22.51c-0.69,0.16-1.04,0.24-1.74,0.4
				c-1.03-4.44-1.54-6.66-2.57-11.09c-5.4,1.25-8.1,1.88-13.51,3.13c1.03,4.44,1.54,6.66,2.57,11.09c-0.69,0.16-1.04,0.24-1.74,0.4
				C306.83,567.53,305.79,563.03,303.71,554.02z"/>
			<path d="M341.68,565.73c0.33,1.41,0.72,2.51,0.93,3c-0.62,0.14-0.93,0.21-1.54,0.36c-0.22-0.36-0.48-1.04-0.86-2.41
				c-0.27,1.32-1.3,3.32-4.61,4.08c-3.73,0.86-5.9-1.18-6.45-3.59c-0.82-3.54,1.54-5.78,6.37-6.89c1.35-0.31,2.41-0.56,3.05-0.71
				c-0.15-0.66-0.23-0.98-0.38-1.64c-0.37-1.61-1.35-3.65-5.02-2.8c-3.25,0.75-3.34,2.57-3.38,3.97c-0.64,0.15-0.96,0.22-1.61,0.37
				c-0.22-1.81,0.24-4.8,4.68-5.83c3.67-0.85,6.08,0.22,6.9,3.76C340.53,560.73,340.91,562.4,341.68,565.73z M338.92,560.95
				c-0.61,0.14-2.09,0.48-3.15,0.73c-3.57,0.83-5.57,2.27-4.93,5.04c0.47,2.03,2.24,3.07,4.49,2.55c4.6-1.06,4.53-4.27,3.73-7.74
				C339,561.3,338.97,561.18,338.92,560.95z"/>
			<path d="M344.98,555.85c-0.63-2.7-0.93-3.85-1.04-4.37c0.63-0.15,0.95-0.22,1.58-0.36c0.15,0.51,0.42,1.53,0.9,3.59
				c0.37-2.63,2.1-4.55,4.67-5.28c0.16,0.69,0.24,1.04,0.4,1.74c-3.29,1-5.01,3.84-4.12,7.66c0.77,3.34,1.16,5.02,1.93,8.36
				c-0.64,0.15-0.96,0.22-1.61,0.37C346.61,562.88,346.07,560.54,344.98,555.85z"/>
			<path d="M364.78,538.64c1.76,7.63,2.65,11.44,4.41,19.07c0.36,1.54,0.7,3.02,1.1,4.62c-0.62,0.14-0.93,0.21-1.54,0.36
				c-0.15-0.37-0.54-1.87-0.72-2.68c-0.35,2.15-1.89,3.69-4.69,4.34c-4.18,0.97-7.48-1.86-8.59-6.68
				c-1.15-4.95,0.74-9.25,5.11-10.26c3.22-0.74,4.82,0.34,5.54,1.26c-0.89-3.86-1.34-5.79-2.23-9.65
				C363.81,538.86,364.14,538.79,364.78,538.64z M356.44,557.2c1.02,4.41,3.85,6.26,6.62,5.62c4.24-0.98,4.72-4.18,3.71-8.55
				c-0.96-4.15-2.51-6.3-6.62-5.34C356.96,549.66,355.4,552.7,356.44,557.2z"/>
			<path d="M394.21,553.57c0.33,1.41,0.72,2.51,0.93,3c-0.62,0.14-0.93,0.21-1.54,0.36c-0.22-0.36-0.48-1.04-0.86-2.41
				c-0.27,1.32-1.3,3.32-4.61,4.08c-3.73,0.86-5.9-1.18-6.45-3.59c-0.82-3.54,1.54-5.78,6.37-6.89c1.35-0.31,2.41-0.56,3.06-0.71
				c-0.15-0.66-0.23-0.98-0.38-1.64c-0.37-1.61-1.35-3.65-5.02-2.8c-3.25,0.75-3.34,2.57-3.38,3.97c-0.64,0.15-0.96,0.22-1.61,0.37
				c-0.22-1.81,0.24-4.8,4.68-5.83c3.67-0.85,6.08,0.22,6.9,3.76C393.06,548.58,393.44,550.24,394.21,553.57z M391.45,548.79
				c-0.61,0.14-2.09,0.48-3.15,0.73c-3.57,0.83-5.57,2.27-4.93,5.04c0.47,2.03,2.24,3.07,4.49,2.55c4.6-1.06,4.53-4.27,3.73-7.74
				C391.53,549.14,391.5,549.03,391.45,548.79z"/>
			<path d="M400.03,547.25c1.11-1.92,4.56-7.53,6.22-10.18c0.82-0.19,1.23-0.29,2.06-0.48c-1.95,3.15-2.93,4.72-4.89,7.87
				c3.76,3.21,5.65,4.81,9.41,8.02c-0.8,0.18-1.2,0.28-1.99,0.46c-3.33-2.87-5-4.31-8.34-7.18c-0.83,1.28-1.24,1.91-2.07,3.19
				c0.56,2.43,0.84,3.65,1.41,6.08c-0.64,0.15-0.96,0.22-1.61,0.37c-2.19-9.48-3.29-14.22-5.48-23.7c0.64-0.15,0.96-0.22,1.61-0.37
				C397.82,537.7,398.56,540.88,400.03,547.25z"/>
			<path d="M409.65,536.28c1.2-0.28,1.79-0.42,2.99-0.69c-0.46-2.01-0.7-3.01-1.16-5.02c0.64-0.15,0.96-0.22,1.61-0.37
				c0.46,2.01,0.7,3.01,1.16,5.02c1.53-0.35,2.3-0.53,3.83-0.89c0.14,0.6,0.21,0.91,0.35,1.51c-1.53,0.35-2.3,0.53-3.83,0.89
				c0.97,4.18,1.45,6.27,2.42,10.45c0.42,1.8,1.04,2.74,2.58,2.38c0.48-0.11,1.15-0.3,1.63-0.58c0.13,0.57,0.2,0.85,0.33,1.41
				c-0.49,0.35-1.25,0.6-1.93,0.75c-2.06,0.48-3.45-0.29-4.05-2.86c-1.04-4.48-1.55-6.71-2.59-11.19c-1.2,0.28-1.79,0.42-2.99,0.69
				C409.86,537.19,409.79,536.89,409.65,536.28z"/>
			<path d="M419.59,525.95c0.64-0.15,0.96-0.22,1.61-0.37c0.29,1.25,0.43,1.87,0.72,3.12c-0.64,0.15-0.96,0.22-1.61,0.37
				C420.02,527.82,419.88,527.2,419.59,525.95z M421.36,533.57c0.64-0.15,0.96-0.22,1.61-0.37c1.49,6.43,2.23,9.65,3.72,16.08
				c-0.64,0.15-0.96,0.22-1.61,0.37C423.59,543.22,422.84,540,421.36,533.57z"/>
			<path d="M427.98,532.04c4.31,6.76,7.27,11.36,8.36,13.28c0.01,0,0.02,0,0.03-0.01c0.08-1.27,0.77-6.48,1.93-15.66
				c0.68-0.16,1.02-0.24,1.7-0.39c-0.94,6.99-1.41,10.49-2.36,17.48c-0.77,0.18-1.16,0.27-1.93,0.45c-3.78-5.9-5.67-8.85-9.44-14.75
				C426.95,532.28,427.3,532.2,427.98,532.04z"/>
			<path d="M441.48,520.89c0.64-0.15,0.96-0.22,1.61-0.37c0.29,1.25,0.43,1.87,0.72,3.12c-0.64,0.15-0.96,0.22-1.61,0.37
				C441.92,522.76,441.77,522.13,441.48,520.89z M443.25,528.51c0.64-0.15,0.96-0.22,1.61-0.37c1.49,6.43,2.23,9.65,3.72,16.08
				c-0.64,0.15-0.96,0.22-1.61,0.37C445.48,538.15,444.74,534.94,443.25,528.51z"/>
			<path d="M447.94,527.42c1.2-0.28,1.79-0.42,2.99-0.69c-0.46-2.01-0.7-3.01-1.16-5.02c0.64-0.15,0.96-0.22,1.61-0.37
				c0.46,2.01,0.7,3.01,1.16,5.02c1.53-0.35,2.3-0.53,3.83-0.89c0.14,0.6,0.21,0.91,0.35,1.51c-1.53,0.35-2.3,0.53-3.83,0.89
				c0.97,4.18,1.45,6.27,2.42,10.45c0.42,1.8,1.04,2.74,2.58,2.38c0.48-0.11,1.15-0.3,1.63-0.58c0.13,0.57,0.2,0.85,0.33,1.41
				c-0.49,0.35-1.25,0.6-1.93,0.75c-2.06,0.48-3.45-0.29-4.05-2.86c-1.04-4.48-1.55-6.71-2.59-11.19c-1.2,0.28-1.79,0.42-2.99,0.69
				C448.15,528.33,448.08,528.02,447.94,527.42z"/>
			<path d="M461.71,532.91c0.99,4.14,3.68,6.23,6.76,5.51c3.02-0.7,3.66-2.64,3.93-4.09c0.66-0.15,0.98-0.23,1.64-0.38
				c-0.18,2.28-1.33,5.09-5.29,6c-4.89,1.13-7.76-2.64-8.7-6.73c-1.06-4.6,0.3-9.08,5-10.17c4.95-1.15,7.52,2.77,8.22,5.79
				c0.1,0.45,0.21,0.9,0.27,1.33C468.81,531.26,466.44,531.81,461.71,532.91z M471.57,529.13c-0.77-3.18-3.09-5.28-6.24-4.55
				c-3.31,0.77-4.29,3.43-3.86,6.89C465.52,530.53,467.54,530.07,471.57,529.13z"/>
			<path d="M473.44,521.52c1.2-0.28,1.79-0.42,2.99-0.69c-0.46-2.01-0.7-3.01-1.16-5.02c0.64-0.15,0.96-0.22,1.61-0.37
				c0.46,2.01,0.7,3.01,1.16,5.02c1.53-0.35,2.3-0.53,3.83-0.89c0.14,0.6,0.21,0.91,0.35,1.51c-1.53,0.35-2.3,0.53-3.83,0.89
				c0.97,4.18,1.45,6.27,2.42,10.45c0.42,1.8,1.04,2.74,2.58,2.38c0.48-0.11,1.15-0.3,1.63-0.58c0.13,0.57,0.2,0.85,0.33,1.41
				c-0.49,0.35-1.25,0.6-1.93,0.75c-2.06,0.48-3.45-0.29-4.05-2.86c-1.04-4.48-1.55-6.71-2.59-11.19c-1.2,0.28-1.79,0.42-2.99,0.69
				C473.65,522.43,473.58,522.12,473.44,521.52z"/>
		</g>
	</g>
</g>
</svg>
