<?xml version="1.0" encoding="utf-8"?>
<!-- Generator: Adobe Illustrator 25.2.1, SVG Export Plug-In . SVG Version: 6.00 Build 0)  -->
<svg version="1.1" xmlns="http://www.w3.org/2000/svg" xmlns:xlink="http://www.w3.org/1999/xlink" x="0px" y="0px"
	 viewBox="0 0 198.43 113.39" style="enable-background:new 0 0 198.43 113.39;" xml:space="preserve">
<style type="text/css">
	.st0{fill:#F4971A;}
	.st1{fill:#010202;}
</style>
<g id="Bakgrunn">
	<rect class="st0" width="198.43" height="113.39"/>
</g>
<g id="Tekst">
	<g>
		<g>
			<path class="st1" d="M26.3,47.54v-7.1c-0.26,0.19-0.91,0.42-1.22,0.45v-0.56c0.55-0.15,1.17-0.49,1.42-0.75h0.47v7.96H26.3z"/>
			<path class="st1" d="M31,43.32c0-1.03,0-1.52-0.01-1.81h0.65c0.02,0.2,0.03,0.52,0.03,0.83c0.23-0.55,0.64-0.93,1.36-0.93
				c0.62,0,1.08,0.26,1.26,0.93c0.2-0.51,0.68-0.93,1.45-0.93c0.71,0,1.43,0.34,1.43,1.73v4.4H36.5v-4.27
				c0-0.66-0.19-1.24-0.93-1.24c-0.84,0-1.14,0.78-1.14,1.61v3.91h-0.67v-4.25c0-0.82-0.27-1.27-0.91-1.27
				c-0.78,0-1.17,0.76-1.17,1.72v3.8H31V43.32z"/>
			<path class="st1" d="M38.68,41.51h0.67v6.04h-0.67V41.51z M38.68,39h0.67v1.2h-0.67V39z"/>
			<path class="st1" d="M40.86,43.37c0-1.23-0.01-1.6-0.01-1.86h0.65c0.01,0.15,0.03,0.38,0.03,0.85c0.21-0.52,0.64-0.95,1.47-0.95
				c0.83,0,1.56,0.45,1.56,1.84v4.3h-0.68v-4.18c0-0.79-0.29-1.34-1.02-1.34c-0.92,0-1.3,0.62-1.3,1.98v3.54h-0.68V43.37z"/>
			<path class="st1" d="M49.7,45.94c0,0.71,0,1.32,0.01,1.61h-0.64c-0.03-0.17-0.04-0.4-0.04-0.86c-0.2,0.61-0.73,0.97-1.47,0.97
				c-0.64,0-1.51-0.24-1.51-1.8v-4.34h0.68v4.18c0,0.84,0.25,1.36,1.01,1.36c0.72,0,1.27-0.46,1.27-1.89v-3.65h0.68V45.94z"/>
			<path class="st1" d="M50.41,41.51h0.87v-1.65h0.66v1.65h1.1v0.6h-1.1v4.21c0,0.44,0.1,0.72,0.56,0.72c0.14,0,0.35-0.01,0.46-0.03
				v0.54c-0.19,0.07-0.46,0.09-0.66,0.09c-0.61,0-1.02-0.26-1.02-1.16V42.1h-0.87V41.51z"/>
			<path class="st1" d="M53.13,41.51H54v-1.65h0.66v1.65h1.1v0.6h-1.1v4.21c0,0.44,0.1,0.72,0.56,0.72c0.14,0,0.35-0.01,0.46-0.03
				v0.54c-0.19,0.07-0.46,0.09-0.66,0.09c-0.61,0-1.02-0.26-1.02-1.16V42.1h-0.87V41.51z"/>
			<path class="st1" d="M58.93,47.54V39h0.67v8.55H58.93z"/>
			<path class="st1" d="M64.82,44.45c0,2.12-0.68,3.21-2,3.21c-1.37,0-2.01-1.05-2.01-3.2c0-2.07,0.78-3.05,2.03-3.05
				C64.12,41.41,64.82,42.42,64.82,44.45z M61.4,47.64H60.9l3.27-6.22h0.52L61.4,47.64z M61.5,44.47c0,1.81,0.5,2.59,1.32,2.59
				c0.84,0,1.31-0.8,1.31-2.62c0-1.63-0.44-2.44-1.31-2.44C62.01,42,61.5,42.69,61.5,44.47z"/>
			<path class="st1" d="M66.69,46.87v2.91h-0.67v-6.5c0-0.83,0-1.39-0.01-1.77h0.65c0.01,0.1,0.03,0.54,0.03,0.87
				c0.22-0.57,0.67-0.97,1.47-0.97c1.15,0,1.76,1.03,1.76,3.04c0,2.1-0.75,3.21-1.93,3.21C67.22,47.65,66.86,47.27,66.69,46.87z
				 M69.22,44.48c0-1.55-0.37-2.46-1.24-2.46c-1.02,0-1.33,0.98-1.33,2.49c0,1.46,0.16,2.52,1.25,2.52
				C68.77,47.04,69.22,46.01,69.22,44.48z"/>
			<path class="st1" d="M73.09,47.78l2.28-8.46h0.6l-2.28,8.46H73.09z"/>
			<path class="st1" d="M80.16,41.51v6.52c0,1.05-0.14,1.84-1.2,1.84c-0.09,0-0.21-0.01-0.32-0.03v-0.61
				c0.1,0.01,0.21,0.01,0.27,0.01c0.5,0,0.58-0.31,0.58-1.04v-6.7H80.16z M79.51,40.2V39h0.67v1.2H79.51z"/>
			<path class="st1" d="M85.39,44.45c0,2.1-0.68,3.21-2,3.21c-1.37,0-2.01-1.07-2.01-3.19c0-2.08,0.79-3.05,2.03-3.05
				C84.68,41.41,85.39,42.42,85.39,44.45z M82.07,44.47c0,1.77,0.48,2.58,1.31,2.58c0.84,0,1.31-0.83,1.31-2.6
				c0-1.62-0.44-2.44-1.31-2.44C82.57,42.01,82.07,42.71,82.07,44.47z"/>
			<path class="st1" d="M90.2,47.2c0,1.54-0.34,2.68-2.03,2.68c-1.5,0-1.82-1.01-1.86-1.63H87c0.02,0.39,0.27,1.04,1.19,1.04
				c1.11,0,1.35-0.8,1.35-2.08v-0.66c-0.21,0.66-0.74,1-1.45,1c-1.19,0-1.81-1-1.81-2.94c0-2.21,0.83-3.19,1.95-3.19
				c0.83,0,1.2,0.4,1.32,0.85c-0.01-0.3,0.03-0.63,0.04-0.75h0.64c-0.01,0.29-0.01,0.91-0.01,1.71V47.2z M86.96,44.59
				c0,1.55,0.44,2.33,1.26,2.33c1.02,0,1.32-1.02,1.32-2.47c0-1.55-0.25-2.43-1.23-2.43C87.43,42.02,86.96,42.94,86.96,44.59z"/>
			<path class="st1" d="M95.34,47.2c0,1.54-0.34,2.68-2.03,2.68c-1.5,0-1.82-1.01-1.86-1.63h0.69c0.02,0.39,0.27,1.04,1.19,1.04
				c1.11,0,1.34-0.8,1.34-2.08v-0.66c-0.21,0.66-0.74,1-1.45,1c-1.19,0-1.81-1-1.81-2.94c0-2.21,0.83-3.19,1.95-3.19
				c0.83,0,1.2,0.4,1.32,0.85c-0.01-0.3,0.03-0.63,0.04-0.75h0.64c-0.01,0.29-0.01,0.91-0.01,1.71V47.2z M92.11,44.59
				c0,1.55,0.44,2.33,1.26,2.33c1.02,0,1.32-1.02,1.32-2.47c0-1.55-0.25-2.43-1.23-2.43C92.57,42.02,92.11,42.94,92.11,44.59z"/>
			<path class="st1" d="M26.3,68.54v-7.1c-0.26,0.19-0.91,0.42-1.22,0.45v-0.56c0.55-0.15,1.17-0.49,1.42-0.75h0.47v7.96H26.3z"/>
			<path class="st1" d="M31,64.32c0-1.03,0-1.52-0.01-1.81h0.65c0.02,0.2,0.03,0.52,0.03,0.83c0.23-0.55,0.64-0.93,1.36-0.93
				c0.62,0,1.08,0.26,1.26,0.93c0.2-0.51,0.68-0.93,1.45-0.93c0.71,0,1.43,0.34,1.43,1.73v4.4H36.5v-4.27
				c0-0.66-0.19-1.25-0.93-1.25c-0.84,0-1.14,0.78-1.14,1.61v3.91h-0.67v-4.25c0-0.82-0.27-1.27-0.91-1.27
				c-0.78,0-1.17,0.76-1.17,1.72v3.8H31V64.32z"/>
			<path class="st1" d="M38.68,62.51h0.67v6.04h-0.67V62.51z M38.68,60h0.67v1.2h-0.67V60z"/>
			<path class="st1" d="M40.86,64.37c0-1.23-0.01-1.6-0.01-1.86h0.65c0.01,0.15,0.03,0.38,0.03,0.85c0.21-0.52,0.64-0.95,1.47-0.95
				c0.83,0,1.56,0.45,1.56,1.84v4.3h-0.68v-4.18c0-0.79-0.29-1.34-1.02-1.34c-0.92,0-1.3,0.62-1.3,1.98v3.54h-0.68V64.37z"/>
			<path class="st1" d="M49.7,66.94c0,0.71,0,1.32,0.01,1.61h-0.64c-0.03-0.17-0.04-0.4-0.04-0.86c-0.2,0.61-0.73,0.97-1.47,0.97
				c-0.64,0-1.51-0.24-1.51-1.8v-4.34h0.68v4.18c0,0.84,0.25,1.36,1.01,1.36c0.72,0,1.27-0.46,1.27-1.89v-3.65h0.68V66.94z"/>
			<path class="st1" d="M50.41,62.51h0.87v-1.65h0.66v1.65h1.1v0.6h-1.1v4.21c0,0.44,0.1,0.72,0.56,0.72c0.14,0,0.35-0.01,0.46-0.03
				v0.54c-0.19,0.07-0.46,0.09-0.66,0.09c-0.61,0-1.02-0.26-1.02-1.16V63.1h-0.87V62.51z"/>
			<path class="st1" d="M53.13,62.51H54v-1.65h0.66v1.65h1.1v0.6h-1.1v4.21c0,0.44,0.1,0.72,0.56,0.72c0.14,0,0.35-0.01,0.46-0.03
				v0.54c-0.19,0.07-0.46,0.09-0.66,0.09c-0.61,0-1.02-0.26-1.02-1.16V63.1h-0.87V62.51z"/>
			<path class="st1" d="M62.55,68.2c0,1.54-0.34,2.68-2.03,2.68c-1.5,0-1.82-1.01-1.86-1.63h0.69c0.02,0.39,0.27,1.04,1.19,1.04
				c1.11,0,1.35-0.8,1.35-2.08v-0.66c-0.21,0.66-0.74,1-1.45,1c-1.19,0-1.81-1-1.81-2.94c0-2.21,0.83-3.19,1.95-3.19
				c0.83,0,1.2,0.4,1.32,0.85c-0.01-0.3,0.03-0.63,0.04-0.75h0.64c-0.01,0.29-0.01,0.91-0.01,1.71V68.2z M59.32,65.59
				c0,1.55,0.44,2.33,1.26,2.33c1.02,0,1.32-1.02,1.32-2.47c0-1.55-0.25-2.43-1.23-2.43C59.78,63.02,59.32,63.94,59.32,65.59z"/>
			<path class="st1" d="M67.41,67.57c0,0.41,0.03,0.81,0.05,0.97h-0.62c-0.03-0.14-0.06-0.48-0.06-0.73
				c-0.22,0.53-0.7,0.84-1.45,0.84c-1.16,0-1.57-0.9-1.57-1.73c0-1.06,0.71-1.91,2.31-1.91c0.31,0,0.49,0,0.68,0.02v-0.86
				c0-0.52-0.11-1.18-1-1.18c-1,0-1.05,0.73-1.09,1.14H64c0.02-0.85,0.44-1.72,1.77-1.72c1.13,0,1.64,0.56,1.64,1.66V67.57z
				 M66.77,65.6c-0.15-0.02-0.33-0.03-0.65-0.03c-1.18,0-1.67,0.57-1.67,1.31c0,0.63,0.34,1.18,1.03,1.18
				c0.95,0,1.29-0.66,1.29-2.07V65.6z"/>
			<path class="st1" d="M68.93,64.37c0-1.23-0.01-1.6-0.01-1.86h0.65c0.01,0.15,0.03,0.38,0.03,0.85c0.21-0.52,0.64-0.95,1.47-0.95
				c0.83,0,1.56,0.45,1.56,1.84v4.3h-0.68v-4.18c0-0.79-0.29-1.34-1.02-1.34c-0.92,0-1.3,0.62-1.3,1.98v3.54h-0.68V64.37z"/>
			<path class="st1" d="M77.74,68.2c0,1.54-0.34,2.68-2.03,2.68c-1.5,0-1.82-1.01-1.86-1.63h0.69c0.02,0.39,0.27,1.04,1.19,1.04
				c1.11,0,1.35-0.8,1.35-2.08v-0.66c-0.21,0.66-0.74,1-1.45,1c-1.19,0-1.81-1-1.81-2.94c0-2.21,0.83-3.19,1.95-3.19
				c0.83,0,1.2,0.4,1.32,0.85c-0.01-0.3,0.03-0.63,0.04-0.75h0.64c-0.01,0.29-0.01,0.91-0.01,1.71V68.2z M74.51,65.59
				c0,1.55,0.44,2.33,1.26,2.33c1.02,0,1.32-1.02,1.32-2.47c0-1.55-0.25-2.43-1.23-2.43C74.97,63.02,74.51,63.94,74.51,65.59z"/>
			<path class="st1" d="M79.65,65.61c0,1.34,0.24,2.44,1.27,2.44c1.04,0,1.18-1.01,1.21-1.19h0.67c-0.01,0.14-0.2,1.79-1.89,1.79
				c-1.71,0-1.95-1.62-1.95-3.12c0-1.91,0.63-3.13,2-3.13c1.52,0,1.88,1.3,1.88,2.79c0,0.08,0,0.25-0.01,0.42H79.65z M82.17,65.05
				c0-1.21-0.28-2.04-1.21-2.04c-1.22,0-1.28,1.64-1.3,2.04H82.17z"/>
		</g>
	</g>
	
		<rect x="113.83" y="52.37" transform="matrix(0.7071 -0.7071 0.7071 0.7071 -1.0948 106.4441)" class="st1" width="28.23" height="4.34"/>
	
		<rect x="113.83" y="52.37" transform="matrix(0.7071 0.7071 -0.7071 0.7071 76.0415 -74.4932)" class="st1" width="28.23" height="4.34"/>
	<g>
		<g>
			<path class="st1" d="M155.78,67.57V38.33c-1.34,0.79-4.67,1.72-6.25,1.87v-2.31c2.84-0.62,6.01-2.03,7.3-3.08h2.4v32.77H155.78z"
				/>
			<path class="st1" d="M184.8,37.41h-12.86c-0.29,3.45-1.04,9.48-1.28,11.41c1.16-1.42,3.21-2.54,6.7-2.54
				c6.5,0,9.21,4.24,9.21,10.12c0,6.19-2.4,11.63-10.3,11.63c-7.49,0-9.53-4.24-9.82-8.23H170c0.24,2.29,1.09,5.8,6.37,5.8
				c5.03,0,6.56-3.95,6.56-8.97c0-4.35-1.37-7.9-6.11-7.9c-3.83,0-5.56,1.81-6.54,4.32l-3.29-0.54c0.59-3.67,1.56-12.54,1.98-17.58
				h16.32L184.8,37.41z"/>
		</g>
	</g>
	<polygon class="st1" points="19.13,46.51 15.99,44.98 12.95,46.7 13.43,43.25 10.86,40.9 14.29,40.28 15.73,37.11 17.38,40.18 
		20.84,40.57 18.43,43.09 	"/>
	<polygon class="st1" points="19.13,68.75 15.99,67.23 12.95,68.95 13.43,65.5 10.86,63.14 14.29,62.53 15.73,59.36 17.38,62.43 
		20.84,62.82 18.43,65.34 	"/>
</g>
</svg>
