<?xml version="1.0" encoding="utf-8"?>
<!-- Generator: Adobe Illustrator 25.2.1, SVG Export Plug-In . SVG Version: 6.00 Build 0)  -->
<svg version="1.1" xmlns="http://www.w3.org/2000/svg" xmlns:xlink="http://www.w3.org/1999/xlink" x="0px" y="0px"
	 viewBox="0 0 198.43 113.39" style="enable-background:new 0 0 198.43 113.39;" xml:space="preserve">
<style type="text/css">
	.st0{fill:#F4971A;}
	.st1{fill:none;stroke:#000000;stroke-miterlimit:10;}
</style>
<g id="Bakgrunn">
	<rect class="st0" width="198.43" height="113.39"/>
</g>
<g id="Bokser">
	<rect x="39.57" y="5.76" class="st1" width="57.98" height="23.16"/>
	<rect x="39.57" y="32.37" class="st1" width="57.98" height="23.16"/>
	<rect x="39.74" y="58.97" class="st1" width="57.8" height="23.16"/>
	<rect x="101.38" y="5.76" class="st1" width="57.8" height="23.16"/>
	<rect x="101.38" y="58.97" class="st1" width="57.8" height="23.16"/>
	<rect x="101.29" y="32.37" class="st1" width="57.98" height="23.16"/>
	<rect x="39.74" y="85.34" class="st1" width="119.43" height="23.16"/>
</g>
<g id="Layer_1">
	<g>
		<g>
			<path d="M69.73,11.97v2.42c0,0.44,0.13,0.83,0.63,0.83c0.51,0,0.64-0.33,0.64-0.84v-2.42h0.22v2.42c0,0.63-0.22,1.04-0.87,1.04
				c-0.62,0-0.85-0.39-0.85-1v-2.45H69.73z"/>
			<path d="M71.54,12.87h0.37v-0.69h0.21v0.69h0.47v0.2h-0.47v1.82c0,0.19,0.04,0.31,0.24,0.31c0.06,0,0.15,0,0.2-0.01v0.18
				c-0.07,0.03-0.18,0.04-0.26,0.04c-0.22,0-0.4-0.1-0.4-0.46v-1.88h-0.37V12.87z"/>
			<path d="M72.99,15.38v-2.3h-0.35v-0.2h0.35v-0.41c0-0.34,0.1-0.68,0.52-0.68c0.06,0,0.14,0.01,0.18,0.02v0.21
				C73.65,12.01,73.59,12,73.51,12c-0.22,0-0.3,0.14-0.3,0.45v0.43h0.42v0.2h-0.42v2.3H72.99z"/>
			<path d="M75.23,15c0,0.18,0.02,0.32,0.02,0.37h-0.2c-0.01-0.06-0.02-0.21-0.02-0.32c-0.09,0.23-0.29,0.36-0.61,0.36
				c-0.48,0-0.65-0.37-0.65-0.71c0-0.42,0.28-0.79,0.95-0.79c0.14,0,0.21,0,0.3,0.01v-0.37c0-0.23-0.05-0.53-0.45-0.53
				c-0.45,0-0.47,0.33-0.49,0.5h-0.22c0.01-0.35,0.18-0.7,0.71-0.7c0.45,0,0.65,0.23,0.65,0.68V15z M75.02,14.13
				c-0.06-0.01-0.14-0.02-0.29-0.02c-0.52,0-0.74,0.25-0.74,0.58c0,0.28,0.15,0.52,0.46,0.52c0.41,0,0.58-0.28,0.58-0.91V14.13z"/>
			<path d="M75.88,15.38v-3.57h0.22v3.57H75.88z"/>
			<path d="M76.75,15.38v-3.57h0.22v3.57H76.75z"/>
			<path d="M69.53,17.97h0.79c0.52,0,0.85,0.33,0.85,0.91s-0.3,0.97-0.91,0.97h-0.5v1.53h-0.22V17.97z M69.75,19.64h0.48
				c0.45,0,0.7-0.25,0.7-0.77c0-0.4-0.21-0.7-0.65-0.7h-0.53V19.64z"/>
			<path d="M73.1,20.73c0,0.28,0,0.54,0,0.65h-0.21c-0.01-0.07-0.02-0.16-0.02-0.37c-0.08,0.26-0.31,0.42-0.62,0.42
				c-0.25,0-0.63-0.08-0.63-0.75v-1.8h0.22v1.75c0,0.37,0.11,0.6,0.45,0.6c0.31,0,0.57-0.2,0.57-0.84v-1.51h0.22V20.73z"/>
			<path d="M73.76,20.68c0.02,0.33,0.2,0.54,0.52,0.54c0.33,0,0.49-0.21,0.49-0.48c0-0.31-0.17-0.45-0.52-0.59
				c-0.47-0.19-0.62-0.36-0.62-0.7c0-0.33,0.2-0.62,0.65-0.62c0.49,0,0.65,0.33,0.66,0.67h-0.22c-0.01-0.14-0.05-0.47-0.45-0.47
				c-0.29,0-0.42,0.18-0.42,0.42c0,0.23,0.09,0.34,0.46,0.49c0.45,0.18,0.68,0.34,0.68,0.79c0,0.43-0.27,0.69-0.73,0.69
				c-0.46,0-0.71-0.28-0.73-0.74H73.76z"/>
			<path d="M75.71,17.81v1.41c0.09-0.23,0.3-0.39,0.62-0.39c0.34,0,0.64,0.2,0.64,0.76v1.79h-0.22v-1.74c0-0.35-0.12-0.6-0.47-0.6
				c-0.4,0-0.57,0.34-0.57,0.85v1.49h-0.22v-3.57H75.71z"/>
			<path d="M79.07,20.73c0,0.28,0,0.54,0,0.65h-0.21c-0.01-0.07-0.02-0.16-0.02-0.37c-0.08,0.26-0.31,0.42-0.62,0.42
				c-0.25,0-0.63-0.08-0.63-0.75v-1.8h0.22v1.75c0,0.37,0.11,0.6,0.45,0.6c0.31,0,0.57-0.2,0.57-0.84v-1.51h0.22V20.73z"/>
			<path d="M79.93,21.08v1.23h-0.22v-2.7c0-0.35,0-0.58-0.01-0.74h0.21c0,0.04,0.01,0.23,0.01,0.38c0.09-0.25,0.29-0.42,0.62-0.42
				c0.48,0,0.73,0.44,0.73,1.26c0,0.85-0.31,1.33-0.8,1.33C80.15,21.42,80,21.25,79.93,21.08z M81.05,20.11
				c0-0.65-0.16-1.07-0.54-1.07c-0.45,0-0.59,0.43-0.59,1.09c0,0.61,0.07,1.09,0.56,1.09C80.86,21.22,81.05,20.76,81.05,20.11z"/>
			<path d="M81.83,20.68c0.02,0.33,0.2,0.54,0.52,0.54c0.33,0,0.49-0.21,0.49-0.48c0-0.31-0.17-0.45-0.52-0.59
				c-0.47-0.19-0.62-0.36-0.62-0.7c0-0.33,0.2-0.62,0.65-0.62c0.49,0,0.65,0.33,0.66,0.67h-0.22c-0.01-0.14-0.05-0.47-0.45-0.47
				c-0.29,0-0.42,0.18-0.42,0.42c0,0.23,0.09,0.34,0.46,0.49c0.45,0.18,0.68,0.34,0.68,0.79c0,0.43-0.27,0.69-0.73,0.69
				c-0.46,0-0.71-0.28-0.73-0.74H81.83z"/>
		</g>
	</g>
	<g>
		<g>
			<path d="M43.8,40.75v1.64h-0.22v-3.41h0.79c0.54,0,0.81,0.33,0.81,0.85c0,0.52-0.24,0.74-0.46,0.81
				c0.35,0.11,0.43,0.42,0.43,0.88v0.13c0,0.27,0.01,0.55,0.05,0.74h-0.23c-0.04-0.16-0.04-0.48-0.04-0.75v-0.11
				c0-0.5-0.1-0.79-0.6-0.79H43.8z M43.8,40.54h0.53c0.44,0,0.61-0.28,0.61-0.71c0-0.37-0.17-0.64-0.59-0.64H43.8V40.54z"/>
			<path d="M47.22,41.1c0,0.86-0.27,1.33-0.8,1.33c-0.56,0-0.81-0.45-0.81-1.33c0-0.86,0.32-1.26,0.82-1.26
				C46.94,39.85,47.22,40.26,47.22,41.1z M45.83,41.11c0,0.78,0.22,1.12,0.58,1.12c0.37,0,0.58-0.35,0.58-1.13
				c0-0.7-0.2-1.06-0.58-1.06C46.06,40.05,45.83,40.34,45.83,41.11z"/>
			<path d="M47.74,38.82h0.22v0.48h-0.22V38.82z M47.74,39.89h0.22v2.5h-0.22V39.89z"/>
			<path d="M48.6,40.66c0-0.51-0.01-0.67-0.01-0.77h0.21c0,0.06,0.01,0.16,0.01,0.37c0.09-0.23,0.27-0.41,0.62-0.41
				c0.33,0,0.65,0.17,0.65,0.76v1.78h-0.22v-1.75c0-0.34-0.13-0.59-0.45-0.59c-0.42,0-0.58,0.29-0.58,0.89v1.45H48.6V40.66z"/>
			<path d="M52.18,42.26c0,0.62-0.13,1.1-0.82,1.1c-0.6,0-0.73-0.42-0.75-0.67h0.23c0.01,0.18,0.13,0.47,0.53,0.47
				c0.49,0,0.6-0.35,0.6-0.9v-0.31c-0.09,0.29-0.31,0.44-0.61,0.44c-0.49,0-0.75-0.4-0.75-1.22c0-0.93,0.35-1.32,0.81-1.32
				c0.35,0,0.51,0.17,0.56,0.37c0-0.13,0.01-0.28,0.02-0.33h0.21c0,0.12,0,0.37,0,0.7V42.26z M50.83,41.17
				c0,0.67,0.19,1.02,0.56,1.02c0.45,0,0.59-0.45,0.59-1.07c0-0.68-0.12-1.06-0.55-1.06C51.03,40.05,50.83,40.46,50.83,41.17z"/>
			<path d="M53.81,40.64c0-0.41,0-0.63-0.01-0.75h0.21c0.01,0.09,0.01,0.22,0.01,0.36c0.09-0.23,0.26-0.4,0.57-0.4
				c0.26,0,0.45,0.11,0.53,0.39c0.08-0.22,0.28-0.39,0.6-0.39c0.28,0,0.59,0.13,0.59,0.71v1.83h-0.22V40.6
				c0-0.29-0.08-0.55-0.41-0.55c-0.37,0-0.51,0.35-0.51,0.71v1.63h-0.22v-1.78c0-0.36-0.12-0.56-0.4-0.56
				c-0.34,0-0.52,0.35-0.52,0.76v1.58h-0.22V40.64z"/>
			<path d="M57.05,41.15c0,0.6,0.11,1.08,0.56,1.08c0.46,0,0.52-0.46,0.54-0.53h0.22c-0.01,0.06-0.08,0.73-0.76,0.73
				c-0.69,0-0.78-0.67-0.78-1.29c0-0.79,0.25-1.3,0.81-1.3c0.61,0,0.75,0.54,0.75,1.15c0,0.02,0,0.08-0.01,0.16H57.05z M58.17,40.96
				c0-0.55-0.13-0.91-0.54-0.91c-0.54,0-0.57,0.74-0.58,0.91H58.17z"/>
			<path d="M60.34,38.82v2.96c0,0.21,0,0.46,0,0.61h-0.21c0-0.06-0.01-0.25-0.01-0.38c-0.08,0.24-0.24,0.43-0.61,0.43
				c-0.52,0-0.75-0.42-0.75-1.33c0-0.82,0.32-1.26,0.81-1.26c0.36,0,0.48,0.16,0.54,0.3v-1.33H60.34z M59,41.11
				c0,0.82,0.2,1.12,0.55,1.12c0.45,0,0.58-0.4,0.58-1.13c0-0.83-0.14-1.05-0.55-1.05C59.24,40.05,59,40.37,59,41.11z"/>
			<path d="M61.99,41.69c0.02,0.33,0.2,0.54,0.52,0.54c0.33,0,0.49-0.21,0.49-0.48c0-0.31-0.17-0.45-0.52-0.59
				c-0.47-0.19-0.62-0.36-0.62-0.7c0-0.33,0.2-0.62,0.65-0.62c0.49,0,0.65,0.33,0.66,0.67h-0.22c-0.01-0.14-0.05-0.47-0.45-0.47
				c-0.29,0-0.42,0.18-0.42,0.42c0,0.23,0.09,0.34,0.46,0.49c0.45,0.18,0.68,0.34,0.68,0.79c0,0.43-0.27,0.69-0.73,0.69
				c-0.46,0-0.71-0.28-0.73-0.74H61.99z"/>
			<path d="M63.37,39.89h0.37v-0.69h0.21v0.69h0.47v0.2h-0.47v1.82c0,0.19,0.04,0.31,0.24,0.31c0.06,0,0.15,0,0.2-0.01v0.18
				c-0.07,0.03-0.18,0.04-0.26,0.04c-0.22,0-0.4-0.1-0.4-0.46v-1.88h-0.37V39.89z"/>
			<path d="M64.79,40.74c0-0.39,0-0.68-0.01-0.86H65c0,0.08,0.01,0.2,0.01,0.47c0.11-0.31,0.37-0.5,0.67-0.5v0.23
				c-0.44,0.03-0.67,0.4-0.67,0.85v1.45h-0.22V40.74z"/>
			<path d="M66.05,38.82h0.22v0.48h-0.22V38.82z M66.05,39.89h0.22v2.5h-0.22V39.89z"/>
			<path d="M67.13,41.14c0.15-0.2,0.7-0.92,0.94-1.25h0.25c-0.24,0.32-0.51,0.66-0.75,0.98c0,0,0.85,1.52,0.85,1.52h-0.25
				l-0.74-1.35c-0.07,0.09-0.21,0.28-0.29,0.37v0.98h-0.22v-3.57h0.22V41.14z"/>
			<path d="M68.93,41.14c0.15-0.2,0.7-0.92,0.94-1.25h0.25c-0.24,0.32-0.51,0.66-0.75,0.98c0,0,0.85,1.52,0.85,1.52h-0.25
				l-0.74-1.35c-0.07,0.09-0.21,0.28-0.29,0.37v0.98h-0.22v-3.57h0.22V41.14z"/>
			<path d="M45.59,46.82c0-0.67,0.01-1.29,0.02-1.63H45.6c-0.13,0.55-0.52,2.14-0.82,3.2h-0.24c-0.23-0.88-0.63-2.59-0.77-3.21
				h-0.01c0.02,0.4,0.03,1.17,0.03,1.75v1.46h-0.22v-3.41h0.33c0.34,1.15,0.67,2.67,0.76,3.08h0c0.06-0.31,0.47-1.97,0.8-3.08h0.34
				v3.41h-0.23V46.82z"/>
			<path d="M47.99,47.1c0,0.86-0.27,1.33-0.8,1.33c-0.56,0-0.81-0.45-0.81-1.33c0-0.86,0.32-1.26,0.82-1.26
				C47.7,45.85,47.99,46.26,47.99,47.1z M46.6,47.11c0,0.78,0.22,1.12,0.58,1.12c0.37,0,0.58-0.35,0.58-1.13
				c0-0.7-0.2-1.06-0.58-1.06C46.82,46.05,46.6,46.34,46.6,47.11z"/>
			<path d="M49.97,47.74c0,0.28,0,0.54,0,0.65h-0.21c-0.01-0.07-0.02-0.16-0.02-0.37c-0.08,0.26-0.31,0.42-0.62,0.42
				c-0.25,0-0.63-0.08-0.63-0.75v-1.8h0.22v1.75c0,0.37,0.11,0.6,0.45,0.6c0.31,0,0.57-0.2,0.57-0.84v-1.51h0.22V47.74z"/>
			<path d="M50.61,46.66c0-0.51-0.01-0.67-0.01-0.77h0.21c0,0.06,0.01,0.16,0.01,0.37c0.09-0.23,0.27-0.41,0.62-0.41
				c0.33,0,0.65,0.17,0.65,0.76v1.78h-0.22v-1.75c0-0.34-0.13-0.59-0.45-0.59c-0.42,0-0.58,0.29-0.58,0.89v1.45h-0.22V46.66z"/>
			<path d="M52.4,45.89h0.37v-0.69h0.21v0.69h0.47v0.2h-0.47v1.82c0,0.19,0.04,0.31,0.24,0.31c0.06,0,0.15,0,0.2-0.01v0.18
				c-0.07,0.03-0.18,0.04-0.26,0.04c-0.22,0-0.4-0.1-0.4-0.46v-1.88H52.4V45.89z"/>
			<path d="M55.15,48.02c0,0.18,0.02,0.32,0.02,0.37h-0.2c-0.01-0.06-0.02-0.21-0.02-0.32c-0.09,0.23-0.29,0.36-0.61,0.36
				c-0.48,0-0.65-0.37-0.65-0.71c0-0.42,0.28-0.79,0.95-0.79c0.14,0,0.21,0,0.3,0.01v-0.37c0-0.23-0.05-0.53-0.45-0.53
				c-0.45,0-0.47,0.33-0.49,0.5h-0.22c0.01-0.35,0.18-0.7,0.71-0.7c0.45,0,0.65,0.23,0.65,0.68V48.02z M54.94,47.15
				c-0.06-0.01-0.14-0.02-0.29-0.02c-0.52,0-0.74,0.25-0.74,0.58c0,0.28,0.15,0.52,0.46,0.52c0.41,0,0.58-0.28,0.58-0.91V47.15z"/>
			<path d="M55.8,44.82h0.22v0.48H55.8V44.82z M55.8,45.89h0.22v2.5H55.8V45.89z"/>
			<path d="M56.67,46.66c0-0.51-0.01-0.67-0.01-0.77h0.21c0,0.06,0.01,0.16,0.01,0.37c0.09-0.23,0.27-0.41,0.62-0.41
				c0.33,0,0.65,0.17,0.65,0.76v1.78h-0.22v-1.75c0-0.34-0.13-0.59-0.45-0.59c-0.42,0-0.58,0.29-0.58,0.89v1.45h-0.22V46.66z"/>
			<path d="M61.45,47.48c-0.02,0.21-0.11,0.96-0.86,0.96c-0.87,0-0.91-1.03-0.91-1.79c0-0.92,0.22-1.71,0.95-1.71
				c0.77,0,0.8,0.77,0.8,0.93H61.2c0-0.12-0.03-0.72-0.58-0.72c-0.63,0-0.71,0.9-0.71,1.49c0,0.77,0.09,1.57,0.68,1.57
				c0.51,0,0.61-0.54,0.62-0.74H61.45z"/>
			<path d="M61.92,48.39v-3.57h0.22v3.57H61.92z"/>
			<path d="M62.79,44.82h0.22v0.48h-0.22V44.82z M62.79,45.89h0.22v2.5h-0.22V45.89z"/>
			<path d="M63.65,46.64c0-0.41,0-0.63-0.01-0.75h0.21c0.01,0.09,0.01,0.22,0.01,0.36c0.09-0.23,0.26-0.4,0.57-0.4
				c0.26,0,0.45,0.11,0.53,0.39c0.08-0.22,0.28-0.39,0.6-0.39c0.28,0,0.59,0.13,0.59,0.71v1.83h-0.22V46.6
				c0-0.29-0.08-0.55-0.41-0.55c-0.37,0-0.51,0.35-0.51,0.71v1.63h-0.22v-1.78c0-0.36-0.12-0.56-0.4-0.56
				c-0.34,0-0.52,0.35-0.52,0.76v1.58h-0.22V46.64z"/>
			<path d="M66.8,44.82h0.22v1.45c0.08-0.21,0.26-0.43,0.62-0.43c0.46,0,0.73,0.37,0.73,1.23c0,0.76-0.21,1.35-0.8,1.35
				c-0.32,0-0.48-0.16-0.56-0.37c0,0.1,0,0.21-0.01,0.33h-0.2c0.01-0.11,0.01-0.33,0.01-0.68V44.82z M68.15,47.08
				c0-0.72-0.2-1.03-0.53-1.03c-0.46,0-0.61,0.44-0.61,1.09c0,0.61,0.11,1.09,0.56,1.09C67.94,48.22,68.15,47.86,68.15,47.08z"/>
			<path d="M68.98,47.15c0,0.6,0.11,1.08,0.56,1.08c0.46,0,0.52-0.46,0.54-0.53h0.22c-0.01,0.06-0.08,0.73-0.76,0.73
				c-0.69,0-0.78-0.67-0.78-1.29c0-0.79,0.25-1.3,0.81-1.3c0.61,0,0.75,0.54,0.75,1.15c0,0.02,0,0.08-0.01,0.16H68.98z M70.09,46.96
				c0-0.55-0.13-0.91-0.54-0.91c-0.54,0-0.57,0.74-0.58,0.91H70.09z"/>
			<path d="M70.82,46.74c0-0.39,0-0.68-0.01-0.86h0.21c0,0.08,0.01,0.2,0.01,0.47c0.11-0.31,0.37-0.5,0.67-0.5v0.23
				c-0.44,0.03-0.67,0.4-0.67,0.85v1.45h-0.22V46.74z"/>
		</g>
	</g>
	<g>
		<g>
			<path d="M70.47,66.33c0-0.67,0.01-1.29,0.02-1.63h-0.01c-0.13,0.55-0.52,2.14-0.82,3.2h-0.24c-0.23-0.88-0.63-2.59-0.77-3.21
				h-0.01c0.02,0.4,0.03,1.17,0.03,1.75v1.46h-0.22v-3.41h0.33c0.34,1.15,0.67,2.67,0.76,3.08h0c0.06-0.31,0.47-1.97,0.8-3.08h0.34
				v3.41h-0.23V66.33z"/>
			<path d="M72.71,67.53c0,0.18,0.02,0.32,0.02,0.38h-0.2c-0.01-0.06-0.02-0.21-0.02-0.32c-0.09,0.23-0.29,0.36-0.61,0.36
				c-0.48,0-0.65-0.37-0.65-0.71c0-0.42,0.28-0.79,0.95-0.79c0.14,0,0.21,0,0.3,0.01v-0.37c0-0.23-0.05-0.53-0.45-0.53
				c-0.45,0-0.47,0.33-0.49,0.5h-0.22c0.01-0.35,0.18-0.7,0.71-0.7c0.45,0,0.65,0.23,0.65,0.68V67.53z M72.5,66.66
				c-0.06-0.01-0.14-0.01-0.29-0.01c-0.52,0-0.74,0.25-0.74,0.58c0,0.28,0.15,0.52,0.46,0.52c0.41,0,0.58-0.28,0.58-0.91V66.66z"/>
			<path d="M73.36,66.25c0-0.39,0-0.68-0.01-0.86h0.21c0,0.08,0.01,0.2,0.01,0.47c0.11-0.31,0.37-0.5,0.67-0.5v0.24
				c-0.44,0.03-0.67,0.4-0.67,0.85v1.45h-0.22V66.25z"/>
			<path d="M74.83,66.65c0.15-0.2,0.7-0.92,0.94-1.25h0.25c-0.24,0.32-0.51,0.66-0.75,0.98l0.85,1.52h-0.25l-0.74-1.35
				c-0.07,0.09-0.21,0.28-0.29,0.37v0.98h-0.22v-3.57h0.22V66.65z"/>
			<path d="M76.41,67.9v-3.57h0.22v3.57H76.41z"/>
			<path d="M78.76,66.62c0,0.86-0.27,1.33-0.8,1.33c-0.56,0-0.81-0.45-0.81-1.33c0-0.86,0.32-1.26,0.82-1.26
				C78.48,65.36,78.76,65.77,78.76,66.62z M77.37,67.95h-0.19l1.34-2.59h0.2L77.37,67.95z M77.37,66.62c0,0.78,0.22,1.12,0.58,1.12
				c0.37,0,0.58-0.35,0.58-1.13c0-0.7-0.2-1.06-0.58-1.06C77.6,65.56,77.37,65.85,77.37,66.62z"/>
			<path d="M79.31,67.9v-2.3h-0.35v-0.2h0.35v-0.41c0-0.34,0.1-0.68,0.52-0.68c0.06,0,0.14,0.01,0.18,0.03v0.21
				c-0.05-0.01-0.11-0.03-0.18-0.03c-0.22,0-0.3,0.14-0.3,0.45v0.43h0.42v0.2h-0.42v2.3H79.31z"/>
			<path d="M79.89,65.4h0.37v-0.7h0.21v0.7h0.47v0.2h-0.47v1.82c0,0.19,0.04,0.31,0.24,0.31c0.06,0,0.15,0,0.2-0.02v0.18
				c-0.07,0.03-0.18,0.04-0.26,0.04c-0.22,0-0.4-0.1-0.4-0.46V65.6h-0.37V65.4z"/>
			<path d="M68.68,72.26v1.64h-0.22v-3.41h0.79c0.54,0,0.81,0.33,0.81,0.85c0,0.52-0.24,0.74-0.46,0.81
				c0.35,0.11,0.43,0.42,0.43,0.88v0.13c0,0.27,0.01,0.55,0.05,0.74h-0.23c-0.04-0.16-0.04-0.48-0.04-0.75v-0.11
				c0-0.5-0.1-0.79-0.6-0.79H68.68z M68.68,72.05h0.53c0.44,0,0.61-0.28,0.61-0.71c0-0.37-0.17-0.64-0.59-0.64h-0.55V72.05z"/>
			<path d="M70.59,71.4c0.33,1.21,0.56,2,0.59,2.25h0c0.05-0.24,0.31-1.18,0.59-2.25h0.24l-0.74,2.64c-0.2,0.7-0.33,0.84-0.69,0.84
				c-0.05,0-0.11,0-0.15-0.01v-0.21c0.04,0.01,0.1,0.01,0.16,0.01c0.29,0,0.36-0.22,0.48-0.69l-0.72-2.57H70.59z"/>
			<path d="M73.85,73.77c0,0.62-0.13,1.1-0.82,1.1c-0.6,0-0.73-0.42-0.75-0.67h0.23c0.01,0.18,0.13,0.47,0.53,0.47
				c0.49,0,0.6-0.35,0.6-0.9v-0.31c-0.09,0.29-0.31,0.44-0.61,0.44c-0.49,0-0.75-0.4-0.75-1.22c0-0.93,0.35-1.32,0.81-1.32
				c0.35,0,0.51,0.17,0.56,0.37c0-0.13,0.01-0.28,0.02-0.33h0.21c0,0.12,0,0.37,0,0.7V73.77z M72.49,72.68
				c0,0.67,0.19,1.02,0.56,1.02c0.45,0,0.59-0.45,0.59-1.07c0-0.68-0.12-1.06-0.55-1.06C72.7,71.56,72.49,71.97,72.49,72.68z"/>
			<path d="M75.95,73.77c0,0.62-0.13,1.1-0.82,1.1c-0.6,0-0.73-0.42-0.75-0.67h0.23c0.01,0.18,0.13,0.47,0.53,0.47
				c0.49,0,0.6-0.35,0.6-0.9v-0.31c-0.09,0.29-0.31,0.44-0.61,0.44c-0.49,0-0.75-0.4-0.75-1.22c0-0.93,0.35-1.32,0.81-1.32
				c0.35,0,0.51,0.17,0.56,0.37c0-0.13,0.01-0.28,0.02-0.33h0.21c0,0.12,0,0.37,0,0.7V73.77z M74.6,72.68
				c0,0.67,0.19,1.02,0.56,1.02c0.45,0,0.59-0.45,0.59-1.07c0-0.68-0.12-1.06-0.55-1.06C74.8,71.56,74.6,71.97,74.6,72.68z"/>
			<path d="M76.84,70.33v1.41c0.09-0.23,0.3-0.39,0.62-0.39c0.34,0,0.64,0.2,0.64,0.76v1.79h-0.22v-1.74c0-0.35-0.12-0.6-0.47-0.6
				c-0.4,0-0.57,0.34-0.57,0.85v1.49h-0.22v-3.57H76.84z"/>
			<path d="M78.83,72.66c0,0.6,0.11,1.08,0.56,1.08c0.46,0,0.52-0.46,0.54-0.53h0.22c-0.01,0.06-0.08,0.73-0.76,0.73
				c-0.69,0-0.78-0.67-0.78-1.29c0-0.79,0.25-1.3,0.81-1.3c0.61,0,0.75,0.54,0.75,1.15c0,0.02,0,0.08-0.01,0.16H78.83z M79.94,72.47
				c0-0.55-0.13-0.91-0.54-0.91c-0.54,0-0.57,0.74-0.58,0.91H79.94z"/>
			<path d="M80.64,71.4c0.24,0.88,0.54,1.99,0.59,2.23h0c0.03-0.2,0.51-1.85,0.61-2.23h0.22l-0.73,2.5H81.1l-0.69-2.5H80.64z"/>
		</g>
	</g>
	<g>
		<g>
			<path d="M105.7,11.61h0.22v1.78c0.28-0.37,0.91-1.24,1.31-1.78h0.25l-1.04,1.41l1.07,2h-0.26l-0.96-1.81l-0.37,0.49v1.32h-0.22
				V11.61z"/>
			<path d="M107.76,13.29c0-0.51,0-0.67,0-0.77h0.21c0,0.06,0.01,0.16,0.01,0.37c0.09-0.23,0.27-0.41,0.62-0.41
				c0.33,0,0.65,0.17,0.65,0.76v1.78h-0.22v-1.75c0-0.34-0.13-0.59-0.45-0.59c-0.42,0-0.58,0.29-0.58,0.89v1.45h-0.22V13.29z"/>
			<path d="M109.98,13.78c0,0.6,0.11,1.08,0.56,1.08c0.46,0,0.52-0.46,0.54-0.53h0.22c0,0.06-0.08,0.73-0.76,0.73
				c-0.69,0-0.78-0.67-0.78-1.29c0-0.79,0.25-1.3,0.81-1.3c0.61,0,0.75,0.54,0.75,1.15c0,0.02,0,0.08-0.01,0.16H109.98z
				 M111.1,13.58c0-0.55-0.13-0.91-0.54-0.91c-0.54,0-0.57,0.74-0.58,0.91H111.1z"/>
			<path d="M111.83,11.45h0.22v1.45c0.08-0.21,0.26-0.43,0.62-0.43c0.46,0,0.73,0.37,0.73,1.23c0,0.76-0.21,1.35-0.8,1.35
				c-0.32,0-0.48-0.16-0.56-0.37c0,0.1,0,0.21-0.01,0.33h-0.2c0.01-0.11,0.01-0.33,0.01-0.68V11.45z M113.18,13.71
				c0-0.72-0.2-1.03-0.53-1.03c-0.46,0-0.61,0.44-0.61,1.09c0,0.61,0.11,1.09,0.56,1.09C112.97,14.85,113.18,14.48,113.18,13.71z"/>
			<path d="M115.4,13.73c0,0.86-0.27,1.33-0.8,1.33c-0.56,0-0.81-0.45-0.81-1.33c0-0.86,0.32-1.26,0.82-1.26
				C115.11,12.47,115.4,12.89,115.4,13.73z M114,15.06h-0.19l1.34-2.59h0.2L114,15.06z M114.01,13.74c0,0.78,0.22,1.12,0.58,1.12
				c0.37,0,0.58-0.35,0.58-1.13c0-0.7-0.2-1.06-0.58-1.06C114.24,12.68,114.01,12.97,114.01,13.74z"/>
			<path d="M115.9,12.51c0.33,1.21,0.56,2,0.59,2.25h0c0.05-0.24,0.31-1.19,0.59-2.25h0.24l-0.74,2.64c-0.2,0.7-0.33,0.84-0.69,0.84
				c-0.05,0-0.11,0-0.15-0.01v-0.21c0.04,0.01,0.1,0.02,0.16,0.02c0.29,0,0.36-0.22,0.48-0.69l-0.72-2.57H115.9z"/>
			<path d="M105.7,17.61h0.79c0.52,0,0.85,0.33,0.85,0.91s-0.3,0.97-0.91,0.97h-0.5v1.53h-0.22V17.61z M105.92,19.28h0.48
				c0.45,0,0.7-0.25,0.7-0.77c0-0.4-0.21-0.7-0.65-0.7h-0.53V19.28z"/>
			<path d="M107.8,21.02v-3.57h0.22v3.57H107.8z"/>
			<path d="M110,20.64c0,0.18,0.01,0.32,0.02,0.37h-0.2c-0.01-0.06-0.03-0.21-0.03-0.32c-0.09,0.23-0.29,0.36-0.61,0.36
				c-0.48,0-0.65-0.37-0.65-0.71c0-0.42,0.28-0.79,0.95-0.79c0.14,0,0.21,0,0.3,0.01V19.2c0-0.23-0.05-0.53-0.45-0.53
				c-0.45,0-0.47,0.33-0.49,0.5h-0.22c0.01-0.35,0.18-0.7,0.71-0.7c0.45,0,0.66,0.23,0.66,0.68V20.64z M109.79,19.77
				c-0.07-0.01-0.14-0.02-0.29-0.02c-0.52,0-0.75,0.25-0.75,0.58c0,0.28,0.15,0.52,0.46,0.52c0.41,0,0.58-0.28,0.58-0.91V19.77z"/>
			<path d="M110.65,19.29c0-0.51,0-0.67,0-0.77h0.21c0,0.06,0.01,0.16,0.01,0.37c0.09-0.23,0.27-0.41,0.62-0.41
				c0.33,0,0.65,0.17,0.65,0.76v1.78h-0.22v-1.75c0-0.34-0.13-0.59-0.45-0.59c-0.42,0-0.58,0.29-0.58,0.89v1.45h-0.22V19.29z"/>
			<path d="M112.99,19.77c0.15-0.2,0.7-0.92,0.94-1.25h0.25c-0.24,0.32-0.51,0.66-0.75,0.98l0.85,1.52h-0.25l-0.74-1.35
				c-0.07,0.09-0.21,0.28-0.29,0.37v0.98h-0.22v-3.57h0.22V19.77z"/>
			<path d="M116.04,20.25c0,0.4-0.03,0.81-0.57,0.81c-0.08,0-0.18-0.01-0.23-0.02v-0.2c0.06,0.01,0.13,0.02,0.22,0.02
				c0.3,0,0.35-0.2,0.35-0.57v-2.67h0.22V20.25z"/>
			<path d="M118.03,20.64c0,0.18,0.02,0.32,0.02,0.37h-0.2c-0.01-0.06-0.02-0.21-0.02-0.32c-0.09,0.23-0.29,0.36-0.61,0.36
				c-0.48,0-0.65-0.37-0.65-0.71c0-0.42,0.28-0.79,0.95-0.79c0.14,0,0.21,0,0.3,0.01V19.2c0-0.23-0.05-0.53-0.45-0.53
				c-0.45,0-0.47,0.33-0.49,0.5h-0.22c0.01-0.35,0.18-0.7,0.71-0.7c0.45,0,0.65,0.23,0.65,0.68V20.64z M117.82,19.77
				c-0.06-0.01-0.14-0.02-0.29-0.02c-0.52,0-0.74,0.25-0.74,0.58c0,0.28,0.15,0.52,0.46,0.52c0.41,0,0.58-0.28,0.58-0.91V19.77z"/>
			<path d="M120.08,20.31c-0.01,0.09-0.07,0.75-0.74,0.75c-0.61,0-0.79-0.58-0.79-1.3c0-0.73,0.23-1.29,0.82-1.29
				c0.67,0,0.71,0.65,0.71,0.74h-0.23c-0.01-0.1-0.05-0.54-0.48-0.54c-0.43,0-0.59,0.47-0.59,1.09c0,0.68,0.17,1.1,0.57,1.1
				c0.42,0,0.48-0.43,0.5-0.55H120.08z"/>
			<path d="M120.77,19.77c0.15-0.2,0.71-0.92,0.94-1.25h0.25c-0.24,0.32-0.51,0.66-0.75,0.98c0,0,0.85,1.52,0.85,1.52h-0.25
				l-0.74-1.35c-0.08,0.09-0.21,0.28-0.29,0.37v0.98h-0.22v-3.57h0.22V19.77z"/>
			<path d="M122.37,20.32c0.02,0.33,0.2,0.54,0.52,0.54c0.33,0,0.49-0.21,0.49-0.48c0-0.31-0.17-0.45-0.52-0.59
				c-0.47-0.19-0.62-0.36-0.62-0.7c0-0.33,0.2-0.62,0.65-0.62c0.5,0,0.66,0.33,0.66,0.67h-0.22c-0.01-0.14-0.05-0.47-0.45-0.47
				c-0.29,0-0.42,0.18-0.42,0.42c0,0.23,0.09,0.34,0.46,0.49c0.45,0.18,0.68,0.34,0.68,0.79c0,0.43-0.27,0.69-0.73,0.69
				c-0.46,0-0.71-0.28-0.73-0.74H122.37z"/>
		</g>
	</g>
	<g>
		<g>
			<path d="M105.7,64h1.45v0.21h-1.23v1.3h1.15v0.21h-1.15v1.69h-0.22V64z"/>
			<path d="M107.52,67.41v-3.57h0.22v3.57H107.52z"/>
			<path d="M108.37,64.9c0.33,1.21,0.56,2,0.59,2.25h0c0.05-0.24,0.31-1.18,0.59-2.25h0.24l-0.74,2.64c-0.2,0.7-0.33,0.84-0.69,0.84
				c-0.05,0-0.11,0-0.15-0.01v-0.21c0.04,0.01,0.1,0.01,0.16,0.01c0.29,0,0.36-0.22,0.48-0.69l-0.72-2.57H108.37z"/>
			<path d="M110.19,66.71c0.02,0.33,0.2,0.54,0.52,0.54c0.33,0,0.49-0.21,0.49-0.48c0-0.31-0.17-0.45-0.52-0.59
				c-0.47-0.19-0.62-0.36-0.62-0.7c0-0.33,0.2-0.62,0.65-0.62c0.5,0,0.66,0.33,0.66,0.67h-0.22c-0.01-0.14-0.05-0.47-0.45-0.47
				c-0.29,0-0.42,0.18-0.42,0.42c0,0.23,0.09,0.34,0.46,0.49c0.45,0.18,0.68,0.34,0.68,0.79c0,0.43-0.27,0.69-0.73,0.69
				c-0.46,0-0.71-0.28-0.73-0.74H110.19z"/>
			<path d="M105.7,70h0.22v1.5h1.29V70h0.22v3.41h-0.22v-1.7h-1.29v1.7h-0.22V70z"/>
			<path d="M109.6,72.12c0,0.86-0.27,1.33-0.8,1.33c-0.56,0-0.81-0.45-0.81-1.33c0-0.86,0.32-1.26,0.82-1.26
				C109.32,70.86,109.6,71.28,109.6,72.12z M108.21,73.45h-0.19l1.34-2.59h0.2L108.21,73.45z M108.21,72.13
				c0,0.78,0.22,1.12,0.58,1.12c0.37,0,0.58-0.35,0.58-1.13c0-0.7-0.2-1.06-0.58-1.06C108.44,71.06,108.21,71.36,108.21,72.13z"/>
			<path d="M110.1,70.9c0.33,1.21,0.56,2,0.59,2.25h0c0.05-0.24,0.31-1.18,0.59-2.25h0.24l-0.74,2.64c-0.2,0.7-0.33,0.84-0.69,0.84
				c-0.05,0-0.11,0-0.15-0.01v-0.21c0.04,0.01,0.1,0.01,0.16,0.01c0.29,0,0.36-0.22,0.48-0.69l-0.72-2.57H110.1z"/>
			<path d="M112,72.17c0,0.6,0.11,1.08,0.56,1.08c0.46,0,0.52-0.46,0.54-0.53h0.22c-0.01,0.06-0.08,0.73-0.76,0.73
				c-0.69,0-0.78-0.67-0.78-1.29c0-0.79,0.25-1.3,0.81-1.3c0.61,0,0.75,0.54,0.75,1.15c0,0.02,0,0.08,0,0.16H112z M113.12,71.97
				c0-0.55-0.13-0.91-0.54-0.91c-0.54,0-0.57,0.74-0.58,0.91H113.12z"/>
			<path d="M115.04,72.16c0.15-0.2,0.71-0.92,0.94-1.25h0.25c-0.24,0.32-0.51,0.66-0.75,0.98c0,0,0.85,1.52,0.85,1.52h-0.25
				l-0.74-1.35c-0.08,0.09-0.21,0.28-0.29,0.37v0.98h-0.22v-3.57h0.22V72.16z"/>
			<path d="M116.62,71.67c0-0.51-0.01-0.67-0.01-0.77h0.21c0,0.06,0.01,0.16,0.01,0.37c0.09-0.23,0.27-0.41,0.62-0.41
				c0.33,0,0.65,0.17,0.65,0.76v1.78h-0.22v-1.75c0-0.34-0.13-0.59-0.45-0.59c-0.42,0-0.58,0.29-0.58,0.89v1.45h-0.22V71.67z"/>
			<path d="M118.84,72.17c0,0.6,0.11,1.08,0.56,1.08c0.46,0,0.52-0.46,0.54-0.53h0.22c-0.01,0.06-0.08,0.73-0.76,0.73
				c-0.69,0-0.78-0.67-0.78-1.29c0-0.79,0.25-1.3,0.81-1.3c0.61,0,0.75,0.54,0.75,1.15c0,0.02,0,0.08,0,0.16H118.84z M119.96,71.97
				c0-0.55-0.13-0.91-0.54-0.91c-0.54,0-0.57,0.74-0.58,0.91H119.96z"/>
			<path d="M120.69,73.41v-3.57h0.22v3.57H120.69z"/>
			<path d="M123.04,72.12c0,0.86-0.27,1.33-0.8,1.33c-0.56,0-0.81-0.45-0.81-1.33c0-0.86,0.32-1.26,0.82-1.26
				C122.75,70.86,123.04,71.28,123.04,72.12z M121.64,73.45h-0.19l1.34-2.59h0.2L121.64,73.45z M121.65,72.13
				c0,0.78,0.22,1.12,0.58,1.12c0.37,0,0.58-0.35,0.58-1.13c0-0.7-0.2-1.06-0.58-1.06C121.88,71.06,121.65,71.36,121.65,72.13z"/>
			<path d="M123.59,73.41v-2.3h-0.35v-0.2h0.35v-0.41c0-0.34,0.1-0.68,0.52-0.68c0.06,0,0.14,0.01,0.18,0.03v0.21
				c-0.04-0.01-0.11-0.03-0.18-0.03c-0.22,0-0.3,0.14-0.3,0.45v0.43h0.42v0.2h-0.42v2.3H123.59z"/>
			<path d="M124.17,70.9h0.37v-0.7h0.21v0.7h0.47v0.2h-0.47v1.82c0,0.19,0.04,0.31,0.24,0.31c0.06,0,0.15,0,0.2-0.02v0.18
				c-0.07,0.03-0.18,0.04-0.26,0.04c-0.22,0-0.4-0.1-0.4-0.46V71.1h-0.37V70.9z"/>
		</g>
	</g>
	<g>
		<g>
			<path d="M46.26,20.38v-7.9c-0.3,0.24-1.05,0.54-1.4,0.59v-0.5c0.6-0.18,1.29-0.57,1.56-0.84h0.4v8.65H46.26z"/>
		</g>
	</g>
	<g>
		<g>
			<path d="M87.3,48.11v-0.05c0-0.81,0.59-2.08,1.95-3.57c1.17-1.26,1.57-1.79,1.57-2.85c0-0.85-0.27-1.73-1.34-1.73
				c-0.92,0-1.38,0.69-1.43,1.82h-0.58c0.01-1.2,0.61-2.34,2.02-2.34c1.48,0,1.94,1.08,1.94,2.23c0,1.28-0.49,1.9-1.65,3.12
				c-1.19,1.27-1.67,2.24-1.81,2.85h3.7l-0.09,0.53H87.3z"/>
		</g>
	</g>
	<g>
		<g>
			<path d="M45.71,67.31c0.01-0.75,0.38-2,1.89-2c1.36,0,1.79,0.99,1.79,2.1c0,1.13-0.49,1.69-1.05,1.89v0.01
				c0.81,0.27,1.32,0.91,1.32,2.28c0,1.22-0.48,2.57-2.12,2.57c-1.58,0-1.99-1.19-2.03-2.15h0.56c0.03,0.74,0.43,1.63,1.49,1.63
				c1.25,0,1.51-1.16,1.51-2.02c0-1.67-0.84-2.02-1.76-2.02h-0.37v-0.51h0.38c0.86,0,1.5-0.4,1.5-1.66c0-0.91-0.32-1.59-1.24-1.59
				c-1.19,0-1.29,1.16-1.32,1.48H45.71z"/>
		</g>
	</g>
	<g>
		<g>
			<path d="M151.92,20.38v-2.44h-3.14v-0.51l2.99-5.67h0.73v5.66h0.88l-0.08,0.52h-0.8v2.44H151.92z M151.92,14.64
				c0-0.66-0.01-1.63,0.03-2.24c-0.47,1.07-1.78,3.56-2.55,5.02h2.52V14.64z"/>
		</g>
	</g>
	<g>
		<g>
			<path d="M152.76,66.57h-2.74c-0.06,0.98-0.23,2.7-0.28,3.23c0.25-0.4,0.69-0.72,1.45-0.72c1.37,0,1.92,1.12,1.92,2.67
				c0,1.61-0.5,3.04-2.1,3.04c-1.58,0-1.95-1.14-2.01-2.13h0.59c0.05,0.61,0.23,1.61,1.43,1.61c1.11,0,1.47-1.1,1.47-2.49
				c0-1.17-0.31-2.18-1.36-2.18c-0.85,0-1.25,0.49-1.47,1.19l-0.55-0.13c0.12-0.95,0.32-3.25,0.41-4.62h3.33L152.76,66.57z"/>
		</g>
	</g>
	<g>
		<g>
			<path d="M119.8,42.08h0.79c0.46,0,0.76,0.29,0.76,0.81c0,0.47-0.23,0.67-0.43,0.74c0.27,0.09,0.55,0.33,0.55,0.87
				c0,0.59-0.34,1-0.92,1h-0.76V42.08z M120.47,43.54c0.46,0,0.65-0.22,0.65-0.63c0-0.37-0.19-0.63-0.59-0.63h-0.52v1.26H120.47z
				 M120.02,45.29h0.52c0.46,0,0.71-0.3,0.71-0.79c0-0.52-0.29-0.76-0.78-0.76h-0.44V45.29z"/>
			<path d="M123.45,44.84c0,0.28,0,0.54,0,0.65h-0.21c-0.01-0.07-0.01-0.16-0.02-0.37c-0.08,0.26-0.3,0.42-0.62,0.42
				c-0.25,0-0.63-0.08-0.63-0.75v-1.8h0.22v1.75c0,0.37,0.11,0.6,0.45,0.6c0.31,0,0.57-0.2,0.57-0.84v-1.51h0.22V44.84z"/>
			<path d="M124.09,43.84c0-0.39,0-0.68-0.01-0.86h0.21c0,0.08,0.01,0.2,0.01,0.47c0.11-0.31,0.37-0.5,0.67-0.5v0.23
				c-0.45,0.03-0.67,0.4-0.67,0.85v1.45h-0.22V43.84z"/>
			<path d="M125.57,45.19v1.23h-0.22v-2.7c0-0.35,0-0.58-0.01-0.74h0.21c0,0.04,0.01,0.23,0.01,0.38c0.09-0.25,0.29-0.42,0.62-0.42
				c0.48,0,0.73,0.44,0.73,1.26c0,0.85-0.31,1.33-0.8,1.33C125.79,45.54,125.64,45.37,125.57,45.19z M126.69,44.22
				c0-0.65-0.16-1.07-0.54-1.07c-0.45,0-0.59,0.43-0.59,1.09c0,0.61,0.07,1.09,0.56,1.09C126.49,45.33,126.69,44.87,126.69,44.22z"
				/>
			<path d="M127.53,44.25c0,0.6,0.11,1.08,0.56,1.08c0.46,0,0.52-0.46,0.54-0.53h0.22c-0.01,0.06-0.08,0.73-0.76,0.73
				c-0.69,0-0.78-0.67-0.78-1.29c0-0.79,0.25-1.3,0.81-1.3c0.61,0,0.75,0.54,0.75,1.15c0,0.02,0,0.08,0,0.16H127.53z M128.65,44.06
				c0-0.55-0.13-0.91-0.54-0.91c-0.54,0-0.57,0.74-0.58,0.91H128.65z"/>
			<path d="M129.47,44.25c0,0.6,0.11,1.08,0.56,1.08c0.46,0,0.52-0.46,0.54-0.53h0.22c0,0.06-0.08,0.73-0.76,0.73
				c-0.69,0-0.78-0.67-0.78-1.29c0-0.79,0.25-1.3,0.81-1.3c0.61,0,0.75,0.54,0.75,1.15c0,0.02,0,0.08-0.01,0.16H129.47z
				 M130.59,44.06c0-0.55-0.13-0.91-0.54-0.91c-0.54,0-0.57,0.74-0.58,0.91H130.59z"/>
			<path d="M131.34,44.79c0.02,0.33,0.2,0.54,0.52,0.54c0.33,0,0.49-0.21,0.49-0.48c0-0.31-0.17-0.45-0.52-0.59
				c-0.47-0.19-0.62-0.36-0.62-0.7c0-0.33,0.2-0.62,0.65-0.62c0.5,0,0.66,0.33,0.66,0.67h-0.22c-0.01-0.14-0.05-0.47-0.45-0.47
				c-0.29,0-0.42,0.18-0.42,0.42c0,0.23,0.09,0.34,0.46,0.49c0.45,0.18,0.68,0.34,0.68,0.79c0,0.43-0.27,0.69-0.73,0.69
				c-0.46,0-0.71-0.28-0.73-0.74H131.34z"/>
		</g>
	</g>
	<g>
		<g>
			<path d="M42.71,88.92h0.22v1.5h1.29v-1.5h0.22v3.41h-0.22v-1.7h-1.29v1.7h-0.22V88.92z"/>
			<path d="M45.1,89.83c0.24,0.88,0.54,1.99,0.59,2.23h0c0.03-0.2,0.51-1.85,0.61-2.23h0.22l-0.73,2.5h-0.24l-0.69-2.5H45.1z"/>
			<path d="M47.01,91.09c0,0.6,0.11,1.08,0.56,1.08c0.46,0,0.52-0.46,0.54-0.53h0.22c-0.01,0.06-0.08,0.73-0.76,0.73
				c-0.69,0-0.78-0.67-0.78-1.29c0-0.79,0.25-1.3,0.81-1.3c0.61,0,0.75,0.54,0.75,1.15c0,0.02,0,0.08-0.01,0.16H47.01z M48.13,90.9
				c0-0.55-0.13-0.91-0.54-0.91c-0.54,0-0.57,0.74-0.58,0.91H48.13z"/>
			<path d="M48.86,90.68c0-0.39,0-0.68-0.01-0.86h0.21c0,0.08,0.01,0.2,0.01,0.47c0.11-0.31,0.37-0.5,0.67-0.5v0.24
				c-0.44,0.03-0.67,0.4-0.67,0.85v1.45h-0.22V90.68z"/>
			<path d="M51.09,88.76h0.22v1.45c0.08-0.21,0.26-0.43,0.62-0.43c0.46,0,0.73,0.37,0.73,1.23c0,0.76-0.21,1.35-0.8,1.35
				c-0.32,0-0.48-0.16-0.56-0.37c0,0.1,0,0.21-0.01,0.33h-0.2c0.01-0.11,0.01-0.33,0.01-0.68V88.76z M52.44,91.02
				c0-0.72-0.2-1.03-0.53-1.03c-0.46,0-0.61,0.44-0.61,1.09c0,0.61,0.11,1.08,0.56,1.08C52.23,92.16,52.44,91.8,52.44,91.02z"/>
			<path d="M54.66,91.04c0,0.86-0.27,1.33-0.8,1.33c-0.56,0-0.81-0.45-0.81-1.33c0-0.86,0.32-1.26,0.82-1.26
				C54.37,89.79,54.66,90.2,54.66,91.04z M53.27,91.05c0,0.78,0.22,1.12,0.58,1.12c0.37,0,0.58-0.35,0.58-1.13
				c0-0.7-0.2-1.06-0.58-1.06C53.5,89.99,53.27,90.28,53.27,91.05z"/>
			<path d="M55.39,91.08c0.15-0.2,0.7-0.92,0.94-1.25h0.25c-0.24,0.32-0.51,0.66-0.75,0.98l0.85,1.52h-0.25l-0.74-1.35
				c-0.07,0.09-0.21,0.28-0.29,0.37v0.98h-0.22v-3.57h0.22V91.08z"/>
			<path d="M56.99,91.63c0.02,0.33,0.2,0.54,0.52,0.54c0.33,0,0.49-0.21,0.49-0.48c0-0.31-0.17-0.45-0.52-0.59
				c-0.47-0.19-0.62-0.36-0.62-0.7c0-0.33,0.2-0.62,0.65-0.62c0.49,0,0.65,0.33,0.66,0.67h-0.22c-0.01-0.14-0.05-0.47-0.45-0.47
				c-0.29,0-0.42,0.18-0.42,0.42c0,0.23,0.09,0.34,0.46,0.49c0.45,0.18,0.68,0.34,0.68,0.79c0,0.43-0.27,0.69-0.73,0.69
				c-0.46,0-0.71-0.28-0.73-0.74H56.99z"/>
			<path d="M59.69,90.68c0-0.39,0-0.68-0.01-0.86h0.21c0,0.08,0.01,0.2,0.01,0.47c0.11-0.31,0.37-0.5,0.67-0.5v0.24
				c-0.44,0.03-0.67,0.4-0.67,0.85v1.45h-0.22V90.68z"/>
			<path d="M61.04,91.09c0,0.6,0.11,1.08,0.56,1.08c0.46,0,0.52-0.46,0.54-0.53h0.22c-0.01,0.06-0.08,0.73-0.76,0.73
				c-0.69,0-0.78-0.67-0.78-1.29c0-0.79,0.25-1.3,0.81-1.3c0.61,0,0.75,0.54,0.75,1.15c0,0.02,0,0.08-0.01,0.16H61.04z M62.16,90.9
				c0-0.55-0.13-0.91-0.54-0.91c-0.54,0-0.57,0.74-0.58,0.91H62.16z"/>
			<path d="M63.1,92.03v1.23h-0.22v-2.7c0-0.35,0-0.58-0.01-0.74h0.21c0,0.04,0.01,0.23,0.01,0.38c0.09-0.25,0.29-0.42,0.62-0.42
				c0.48,0,0.73,0.44,0.73,1.26c0,0.85-0.31,1.33-0.8,1.33C63.32,92.38,63.17,92.21,63.1,92.03z M64.23,91.06
				c0-0.65-0.16-1.07-0.54-1.07c-0.45,0-0.59,0.43-0.59,1.09c0,0.61,0.07,1.09,0.56,1.09C64.03,92.17,64.23,91.71,64.23,91.06z"/>
			<path d="M64.98,90.68c0-0.39,0-0.68-0.01-0.86h0.21c0,0.08,0.01,0.2,0.01,0.47c0.11-0.31,0.37-0.5,0.67-0.5v0.24
				c-0.44,0.03-0.67,0.4-0.67,0.85v1.45h-0.22V90.68z"/>
			<path d="M66.32,91.09c0,0.6,0.11,1.08,0.56,1.08c0.46,0,0.52-0.46,0.54-0.53h0.22c-0.01,0.06-0.08,0.73-0.76,0.73
				c-0.69,0-0.78-0.67-0.78-1.29c0-0.79,0.25-1.3,0.81-1.3c0.61,0,0.75,0.54,0.75,1.15c0,0.02,0,0.08-0.01,0.16H66.32z M67.44,90.9
				c0-0.55-0.13-0.91-0.54-0.91c-0.54,0-0.57,0.74-0.58,0.91H67.44z"/>
			<path d="M68.19,91.63c0.02,0.33,0.2,0.54,0.52,0.54c0.33,0,0.49-0.21,0.49-0.48c0-0.31-0.17-0.45-0.52-0.59
				c-0.47-0.19-0.62-0.36-0.62-0.7c0-0.33,0.2-0.62,0.65-0.62c0.49,0,0.65,0.33,0.66,0.67h-0.22c-0.01-0.14-0.05-0.47-0.45-0.47
				c-0.29,0-0.42,0.18-0.42,0.42c0,0.23,0.09,0.34,0.46,0.49c0.45,0.18,0.68,0.34,0.68,0.79c0,0.43-0.27,0.69-0.73,0.69
				c-0.46,0-0.71-0.28-0.73-0.74H68.19z"/>
			<path d="M70.01,91.09c0,0.6,0.11,1.08,0.56,1.08c0.46,0,0.52-0.46,0.54-0.53h0.22c-0.01,0.06-0.08,0.73-0.76,0.73
				c-0.69,0-0.78-0.67-0.78-1.29c0-0.79,0.25-1.3,0.81-1.3c0.61,0,0.75,0.54,0.75,1.15c0,0.02,0,0.08-0.01,0.16H70.01z M71.13,90.9
				c0-0.55-0.13-0.91-0.54-0.91c-0.54,0-0.57,0.74-0.58,0.91H71.13z"/>
			<path d="M71.86,90.6c0-0.51-0.01-0.67-0.01-0.77h0.21c0,0.06,0.01,0.16,0.01,0.37c0.09-0.23,0.27-0.41,0.62-0.41
				c0.33,0,0.65,0.17,0.65,0.76v1.78h-0.22v-1.75c0-0.34-0.13-0.59-0.45-0.59c-0.42,0-0.58,0.29-0.58,0.89v1.45h-0.22V90.6z"/>
			<path d="M73.65,89.83h0.37v-0.7h0.21v0.7h0.47v0.2h-0.47v1.82c0,0.19,0.04,0.31,0.24,0.31c0.06,0,0.15,0,0.2-0.02v0.18
				c-0.07,0.03-0.18,0.04-0.26,0.04c-0.22,0-0.4-0.1-0.4-0.46v-1.88h-0.37V89.83z"/>
			<path d="M75.16,91.09c0,0.6,0.11,1.08,0.56,1.08c0.46,0,0.52-0.46,0.54-0.53h0.22c-0.01,0.06-0.08,0.73-0.76,0.73
				c-0.69,0-0.78-0.67-0.78-1.29c0-0.79,0.25-1.3,0.81-1.3c0.61,0,0.75,0.54,0.75,1.15c0,0.02,0,0.08-0.01,0.16H75.16z M76.28,90.9
				c0-0.55-0.13-0.91-0.54-0.91c-0.54,0-0.57,0.74-0.58,0.91H76.28z"/>
			<path d="M77.01,90.68c0-0.39,0-0.68-0.01-0.86h0.21c0,0.08,0.01,0.2,0.01,0.47c0.11-0.31,0.37-0.5,0.67-0.5v0.24
				c-0.44,0.03-0.67,0.4-0.67,0.85v1.45h-0.22V90.68z"/>
			<path d="M78.36,91.09c0,0.6,0.11,1.08,0.56,1.08c0.46,0,0.52-0.46,0.54-0.53h0.22c-0.01,0.06-0.08,0.73-0.76,0.73
				c-0.69,0-0.78-0.67-0.78-1.29c0-0.79,0.25-1.3,0.81-1.3c0.61,0,0.75,0.54,0.75,1.15c0,0.02,0,0.08-0.01,0.16H78.36z M79.48,90.9
				c0-0.55-0.13-0.91-0.54-0.91c-0.54,0-0.57,0.74-0.58,0.91H79.48z"/>
			<path d="M80.21,90.68c0-0.39,0-0.68-0.01-0.86h0.21c0,0.08,0.01,0.2,0.01,0.47c0.11-0.31,0.37-0.5,0.67-0.5v0.24
				c-0.44,0.03-0.67,0.4-0.67,0.85v1.45h-0.22V90.68z"/>
			<path d="M82.53,91.09c0,0.6,0.11,1.08,0.56,1.08c0.46,0,0.52-0.46,0.54-0.53h0.22c-0.01,0.06-0.08,0.73-0.76,0.73
				c-0.69,0-0.78-0.67-0.78-1.29c0-0.79,0.25-1.3,0.81-1.3c0.61,0,0.75,0.54,0.75,1.15c0,0.02,0,0.08-0.01,0.16H82.53z M83.65,90.9
				c0-0.55-0.13-0.91-0.54-0.91c-0.54,0-0.57,0.74-0.58,0.91H83.65z"/>
			<path d="M84.04,89.83h0.37v-0.7h0.21v0.7h0.47v0.2h-0.47v1.82c0,0.19,0.04,0.31,0.24,0.31c0.06,0,0.15,0,0.2-0.02v0.18
				c-0.07,0.03-0.18,0.04-0.26,0.04c-0.22,0-0.4-0.1-0.4-0.46v-1.88h-0.37V89.83z"/>
			<path d="M85.13,89.83h0.37v-0.7h0.21v0.7h0.47v0.2h-0.47v1.82c0,0.19,0.04,0.31,0.24,0.31c0.06,0,0.15,0,0.2-0.02v0.18
				c-0.07,0.03-0.18,0.04-0.26,0.04c-0.22,0-0.4-0.1-0.4-0.46v-1.88h-0.37V89.83z"/>
			<path d="M87.54,91.63c0.02,0.33,0.2,0.54,0.52,0.54c0.33,0,0.49-0.21,0.49-0.48c0-0.31-0.17-0.45-0.52-0.59
				c-0.47-0.19-0.62-0.36-0.62-0.7c0-0.33,0.2-0.62,0.65-0.62c0.49,0,0.65,0.33,0.66,0.67H88.5c-0.01-0.14-0.05-0.47-0.45-0.47
				c-0.29,0-0.42,0.18-0.42,0.42c0,0.23,0.09,0.34,0.46,0.49c0.45,0.18,0.68,0.34,0.68,0.79c0,0.43-0.27,0.69-0.73,0.69
				c-0.46,0-0.71-0.28-0.73-0.74H87.54z"/>
			<path d="M90.73,91.68c0,0.28,0,0.54,0,0.65h-0.21c-0.01-0.07-0.02-0.16-0.02-0.37c-0.08,0.26-0.31,0.42-0.62,0.42
				c-0.25,0-0.63-0.08-0.63-0.75v-1.8h0.22v1.75c0,0.37,0.11,0.6,0.45,0.6c0.31,0,0.57-0.2,0.57-0.84v-1.51h0.22V91.68z"/>
			<path d="M91.59,92.03v1.23h-0.22v-2.7c0-0.35,0-0.58-0.01-0.74h0.21c0,0.04,0.01,0.23,0.01,0.38c0.09-0.25,0.29-0.42,0.62-0.42
				c0.48,0,0.73,0.44,0.73,1.26c0,0.85-0.31,1.33-0.8,1.33C91.81,92.38,91.66,92.21,91.59,92.03z M92.71,91.06
				c0-0.65-0.16-1.07-0.54-1.07c-0.45,0-0.59,0.43-0.59,1.09c0,0.61,0.07,1.09,0.56,1.09C92.51,92.17,92.71,91.71,92.71,91.06z"/>
			<path d="M93.55,91.09c0,0.6,0.11,1.08,0.56,1.08c0.46,0,0.52-0.46,0.54-0.53h0.22c-0.01,0.06-0.08,0.73-0.76,0.73
				c-0.69,0-0.78-0.67-0.78-1.29c0-0.79,0.25-1.3,0.81-1.3c0.61,0,0.75,0.54,0.75,1.15c0,0.02,0,0.08-0.01,0.16H93.55z M94.67,90.9
				c0-0.55-0.13-0.91-0.54-0.91c-0.54,0-0.57,0.74-0.58,0.91H94.67z"/>
			<path d="M95.4,90.68c0-0.39,0-0.68-0.01-0.86h0.21c0,0.08,0.01,0.2,0.01,0.47c0.11-0.31,0.37-0.5,0.67-0.5v0.24
				c-0.44,0.03-0.67,0.4-0.67,0.85v1.45H95.4V90.68z"/>
			<path d="M96.68,91.63c0.02,0.33,0.2,0.54,0.52,0.54c0.33,0,0.49-0.21,0.49-0.48c0-0.31-0.17-0.45-0.52-0.59
				c-0.47-0.19-0.62-0.36-0.62-0.7c0-0.33,0.2-0.62,0.65-0.62c0.49,0,0.65,0.33,0.66,0.67h-0.22c-0.01-0.14-0.05-0.47-0.45-0.47
				c-0.29,0-0.42,0.18-0.42,0.42c0,0.23,0.09,0.34,0.46,0.49c0.45,0.18,0.68,0.34,0.68,0.79c0,0.43-0.27,0.69-0.73,0.69
				c-0.46,0-0.71-0.28-0.73-0.74H96.68z"/>
			<path d="M98.49,91.09c0,0.6,0.11,1.08,0.56,1.08c0.46,0,0.52-0.46,0.54-0.53h0.22c0,0.06-0.08,0.73-0.76,0.73
				c-0.69,0-0.78-0.67-0.78-1.29c0-0.79,0.25-1.3,0.81-1.3c0.61,0,0.75,0.54,0.75,1.15c0,0.02,0,0.08,0,0.16H98.49z M99.61,90.9
				c0-0.55-0.13-0.91-0.54-0.91c-0.54,0-0.57,0.74-0.58,0.91H99.61z"/>
			<path d="M100.01,89.83h0.37v-0.7h0.21v0.7h0.47v0.2h-0.47v1.82c0,0.19,0.04,0.31,0.24,0.31c0.06,0,0.15,0,0.2-0.02v0.18
				c-0.07,0.03-0.18,0.04-0.26,0.04c-0.22,0-0.39-0.1-0.39-0.46v-1.88h-0.37V89.83z"/>
			<path d="M101.09,89.83h0.37v-0.7h0.21v0.7h0.47v0.2h-0.47v1.82c0,0.19,0.04,0.31,0.24,0.31c0.06,0,0.15,0,0.2-0.02v0.18
				c-0.07,0.03-0.18,0.04-0.26,0.04c-0.22,0-0.39-0.1-0.39-0.46v-1.88h-0.37V89.83z"/>
			<path d="M102.38,92.34V91.7h0.22v0.64H102.38z"/>
			<path d="M104.12,88.92h0.67c0.73,0,1.09,0.54,1.09,1.6c0,1.16-0.32,1.81-1.15,1.81h-0.62V88.92z M104.34,92.12h0.37
				c0.71,0,0.93-0.58,0.93-1.58c0-0.98-0.29-1.42-0.93-1.42h-0.38V92.12z"/>
			<path d="M107.89,91.68c0,0.28,0,0.54,0,0.65h-0.21c-0.01-0.07-0.02-0.16-0.02-0.37c-0.08,0.26-0.3,0.42-0.62,0.42
				c-0.25,0-0.63-0.08-0.63-0.75v-1.8h0.22v1.75c0,0.37,0.11,0.6,0.45,0.6c0.31,0,0.57-0.2,0.57-0.84v-1.51h0.22V91.68z"/>
			<path d="M110.95,92.2c0,0.62-0.13,1.1-0.82,1.1c-0.6,0-0.73-0.42-0.75-0.67h0.23c0.01,0.18,0.13,0.47,0.53,0.47
				c0.49,0,0.6-0.35,0.6-0.9v-0.31c-0.08,0.29-0.31,0.44-0.61,0.44c-0.49,0-0.75-0.4-0.75-1.22c0-0.93,0.35-1.32,0.81-1.32
				c0.34,0,0.51,0.17,0.56,0.37c0-0.13,0.01-0.28,0.02-0.33h0.21c0,0.12,0,0.37,0,0.7V92.2z M109.6,91.11
				c0,0.67,0.19,1.02,0.56,1.02c0.45,0,0.59-0.45,0.59-1.07c0-0.68-0.12-1.06-0.55-1.06C109.8,89.99,109.6,90.4,109.6,91.11z"/>
			<path d="M111.84,89.83v2.74c0,0.42-0.06,0.74-0.47,0.74c-0.03,0-0.08,0-0.12-0.01v-0.2c0.04,0,0.08,0,0.11,0
				c0.21,0,0.25-0.14,0.25-0.46v-2.81H111.84z M111.63,89.25v-0.48h0.22v0.48H111.63z"/>
			<path d="M113.98,91.04c0,0.86-0.27,1.33-0.81,1.33c-0.56,0-0.81-0.45-0.81-1.33c0-0.86,0.32-1.26,0.82-1.26
				C113.7,89.79,113.98,90.2,113.98,91.04z M112.58,92.38h-0.19l1.33-2.59h0.2L112.58,92.38z M112.59,91.05
				c0,0.78,0.22,1.12,0.58,1.12c0.37,0,0.58-0.35,0.58-1.13c0-0.7-0.2-1.06-0.58-1.06C112.82,89.99,112.59,90.28,112.59,91.05z"/>
			<path d="M114.5,90.68c0-0.39,0-0.68,0-0.86h0.21c0,0.08,0.01,0.2,0.01,0.47c0.12-0.31,0.37-0.5,0.67-0.5v0.24
				c-0.44,0.03-0.67,0.4-0.67,0.85v1.45h-0.22V90.68z"/>
			<path d="M118.06,91.96c0,0.18,0.01,0.32,0.02,0.38h-0.2c-0.01-0.06-0.03-0.21-0.03-0.32c-0.09,0.23-0.29,0.36-0.61,0.36
				c-0.48,0-0.65-0.37-0.65-0.71c0-0.42,0.28-0.79,0.95-0.79c0.14,0,0.21,0,0.3,0.01v-0.37c0-0.23-0.05-0.53-0.45-0.53
				c-0.45,0-0.47,0.33-0.49,0.5h-0.22c0.01-0.35,0.18-0.7,0.71-0.7c0.45,0,0.65,0.23,0.65,0.68V91.96z M117.85,91.09
				c-0.07-0.01-0.14-0.01-0.29-0.01c-0.52,0-0.75,0.25-0.75,0.58c0,0.28,0.15,0.52,0.46,0.52c0.41,0,0.58-0.28,0.58-0.91V91.09z"/>
			<path d="M118.71,90.6c0-0.51,0-0.67,0-0.77h0.21c0,0.06,0.01,0.16,0.01,0.37c0.09-0.23,0.27-0.41,0.62-0.41
				c0.33,0,0.65,0.17,0.65,0.76v1.78h-0.22v-1.75c0-0.34-0.13-0.59-0.45-0.59c-0.42,0-0.58,0.29-0.58,0.89v1.45h-0.22V90.6z"/>
			<path d="M120.84,90.6c0-0.51,0-0.67,0-0.77h0.21c0,0.06,0.01,0.16,0.01,0.37c0.09-0.23,0.27-0.41,0.62-0.41
				c0.33,0,0.65,0.17,0.65,0.76v1.78h-0.22v-1.75c0-0.34-0.13-0.59-0.45-0.59c-0.42,0-0.58,0.29-0.58,0.89v1.45h-0.22V90.6z"/>
			<path d="M123.06,91.09c0,0.6,0.11,1.08,0.56,1.08c0.46,0,0.52-0.46,0.54-0.53h0.22c0,0.06-0.08,0.73-0.76,0.73
				c-0.69,0-0.78-0.67-0.78-1.29c0-0.79,0.25-1.3,0.81-1.3c0.61,0,0.75,0.54,0.75,1.15c0,0.02,0,0.08,0,0.16H123.06z M124.18,90.9
				c0-0.55-0.13-0.91-0.54-0.91c-0.54,0-0.57,0.74-0.58,0.91H124.18z"/>
			<path d="M124.91,90.6c0-0.51,0-0.67,0-0.77h0.21c0,0.06,0.01,0.16,0.01,0.37c0.09-0.23,0.27-0.41,0.62-0.41
				c0.33,0,0.65,0.17,0.65,0.76v1.78h-0.22v-1.75c0-0.34-0.13-0.59-0.45-0.59c-0.42,0-0.58,0.29-0.58,0.89v1.45h-0.22V90.6z"/>
			<path d="M127.26,88.76v1.41c0.08-0.23,0.3-0.39,0.62-0.39c0.34,0,0.64,0.2,0.64,0.76v1.79h-0.22v-1.74c0-0.35-0.12-0.6-0.47-0.6
				c-0.4,0-0.57,0.34-0.57,0.85v1.49h-0.22v-3.57H127.26z"/>
			<path d="M129.13,89.83c0.24,0.88,0.54,1.99,0.59,2.23h0c0.03-0.2,0.51-1.85,0.61-2.23h0.22l-0.73,2.5h-0.24l-0.69-2.5H129.13z"/>
			<path d="M131.04,91.09c0,0.6,0.11,1.08,0.56,1.08c0.46,0,0.52-0.46,0.54-0.53h0.22c0,0.06-0.08,0.73-0.76,0.73
				c-0.69,0-0.78-0.67-0.78-1.29c0-0.79,0.25-1.3,0.81-1.3c0.61,0,0.75,0.54,0.75,1.15c0,0.02,0,0.08,0,0.16H131.04z M132.16,90.9
				c0-0.55-0.13-0.91-0.54-0.91c-0.54,0-0.57,0.74-0.58,0.91H132.16z"/>
			<path d="M132.89,90.68c0-0.39,0-0.68,0-0.86h0.21c0,0.08,0.01,0.2,0.01,0.47c0.12-0.31,0.37-0.5,0.67-0.5v0.24
				c-0.44,0.03-0.67,0.4-0.67,0.85v1.45h-0.22V90.68z"/>
			<path d="M136.6,91.04c0,0.86-0.27,1.33-0.81,1.33c-0.56,0-0.81-0.45-0.81-1.33c0-0.86,0.32-1.26,0.82-1.26
				C136.32,89.79,136.6,90.2,136.6,91.04z M135.21,92.38h-0.19l1.33-2.59h0.2L135.21,92.38z M135.21,91.05
				c0,0.78,0.22,1.12,0.58,1.12c0.37,0,0.58-0.35,0.58-1.13c0-0.7-0.2-1.06-0.58-1.06C135.44,89.99,135.21,90.28,135.21,91.05z"/>
			<path d="M137.09,89.83c0.24,0.88,0.54,1.99,0.59,2.23h0c0.03-0.2,0.51-1.85,0.61-2.23h0.22l-0.73,2.5h-0.24l-0.69-2.5H137.09z"/>
			<path d="M139,91.09c0,0.6,0.11,1.08,0.56,1.08c0.46,0,0.52-0.46,0.54-0.53h0.22c0,0.06-0.08,0.73-0.76,0.73
				c-0.69,0-0.78-0.67-0.78-1.29c0-0.79,0.25-1.3,0.81-1.3c0.61,0,0.75,0.54,0.75,1.15c0,0.02,0,0.08,0,0.16H139z M140.12,90.9
				c0-0.55-0.13-0.91-0.54-0.91c-0.54,0-0.57,0.74-0.58,0.91H140.12z"/>
			<path d="M140.84,92.33v-3.57h0.22v3.57H140.84z"/>
			<path d="M141.73,91.63c0.02,0.33,0.2,0.54,0.52,0.54c0.33,0,0.49-0.21,0.49-0.48c0-0.31-0.17-0.45-0.52-0.59
				c-0.47-0.19-0.62-0.36-0.62-0.7c0-0.33,0.2-0.62,0.66-0.62c0.49,0,0.65,0.33,0.66,0.67h-0.22c-0.01-0.14-0.05-0.47-0.45-0.47
				c-0.29,0-0.42,0.18-0.42,0.42c0,0.23,0.08,0.34,0.46,0.49c0.45,0.18,0.68,0.34,0.68,0.79c0,0.43-0.27,0.69-0.73,0.69
				c-0.46,0-0.71-0.28-0.73-0.74H141.73z"/>
			<path d="M143.55,91.09c0,0.6,0.11,1.08,0.56,1.08c0.46,0,0.52-0.46,0.54-0.53h0.22c0,0.06-0.08,0.73-0.76,0.73
				c-0.69,0-0.78-0.67-0.78-1.29c0-0.79,0.25-1.3,0.81-1.3c0.61,0,0.75,0.54,0.75,1.15c0,0.02,0,0.08,0,0.16H143.55z M144.67,90.9
				c0-0.55-0.13-0.91-0.54-0.91c-0.54,0-0.57,0.74-0.58,0.91H144.67z"/>
			<path d="M146.37,88.76h0.22v0.48h-0.22V88.76z M146.37,89.83h0.22v2.5h-0.22V89.83z"/>
			<path d="M148.44,88.76v1.41c0.08-0.23,0.3-0.39,0.62-0.39c0.34,0,0.64,0.2,0.64,0.76v1.79h-0.22v-1.74c0-0.35-0.12-0.6-0.47-0.6
				c-0.4,0-0.57,0.34-0.57,0.85v1.49h-0.22v-3.57H148.44z"/>
			<path d="M150.3,89.83c0.24,0.88,0.54,1.99,0.59,2.23h0c0.03-0.2,0.51-1.85,0.61-2.23h0.22l-0.73,2.5h-0.24l-0.69-2.5H150.3z"/>
			<path d="M152.21,91.09c0,0.6,0.11,1.08,0.56,1.08c0.46,0,0.52-0.46,0.54-0.53h0.22c0,0.06-0.08,0.73-0.76,0.73
				c-0.69,0-0.78-0.67-0.78-1.29c0-0.79,0.25-1.3,0.81-1.3c0.61,0,0.75,0.54,0.75,1.15c0,0.02,0,0.08,0,0.16H152.21z M153.33,90.9
				c0-0.55-0.13-0.91-0.54-0.91c-0.54,0-0.57,0.74-0.58,0.91H153.33z"/>
			<path d="M154.06,90.68c0-0.39,0-0.68,0-0.86h0.21c0,0.08,0.01,0.2,0.01,0.47c0.12-0.31,0.37-0.5,0.67-0.5v0.24
				c-0.44,0.03-0.67,0.4-0.67,0.85v1.45h-0.22V90.68z"/>
			<path d="M154.98,89.83h0.37v-0.7h0.21v0.7h0.47v0.2h-0.47v1.82c0,0.19,0.04,0.31,0.24,0.31c0.06,0,0.15,0,0.2-0.02v0.18
				c-0.07,0.03-0.18,0.04-0.26,0.04c-0.22,0-0.39-0.1-0.39-0.46v-1.88h-0.37V89.83z"/>
			<path d="M43.69,97.63c0.02,0.33,0.2,0.54,0.52,0.54c0.33,0,0.49-0.21,0.49-0.48c0-0.31-0.17-0.45-0.52-0.59
				c-0.47-0.19-0.62-0.36-0.62-0.7c0-0.33,0.2-0.62,0.65-0.62c0.49,0,0.65,0.33,0.66,0.67h-0.22c-0.01-0.14-0.05-0.47-0.45-0.47
				c-0.29,0-0.42,0.18-0.42,0.42c0,0.23,0.09,0.34,0.46,0.49c0.45,0.18,0.68,0.34,0.68,0.79c0,0.43-0.27,0.69-0.73,0.69
				c-0.46,0-0.71-0.28-0.73-0.74H43.69z"/>
			<path d="M46.88,97.68c0,0.28,0,0.54,0,0.65h-0.21c-0.01-0.07-0.02-0.16-0.02-0.37c-0.08,0.26-0.31,0.42-0.62,0.42
				c-0.25,0-0.63-0.08-0.63-0.75v-1.8h0.22v1.75c0,0.37,0.11,0.6,0.45,0.6c0.31,0,0.57-0.2,0.57-0.84v-1.51h0.22V97.68z"/>
			<path d="M47.74,98.03v1.23h-0.22v-2.7c0-0.35,0-0.58-0.01-0.74h0.21c0,0.04,0.01,0.23,0.01,0.38c0.09-0.25,0.29-0.42,0.62-0.42
				c0.48,0,0.73,0.44,0.73,1.26c0,0.85-0.31,1.33-0.8,1.33C47.96,98.38,47.81,98.21,47.74,98.03z M48.86,97.06
				c0-0.65-0.16-1.07-0.54-1.07c-0.45,0-0.59,0.43-0.59,1.09c0,0.61,0.07,1.09,0.56,1.09C48.66,98.17,48.86,97.71,48.86,97.06z"/>
			<path d="M49.7,97.09c0,0.6,0.11,1.08,0.56,1.08c0.46,0,0.52-0.46,0.54-0.53h0.22c-0.01,0.06-0.08,0.73-0.76,0.73
				c-0.69,0-0.78-0.67-0.78-1.29c0-0.79,0.25-1.3,0.81-1.3c0.61,0,0.75,0.54,0.75,1.15c0,0.02,0,0.08-0.01,0.16H49.7z M50.82,96.9
				c0-0.55-0.13-0.91-0.54-0.91c-0.54,0-0.57,0.74-0.58,0.91H50.82z"/>
			<path d="M51.55,96.68c0-0.39,0-0.68-0.01-0.86h0.21c0,0.08,0.01,0.2,0.01,0.47c0.11-0.31,0.37-0.5,0.67-0.5v0.24
				c-0.44,0.03-0.67,0.4-0.67,0.85v1.45h-0.22V96.68z"/>
			<path d="M52.83,97.63c0.02,0.33,0.2,0.54,0.52,0.54c0.33,0,0.49-0.21,0.49-0.48c0-0.31-0.17-0.45-0.52-0.59
				c-0.47-0.19-0.62-0.36-0.62-0.7c0-0.33,0.2-0.62,0.65-0.62c0.49,0,0.65,0.33,0.66,0.67h-0.22c-0.01-0.14-0.05-0.47-0.45-0.47
				c-0.29,0-0.42,0.18-0.42,0.42c0,0.23,0.09,0.34,0.46,0.49c0.45,0.18,0.68,0.34,0.68,0.79c0,0.43-0.27,0.69-0.73,0.69
				c-0.46,0-0.71-0.28-0.73-0.74H52.83z"/>
			<path d="M54.64,97.09c0,0.6,0.11,1.08,0.56,1.08c0.46,0,0.52-0.46,0.54-0.53h0.22c-0.01,0.06-0.08,0.73-0.76,0.73
				c-0.69,0-0.78-0.67-0.78-1.29c0-0.79,0.25-1.3,0.81-1.3c0.61,0,0.75,0.54,0.75,1.15c0,0.02,0,0.08-0.01,0.16H54.64z M55.76,96.9
				c0-0.55-0.13-0.91-0.54-0.91c-0.54,0-0.57,0.74-0.58,0.91H55.76z"/>
			<path d="M56.16,95.83h0.37v-0.7h0.21v0.7h0.47v0.2h-0.47v1.82c0,0.19,0.04,0.31,0.24,0.31c0.06,0,0.15,0,0.2-0.02v0.18
				c-0.07,0.03-0.18,0.04-0.26,0.04c-0.22,0-0.4-0.1-0.4-0.46v-1.88h-0.37V95.83z"/>
			<path d="M57.24,95.83h0.37v-0.7h0.21v0.7h0.47v0.2h-0.47v1.82c0,0.19,0.04,0.31,0.24,0.31c0.06,0,0.15,0,0.2-0.02v0.18
				c-0.07,0.03-0.18,0.04-0.26,0.04c-0.22,0-0.4-0.1-0.4-0.46v-1.88h-0.37V95.83z"/>
			<path d="M59.64,94.76h0.22v0.48h-0.22V94.76z M59.64,95.83h0.22v2.5h-0.22V95.83z"/>
			<path d="M62.47,98.33v-0.94h-1.21v-0.2l1.15-2.18h0.28v2.17h0.34L63,97.39h-0.31v0.94H62.47z M62.47,96.12
				c0-0.25,0-0.63,0.01-0.86c-0.18,0.41-0.69,1.37-0.98,1.93h0.97V96.12z"/>
			<path d="M64.96,96.63c0,1.17-0.2,1.75-0.81,1.75c-0.65,0-0.81-0.65-0.81-1.75c0-1.2,0.27-1.65,0.82-1.65
				C64.76,94.98,64.96,95.51,64.96,96.63z M63.57,96.63c0,1.02,0.13,1.55,0.58,1.55c0.44,0,0.58-0.5,0.58-1.54
				c0-1.05-0.16-1.46-0.57-1.46C63.76,95.18,63.57,95.53,63.57,96.63z"/>
			<path d="M66.51,97.63c0.02,0.33,0.2,0.54,0.52,0.54c0.33,0,0.49-0.21,0.49-0.48c0-0.31-0.17-0.45-0.52-0.59
				c-0.47-0.19-0.62-0.36-0.62-0.7c0-0.33,0.2-0.62,0.65-0.62c0.49,0,0.65,0.33,0.66,0.67h-0.22c-0.01-0.14-0.05-0.47-0.45-0.47
				c-0.29,0-0.42,0.18-0.42,0.42c0,0.23,0.09,0.34,0.46,0.49c0.45,0.18,0.68,0.34,0.68,0.79c0,0.43-0.27,0.69-0.73,0.69
				c-0.46,0-0.71-0.28-0.73-0.74H66.51z"/>
			<path d="M68.33,97.09c0,0.6,0.11,1.08,0.56,1.08c0.46,0,0.52-0.46,0.54-0.53h0.22c-0.01,0.06-0.08,0.73-0.76,0.73
				c-0.69,0-0.78-0.67-0.78-1.29c0-0.79,0.25-1.3,0.81-1.3c0.61,0,0.75,0.54,0.75,1.15c0,0.02,0,0.08-0.01,0.16H68.33z M69.45,96.9
				c0-0.55-0.13-0.91-0.54-0.91c-0.54,0-0.57,0.74-0.58,0.91H69.45z"/>
			<path d="M70.39,97.08c0.15-0.2,0.7-0.92,0.94-1.25h0.25c-0.24,0.32-0.51,0.66-0.75,0.98c0,0,0.85,1.52,0.85,1.52h-0.25
				l-0.74-1.35c-0.07,0.09-0.21,0.28-0.29,0.37v0.98h-0.22v-3.57h0.22V97.08z"/>
			<path d="M73.43,97.68c0,0.28,0,0.54,0,0.65h-0.21c-0.01-0.07-0.02-0.16-0.02-0.37c-0.08,0.26-0.31,0.42-0.62,0.42
				c-0.25,0-0.63-0.08-0.63-0.75v-1.8h0.22v1.75c0,0.37,0.11,0.6,0.45,0.6c0.31,0,0.57-0.2,0.57-0.84v-1.51h0.22V97.68z"/>
			<path d="M74.08,96.6c0-0.51-0.01-0.67-0.01-0.77h0.21c0,0.06,0.01,0.16,0.01,0.37c0.09-0.23,0.27-0.41,0.62-0.41
				c0.33,0,0.65,0.17,0.65,0.76v1.78h-0.22v-1.75c0-0.34-0.13-0.59-0.45-0.59c-0.42,0-0.58,0.29-0.58,0.89v1.45h-0.22V96.6z"/>
			<path d="M77.65,94.76v2.96c0,0.21,0,0.46,0,0.61h-0.21c0-0.07-0.01-0.25-0.01-0.38c-0.08,0.24-0.24,0.43-0.61,0.43
				c-0.52,0-0.75-0.42-0.75-1.33c0-0.82,0.32-1.26,0.81-1.26c0.36,0,0.48,0.16,0.54,0.3v-1.33H77.65z M76.3,97.05
				c0,0.82,0.2,1.12,0.55,1.12c0.45,0,0.58-0.4,0.58-1.12c0-0.83-0.14-1.05-0.55-1.05C76.55,95.99,76.3,96.31,76.3,97.05z"/>
			<path d="M78.39,97.09c0,0.6,0.11,1.08,0.56,1.08c0.46,0,0.52-0.46,0.54-0.53h0.22c-0.01,0.06-0.08,0.73-0.76,0.73
				c-0.69,0-0.78-0.67-0.78-1.29c0-0.79,0.25-1.3,0.81-1.3c0.61,0,0.75,0.54,0.75,1.15c0,0.02,0,0.08-0.01,0.16H78.39z M79.51,96.9
				c0-0.55-0.13-0.91-0.54-0.91c-0.54,0-0.57,0.74-0.58,0.91H79.51z"/>
			<path d="M80.24,96.68c0-0.39,0-0.68-0.01-0.86h0.21c0,0.08,0.01,0.2,0.01,0.47c0.11-0.31,0.37-0.5,0.67-0.5v0.24
				c-0.44,0.03-0.67,0.4-0.67,0.85v1.45h-0.22V96.68z"/>
			<path d="M82.47,96.58c0-0.41,0-0.63-0.01-0.75h0.21c0.01,0.09,0.01,0.22,0.01,0.36c0.09-0.23,0.26-0.4,0.57-0.4
				c0.26,0,0.45,0.11,0.53,0.39c0.08-0.22,0.28-0.39,0.6-0.39c0.28,0,0.59,0.13,0.59,0.71v1.83h-0.22v-1.79
				c0-0.29-0.08-0.55-0.41-0.55c-0.37,0-0.51,0.35-0.51,0.71v1.63h-0.22v-1.78c0-0.36-0.12-0.56-0.4-0.56
				c-0.34,0-0.52,0.35-0.52,0.76v1.58h-0.22V96.58z"/>
			<path d="M85.7,97.09c0,0.6,0.11,1.08,0.56,1.08c0.46,0,0.52-0.46,0.54-0.53h0.22c-0.01,0.06-0.08,0.73-0.76,0.73
				c-0.69,0-0.78-0.67-0.78-1.29c0-0.79,0.25-1.3,0.81-1.3c0.61,0,0.75,0.54,0.75,1.15c0,0.02,0,0.08-0.01,0.16H85.7z M86.82,96.9
				c0-0.55-0.13-0.91-0.54-0.91c-0.54,0-0.57,0.74-0.58,0.91H86.82z"/>
			<path d="M88.99,94.76v2.96c0,0.21,0,0.46,0,0.61h-0.21c0-0.07-0.01-0.25-0.01-0.38c-0.08,0.24-0.24,0.43-0.61,0.43
				c-0.52,0-0.75-0.42-0.75-1.33c0-0.82,0.32-1.26,0.81-1.26c0.36,0,0.48,0.16,0.54,0.3v-1.33H88.99z M87.65,97.05
				c0,0.82,0.2,1.12,0.55,1.12c0.45,0,0.58-0.4,0.58-1.12c0-0.83-0.14-1.05-0.55-1.05C87.89,95.99,87.65,96.31,87.65,97.05z"/>
			<path d="M90.4,98.33v-0.02c0-0.31,0.23-0.8,0.75-1.37c0.45-0.48,0.6-0.69,0.6-1.1c0-0.33-0.1-0.67-0.52-0.67
				c-0.35,0-0.53,0.26-0.55,0.7h-0.22c0-0.46,0.24-0.9,0.77-0.9c0.57,0,0.74,0.41,0.74,0.86c0,0.49-0.19,0.73-0.63,1.2
				c-0.46,0.49-0.64,0.86-0.69,1.1h1.42l-0.04,0.2H90.4z"/>
			<path d="M94.01,96.63c0,1.17-0.2,1.75-0.81,1.75c-0.65,0-0.81-0.65-0.81-1.75c0-1.2,0.27-1.65,0.82-1.65
				C93.81,94.98,94.01,95.51,94.01,96.63z M92.62,96.63c0,1.02,0.13,1.55,0.58,1.55c0.44,0,0.58-0.5,0.58-1.54
				c0-1.05-0.16-1.46-0.57-1.46C92.81,95.18,92.62,95.53,92.62,96.63z"/>
			<path d="M95.56,97.63c0.02,0.33,0.2,0.54,0.52,0.54c0.33,0,0.49-0.21,0.49-0.48c0-0.31-0.17-0.45-0.52-0.59
				c-0.47-0.19-0.62-0.36-0.62-0.7c0-0.33,0.2-0.62,0.65-0.62c0.49,0,0.65,0.33,0.66,0.67h-0.22c-0.01-0.14-0.05-0.47-0.45-0.47
				c-0.29,0-0.42,0.18-0.42,0.42c0,0.23,0.09,0.34,0.46,0.49c0.45,0.18,0.68,0.34,0.68,0.79c0,0.43-0.27,0.69-0.73,0.69
				c-0.46,0-0.71-0.28-0.73-0.74H95.56z"/>
			<path d="M97.38,97.09c0,0.6,0.11,1.08,0.56,1.08c0.46,0,0.52-0.46,0.54-0.53h0.22c-0.01,0.06-0.08,0.73-0.76,0.73
				c-0.69,0-0.78-0.67-0.78-1.29c0-0.79,0.25-1.3,0.81-1.3c0.61,0,0.75,0.54,0.75,1.15c0,0.02,0,0.08-0.01,0.16H97.38z M98.5,96.9
				c0-0.55-0.13-0.91-0.54-0.91c-0.54,0-0.57,0.74-0.58,0.91H98.5z"/>
			<path d="M99.44,97.08c0.15-0.2,0.7-0.92,0.94-1.25h0.25c-0.24,0.32-0.51,0.66-0.75,0.98l0.85,1.52h-0.25l-0.74-1.35
				c-0.08,0.09-0.21,0.28-0.29,0.37v0.98h-0.22v-3.57h0.22V97.08z"/>
			<path d="M102.48,97.68c0,0.28,0,0.54,0,0.65h-0.21c-0.01-0.07-0.02-0.16-0.02-0.37c-0.08,0.26-0.3,0.42-0.62,0.42
				c-0.25,0-0.63-0.08-0.63-0.75v-1.8h0.22v1.75c0,0.37,0.11,0.6,0.45,0.6c0.31,0,0.57-0.2,0.57-0.84v-1.51h0.22V97.68z"/>
			<path d="M103.12,96.6c0-0.51,0-0.67,0-0.77h0.21c0,0.06,0.01,0.16,0.01,0.37c0.09-0.23,0.27-0.41,0.62-0.41
				c0.33,0,0.65,0.17,0.65,0.76v1.78h-0.22v-1.75c0-0.34-0.13-0.59-0.45-0.59c-0.42,0-0.58,0.29-0.58,0.89v1.45h-0.22V96.6z"/>
			<path d="M106.7,94.76v2.96c0,0.21,0,0.46,0,0.61h-0.21c-0.01-0.07-0.01-0.25-0.01-0.38c-0.08,0.24-0.25,0.43-0.61,0.43
				c-0.52,0-0.75-0.42-0.75-1.33c0-0.82,0.32-1.26,0.81-1.26c0.36,0,0.48,0.16,0.54,0.3v-1.33H106.7z M105.35,97.05
				c0,0.82,0.2,1.12,0.55,1.12c0.45,0,0.58-0.4,0.58-1.12c0-0.83-0.14-1.05-0.55-1.05C105.6,95.99,105.35,96.31,105.35,97.05z"/>
			<path d="M107.44,97.09c0,0.6,0.11,1.08,0.56,1.08c0.46,0,0.52-0.46,0.54-0.53h0.22c0,0.06-0.08,0.73-0.76,0.73
				c-0.69,0-0.78-0.67-0.78-1.29c0-0.79,0.25-1.3,0.81-1.3c0.61,0,0.75,0.54,0.75,1.15c0,0.02,0,0.08,0,0.16H107.44z M108.56,96.9
				c0-0.55-0.13-0.91-0.54-0.91c-0.54,0-0.57,0.74-0.58,0.91H108.56z"/>
			<path d="M109.28,96.68c0-0.39,0-0.68,0-0.86h0.21c0,0.08,0.01,0.2,0.01,0.47c0.12-0.31,0.37-0.5,0.67-0.5v0.24
				c-0.44,0.03-0.67,0.4-0.67,0.85v1.45h-0.22V96.68z"/>
			<path d="M111.73,98.03v1.23h-0.22v-2.7c0-0.35,0-0.58,0-0.74h0.21c0,0.04,0.01,0.23,0.01,0.38c0.1-0.25,0.29-0.42,0.62-0.42
				c0.48,0,0.73,0.44,0.73,1.26c0,0.85-0.31,1.33-0.8,1.33C111.95,98.38,111.8,98.21,111.73,98.03z M112.85,97.06
				c0-0.65-0.16-1.07-0.54-1.07c-0.45,0-0.59,0.43-0.59,1.09c0,0.61,0.07,1.09,0.56,1.09C112.66,98.17,112.85,97.71,112.85,97.06z"
				/>
			<path d="M114.93,97.96c0,0.18,0.01,0.32,0.02,0.38h-0.2c-0.01-0.06-0.03-0.21-0.03-0.32c-0.09,0.23-0.29,0.36-0.61,0.36
				c-0.48,0-0.65-0.37-0.65-0.71c0-0.42,0.28-0.79,0.95-0.79c0.14,0,0.21,0,0.3,0.01v-0.37c0-0.23-0.05-0.53-0.45-0.53
				c-0.45,0-0.47,0.33-0.49,0.5h-0.22c0.01-0.35,0.18-0.7,0.71-0.7c0.45,0,0.65,0.23,0.65,0.68V97.96z M114.72,97.09
				c-0.07-0.01-0.14-0.01-0.29-0.01c-0.52,0-0.75,0.25-0.75,0.58c0,0.28,0.15,0.52,0.46,0.52c0.41,0,0.58-0.28,0.58-0.91V97.09z"/>
			<path d="M117.05,97.68c0,0.28,0,0.54,0,0.65h-0.21c-0.01-0.07-0.02-0.16-0.02-0.37c-0.08,0.26-0.3,0.42-0.62,0.42
				c-0.25,0-0.63-0.08-0.63-0.75v-1.8h0.22v1.75c0,0.37,0.11,0.6,0.45,0.6c0.31,0,0.57-0.2,0.57-0.84v-1.51h0.22V97.68z"/>
			<path d="M117.71,97.63c0.02,0.33,0.2,0.54,0.52,0.54c0.33,0,0.49-0.21,0.49-0.48c0-0.31-0.17-0.45-0.52-0.59
				c-0.47-0.19-0.62-0.36-0.62-0.7c0-0.33,0.2-0.62,0.66-0.62c0.49,0,0.65,0.33,0.66,0.67h-0.22c-0.01-0.14-0.05-0.47-0.45-0.47
				c-0.29,0-0.42,0.18-0.42,0.42c0,0.23,0.08,0.34,0.46,0.49c0.45,0.18,0.68,0.34,0.68,0.79c0,0.43-0.27,0.69-0.73,0.69
				c-0.46,0-0.71-0.28-0.73-0.74H117.71z"/>
			<path d="M119.53,97.09c0,0.6,0.11,1.08,0.56,1.08c0.46,0,0.52-0.46,0.54-0.53h0.22c0,0.06-0.08,0.73-0.76,0.73
				c-0.69,0-0.78-0.67-0.78-1.29c0-0.79,0.25-1.3,0.81-1.3c0.61,0,0.75,0.54,0.75,1.15c0,0.02,0,0.08,0,0.16H119.53z M120.64,96.9
				c0-0.55-0.13-0.91-0.54-0.91c-0.54,0-0.57,0.74-0.58,0.91H120.64z"/>
			<path d="M121.24,98.34V97.7h0.22v0.64H121.24z"/>
			<path d="M124.37,96.62h-1.17v1.5h1.29l-0.04,0.21h-1.47v-3.41h1.45v0.21h-1.22v1.28h1.17V96.62z"/>
			<path d="M124.57,95.83h0.37v-0.7h0.21v0.7h0.47v0.2h-0.47v1.82c0,0.19,0.04,0.31,0.24,0.31c0.06,0,0.15,0,0.2-0.02v0.18
				c-0.07,0.03-0.18,0.04-0.26,0.04c-0.22,0-0.39-0.1-0.39-0.46v-1.88h-0.37V95.83z"/>
			<path d="M125.66,95.83h0.37v-0.7h0.21v0.7h0.47v0.2h-0.47v1.82c0,0.19,0.04,0.31,0.24,0.31c0.06,0,0.15,0,0.2-0.02v0.18
				c-0.07,0.03-0.18,0.04-0.26,0.04c-0.22,0-0.39-0.1-0.39-0.46v-1.88h-0.37V95.83z"/>
			<path d="M127.17,97.09c0,0.6,0.11,1.08,0.56,1.08c0.46,0,0.52-0.46,0.54-0.53h0.22c0,0.06-0.08,0.73-0.76,0.73
				c-0.69,0-0.78-0.67-0.78-1.29c0-0.79,0.25-1.3,0.81-1.3c0.61,0,0.75,0.54,0.75,1.15c0,0.02,0,0.08,0,0.16H127.17z M128.29,96.9
				c0-0.55-0.13-0.91-0.54-0.91c-0.54,0-0.57,0.74-0.58,0.91H128.29z"/>
			<path d="M129.02,96.68c0-0.39,0-0.68,0-0.86h0.21c0,0.08,0.01,0.2,0.01,0.47c0.12-0.31,0.37-0.5,0.67-0.5v0.24
				c-0.44,0.03-0.67,0.4-0.67,0.85v1.45h-0.22V96.68z"/>
			<path d="M131.47,94.76v1.41c0.08-0.23,0.3-0.39,0.62-0.39c0.34,0,0.64,0.2,0.64,0.76v1.79h-0.22v-1.74c0-0.35-0.12-0.6-0.47-0.6
				c-0.4,0-0.57,0.34-0.57,0.85v1.49h-0.22v-3.57H131.47z"/>
			<path d="M133.34,95.83c0.24,0.88,0.54,1.99,0.59,2.23h0c0.03-0.2,0.51-1.85,0.61-2.23h0.22l-0.73,2.5h-0.24l-0.69-2.5H133.34z"/>
			<path d="M135.25,97.09c0,0.6,0.11,1.08,0.56,1.08c0.46,0,0.52-0.46,0.54-0.53h0.22c0,0.06-0.08,0.73-0.76,0.73
				c-0.69,0-0.78-0.67-0.78-1.29c0-0.79,0.25-1.3,0.81-1.3c0.61,0,0.75,0.54,0.75,1.15c0,0.02,0,0.08,0,0.16H135.25z M136.37,96.9
				c0-0.55-0.13-0.91-0.54-0.91c-0.54,0-0.57,0.74-0.58,0.91H136.37z"/>
			<path d="M137.1,96.68c0-0.39,0-0.68,0-0.86h0.21c0,0.08,0.01,0.2,0.01,0.47c0.12-0.31,0.37-0.5,0.67-0.5v0.24
				c-0.44,0.03-0.67,0.4-0.67,0.85v1.45h-0.22V96.68z"/>
			<path d="M138.02,95.83h0.37v-0.7h0.21v0.7h0.47v0.2h-0.47v1.82c0,0.19,0.04,0.31,0.24,0.31c0.06,0,0.15,0,0.2-0.02v0.18
				c-0.07,0.03-0.18,0.04-0.26,0.04c-0.22,0-0.39-0.1-0.39-0.46v-1.88h-0.37V95.83z"/>
			<path d="M140.43,97.63c0.02,0.33,0.2,0.54,0.52,0.54c0.33,0,0.49-0.21,0.49-0.48c0-0.31-0.17-0.45-0.52-0.59
				c-0.47-0.19-0.62-0.36-0.62-0.7c0-0.33,0.2-0.62,0.66-0.62c0.49,0,0.65,0.33,0.66,0.67h-0.22c-0.01-0.14-0.05-0.47-0.45-0.47
				c-0.29,0-0.42,0.18-0.42,0.42c0,0.23,0.08,0.34,0.46,0.49c0.45,0.18,0.68,0.34,0.68,0.79c0,0.43-0.27,0.69-0.73,0.69
				c-0.46,0-0.71-0.28-0.73-0.74H140.43z"/>
			<path d="M143.62,97.68c0,0.28,0,0.54,0,0.65h-0.21c-0.01-0.07-0.02-0.16-0.02-0.37c-0.08,0.26-0.3,0.42-0.62,0.42
				c-0.25,0-0.63-0.08-0.63-0.75v-1.8h0.22v1.75c0,0.37,0.11,0.6,0.45,0.6c0.31,0,0.57-0.2,0.57-0.84v-1.51h0.22V97.68z"/>
			<path d="M144.48,98.03v1.23h-0.22v-2.7c0-0.35,0-0.58,0-0.74h0.21c0,0.04,0.01,0.23,0.01,0.38c0.1-0.25,0.29-0.42,0.62-0.42
				c0.48,0,0.73,0.44,0.73,1.26c0,0.85-0.31,1.33-0.8,1.33C144.7,98.38,144.55,98.21,144.48,98.03z M145.6,97.06
				c0-0.65-0.16-1.07-0.54-1.07c-0.45,0-0.59,0.43-0.59,1.09c0,0.61,0.07,1.09,0.56,1.09C145.4,98.17,145.6,97.71,145.6,97.06z"/>
			<path d="M146.44,97.09c0,0.6,0.11,1.08,0.56,1.08c0.46,0,0.52-0.46,0.54-0.53h0.22c0,0.06-0.08,0.73-0.76,0.73
				c-0.69,0-0.78-0.67-0.78-1.29c0-0.79,0.25-1.3,0.81-1.3c0.61,0,0.75,0.54,0.75,1.15c0,0.02,0,0.08,0,0.16H146.44z M147.56,96.9
				c0-0.55-0.13-0.91-0.54-0.91c-0.54,0-0.57,0.74-0.58,0.91H147.56z"/>
			<path d="M148.29,96.68c0-0.39,0-0.68,0-0.86h0.21c0,0.08,0.01,0.2,0.01,0.47c0.12-0.31,0.37-0.5,0.67-0.5v0.24
				c-0.44,0.03-0.67,0.4-0.67,0.85v1.45h-0.22V96.68z"/>
			<path d="M149.57,97.63c0.02,0.33,0.2,0.54,0.52,0.54c0.33,0,0.49-0.21,0.49-0.48c0-0.31-0.17-0.45-0.52-0.59
				c-0.47-0.19-0.62-0.36-0.62-0.7c0-0.33,0.2-0.62,0.66-0.62c0.49,0,0.65,0.33,0.66,0.67h-0.22c-0.01-0.14-0.05-0.47-0.45-0.47
				c-0.29,0-0.42,0.18-0.42,0.42c0,0.23,0.08,0.34,0.46,0.49c0.45,0.18,0.68,0.34,0.68,0.79c0,0.43-0.27,0.69-0.73,0.69
				c-0.46,0-0.71-0.28-0.73-0.74H149.57z"/>
			<path d="M151.38,97.09c0,0.6,0.11,1.08,0.56,1.08c0.46,0,0.52-0.46,0.54-0.53h0.22c0,0.06-0.08,0.73-0.76,0.73
				c-0.69,0-0.78-0.67-0.78-1.29c0-0.79,0.25-1.3,0.81-1.3c0.61,0,0.75,0.54,0.75,1.15c0,0.02,0,0.08,0,0.16H151.38z M152.5,96.9
				c0-0.55-0.13-0.91-0.54-0.91c-0.54,0-0.57,0.74-0.58,0.91H152.5z"/>
			<path d="M152.89,95.83h0.37v-0.7h0.21v0.7h0.47v0.2h-0.47v1.82c0,0.19,0.04,0.31,0.24,0.31c0.06,0,0.15,0,0.2-0.02v0.18
				c-0.07,0.03-0.18,0.04-0.26,0.04c-0.22,0-0.39-0.1-0.39-0.46v-1.88h-0.37V95.83z"/>
			<path d="M153.98,95.83h0.37v-0.7h0.21v0.7h0.47v0.2h-0.47v1.82c0,0.19,0.04,0.31,0.24,0.31c0.06,0,0.15,0,0.2-0.02v0.18
				c-0.07,0.03-0.18,0.04-0.26,0.04c-0.22,0-0.39-0.1-0.39-0.46v-1.88h-0.37V95.83z"/>
			<path d="M73.34,104.2c0,0.62-0.13,1.1-0.82,1.1c-0.6,0-0.73-0.42-0.75-0.67H72c0.01,0.18,0.13,0.47,0.53,0.47
				c0.49,0,0.6-0.35,0.6-0.9v-0.31c-0.09,0.29-0.31,0.44-0.61,0.44c-0.49,0-0.75-0.4-0.75-1.22c0-0.93,0.35-1.32,0.81-1.32
				c0.35,0,0.51,0.17,0.56,0.37c0-0.13,0.01-0.28,0.02-0.33h0.21c0,0.12,0,0.37,0,0.7V104.2z M71.99,103.11
				c0,0.67,0.19,1.02,0.56,1.02c0.45,0,0.59-0.45,0.59-1.07c0-0.68-0.12-1.06-0.55-1.06C72.19,101.99,71.99,102.4,71.99,103.11z"/>
			<path d="M74.23,101.83v2.74c0,0.42-0.06,0.74-0.47,0.74c-0.03,0-0.08,0-0.12-0.01v-0.2c0.04,0,0.08,0,0.11,0
				c0.21,0,0.25-0.14,0.25-0.46v-2.81H74.23z M74.02,101.25v-0.48h0.22v0.48H74.02z"/>
			<path d="M76.37,103.04c0,0.86-0.27,1.33-0.8,1.33c-0.56,0-0.81-0.45-0.81-1.33c0-0.86,0.32-1.26,0.82-1.26
				C76.09,101.79,76.37,102.2,76.37,103.04z M74.98,104.38h-0.19l1.34-2.59h0.2L74.98,104.38z M74.98,103.05
				c0,0.78,0.22,1.12,0.58,1.12c0.37,0,0.58-0.35,0.58-1.13c0-0.7-0.2-1.06-0.58-1.06C75.21,101.99,74.98,102.28,74.98,103.05z"/>
			<path d="M76.89,102.68c0-0.39,0-0.68-0.01-0.86h0.21c0,0.08,0.01,0.2,0.01,0.47c0.11-0.31,0.37-0.5,0.67-0.5v0.24
				c-0.44,0.03-0.67,0.4-0.67,0.85v1.45h-0.22V102.68z"/>
			<path d="M80.56,100.76v2.96c0,0.21,0,0.46,0,0.61h-0.21c0-0.07-0.01-0.25-0.01-0.38c-0.08,0.24-0.24,0.43-0.61,0.43
				c-0.52,0-0.75-0.42-0.75-1.33c0-0.82,0.32-1.26,0.81-1.26c0.36,0,0.48,0.16,0.54,0.3v-1.33H80.56z M79.22,103.05
				c0,0.82,0.2,1.12,0.55,1.12c0.45,0,0.58-0.4,0.58-1.12c0-0.83-0.14-1.05-0.55-1.05C79.46,101.99,79.22,102.31,79.22,103.05z"/>
			<path d="M82.67,103.68c0,0.28,0,0.54,0,0.65h-0.21c-0.01-0.07-0.02-0.16-0.02-0.37c-0.08,0.26-0.31,0.42-0.62,0.42
				c-0.25,0-0.63-0.08-0.63-0.75v-1.8h0.22v1.75c0,0.37,0.11,0.6,0.45,0.6c0.31,0,0.57-0.2,0.57-0.84v-1.51h0.22V103.68z"/>
			<path d="M85.28,104.33v-0.94h-1.21v-0.2l1.15-2.18h0.28v2.17h0.34l-0.03,0.2H85.5v0.94H85.28z M85.28,102.12
				c0-0.25,0-0.63,0.01-0.86c-0.18,0.41-0.69,1.37-0.98,1.93h0.97V102.12z"/>
			<path d="M87.77,102.63c0,1.17-0.2,1.75-0.81,1.75c-0.65,0-0.81-0.65-0.81-1.75c0-1.2,0.27-1.65,0.82-1.65
				C87.57,100.98,87.77,101.51,87.77,102.63z M86.38,102.63c0,1.02,0.13,1.55,0.58,1.55c0.44,0,0.58-0.5,0.58-1.54
				c0-1.05-0.16-1.46-0.57-1.46C86.57,101.18,86.38,101.53,86.38,102.63z"/>
			<path d="M89.33,103.63c0.02,0.33,0.2,0.54,0.52,0.54c0.33,0,0.49-0.21,0.49-0.48c0-0.31-0.17-0.45-0.52-0.59
				c-0.47-0.19-0.62-0.36-0.62-0.7c0-0.33,0.2-0.62,0.65-0.62c0.49,0,0.65,0.33,0.66,0.67h-0.22c-0.01-0.14-0.05-0.47-0.45-0.47
				c-0.29,0-0.42,0.18-0.42,0.42c0,0.23,0.09,0.34,0.46,0.49c0.45,0.18,0.68,0.34,0.68,0.79c0,0.43-0.27,0.69-0.73,0.69
				c-0.46,0-0.71-0.28-0.73-0.74H89.33z"/>
			<path d="M91.14,103.09c0,0.6,0.11,1.08,0.56,1.08c0.46,0,0.52-0.46,0.54-0.53h0.22c-0.01,0.06-0.08,0.73-0.76,0.73
				c-0.69,0-0.78-0.67-0.78-1.29c0-0.79,0.25-1.3,0.81-1.3c0.61,0,0.75,0.54,0.75,1.15c0,0.02,0,0.08-0.01,0.16H91.14z M92.26,102.9
				c0-0.55-0.13-0.91-0.54-0.91c-0.54,0-0.57,0.74-0.58,0.91H92.26z"/>
			<path d="M93.21,103.08c0.15-0.2,0.7-0.92,0.94-1.25h0.25c-0.24,0.32-0.51,0.66-0.75,0.98c0,0,0.85,1.52,0.85,1.52h-0.25
				l-0.74-1.35c-0.07,0.09-0.21,0.28-0.29,0.37v0.98h-0.22v-3.57h0.22V103.08z"/>
			<path d="M96.25,103.68c0,0.28,0,0.54,0,0.65h-0.21c-0.01-0.07-0.02-0.16-0.02-0.37c-0.08,0.26-0.31,0.42-0.62,0.42
				c-0.25,0-0.63-0.08-0.63-0.75v-1.8h0.22v1.75c0,0.37,0.11,0.6,0.45,0.6c0.31,0,0.57-0.2,0.57-0.84v-1.51h0.22V103.68z"/>
			<path d="M96.89,102.6c0-0.51-0.01-0.67-0.01-0.77h0.21c0,0.06,0.01,0.16,0.01,0.37c0.09-0.23,0.27-0.41,0.62-0.41
				c0.33,0,0.65,0.17,0.65,0.76v1.78h-0.22v-1.75c0-0.34-0.13-0.59-0.45-0.59c-0.42,0-0.58,0.29-0.58,0.89v1.45h-0.22V102.6z"/>
			<path d="M100.46,100.76v2.96c0,0.21,0,0.46,0.01,0.61h-0.21c0-0.07-0.01-0.25-0.01-0.38c-0.08,0.24-0.25,0.43-0.61,0.43
				c-0.52,0-0.75-0.42-0.75-1.33c0-0.82,0.32-1.26,0.81-1.26c0.36,0,0.48,0.16,0.54,0.3v-1.33H100.46z M99.12,103.05
				c0,0.82,0.2,1.12,0.55,1.12c0.45,0,0.58-0.4,0.58-1.12c0-0.83-0.14-1.05-0.55-1.05C99.36,101.99,99.12,102.31,99.12,103.05z"/>
			<path d="M101.2,103.09c0,0.6,0.11,1.08,0.56,1.08c0.46,0,0.52-0.46,0.54-0.53h0.22c0,0.06-0.08,0.73-0.76,0.73
				c-0.69,0-0.78-0.67-0.78-1.29c0-0.79,0.25-1.3,0.81-1.3c0.61,0,0.75,0.54,0.75,1.15c0,0.02,0,0.08,0,0.16H101.2z M102.32,102.9
				c0-0.55-0.13-0.91-0.54-0.91c-0.54,0-0.57,0.74-0.58,0.91H102.32z"/>
			<path d="M103.05,102.68c0-0.39,0-0.68,0-0.86h0.21c0,0.08,0.01,0.2,0.01,0.47c0.12-0.31,0.37-0.5,0.67-0.5v0.24
				c-0.44,0.03-0.67,0.4-0.67,0.85v1.45h-0.22V102.68z"/>
			<path d="M105.28,102.58c0-0.41,0-0.63,0-0.75h0.21c0.01,0.09,0.01,0.22,0.01,0.36c0.09-0.23,0.26-0.4,0.57-0.4
				c0.26,0,0.45,0.11,0.53,0.39c0.08-0.22,0.28-0.39,0.6-0.39c0.28,0,0.59,0.13,0.59,0.71v1.83h-0.22v-1.79
				c0-0.29-0.08-0.55-0.41-0.55c-0.37,0-0.51,0.35-0.51,0.71v1.63h-0.22v-1.78c0-0.36-0.12-0.56-0.4-0.56
				c-0.34,0-0.52,0.35-0.52,0.76v1.58h-0.22V102.58z"/>
			<path d="M108.51,103.09c0,0.6,0.11,1.08,0.56,1.08c0.46,0,0.52-0.46,0.54-0.53h0.22c0,0.06-0.08,0.73-0.76,0.73
				c-0.69,0-0.78-0.67-0.78-1.29c0-0.79,0.25-1.3,0.81-1.3c0.61,0,0.75,0.54,0.75,1.15c0,0.02,0,0.08,0,0.16H108.51z M109.63,102.9
				c0-0.55-0.13-0.91-0.54-0.91c-0.54,0-0.57,0.74-0.58,0.91H109.63z"/>
			<path d="M111.8,100.76v2.96c0,0.21,0,0.46,0,0.61h-0.21c-0.01-0.07-0.01-0.25-0.01-0.38c-0.08,0.24-0.25,0.43-0.61,0.43
				c-0.52,0-0.75-0.42-0.75-1.33c0-0.82,0.32-1.26,0.81-1.26c0.36,0,0.48,0.16,0.54,0.3v-1.33H111.8z M110.46,103.05
				c0,0.82,0.2,1.12,0.55,1.12c0.45,0,0.58-0.4,0.58-1.12c0-0.83-0.14-1.05-0.55-1.05C110.7,101.99,110.46,102.31,110.46,103.05z"/>
			<path d="M113.43,100.76h0.22v1.45c0.08-0.21,0.25-0.43,0.62-0.43c0.46,0,0.73,0.37,0.73,1.23c0,0.76-0.21,1.35-0.8,1.35
				c-0.32,0-0.48-0.16-0.56-0.37c0,0.1,0,0.21-0.01,0.33h-0.2c0-0.11,0-0.33,0-0.68V100.76z M114.78,103.02
				c0-0.72-0.2-1.03-0.53-1.03c-0.46,0-0.61,0.44-0.61,1.09c0,0.61,0.11,1.08,0.56,1.08C114.57,104.16,114.78,103.8,114.78,103.02z"
				/>
			<path d="M116.97,103.68c0,0.28,0,0.54,0,0.65h-0.21c-0.01-0.07-0.02-0.16-0.02-0.37c-0.08,0.26-0.3,0.42-0.62,0.42
				c-0.25,0-0.63-0.08-0.63-0.75v-1.8h0.22v1.75c0,0.37,0.11,0.6,0.45,0.6c0.31,0,0.57-0.2,0.57-0.84v-1.51h0.22V103.68z"/>
			<path d="M117.61,102.68c0-0.39,0-0.68,0-0.86h0.21c0,0.08,0.01,0.2,0.01,0.47c0.12-0.31,0.37-0.5,0.67-0.5v0.24
				c-0.44,0.03-0.67,0.4-0.67,0.85v1.45h-0.22V102.68z"/>
			<path d="M119.09,104.03v1.23h-0.22v-2.7c0-0.35,0-0.58,0-0.74h0.21c0,0.04,0.01,0.23,0.01,0.38c0.1-0.25,0.29-0.42,0.62-0.42
				c0.48,0,0.73,0.44,0.73,1.26c0,0.85-0.31,1.33-0.8,1.33C119.31,104.38,119.16,104.21,119.09,104.03z M120.21,103.06
				c0-0.65-0.16-1.07-0.54-1.07c-0.45,0-0.59,0.43-0.59,1.09c0,0.61,0.07,1.09,0.56,1.09C120.01,104.17,120.21,103.71,120.21,103.06
				z"/>
			<path d="M121.05,103.09c0,0.6,0.11,1.08,0.56,1.08c0.46,0,0.52-0.46,0.54-0.53h0.22c0,0.06-0.08,0.73-0.76,0.73
				c-0.69,0-0.78-0.67-0.78-1.29c0-0.79,0.25-1.3,0.81-1.3c0.61,0,0.75,0.54,0.75,1.15c0,0.02,0,0.08,0,0.16H121.05z M122.17,102.9
				c0-0.55-0.13-0.91-0.54-0.91c-0.54,0-0.57,0.74-0.58,0.91H122.17z"/>
			<path d="M122.99,103.09c0,0.6,0.11,1.08,0.56,1.08c0.46,0,0.52-0.46,0.54-0.53h0.22c0,0.06-0.08,0.73-0.76,0.73
				c-0.69,0-0.78-0.67-0.78-1.29c0-0.79,0.25-1.3,0.81-1.3c0.61,0,0.75,0.54,0.75,1.15c0,0.02,0,0.08,0,0.16H122.99z M124.11,102.9
				c0-0.55-0.13-0.91-0.54-0.91c-0.54,0-0.57,0.74-0.58,0.91H124.11z"/>
			<path d="M124.86,103.63c0.02,0.33,0.2,0.54,0.52,0.54c0.33,0,0.49-0.21,0.49-0.48c0-0.31-0.17-0.45-0.52-0.59
				c-0.47-0.19-0.62-0.36-0.62-0.7c0-0.33,0.2-0.62,0.66-0.62c0.49,0,0.65,0.33,0.66,0.67h-0.22c-0.01-0.14-0.05-0.47-0.45-0.47
				c-0.29,0-0.42,0.18-0.42,0.42c0,0.23,0.08,0.34,0.46,0.49c0.45,0.18,0.68,0.34,0.68,0.79c0,0.43-0.27,0.69-0.73,0.69
				c-0.46,0-0.71-0.28-0.73-0.74H124.86z"/>
			<path d="M126.45,104.34v-0.64h0.22v0.64H126.45z"/>
		</g>
	</g>
</g>
</svg>
