<?xml version="1.0" encoding="utf-8"?>
<!-- Generator: Adobe Illustrator 25.2.1, SVG Export Plug-In . SVG Version: 6.00 Build 0)  -->
<svg version="1.1" xmlns="http://www.w3.org/2000/svg" xmlns:xlink="http://www.w3.org/1999/xlink" x="0px" y="0px"
	 viewBox="0 0 198.43 113.39" style="enable-background:new 0 0 198.43 113.39;" xml:space="preserve">
<style type="text/css">
	.st0{fill:#F4971A;}
	.st1{fill:#010202;}
</style>
<g id="Bakgrunn">
	<rect class="st0" width="198.43" height="113.39"/>
</g>
<g id="Layer_1">
	<g>
		<g>
			<path class="st1" d="M33.7,19.07v-7.1c-0.26,0.19-0.91,0.42-1.22,0.45v-0.56c0.55-0.15,1.17-0.49,1.42-0.75h0.47v7.96H33.7z"/>
			<path class="st1" d="M38.4,14.84c0-1.03,0-1.52-0.01-1.81h0.65c0.02,0.2,0.03,0.52,0.03,0.83c0.23-0.55,0.64-0.93,1.36-0.93
				c0.62,0,1.08,0.26,1.26,0.93c0.2-0.51,0.68-0.93,1.45-0.93c0.71,0,1.43,0.34,1.43,1.73v4.4H43.9v-4.27
				c0-0.66-0.19-1.24-0.93-1.24c-0.84,0-1.14,0.78-1.14,1.61v3.91h-0.67v-4.25c0-0.82-0.27-1.27-0.91-1.27
				c-0.78,0-1.17,0.76-1.17,1.72v3.8H38.4V14.84z"/>
			<path class="st1" d="M46.07,13.03h0.67v6.04h-0.67V13.03z M46.08,10.52h0.67v1.2h-0.67V10.52z"/>
			<path class="st1" d="M48.26,14.89c0-1.23-0.01-1.6-0.01-1.86h0.65c0.01,0.15,0.03,0.38,0.03,0.85c0.21-0.52,0.64-0.95,1.47-0.95
				c0.83,0,1.56,0.45,1.56,1.84v4.3h-0.68v-4.18c0-0.79-0.29-1.34-1.02-1.34c-0.92,0-1.3,0.62-1.3,1.98v3.54h-0.68V14.89z"/>
			<path class="st1" d="M57.1,17.46c0,0.71,0,1.32,0.01,1.61h-0.64c-0.03-0.17-0.04-0.4-0.04-0.86c-0.2,0.61-0.73,0.97-1.47,0.97
				c-0.64,0-1.51-0.24-1.51-1.8v-4.34h0.68v4.18c0,0.84,0.25,1.36,1.01,1.36c0.72,0,1.27-0.46,1.27-1.89v-3.65h0.68V17.46z"/>
			<path class="st1" d="M57.81,13.03h0.87v-1.65h0.66v1.65h1.1v0.6h-1.1v4.21c0,0.44,0.1,0.72,0.56,0.72c0.14,0,0.35-0.01,0.46-0.03
				v0.54c-0.19,0.07-0.46,0.09-0.66,0.09c-0.61,0-1.02-0.26-1.02-1.16v-4.36h-0.87V13.03z"/>
			<path class="st1" d="M60.52,13.03h0.87v-1.65h0.66v1.65h1.1v0.6h-1.1v4.21c0,0.44,0.1,0.72,0.56,0.72c0.14,0,0.35-0.01,0.46-0.03
				v0.54c-0.19,0.07-0.46,0.09-0.66,0.09c-0.61,0-1.02-0.26-1.02-1.16v-4.36h-0.87V13.03z"/>
			<path class="st1" d="M66.33,19.07v-8.55H67v8.55H66.33z"/>
			<path class="st1" d="M72.22,15.97c0,2.12-0.68,3.21-2,3.21c-1.37,0-2.01-1.05-2.01-3.2c0-2.07,0.78-3.05,2.03-3.05
				C71.52,12.93,72.22,13.94,72.22,15.97z M68.79,19.17H68.3l3.27-6.22h0.52L68.79,19.17z M68.9,15.99c0,1.81,0.5,2.59,1.32,2.59
				c0.84,0,1.31-0.8,1.31-2.62c0-1.63-0.44-2.44-1.31-2.44C69.41,13.53,68.9,14.21,68.9,15.99z"/>
			<path class="st1" d="M74.08,18.39v2.91h-0.67v-6.5c0-0.83,0-1.39-0.01-1.77h0.65c0.01,0.1,0.03,0.54,0.03,0.87
				c0.22-0.57,0.67-0.97,1.47-0.97c1.15,0,1.76,1.03,1.76,3.04c0,2.1-0.75,3.21-1.93,3.21C74.61,19.18,74.25,18.79,74.08,18.39z
				 M76.62,16c0-1.55-0.37-2.46-1.24-2.46c-1.02,0-1.33,0.98-1.33,2.49c0,1.46,0.16,2.52,1.25,2.52
				C76.17,18.56,76.62,17.54,76.62,16z"/>
			<path class="st1" d="M80.49,19.31l2.28-8.46h0.6l-2.28,8.46H80.49z"/>
			<path class="st1" d="M87.56,13.03v6.52c0,1.05-0.14,1.84-1.2,1.84c-0.09,0-0.21-0.01-0.32-0.03v-0.61
				c0.1,0.01,0.21,0.01,0.27,0.01c0.5,0,0.58-0.31,0.58-1.04v-6.7H87.56z M86.9,11.72v-1.2h0.67v1.2H86.9z"/>
			<path class="st1" d="M92.78,15.97c0,2.1-0.68,3.21-2,3.21c-1.37,0-2.01-1.07-2.01-3.19c0-2.08,0.79-3.05,2.03-3.05
				C92.08,12.93,92.78,13.94,92.78,15.97z M89.47,15.99c0,1.77,0.48,2.58,1.31,2.58c0.84,0,1.31-0.83,1.31-2.6
				c0-1.62-0.44-2.44-1.31-2.44C89.97,13.54,89.47,14.23,89.47,15.99z"/>
			<path class="st1" d="M97.59,18.72c0,1.54-0.34,2.68-2.03,2.68c-1.5,0-1.82-1.01-1.86-1.63h0.69c0.02,0.39,0.27,1.04,1.19,1.04
				c1.11,0,1.35-0.8,1.35-2.08v-0.66c-0.21,0.66-0.74,1-1.45,1c-1.19,0-1.81-1-1.81-2.94c0-2.21,0.83-3.19,1.95-3.19
				c0.83,0,1.2,0.4,1.32,0.85c-0.01-0.3,0.03-0.63,0.04-0.75h0.64c-0.01,0.29-0.01,0.91-0.01,1.71V18.72z M94.36,16.11
				c0,1.55,0.44,2.33,1.26,2.33c1.02,0,1.32-1.02,1.32-2.47c0-1.55-0.25-2.43-1.23-2.43C94.82,13.55,94.36,14.47,94.36,16.11z"/>
			<path class="st1" d="M102.74,18.72c0,1.54-0.34,2.68-2.03,2.68c-1.5,0-1.82-1.01-1.86-1.63h0.69c0.02,0.39,0.27,1.04,1.19,1.04
				c1.11,0,1.34-0.8,1.34-2.08v-0.66c-0.21,0.66-0.74,1-1.45,1c-1.19,0-1.81-1-1.81-2.94c0-2.21,0.83-3.19,1.95-3.19
				c0.83,0,1.2,0.4,1.32,0.85c-0.01-0.3,0.03-0.63,0.04-0.75h0.64c-0.01,0.29-0.01,0.91-0.01,1.71V18.72z M99.51,16.11
				c0,1.55,0.44,2.33,1.26,2.33c1.02,0,1.32-1.02,1.32-2.47c0-1.55-0.25-2.43-1.23-2.43C99.97,13.55,99.51,14.47,99.51,16.11z"/>
			<path class="st1" d="M33.7,40.07v-7.1c-0.26,0.19-0.91,0.42-1.22,0.45v-0.56c0.55-0.15,1.17-0.49,1.42-0.75h0.47v7.96H33.7z"/>
			<path class="st1" d="M38.4,35.84c0-1.03,0-1.52-0.01-1.81h0.65c0.02,0.2,0.03,0.52,0.03,0.83c0.23-0.55,0.64-0.93,1.36-0.93
				c0.62,0,1.08,0.26,1.26,0.93c0.2-0.51,0.68-0.93,1.45-0.93c0.71,0,1.43,0.34,1.43,1.73v4.4H43.9v-4.27
				c0-0.66-0.19-1.24-0.93-1.24c-0.84,0-1.14,0.78-1.14,1.61v3.91h-0.67v-4.25c0-0.82-0.27-1.27-0.91-1.27
				c-0.78,0-1.17,0.76-1.17,1.72v3.8H38.4V35.84z"/>
			<path class="st1" d="M46.07,34.03h0.67v6.04h-0.67V34.03z M46.08,31.52h0.67v1.2h-0.67V31.52z"/>
			<path class="st1" d="M48.26,35.89c0-1.23-0.01-1.6-0.01-1.86h0.65c0.01,0.15,0.03,0.38,0.03,0.85c0.21-0.52,0.64-0.95,1.47-0.95
				c0.83,0,1.56,0.45,1.56,1.84v4.3h-0.68v-4.18c0-0.79-0.29-1.34-1.02-1.34c-0.92,0-1.3,0.62-1.3,1.98v3.54h-0.68V35.89z"/>
			<path class="st1" d="M57.1,38.46c0,0.71,0,1.32,0.01,1.61h-0.64c-0.03-0.17-0.04-0.4-0.04-0.86c-0.2,0.61-0.73,0.97-1.47,0.97
				c-0.64,0-1.51-0.24-1.51-1.8v-4.34h0.68v4.18c0,0.84,0.25,1.36,1.01,1.36c0.72,0,1.27-0.46,1.27-1.89v-3.65h0.68V38.46z"/>
			<path class="st1" d="M57.81,34.03h0.87v-1.65h0.66v1.65h1.1v0.6h-1.1v4.21c0,0.44,0.1,0.72,0.56,0.72c0.14,0,0.35-0.01,0.46-0.03
				v0.54c-0.19,0.07-0.46,0.09-0.66,0.09c-0.61,0-1.02-0.26-1.02-1.16v-4.36h-0.87V34.03z"/>
			<path class="st1" d="M60.52,34.03h0.87v-1.65h0.66v1.65h1.1v0.6h-1.1v4.21c0,0.44,0.1,0.72,0.56,0.72c0.14,0,0.35-0.01,0.46-0.03
				v0.54c-0.19,0.07-0.46,0.09-0.66,0.09c-0.61,0-1.02-0.26-1.02-1.16v-4.36h-0.87V34.03z"/>
			<path class="st1" d="M66.54,38.36c0.05,0.73,0.44,1.23,1.18,1.23c0.73,0,1.09-0.46,1.09-1.07c0-0.7-0.37-1.01-1.19-1.33
				c-1.18-0.46-1.55-0.89-1.55-1.72c0-0.8,0.49-1.54,1.64-1.54c1.26,0,1.64,0.85,1.65,1.66h-0.67c-0.02-0.31-0.1-1.08-1.01-1.08
				c-0.65,0-0.93,0.4-0.93,0.93c0,0.52,0.21,0.78,1.09,1.13c1.12,0.44,1.65,0.85,1.65,1.9c0,1.07-0.67,1.7-1.82,1.7
				c-1.17,0-1.77-0.71-1.81-1.81H66.54z"/>
			<path class="st1" d="M69.85,34.03h0.87v-1.65h0.66v1.65h1.1v0.6h-1.1v4.21c0,0.44,0.1,0.72,0.56,0.72c0.14,0,0.35-0.01,0.46-0.03
				v0.54c-0.19,0.07-0.46,0.09-0.66,0.09c-0.61,0-1.02-0.26-1.02-1.16v-4.36h-0.87V34.03z"/>
			<path class="st1" d="M73.46,34.03c0.73,2.75,1.26,4.62,1.34,5.23h0.01c0.11-0.63,0.71-2.82,1.34-5.23h0.71l-1.78,6.35
				c-0.48,1.73-0.87,2.01-1.73,2.01c-0.12,0-0.29-0.01-0.39-0.04v-0.62c0.08,0.02,0.25,0.03,0.39,0.03c0.67,0,0.84-0.49,1.12-1.56
				l-1.75-6.18H73.46z"/>
			<path class="st1" d="M77.75,36.09c0-0.95,0-1.63-0.01-2.06h0.65c0.01,0.18,0.03,0.47,0.03,1.11c0.27-0.75,0.87-1.19,1.6-1.2v0.73
				c-1.06,0.05-1.59,0.84-1.59,1.94v3.45h-0.67V36.09z"/>
			<path class="st1" d="M81.56,36.98c0.37-0.53,1.58-2.14,2.14-2.94h0.76c-0.56,0.77-1.18,1.58-1.76,2.34c0,0,1.96,3.7,1.96,3.7
				h-0.78c0,0-1.63-3.16-1.63-3.16c-0.18,0.22-0.51,0.67-0.69,0.89v2.26h-0.67v-8.55h0.67V36.98z"/>
			<path class="st1" d="M85.7,37.14c0,1.34,0.24,2.44,1.27,2.44c1.04,0,1.18-1.01,1.21-1.19h0.67c-0.01,0.14-0.2,1.79-1.89,1.79
				c-1.71,0-1.95-1.62-1.95-3.12c0-1.91,0.63-3.13,2-3.13c1.52,0,1.88,1.3,1.88,2.79c0,0.08,0,0.25-0.01,0.42H85.7z M88.22,36.57
				c0-1.21-0.28-2.04-1.21-2.04c-1.22,0-1.28,1.64-1.3,2.04H88.22z"/>
		</g>
	</g>
	<polygon class="st1" points="21.47,18.13 18.33,16.61 15.29,18.33 15.77,14.87 13.2,12.52 16.63,11.91 18.07,8.73 19.72,11.81 
		23.18,12.2 20.77,14.71 	"/>
	
		<rect x="121.22" y="23.89" transform="matrix(0.7071 -0.7071 0.7071 0.7071 21.2082 103.3334)" class="st1" width="28.23" height="4.34"/>
	
		<rect x="121.22" y="23.89" transform="matrix(0.7071 0.7071 -0.7071 0.7071 58.0713 -88.0642)" class="st1" width="28.23" height="4.34"/>
	<g>
		<g>
			<path class="st1" d="M172.56,39.1v-9h-14.74v-2.42l13.71-21.24h4.43v21.21h4.1l-0.42,2.45h-3.68v9H172.56z M172.56,17.75
				c0-2.65-0.03-6.16,0.14-8.55c-2.06,3.95-7.91,13.05-11.33,18.45h11.19V17.75z"/>
		</g>
	</g>
	<polygon class="st1" points="21.47,40.38 18.33,38.85 15.29,40.58 15.77,37.12 13.2,34.77 16.63,34.16 18.07,30.98 19.72,34.06 
		23.18,34.45 20.77,36.96 	"/>
	<g>
		<g>
			<path class="st1" d="M33.93,60.9c0.06,0.9,0.51,1.59,1.46,1.59c0.91,0,1.4-0.47,1.4-1.54c0-0.93-0.35-1.41-1.49-1.96
				c-1.23-0.59-1.8-1.15-1.8-2.32c0-1.05,0.67-1.95,1.95-1.95c1.48,0,1.9,1.09,1.92,2.01h-0.68c-0.04-0.37-0.16-1.41-1.27-1.41
				c-0.86,0-1.22,0.6-1.22,1.29c0,0.85,0.38,1.25,1.43,1.76c1.41,0.68,1.89,1.37,1.89,2.53c0,1.29-0.7,2.19-2.12,2.19
				c-1.55,0-2.07-1.02-2.14-2.19H33.93z"/>
			<path class="st1" d="M37.88,56.95h0.87v-1.65h0.66v1.65h1.1v0.6h-1.1v4.21c0,0.44,0.1,0.72,0.56,0.72c0.14,0,0.35-0.01,0.46-0.03
				v0.54c-0.19,0.07-0.46,0.09-0.66,0.09c-0.61,0-1.02-0.26-1.02-1.16v-4.36h-0.87V56.95z"/>
			<path class="st1" d="M41.49,56.95c0.73,2.75,1.26,4.62,1.34,5.23h0.01c0.11-0.63,0.71-2.82,1.34-5.23h0.71l-1.78,6.35
				c-0.48,1.72-0.87,2.01-1.73,2.01c-0.12,0-0.29-0.01-0.39-0.04v-0.62c0.08,0.02,0.25,0.03,0.39,0.03c0.67,0,0.84-0.49,1.12-1.56
				l-1.75-6.18H41.49z"/>
			<path class="st1" d="M45.79,59.02c0-0.95,0-1.63-0.01-2.06h0.65c0.01,0.18,0.03,0.47,0.03,1.11c0.27-0.75,0.87-1.19,1.6-1.2v0.73
				c-1.06,0.05-1.59,0.84-1.59,1.94v3.45h-0.67V59.02z"/>
			<path class="st1" d="M49.59,59.9c0.37-0.53,1.58-2.14,2.14-2.95h0.76c-0.56,0.77-1.18,1.58-1.76,2.34c0,0,1.96,3.7,1.96,3.7
				h-0.78l-1.63-3.16c-0.18,0.22-0.51,0.67-0.69,0.89v2.26h-0.67v-8.55h0.67V59.9z"/>
			<path class="st1" d="M53.73,60.06c0,1.34,0.24,2.44,1.27,2.44c1.04,0,1.18-1.01,1.21-1.19h0.67c-0.01,0.14-0.2,1.79-1.89,1.79
				c-1.71,0-1.95-1.62-1.95-3.11c0-1.91,0.63-3.13,2-3.13c1.52,0,1.88,1.31,1.88,2.79c0,0.08,0,0.25-0.01,0.42H53.73z M56.26,59.5
				c0-1.21-0.28-2.05-1.21-2.05c-1.22,0-1.28,1.64-1.3,2.05H56.26z"/>
			<path class="st1" d="M58.15,58.69v-1.57h0.66v1.57H58.15z M58.15,63v-1.58h0.66V63H58.15z"/>
		</g>
	</g>
	<g>
		<g>
			<path class="st1" d="M33.8,65.87h0.46v2.78c0.42-0.57,1.38-1.94,1.98-2.78h0.52l-1.61,2.23l1.67,3.21h-0.53l-1.45-2.83
				l-0.58,0.77v2.06H33.8V65.87z"/>
			<path class="st1" d="M37.19,68.53c0-0.82-0.01-1.06-0.01-1.24h0.44c0.01,0.1,0.02,0.25,0.02,0.57c0.14-0.35,0.43-0.64,0.98-0.64
				c0.55,0,1.04,0.3,1.04,1.22v2.87h-0.46v-2.79c0-0.53-0.19-0.89-0.68-0.89c-0.62,0-0.87,0.42-0.87,1.32v2.36h-0.46V68.53z"/>
			<path class="st1" d="M40.9,69.36c0,0.89,0.16,1.63,0.85,1.63c0.69,0,0.78-0.67,0.81-0.79H43c-0.01,0.1-0.13,1.19-1.26,1.19
				c-1.14,0-1.3-1.08-1.3-2.08c0-1.27,0.42-2.08,1.33-2.08c1.02,0,1.25,0.87,1.25,1.86c0,0.05,0,0.17-0.01,0.28H40.9z M42.58,68.98
				c0-0.81-0.19-1.36-0.81-1.36c-0.81,0-0.85,1.09-0.86,1.36H42.58z"/>
			<path class="st1" d="M43.83,65.61h0.45v2.26c0.12-0.33,0.41-0.65,0.98-0.65c0.75,0,1.17,0.61,1.17,1.98
				c0,1.23-0.34,2.18-1.28,2.18c-0.51,0-0.76-0.26-0.89-0.57c0,0.15-0.01,0.33-0.02,0.5h-0.42c0.01-0.19,0.01-0.57,0.01-1.09V65.61z
				 M45.97,69.21c0-1.09-0.28-1.58-0.81-1.58c-0.69,0-0.91,0.64-0.91,1.67c0,0.97,0.17,1.67,0.84,1.67
				C45.67,70.97,45.97,70.41,45.97,69.21z"/>
			<path class="st1" d="M49.69,69.25c0,1.41-0.45,2.14-1.33,2.14c-0.91,0-1.34-0.7-1.34-2.13c0-1.38,0.52-2.03,1.36-2.03
				C49.23,67.22,49.69,67.9,49.69,69.25z M47.41,71.38h-0.33l2.18-4.15h0.34L47.41,71.38z M47.48,69.26c0,1.21,0.33,1.73,0.88,1.73
				c0.56,0,0.88-0.53,0.88-1.75c0-1.09-0.29-1.62-0.88-1.62C47.82,67.62,47.48,68.08,47.48,69.26z"/>
			<path class="st1" d="M50.57,67.29c0.49,1.83,0.84,3.08,0.9,3.49h0.01c0.08-0.42,0.47-1.88,0.9-3.49h0.48l-1.18,4.23
				c-0.32,1.15-0.58,1.34-1.16,1.34c-0.08,0-0.19-0.01-0.26-0.03v-0.41c0.06,0.01,0.17,0.02,0.26,0.02c0.45,0,0.56-0.33,0.74-1.04
				l-1.17-4.12H50.57z"/>
			<path class="st1" d="M33.8,73.87h1.32c0.84,0,1.4,0.54,1.4,1.48c0,0.94-0.5,1.56-1.49,1.56h-0.77v2.4H33.8V73.87z M34.26,76.51
				h0.72c0.69,0,1.06-0.38,1.06-1.16c0-0.62-0.33-1.07-0.99-1.07h-0.8V76.51z"/>
			<path class="st1" d="M39.67,78.24c0,0.48,0,0.88,0.01,1.07h-0.43c-0.02-0.11-0.03-0.27-0.03-0.57c-0.13,0.41-0.49,0.64-0.98,0.64
				c-0.43,0-1.01-0.16-1.01-1.2v-2.9h0.46v2.78c0,0.56,0.17,0.91,0.67,0.91c0.48,0,0.85-0.3,0.85-1.26v-2.43h0.46V78.24z"/>
			<path class="st1" d="M40.81,78.17C40.84,78.66,41.1,79,41.59,79c0.49,0,0.73-0.3,0.73-0.71c0-0.47-0.25-0.67-0.79-0.89
				c-0.79-0.31-1.03-0.59-1.03-1.15c0-0.53,0.33-1.03,1.09-1.03c0.84,0,1.1,0.57,1.1,1.1h-0.45c-0.01-0.21-0.07-0.72-0.67-0.72
				c-0.43,0-0.62,0.26-0.62,0.62c0,0.35,0.14,0.52,0.73,0.75c0.75,0.29,1.1,0.56,1.1,1.27c0,0.71-0.45,1.14-1.21,1.14
				c-0.78,0-1.18-0.47-1.21-1.21H40.81z"/>
			<path class="st1" d="M43.99,73.61v2.2c0.14-0.36,0.47-0.6,0.99-0.6c0.56,0,1.02,0.34,1.02,1.22v2.87h-0.46v-2.77
				c0-0.53-0.17-0.91-0.7-0.91c-0.61,0-0.85,0.51-0.85,1.28v2.4h-0.46v-5.7H43.99z"/>
			<path class="st1" d="M49.42,78.24c0,0.48,0,0.88,0.01,1.07H49c-0.02-0.11-0.03-0.27-0.03-0.57c-0.13,0.41-0.49,0.64-0.98,0.64
				c-0.43,0-1.01-0.16-1.01-1.2v-2.9h0.46v2.78c0,0.56,0.17,0.91,0.67,0.91c0.48,0,0.85-0.3,0.85-1.26v-2.43h0.46V78.24z"/>
			<path class="st1" d="M50.87,78.86v1.94h-0.45v-4.33c0-0.55,0-0.93-0.01-1.18h0.44c0.01,0.07,0.02,0.36,0.02,0.58
				c0.15-0.38,0.45-0.64,0.98-0.64c0.77,0,1.18,0.69,1.18,2.03c0,1.4-0.5,2.14-1.29,2.14C51.22,79.38,50.98,79.13,50.87,78.86z
				 M52.56,77.27c0-1.03-0.25-1.64-0.82-1.64c-0.68,0-0.88,0.65-0.88,1.66c0,0.97,0.11,1.68,0.84,1.68
				C52.26,78.98,52.56,78.29,52.56,77.27z"/>
			<path class="st1" d="M53.97,78.17C54,78.66,54.26,79,54.75,79c0.49,0,0.73-0.3,0.73-0.71c0-0.47-0.25-0.67-0.79-0.89
				c-0.79-0.31-1.03-0.59-1.03-1.15c0-0.53,0.33-1.03,1.09-1.03c0.84,0,1.1,0.57,1.1,1.1H55.4c-0.01-0.21-0.07-0.72-0.67-0.72
				c-0.43,0-0.62,0.26-0.62,0.62c0,0.35,0.14,0.52,0.73,0.75c0.75,0.29,1.1,0.56,1.1,1.27c0,0.71-0.45,1.14-1.21,1.14
				c-0.78,0-1.18-0.47-1.21-1.21H53.97z"/>
			<path class="st1" d="M33.8,81.87h1.32c0.84,0,1.4,0.54,1.4,1.48c0,0.94-0.5,1.56-1.49,1.56h-0.77v2.4H33.8V81.87z M34.26,84.51
				h0.72c0.69,0,1.06-0.38,1.06-1.16c0-0.62-0.33-1.07-0.99-1.07h-0.8V84.51z"/>
			<path class="st1" d="M37.24,87.31v-5.7h0.45v5.7H37.24z"/>
			<path class="st1" d="M40.92,86.66c0,0.27,0.02,0.54,0.03,0.65h-0.41c-0.02-0.09-0.04-0.32-0.04-0.49
				c-0.15,0.35-0.46,0.56-0.97,0.56c-0.77,0-1.04-0.6-1.04-1.15c0-0.7,0.47-1.27,1.54-1.27c0.21,0,0.33,0,0.45,0.01V84.4
				c0-0.34-0.07-0.79-0.67-0.79c-0.67,0-0.7,0.49-0.73,0.76h-0.44c0.02-0.57,0.29-1.15,1.18-1.15c0.75,0,1.1,0.37,1.1,1.11V86.66z
				 M40.49,85.35c-0.1-0.02-0.22-0.02-0.44-0.02c-0.79,0-1.12,0.38-1.12,0.87c0,0.42,0.22,0.79,0.69,0.79
				c0.63,0,0.86-0.44,0.86-1.38V85.35z"/>
			<path class="st1" d="M41.93,84.53c0-0.82-0.01-1.06-0.01-1.24h0.44c0.01,0.1,0.02,0.25,0.02,0.57c0.14-0.35,0.43-0.64,0.98-0.64
				c0.55,0,1.04,0.3,1.04,1.22v2.87h-0.46v-2.79c0-0.53-0.19-0.89-0.68-0.89c-0.62,0-0.87,0.42-0.87,1.32v2.36h-0.46V84.53z"/>
			<path class="st1" d="M45.84,85.25c0.25-0.35,1.05-1.42,1.43-1.96h0.51c-0.37,0.51-0.79,1.05-1.17,1.56l1.31,2.46h-0.52l-1.09-2.1
				c-0.12,0.15-0.34,0.44-0.46,0.59v1.51H45.4v-5.7h0.45V85.25z"/>
			<path class="st1" d="M48.6,85.36c0,0.89,0.16,1.63,0.85,1.63c0.69,0,0.78-0.67,0.81-0.79h0.45c-0.01,0.1-0.13,1.19-1.26,1.19
				c-1.14,0-1.3-1.08-1.3-2.08c0-1.27,0.42-2.08,1.33-2.08c1.02,0,1.25,0.87,1.25,1.86c0,0.05,0,0.17-0.01,0.28H48.6z M50.29,84.98
				c0-0.81-0.19-1.36-0.81-1.36c-0.81,0-0.85,1.09-0.86,1.36H50.29z"/>
			<path class="st1" d="M33.8,89.87h2.4v0.42h-1.94v1.97h1.82v0.41h-1.82v2.64H33.8V89.87z"/>
			<path class="st1" d="M36.8,95.31v-5.7h0.45v5.7H36.8z"/>
			<path class="st1" d="M38.33,91.29c0.49,1.83,0.84,3.08,0.9,3.49h0.01c0.08-0.42,0.47-1.88,0.9-3.49h0.48l-1.18,4.23
				c-0.32,1.15-0.58,1.34-1.16,1.34c-0.08,0-0.19-0.01-0.26-0.03v-0.41c0.06,0.01,0.17,0.02,0.26,0.02c0.45,0,0.56-0.33,0.74-1.04
				l-1.17-4.12H38.33z"/>
			<path class="st1" d="M40.82,91.39c0.13-0.5,0.27-1.14,0.27-1.79h0.44c0,0.67-0.2,1.47-0.34,1.79H40.82z"/>
			<path class="st1" d="M42.36,94.17c0.03,0.49,0.29,0.82,0.78,0.82c0.49,0,0.73-0.3,0.73-0.71c0-0.47-0.25-0.67-0.79-0.89
				c-0.79-0.31-1.03-0.59-1.03-1.15c0-0.53,0.33-1.03,1.09-1.03c0.84,0,1.1,0.57,1.1,1.1H43.8c-0.01-0.21-0.07-0.72-0.67-0.72
				c-0.43,0-0.62,0.26-0.62,0.62c0,0.35,0.14,0.52,0.73,0.75c0.75,0.29,1.1,0.56,1.1,1.27c0,0.71-0.45,1.14-1.21,1.14
				c-0.78,0-1.18-0.47-1.21-1.21H42.36z"/>
			<path class="st1" d="M34.22,97.87v3.84c0,0.66,0.2,1.27,0.96,1.27c0.77,0,0.96-0.51,0.96-1.27v-3.84h0.46v3.85
				c0,0.99-0.35,1.67-1.44,1.67c-1.04,0-1.41-0.64-1.41-1.63v-3.89H34.22z"/>
			<path class="st1" d="M37.09,99.29h0.58v-1.1h0.44v1.1h0.73v0.4h-0.73v2.81c0,0.29,0.07,0.48,0.38,0.48c0.1,0,0.23-0.01,0.3-0.02
				v0.36c-0.12,0.05-0.31,0.06-0.44,0.06c-0.41,0-0.68-0.17-0.68-0.77v-2.91h-0.58V99.29z"/>
			<path class="st1" d="M39.48,103.31v-3.63h-0.55v-0.4h0.55v-0.62c0-0.56,0.18-1.1,0.89-1.1c0.1,0,0.23,0.02,0.31,0.04v0.41
				c-0.07-0.02-0.17-0.04-0.28-0.04c-0.34,0-0.46,0.22-0.46,0.68v0.62h0.66v0.4h-0.66v3.63H39.48z"/>
			<path class="st1" d="M43.22,102.66c0,0.27,0.02,0.54,0.03,0.65h-0.41c-0.02-0.09-0.04-0.32-0.04-0.49
				c-0.15,0.35-0.46,0.56-0.97,0.56c-0.77,0-1.04-0.6-1.04-1.15c0-0.7,0.47-1.27,1.54-1.27c0.21,0,0.33,0,0.45,0.01v-0.57
				c0-0.34-0.07-0.79-0.67-0.79c-0.67,0-0.7,0.49-0.73,0.76h-0.44c0.02-0.57,0.29-1.15,1.18-1.15c0.75,0,1.1,0.37,1.1,1.11V102.66z
				 M42.8,101.35c-0.1-0.02-0.22-0.02-0.44-0.02c-0.79,0-1.12,0.38-1.12,0.87c0,0.42,0.22,0.79,0.69,0.79
				c0.63,0,0.86-0.44,0.86-1.38V101.35z"/>
			<path class="st1" d="M44.24,103.31v-5.7h0.45v5.7H44.24z"/>
			<path class="st1" d="M45.69,103.31v-5.7h0.45v5.7H45.69z"/>
		</g>
	</g>
	<g>
		<g>
			<path class="st1" d="M98.16,57.35h1.8v0.31H98.5v1.48h1.36v0.31H98.5v1.98h-0.34V57.35z"/>
			<path class="st1" d="M100.41,58.41h0.34v3.02h-0.34V58.41z M100.41,57.15h0.34v0.6h-0.34V57.15z"/>
			<path class="st1" d="M101.5,59.34c0-0.62,0-0.8-0.01-0.93h0.33c0.01,0.07,0.01,0.19,0.01,0.43c0.11-0.26,0.32-0.48,0.73-0.48
				c0.42,0,0.78,0.22,0.78,0.92v2.15H103v-2.09c0-0.39-0.14-0.67-0.51-0.67c-0.46,0-0.65,0.31-0.65,0.99v1.77h-0.34V59.34z"/>
			<path class="st1" d="M104.1,59.34c0-0.62,0-0.8-0.01-0.93h0.33c0.01,0.07,0.01,0.19,0.01,0.43c0.11-0.26,0.32-0.48,0.73-0.48
				c0.42,0,0.78,0.22,0.78,0.92v2.15h-0.34v-2.09c0-0.39-0.14-0.67-0.51-0.67c-0.46,0-0.65,0.31-0.65,0.99v1.77h-0.34V59.34z"/>
			<path class="st1" d="M109.66,57.15v3.52c0,0.27,0,0.57,0.01,0.75h-0.33c-0.01-0.08-0.01-0.29-0.01-0.44
				c-0.09,0.28-0.29,0.49-0.72,0.49c-0.62,0-0.9-0.52-0.9-1.6c0-0.98,0.38-1.52,0.98-1.52c0.42,0,0.57,0.18,0.64,0.34v-1.55H109.66z
				 M108.05,59.89c0,0.94,0.22,1.28,0.62,1.28c0.51,0,0.65-0.45,0.65-1.3c0-0.95-0.15-1.21-0.62-1.21
				C108.32,58.67,108.05,59.02,108.05,59.89z"/>
			<path class="st1" d="M110.6,59.96c0,0.67,0.12,1.22,0.64,1.22c0.52,0,0.59-0.51,0.61-0.59h0.34c-0.01,0.07-0.1,0.89-0.94,0.89
				c-0.86,0-0.97-0.81-0.97-1.56c0-0.95,0.31-1.56,1-1.56c0.76,0,0.94,0.65,0.94,1.39c0,0.04,0,0.12-0.01,0.21H110.6z M111.86,59.68
				c0-0.6-0.14-1.02-0.6-1.02c-0.61,0-0.64,0.82-0.65,1.02H111.86z"/>
			<path class="st1" d="M114.59,61.25c0,0.77-0.17,1.34-1.02,1.34c-0.75,0-0.91-0.51-0.93-0.82h0.35c0.01,0.19,0.14,0.52,0.59,0.52
				c0.56,0,0.67-0.4,0.67-1.04v-0.33c-0.1,0.33-0.37,0.5-0.72,0.5c-0.6,0-0.91-0.5-0.91-1.47c0-1.11,0.41-1.59,0.97-1.59
				c0.41,0,0.6,0.2,0.66,0.42c0-0.15,0.01-0.32,0.02-0.37h0.32c-0.01,0.15-0.01,0.45-0.01,0.86V61.25z M112.98,59.95
				c0,0.77,0.22,1.17,0.63,1.17c0.51,0,0.66-0.51,0.66-1.23c0-0.77-0.12-1.22-0.62-1.22C113.21,58.67,112.98,59.13,112.98,59.95z"/>
			<path class="st1" d="M116.71,59.96c0,0.67,0.12,1.22,0.64,1.22c0.52,0,0.59-0.51,0.61-0.59h0.34c-0.01,0.07-0.1,0.89-0.94,0.89
				c-0.86,0-0.97-0.81-0.97-1.56c0-0.95,0.31-1.56,1-1.56c0.76,0,0.94,0.65,0.94,1.39c0,0.04,0,0.12-0.01,0.21H116.71z
				 M117.97,59.68c0-0.6-0.14-1.02-0.6-1.02c-0.61,0-0.64,0.82-0.65,1.02H117.97z"/>
			<path class="st1" d="M118.5,58.41h0.44v-0.82h0.33v0.82h0.55v0.3h-0.55v2.1c0,0.22,0.05,0.36,0.28,0.36
				c0.07,0,0.17-0.01,0.23-0.02v0.27c-0.09,0.04-0.23,0.05-0.33,0.05c-0.31,0-0.51-0.13-0.51-0.58v-2.18h-0.44V58.41z"/>
			<path class="st1" d="M123.26,59.88c0,1.05-0.34,1.6-1,1.6c-0.69,0-1-0.54-1-1.59c0-1.04,0.39-1.53,1.02-1.53
				C122.91,58.36,123.26,58.87,123.26,59.88z M121.6,59.89c0,0.89,0.24,1.29,0.66,1.29c0.42,0,0.65-0.41,0.65-1.3
				c0-0.81-0.22-1.22-0.65-1.22C121.85,58.66,121.6,59.01,121.6,59.89z"/>
			<path class="st1" d="M123.86,59.32c0-0.51,0-0.76-0.01-0.91h0.33c0.01,0.1,0.01,0.26,0.01,0.42c0.11-0.27,0.32-0.46,0.68-0.46
				c0.31,0,0.54,0.13,0.63,0.46c0.1-0.25,0.34-0.46,0.73-0.46c0.36,0,0.72,0.17,0.72,0.87v2.2h-0.33v-2.14
				c0-0.33-0.09-0.62-0.47-0.62c-0.42,0-0.57,0.39-0.57,0.81v1.95h-0.34V59.3c0-0.41-0.13-0.63-0.46-0.63
				c-0.39,0-0.59,0.38-0.59,0.86v1.9h-0.34V59.32z"/>
			<path class="st1" d="M127.7,59.44c0-0.48,0-0.81-0.01-1.03h0.33c0.01,0.09,0.01,0.23,0.01,0.55c0.13-0.37,0.43-0.59,0.8-0.6v0.37
				c-0.53,0.03-0.8,0.42-0.8,0.97v1.72h-0.34V59.44z"/>
			<path class="st1" d="M130.93,60.94c0,0.21,0.02,0.41,0.02,0.49h-0.31c-0.02-0.07-0.03-0.24-0.03-0.37
				c-0.11,0.27-0.35,0.42-0.73,0.42c-0.58,0-0.78-0.45-0.78-0.86c0-0.53,0.35-0.96,1.15-0.96c0.16,0,0.24,0,0.34,0.01v-0.43
				c0-0.26-0.05-0.59-0.5-0.59c-0.5,0-0.53,0.36-0.54,0.57h-0.33c0.01-0.43,0.22-0.86,0.88-0.86c0.56,0,0.82,0.28,0.82,0.83V60.94z
				 M130.61,59.96c-0.08-0.01-0.17-0.02-0.33-0.02c-0.59,0-0.84,0.29-0.84,0.65c0,0.31,0.17,0.59,0.52,0.59
				c0.47,0,0.65-0.33,0.65-1.04V59.96z M129.6,57.51c0-0.28,0.19-0.51,0.5-0.51c0.32,0,0.51,0.22,0.51,0.5c0,0.28-0.2,0.5-0.51,0.5
				C129.79,58,129.6,57.77,129.6,57.51z M130.38,57.51c0-0.15-0.08-0.3-0.27-0.3c-0.18,0-0.28,0.13-0.28,0.29
				c0,0.15,0.09,0.3,0.28,0.3C130.29,57.79,130.38,57.65,130.38,57.51z"/>
			<path class="st1" d="M133.49,57.15v3.52c0,0.27,0,0.57,0.01,0.75h-0.33c-0.01-0.08-0.01-0.29-0.01-0.44
				c-0.09,0.28-0.29,0.49-0.72,0.49c-0.62,0-0.9-0.52-0.9-1.6c0-0.98,0.38-1.52,0.98-1.52c0.42,0,0.57,0.18,0.64,0.34v-1.55H133.49z
				 M131.88,59.89c0,0.94,0.22,1.28,0.62,1.28c0.51,0,0.65-0.45,0.65-1.3c0-0.95-0.15-1.21-0.62-1.21
				C132.15,58.67,131.88,59.02,131.88,59.89z"/>
			<path class="st1" d="M134.43,59.96c0,0.67,0.12,1.22,0.64,1.22c0.52,0,0.59-0.51,0.61-0.59h0.34c-0.01,0.07-0.1,0.89-0.94,0.89
				c-0.86,0-0.97-0.81-0.97-1.56c0-0.95,0.31-1.56,1-1.56c0.76,0,0.94,0.65,0.94,1.39c0,0.04,0,0.12-0.01,0.21H134.43z
				 M135.69,59.68c0-0.6-0.14-1.02-0.6-1.02c-0.61,0-0.64,0.82-0.65,1.02H135.69z"/>
			<path class="st1" d="M138.12,57.15v1.65c0.1-0.27,0.36-0.45,0.74-0.45c0.42,0,0.76,0.26,0.76,0.92v2.15h-0.34v-2.08
				c0-0.4-0.13-0.68-0.53-0.68c-0.46,0-0.64,0.38-0.64,0.96v1.8h-0.34v-4.27H138.12z"/>
			<path class="st1" d="M140.42,58.41c0.27,1.02,0.61,2.3,0.66,2.62h0.01c0.04-0.28,0.56-2.1,0.7-2.62h0.34l-0.87,3.02h-0.37
				l-0.83-3.02H140.42z"/>
			<path class="st1" d="M144.43,59.88c0,1.05-0.34,1.6-1,1.6c-0.69,0-1-0.54-1-1.59c0-1.04,0.39-1.53,1.02-1.53
				C144.08,58.36,144.43,58.87,144.43,59.88z M142.77,59.89c0,0.89,0.24,1.29,0.66,1.29c0.42,0,0.65-0.41,0.65-1.3
				c0-0.81-0.22-1.22-0.65-1.22C143.02,58.66,142.77,59.01,142.77,59.89z"/>
			<path class="st1" d="M145.02,59.44c0-0.48,0-0.81-0.01-1.03h0.33c0.01,0.09,0.01,0.23,0.01,0.55c0.13-0.37,0.43-0.59,0.8-0.6
				v0.37c-0.53,0.03-0.8,0.42-0.8,0.97v1.72h-0.34V59.44z"/>
			<path class="st1" d="M149.55,57.15v3.52c0,0.27,0,0.57,0.01,0.75h-0.33c-0.01-0.08-0.01-0.29-0.01-0.44
				c-0.09,0.28-0.29,0.49-0.72,0.49c-0.62,0-0.9-0.52-0.9-1.6c0-0.98,0.38-1.52,0.98-1.52c0.42,0,0.57,0.18,0.64,0.34v-1.55H149.55z
				 M147.94,59.89c0,0.94,0.22,1.28,0.62,1.28c0.51,0,0.65-0.45,0.65-1.3c0-0.95-0.15-1.21-0.62-1.21
				C148.22,58.67,147.94,59.02,147.94,59.89z"/>
			<path class="st1" d="M152.13,60.62c0,0.36,0,0.66,0.01,0.8h-0.32c-0.01-0.09-0.02-0.2-0.02-0.43c-0.1,0.31-0.36,0.48-0.73,0.48
				c-0.32,0-0.75-0.12-0.75-0.9v-2.17h0.34v2.09c0,0.42,0.12,0.68,0.51,0.68c0.36,0,0.63-0.23,0.63-0.95v-1.82h0.34V60.62z"/>
			<path class="st1" d="M154.37,59.88c0.19-0.26,0.79-1.07,1.07-1.47h0.38c-0.28,0.38-0.59,0.79-0.88,1.17l0.98,1.85h-0.39
				l-0.82-1.58c-0.09,0.11-0.25,0.33-0.35,0.45v1.13h-0.34v-4.27h0.34V59.88z"/>
			<path class="st1" d="M157.92,60.94c0,0.21,0.02,0.41,0.02,0.49h-0.31c-0.02-0.07-0.03-0.24-0.03-0.37
				c-0.11,0.27-0.35,0.42-0.73,0.42c-0.58,0-0.78-0.45-0.78-0.86c0-0.53,0.35-0.96,1.15-0.96c0.16,0,0.24,0,0.34,0.01v-0.43
				c0-0.26-0.05-0.59-0.5-0.59c-0.5,0-0.53,0.36-0.54,0.57h-0.33c0.01-0.43,0.22-0.86,0.88-0.86c0.56,0,0.82,0.28,0.82,0.83V60.94z
				 M157.6,59.96c-0.08-0.01-0.17-0.02-0.33-0.02c-0.59,0-0.84,0.29-0.84,0.65c0,0.31,0.17,0.59,0.52,0.59
				c0.47,0,0.65-0.33,0.65-1.04V59.96z"/>
			<path class="st1" d="M158.67,59.34c0-0.62,0-0.8-0.01-0.93H159c0.01,0.07,0.01,0.19,0.01,0.43c0.11-0.26,0.32-0.48,0.73-0.48
				c0.42,0,0.78,0.22,0.78,0.92v2.15h-0.34v-2.09c0-0.39-0.14-0.67-0.51-0.67c-0.46,0-0.65,0.31-0.65,0.99v1.77h-0.34V59.34z"/>
			<path class="st1" d="M162.43,61.43v-4.27h0.34v4.27H162.43z"/>
			<path class="st1" d="M165.37,59.88c0,1.06-0.34,1.6-1,1.6c-0.69,0-1-0.53-1-1.6c0-1.04,0.39-1.52,1.02-1.52
				C165.03,58.36,165.37,58.87,165.37,59.88z M163.66,61.48h-0.25l1.63-3.11h0.26L163.66,61.48z M163.71,59.89
				c0,0.9,0.25,1.3,0.66,1.3c0.42,0,0.66-0.4,0.66-1.31c0-0.82-0.22-1.22-0.66-1.22C163.97,58.66,163.71,59,163.71,59.89z"/>
			<path class="st1" d="M166.31,61.09v1.45h-0.34v-3.25c0-0.42,0-0.7-0.01-0.88h0.33c0.01,0.05,0.01,0.27,0.01,0.43
				c0.11-0.29,0.33-0.48,0.74-0.48c0.58,0,0.88,0.52,0.88,1.52c0,1.05-0.37,1.6-0.97,1.6C166.57,61.48,166.39,61.29,166.31,61.09z
				 M167.57,59.9c0-0.77-0.18-1.23-0.62-1.23c-0.51,0-0.66,0.49-0.66,1.25c0,0.73,0.08,1.26,0.63,1.26
				C167.35,61.18,167.57,60.66,167.57,59.9z"/>
			<path class="st1" d="M168.71,59.96c0,0.67,0.12,1.22,0.64,1.22c0.52,0,0.59-0.51,0.61-0.59h0.34c-0.01,0.07-0.1,0.89-0.94,0.89
				c-0.86,0-0.97-0.81-0.97-1.56c0-0.95,0.31-1.56,1-1.56c0.76,0,0.94,0.65,0.94,1.39c0,0.04,0,0.12-0.01,0.21H168.71z
				 M169.97,59.68c0-0.6-0.14-1.02-0.6-1.02c-0.61,0-0.64,0.82-0.65,1.02H169.97z"/>
			<path class="st1" d="M172.06,58.41h0.34v3.02h-0.34V58.41z M172.06,57.15h0.34v0.6h-0.34V57.15z"/>
			<path class="st1" d="M174.5,59.96c0,0.67,0.12,1.22,0.64,1.22c0.52,0,0.59-0.51,0.61-0.59h0.34c-0.01,0.07-0.1,0.89-0.94,0.89
				c-0.86,0-0.97-0.81-0.97-1.56c0-0.95,0.31-1.56,1-1.56c0.76,0,0.94,0.65,0.94,1.39c0,0.04,0,0.12-0.01,0.21H174.5z M175.76,59.68
				c0-0.6-0.14-1.02-0.6-1.02c-0.61,0-0.64,0.82-0.65,1.02H175.76z"/>
			<path class="st1" d="M176.3,58.41h0.44v-0.82h0.33v0.82h0.55v0.3h-0.55v2.1c0,0.22,0.05,0.36,0.28,0.36
				c0.07,0,0.17-0.01,0.23-0.02v0.27c-0.09,0.04-0.23,0.05-0.33,0.05c-0.31,0-0.51-0.13-0.51-0.58v-2.18h-0.44V58.41z"/>
			<path class="st1" d="M177.65,58.41h0.44v-0.82h0.33v0.82h0.55v0.3h-0.55v2.1c0,0.22,0.05,0.36,0.28,0.36
				c0.07,0,0.17-0.01,0.23-0.02v0.27c-0.09,0.04-0.23,0.05-0.33,0.05c-0.31,0-0.51-0.13-0.51-0.58v-2.18h-0.44V58.41z"/>
			<path class="st1" d="M98.12,66.51c0-0.51,0-0.76-0.01-0.91h0.33c0.01,0.1,0.01,0.26,0.01,0.42c0.11-0.27,0.32-0.46,0.68-0.46
				c0.31,0,0.54,0.13,0.63,0.46c0.1-0.25,0.34-0.46,0.73-0.46c0.36,0,0.72,0.17,0.72,0.87v2.2h-0.33v-2.14
				c0-0.33-0.09-0.62-0.47-0.62c-0.42,0-0.57,0.39-0.57,0.81v1.95H99.5V66.5c0-0.41-0.13-0.63-0.46-0.63
				c-0.39,0-0.59,0.38-0.59,0.86v1.9h-0.34V66.51z"/>
			<path class="st1" d="M101.96,65.61h0.34v3.02h-0.34V65.61z M101.96,64.35h0.34v0.6h-0.34V64.35z"/>
			<path class="st1" d="M103.05,66.54c0-0.62,0-0.8-0.01-0.93h0.33c0.01,0.07,0.01,0.19,0.01,0.43c0.11-0.26,0.32-0.48,0.73-0.48
				c0.42,0,0.78,0.22,0.78,0.92v2.15h-0.34v-2.09c0-0.39-0.14-0.67-0.51-0.67c-0.46,0-0.65,0.31-0.65,0.99v1.77h-0.34V66.54z"/>
			<path class="st1" d="M107.47,67.82c0,0.36,0,0.66,0.01,0.8h-0.32c-0.01-0.09-0.02-0.2-0.02-0.43c-0.1,0.31-0.37,0.48-0.73,0.48
				c-0.32,0-0.75-0.12-0.75-0.9v-2.17h0.34v2.09c0,0.42,0.12,0.68,0.51,0.68c0.36,0,0.63-0.23,0.63-0.95v-1.82h0.34V67.82z"/>
			<path class="st1" d="M107.82,65.61h0.44v-0.82h0.33v0.82h0.55v0.3h-0.55v2.1c0,0.22,0.05,0.36,0.28,0.36
				c0.07,0,0.17-0.01,0.23-0.02v0.27c-0.09,0.04-0.23,0.05-0.33,0.05c-0.31,0-0.51-0.13-0.51-0.58v-2.18h-0.44V65.61z"/>
			<path class="st1" d="M109.18,65.61h0.44v-0.82h0.33v0.82h0.55v0.3h-0.55v2.1c0,0.22,0.05,0.36,0.28,0.36
				c0.07,0,0.17-0.01,0.23-0.02v0.27c-0.09,0.04-0.23,0.05-0.33,0.05c-0.31,0-0.51-0.13-0.51-0.58v-2.18h-0.44V65.61z"/>
			<path class="st1" d="M110.56,69.33c0.18-0.43,0.29-0.93,0.32-1.41h0.33c-0.04,0.55-0.2,1.11-0.37,1.41H110.56z"/>
			<path class="st1" d="M112.93,68.63v-2.72h-0.41v-0.3h0.41v-0.46c0-0.42,0.14-0.83,0.67-0.83c0.07,0,0.17,0.01,0.23,0.03v0.31
				c-0.05-0.01-0.13-0.03-0.21-0.03c-0.25,0-0.35,0.16-0.35,0.51v0.47h0.49v0.3h-0.49v2.72H112.93z"/>
			<path class="st1" d="M115.93,67.08c0,1.05-0.34,1.6-1,1.6c-0.69,0-1-0.54-1-1.59c0-1.04,0.39-1.53,1.02-1.53
				C115.58,65.56,115.93,66.07,115.93,67.08z M114.27,67.09c0,0.89,0.24,1.29,0.66,1.29c0.42,0,0.65-0.41,0.65-1.3
				c0-0.81-0.22-1.22-0.65-1.22C114.52,65.86,114.27,66.21,114.27,67.09z"/>
			<path class="st1" d="M116.53,66.64c0-0.48,0-0.81-0.01-1.03h0.33c0.01,0.09,0.01,0.23,0.01,0.55c0.13-0.37,0.43-0.59,0.8-0.6
				v0.37c-0.53,0.03-0.8,0.42-0.8,0.97v1.72h-0.34V66.64z"/>
			<path class="st1" d="M119.44,67.16c0,0.67,0.12,1.22,0.64,1.22c0.52,0,0.59-0.51,0.61-0.59h0.34c-0.01,0.07-0.1,0.89-0.94,0.89
				c-0.86,0-0.97-0.81-0.97-1.56c0-0.95,0.31-1.56,1-1.56c0.76,0,0.94,0.65,0.94,1.39c0,0.04,0,0.12-0.01,0.21H119.44z M120.7,66.88
				c0-0.6-0.14-1.02-0.6-1.02c-0.61,0-0.64,0.82-0.65,1.02H120.7z"/>
			<path class="st1" d="M121.96,67.08c0.19-0.26,0.79-1.07,1.07-1.47h0.38c-0.28,0.38-0.59,0.79-0.88,1.17l0.98,1.85h-0.39
				l-0.82-1.58c-0.09,0.11-0.25,0.33-0.35,0.45v1.13h-0.34v-4.27h0.34V67.08z"/>
			<path class="st1" d="M123.95,67.77c0.03,0.37,0.22,0.62,0.59,0.62s0.54-0.23,0.54-0.54c0-0.35-0.18-0.5-0.59-0.67
				c-0.59-0.23-0.77-0.44-0.77-0.86c0-0.4,0.25-0.77,0.82-0.77c0.63,0,0.82,0.43,0.83,0.83h-0.34c-0.01-0.16-0.05-0.54-0.5-0.54
				c-0.32,0-0.47,0.2-0.47,0.47c0,0.26,0.1,0.39,0.54,0.56c0.56,0.22,0.83,0.42,0.83,0.95c0,0.53-0.33,0.85-0.91,0.85
				c-0.59,0-0.89-0.35-0.91-0.91H123.95z"/>
			<path class="st1" d="M126.18,67.16c0,0.67,0.12,1.22,0.64,1.22c0.52,0,0.59-0.51,0.61-0.59h0.34c-0.01,0.07-0.1,0.89-0.94,0.89
				c-0.86,0-0.97-0.81-0.97-1.56c0-0.95,0.31-1.56,1-1.56c0.76,0,0.94,0.65,0.94,1.39c0,0.04,0,0.12-0.01,0.21H126.18z
				 M127.44,66.88c0-0.6-0.14-1.02-0.6-1.02c-0.61,0-0.64,0.82-0.65,1.02H127.44z"/>
			<path class="st1" d="M128.37,66.51c0-0.51,0-0.76-0.01-0.91h0.33c0.01,0.1,0.01,0.26,0.01,0.42c0.11-0.27,0.32-0.46,0.68-0.46
				c0.31,0,0.54,0.13,0.63,0.46c0.1-0.25,0.34-0.46,0.73-0.46c0.36,0,0.72,0.17,0.72,0.87v2.2h-0.33v-2.14
				c0-0.33-0.09-0.62-0.47-0.62c-0.42,0-0.57,0.39-0.57,0.81v1.95h-0.34V66.5c0-0.41-0.13-0.63-0.46-0.63
				c-0.39,0-0.59,0.38-0.59,0.86v1.9h-0.34V66.51z"/>
			<path class="st1" d="M132.54,68.29v1.45h-0.34v-3.25c0-0.42,0-0.7-0.01-0.88h0.33c0.01,0.05,0.01,0.27,0.01,0.43
				c0.11-0.29,0.33-0.48,0.74-0.48c0.58,0,0.88,0.52,0.88,1.52c0,1.05-0.37,1.6-0.97,1.6C132.81,68.68,132.63,68.49,132.54,68.29z
				 M133.81,67.09c0-0.77-0.18-1.23-0.62-1.23c-0.51,0-0.66,0.49-0.66,1.25c0,0.73,0.08,1.26,0.63,1.26
				C133.59,68.38,133.81,67.86,133.81,67.09z"/>
			<path class="st1" d="M134.95,67.16c0,0.67,0.12,1.22,0.64,1.22c0.52,0,0.59-0.51,0.61-0.59h0.34c-0.01,0.07-0.1,0.89-0.94,0.89
				c-0.86,0-0.97-0.81-0.97-1.56c0-0.95,0.31-1.56,1-1.56c0.76,0,0.94,0.65,0.94,1.39c0,0.04,0,0.12-0.01,0.21H134.95z
				 M136.21,66.88c0-0.6-0.14-1.02-0.6-1.02c-0.61,0-0.64,0.82-0.65,1.02H136.21z"/>
			<path class="st1" d="M137.14,68.63v-4.27h0.34v4.27H137.14z"/>
			<path class="st1" d="M139.58,67.16c0,0.67,0.12,1.22,0.64,1.22c0.52,0,0.59-0.51,0.61-0.59h0.34c-0.01,0.07-0.1,0.89-0.94,0.89
				c-0.86,0-0.97-0.81-0.97-1.56c0-0.95,0.31-1.56,1-1.56c0.76,0,0.94,0.65,0.94,1.39c0,0.04,0,0.12-0.01,0.21H139.58z
				 M140.84,66.88c0-0.6-0.14-1.02-0.6-1.02c-0.61,0-0.64,0.82-0.65,1.02H140.84z"/>
			<path class="st1" d="M141.77,66.54c0-0.62,0-0.8-0.01-0.93h0.33c0.01,0.07,0.01,0.19,0.01,0.43c0.11-0.26,0.32-0.48,0.73-0.48
				c0.42,0,0.78,0.22,0.78,0.92v2.15h-0.34v-2.09c0-0.39-0.14-0.67-0.51-0.67c-0.46,0-0.65,0.31-0.65,0.99v1.77h-0.34V66.54z"/>
			<path class="st1" d="M145.56,68.63v-2.72h-0.41v-0.3h0.41v-0.46c0-0.42,0.14-0.83,0.67-0.83c0.07,0,0.17,0.01,0.23,0.03v0.31
				c-0.05-0.01-0.13-0.03-0.21-0.03c-0.25,0-0.35,0.16-0.35,0.51v0.47h0.49v0.3h-0.49v2.72H145.56z"/>
			<path class="st1" d="M148.56,67.08c0,1.05-0.34,1.6-1,1.6c-0.69,0-1-0.54-1-1.59c0-1.04,0.39-1.53,1.02-1.53
				C148.21,65.56,148.56,66.07,148.56,67.08z M146.91,67.09c0,0.89,0.24,1.29,0.66,1.29c0.42,0,0.65-0.41,0.65-1.3
				c0-0.81-0.22-1.22-0.65-1.22C147.15,65.86,146.91,66.21,146.91,67.09z"/>
			<path class="st1" d="M148.77,65.61h0.44v-0.82h0.33v0.82h0.55v0.3h-0.55v2.1c0,0.22,0.05,0.36,0.28,0.36
				c0.07,0,0.17-0.01,0.23-0.02v0.27c-0.09,0.04-0.23,0.05-0.33,0.05c-0.31,0-0.51-0.13-0.51-0.58v-2.18h-0.44V65.61z"/>
			<path class="st1" d="M150.52,64.35h0.34v1.69c0.09-0.25,0.31-0.49,0.74-0.49c0.56,0,0.88,0.46,0.88,1.48
				c0,0.92-0.25,1.63-0.96,1.63c-0.38,0-0.57-0.19-0.67-0.43c0,0.11-0.01,0.25-0.02,0.38h-0.32c0.01-0.15,0.01-0.43,0.01-0.82V64.35
				z M152.13,67.05c0-0.82-0.21-1.18-0.6-1.18c-0.51,0-0.68,0.48-0.68,1.25c0,0.73,0.13,1.25,0.63,1.25
				C151.91,68.37,152.13,67.95,152.13,67.05z"/>
			<path class="st1" d="M154.74,68.14c0,0.21,0.02,0.41,0.02,0.49h-0.31c-0.02-0.07-0.03-0.24-0.03-0.37
				c-0.11,0.27-0.35,0.42-0.73,0.42c-0.58,0-0.78-0.45-0.78-0.86c0-0.53,0.35-0.96,1.15-0.96c0.16,0,0.24,0,0.34,0.01v-0.43
				c0-0.26-0.05-0.59-0.5-0.59c-0.5,0-0.53,0.36-0.54,0.57h-0.33c0.01-0.43,0.22-0.86,0.88-0.86c0.56,0,0.82,0.28,0.82,0.83V68.14z
				 M154.42,67.16c-0.08-0.01-0.17-0.02-0.33-0.02c-0.59,0-0.84,0.29-0.84,0.65c0,0.31,0.17,0.59,0.52,0.59
				c0.47,0,0.65-0.33,0.65-1.04V67.16z"/>
			<path class="st1" d="M155.49,68.63v-4.27h0.34v4.27H155.49z"/>
			<path class="st1" d="M156.59,68.63v-4.27h0.34v4.27H156.59z"/>
			<path class="st1" d="M157.68,64.35h0.34v1.69c0.09-0.25,0.31-0.49,0.74-0.49c0.56,0,0.88,0.46,0.88,1.48
				c0,0.92-0.25,1.63-0.96,1.63c-0.38,0-0.57-0.19-0.67-0.43c0,0.11-0.01,0.25-0.02,0.38h-0.32c0.01-0.15,0.01-0.43,0.01-0.82V64.35
				z M159.29,67.05c0-0.82-0.21-1.18-0.6-1.18c-0.51,0-0.68,0.48-0.68,1.25c0,0.73,0.13,1.25,0.63,1.25
				C159.07,68.37,159.29,67.95,159.29,67.05z"/>
			<path class="st1" d="M161.9,68.14c0,0.21,0.02,0.41,0.02,0.49h-0.31c-0.02-0.07-0.03-0.24-0.03-0.37
				c-0.11,0.27-0.35,0.42-0.73,0.42c-0.58,0-0.78-0.45-0.78-0.86c0-0.53,0.35-0.96,1.15-0.96c0.16,0,0.24,0,0.34,0.01v-0.43
				c0-0.26-0.05-0.59-0.5-0.59c-0.5,0-0.53,0.36-0.54,0.57h-0.33c0.01-0.43,0.22-0.86,0.88-0.86c0.56,0,0.82,0.28,0.82,0.83V68.14z
				 M161.58,67.16c-0.08-0.01-0.17-0.02-0.33-0.02c-0.59,0-0.84,0.29-0.84,0.65c0,0.31,0.17,0.59,0.52,0.59
				c0.47,0,0.65-0.33,0.65-1.04V67.16z"/>
			<path class="st1" d="M162.66,66.54c0-0.62,0-0.8-0.01-0.93h0.33c0.01,0.07,0.01,0.19,0.01,0.43c0.11-0.26,0.32-0.48,0.73-0.48
				c0.42,0,0.78,0.22,0.78,0.92v2.15h-0.34v-2.09c0-0.39-0.14-0.67-0.51-0.67c-0.46,0-0.65,0.31-0.65,0.99v1.77h-0.34V66.54z"/>
			<path class="st1" d="M165.44,67.16c0,0.67,0.12,1.22,0.64,1.22c0.52,0,0.59-0.51,0.61-0.59h0.34c-0.01,0.07-0.1,0.89-0.94,0.89
				c-0.86,0-0.97-0.81-0.97-1.56c0-0.95,0.31-1.56,1-1.56c0.76,0,0.94,0.65,0.94,1.39c0,0.04,0,0.12-0.01,0.21H165.44z M166.7,66.88
				c0-0.6-0.14-1.02-0.6-1.02c-0.61,0-0.64,0.82-0.65,1.02H166.7z"/>
			<path class="st1" d="M167.48,68.63v-0.79h0.34v0.79H167.48z"/>
			<path class="st1" d="M169.62,68.63v-4.08h0.45c1.23,3.03,1.39,3.4,1.44,3.57h0.01c-0.03-0.57-0.04-1.19-0.04-1.85v-1.72h0.33
				v4.08h-0.43c-1.28-3.17-1.42-3.53-1.47-3.68h-0.01c0.03,0.51,0.03,1.21,0.03,1.94v1.74H169.62z"/>
			<path class="st1" d="M174.28,68.14c0,0.21,0.02,0.41,0.02,0.49H174c-0.02-0.07-0.03-0.24-0.03-0.37
				c-0.11,0.27-0.35,0.42-0.73,0.42c-0.58,0-0.78-0.45-0.78-0.86c0-0.53,0.35-0.96,1.15-0.96c0.16,0,0.24,0,0.34,0.01v-0.43
				c0-0.26-0.05-0.59-0.5-0.59c-0.5,0-0.53,0.36-0.54,0.57h-0.33c0.01-0.43,0.22-0.86,0.88-0.86c0.56,0,0.82,0.28,0.82,0.83V68.14z
				 M173.96,67.16c-0.08-0.01-0.17-0.02-0.33-0.02c-0.59,0-0.84,0.29-0.84,0.65c0,0.31,0.17,0.59,0.52,0.59
				c0.47,0,0.65-0.33,0.65-1.04V67.16z M172.95,64.71c0-0.28,0.19-0.51,0.5-0.51c0.32,0,0.51,0.22,0.51,0.5c0,0.28-0.2,0.5-0.51,0.5
				C173.15,65.2,172.95,64.97,172.95,64.71z M173.73,64.71c0-0.15-0.08-0.3-0.27-0.3c-0.18,0-0.28,0.13-0.28,0.29
				c0,0.15,0.09,0.3,0.28,0.3C173.64,64.99,173.73,64.85,173.73,64.71z"/>
			<path class="st1" d="M175.04,66.64c0-0.48,0-0.81-0.01-1.03h0.33c0.01,0.09,0.01,0.23,0.01,0.55c0.13-0.37,0.43-0.59,0.8-0.6
				v0.37c-0.53,0.03-0.8,0.42-0.8,0.97v1.72h-0.34V66.64z"/>
			<path class="st1" d="M179.57,64.35v3.52c0,0.27,0,0.57,0.01,0.75h-0.33c-0.01-0.08-0.01-0.29-0.01-0.44
				c-0.09,0.28-0.29,0.49-0.72,0.49c-0.62,0-0.9-0.52-0.9-1.6c0-0.98,0.38-1.52,0.98-1.52c0.42,0,0.57,0.18,0.64,0.34v-1.55H179.57z
				 M177.96,67.09c0,0.94,0.22,1.28,0.62,1.28c0.51,0,0.65-0.45,0.65-1.3c0-0.95-0.15-1.21-0.62-1.21
				C178.23,65.87,177.96,66.22,177.96,67.09z"/>
			<path class="st1" d="M182.14,67.82c0,0.36,0,0.66,0.01,0.8h-0.32c-0.01-0.09-0.02-0.2-0.02-0.43c-0.1,0.31-0.36,0.48-0.73,0.48
				c-0.32,0-0.75-0.12-0.75-0.9v-2.17h0.34v2.09c0,0.42,0.12,0.68,0.51,0.68c0.36,0,0.63-0.23,0.63-0.95v-1.82h0.34V67.82z"/>
			<path class="st1" d="M98.46,71.55v1.65c0.1-0.27,0.36-0.45,0.74-0.45c0.42,0,0.76,0.26,0.76,0.92v2.15h-0.34v-2.08
				c0-0.4-0.13-0.68-0.53-0.68c-0.46,0-0.64,0.38-0.64,0.96v1.8h-0.34v-4.27H98.46z"/>
			<path class="st1" d="M102.38,75.34c0,0.2,0.02,0.41,0.02,0.49h-0.31c-0.02-0.07-0.03-0.24-0.03-0.37
				c-0.11,0.27-0.35,0.42-0.73,0.42c-0.58,0-0.78-0.45-0.78-0.86c0-0.53,0.35-0.96,1.15-0.96c0.16,0,0.24,0,0.34,0.01v-0.43
				c0-0.26-0.05-0.59-0.5-0.59c-0.5,0-0.53,0.36-0.54,0.57h-0.33c0.01-0.43,0.22-0.86,0.88-0.86c0.56,0,0.82,0.28,0.82,0.83V75.34z
				 M102.06,74.36c-0.08-0.01-0.17-0.02-0.33-0.02c-0.59,0-0.84,0.29-0.84,0.65c0,0.31,0.17,0.59,0.52,0.59
				c0.47,0,0.65-0.33,0.65-1.04V74.36z"/>
			<path class="st1" d="M103.14,73.84c0-0.48,0-0.81-0.01-1.03h0.33c0.01,0.09,0.01,0.23,0.01,0.55c0.13-0.37,0.43-0.59,0.8-0.6
				v0.37c-0.53,0.03-0.8,0.42-0.8,0.97v1.72h-0.34V73.84z"/>
			<path class="st1" d="M105.86,75.83v-4.27h0.34v4.27H105.86z"/>
			<path class="st1" d="M108.81,74.28c0,1.06-0.34,1.6-1,1.6c-0.69,0-1-0.53-1-1.6c0-1.04,0.39-1.52,1.02-1.52
				C108.46,72.76,108.81,73.27,108.81,74.28z M107.09,75.88h-0.25l1.63-3.11h0.26L107.09,75.88z M107.15,74.29
				c0,0.9,0.25,1.3,0.66,1.3c0.42,0,0.66-0.4,0.66-1.31c0-0.82-0.22-1.22-0.66-1.22C107.4,73.06,107.15,73.4,107.15,74.29z"/>
			<path class="st1" d="M109.74,75.49v1.45h-0.34v-3.25c0-0.42,0-0.7-0.01-0.88h0.33c0.01,0.05,0.01,0.27,0.01,0.43
				c0.11-0.29,0.33-0.48,0.74-0.48c0.58,0,0.88,0.52,0.88,1.52c0,1.05-0.37,1.6-0.97,1.6C110,75.88,109.82,75.69,109.74,75.49z
				 M111.01,74.29c0-0.77-0.18-1.23-0.62-1.23c-0.51,0-0.66,0.49-0.66,1.25c0,0.73,0.08,1.26,0.63,1.26
				C110.78,75.58,111.01,75.06,111.01,74.29z"/>
			<path class="st1" d="M111.57,72.81H112v-0.82h0.33v0.82h0.55v0.3h-0.55v2.1c0,0.22,0.05,0.36,0.28,0.36c0.07,0,0.17,0,0.23-0.02
				v0.27c-0.09,0.04-0.23,0.05-0.33,0.05c-0.31,0-0.51-0.13-0.51-0.58v-2.18h-0.44V72.81z"/>
			<path class="st1" d="M114.47,72.81h0.34v3.02h-0.34V72.81z M114.47,71.55h0.34v0.6h-0.34V71.55z"/>
			<path class="st1" d="M116.91,74.36c0,0.67,0.12,1.22,0.64,1.22c0.52,0,0.59-0.51,0.61-0.59h0.34c-0.01,0.07-0.1,0.89-0.94,0.89
				c-0.86,0-0.97-0.81-0.97-1.56c0-0.95,0.31-1.56,1-1.56c0.76,0,0.94,0.65,0.94,1.39c0,0.04,0,0.12-0.01,0.21H116.91z
				 M118.17,74.08c0-0.6-0.14-1.02-0.6-1.02c-0.61,0-0.64,0.82-0.65,1.02H118.17z"/>
			<path class="st1" d="M118.71,72.81h0.44v-0.82h0.33v0.82h0.55v0.3h-0.55v2.1c0,0.22,0.05,0.36,0.28,0.36c0.07,0,0.17,0,0.23-0.02
				v0.27c-0.09,0.04-0.23,0.05-0.33,0.05c-0.31,0-0.51-0.13-0.51-0.58v-2.18h-0.44V72.81z"/>
			<path class="st1" d="M120.07,72.81h0.44v-0.82h0.33v0.82h0.55v0.3h-0.55v2.1c0,0.22,0.05,0.36,0.28,0.36c0.07,0,0.17,0,0.23-0.02
				v0.27c-0.09,0.04-0.23,0.05-0.33,0.05c-0.31,0-0.51-0.13-0.51-0.58v-2.18h-0.44V72.81z"/>
			<path class="st1" d="M122.97,73.71c0-0.51,0-0.76-0.01-0.91h0.33c0.01,0.1,0.01,0.26,0.01,0.42c0.11-0.27,0.32-0.46,0.68-0.46
				c0.31,0,0.54,0.13,0.63,0.46c0.1-0.25,0.34-0.46,0.73-0.46c0.36,0,0.72,0.17,0.72,0.87v2.2h-0.33v-2.14
				c0-0.33-0.09-0.62-0.47-0.62c-0.42,0-0.57,0.39-0.57,0.81v1.95h-0.34V73.7c0-0.41-0.13-0.63-0.46-0.63
				c-0.39,0-0.59,0.38-0.59,0.86v1.9h-0.34V73.71z"/>
			<path class="st1" d="M126.81,72.81h0.34v3.02h-0.34V72.81z M126.81,71.55h0.34v0.6h-0.34V71.55z"/>
			<path class="st1" d="M127.9,73.74c0-0.62,0-0.8-0.01-0.93h0.33c0.01,0.07,0.01,0.19,0.01,0.43c0.11-0.26,0.32-0.48,0.73-0.48
				c0.42,0,0.78,0.22,0.78,0.92v2.15h-0.34v-2.09c0-0.39-0.14-0.67-0.51-0.67c-0.46,0-0.65,0.31-0.65,0.99v1.77h-0.34V73.74z"/>
			<path class="st1" d="M132.32,75.02c0,0.36,0,0.66,0.01,0.8h-0.32c-0.01-0.09-0.02-0.2-0.02-0.43c-0.1,0.31-0.37,0.48-0.73,0.48
				c-0.32,0-0.75-0.12-0.75-0.9v-2.17h0.34v2.09c0,0.42,0.12,0.68,0.51,0.68c0.36,0,0.63-0.23,0.63-0.95v-1.82h0.34V75.02z"/>
			<path class="st1" d="M132.68,72.81h0.44v-0.82h0.33v0.82h0.55v0.3h-0.55v2.1c0,0.22,0.05,0.36,0.28,0.36c0.07,0,0.17,0,0.23-0.02
				v0.27c-0.09,0.04-0.23,0.05-0.33,0.05c-0.31,0-0.51-0.13-0.51-0.58v-2.18h-0.44V72.81z"/>
			<path class="st1" d="M134.03,72.81h0.44v-0.82h0.33v0.82h0.55v0.3h-0.55v2.1c0,0.22,0.05,0.36,0.28,0.36c0.07,0,0.17,0,0.23-0.02
				v0.27c-0.09,0.04-0.23,0.05-0.33,0.05c-0.31,0-0.51-0.13-0.51-0.58v-2.18h-0.44V72.81z"/>
			<path class="st1" d="M137.04,74.97c0.03,0.37,0.22,0.62,0.59,0.62s0.54-0.23,0.54-0.54c0-0.35-0.18-0.5-0.59-0.67
				c-0.59-0.23-0.77-0.44-0.77-0.86c0-0.4,0.25-0.77,0.82-0.77c0.63,0,0.82,0.43,0.83,0.83h-0.34c-0.01-0.16-0.05-0.54-0.5-0.54
				c-0.32,0-0.47,0.2-0.47,0.47c0,0.26,0.1,0.39,0.54,0.56c0.56,0.22,0.83,0.42,0.83,0.95c0,0.53-0.33,0.85-0.91,0.85
				c-0.59,0-0.89-0.35-0.91-0.91H137.04z"/>
			<path class="st1" d="M138.7,72.81h0.44v-0.82h0.33v0.82h0.55v0.3h-0.55v2.1c0,0.22,0.05,0.36,0.28,0.36c0.07,0,0.17,0,0.23-0.02
				v0.27c-0.09,0.04-0.23,0.05-0.33,0.05c-0.31,0-0.51-0.13-0.51-0.58v-2.18h-0.44V72.81z"/>
			<path class="st1" d="M142.29,74.28c0,1.05-0.34,1.6-1,1.6c-0.69,0-1-0.54-1-1.59c0-1.04,0.39-1.53,1.02-1.53
				C141.94,72.76,142.29,73.27,142.29,74.28z M140.64,74.29c0,0.89,0.24,1.29,0.66,1.29c0.42,0,0.65-0.41,0.65-1.3
				c0-0.81-0.22-1.22-0.65-1.22C140.89,73.06,140.64,73.41,140.64,74.29z"/>
			<path class="st1" d="M143.23,75.49v1.45h-0.34v-3.25c0-0.42,0-0.7-0.01-0.88h0.33c0.01,0.05,0.01,0.27,0.01,0.43
				c0.11-0.29,0.33-0.48,0.74-0.48c0.58,0,0.88,0.52,0.88,1.52c0,1.05-0.37,1.6-0.97,1.6C143.49,75.88,143.31,75.69,143.23,75.49z
				 M144.49,74.29c0-0.77-0.18-1.23-0.62-1.23c-0.51,0-0.66,0.49-0.66,1.25c0,0.73,0.08,1.26,0.63,1.26
				C144.27,75.58,144.49,75.06,144.49,74.29z"/>
			<path class="st1" d="M145.78,75.49v1.45h-0.34v-3.25c0-0.42,0-0.7-0.01-0.88h0.33c0.01,0.05,0.01,0.27,0.01,0.43
				c0.11-0.29,0.33-0.48,0.74-0.48c0.58,0,0.88,0.52,0.88,1.52c0,1.05-0.37,1.6-0.97,1.6C146.05,75.88,145.87,75.69,145.78,75.49z
				 M147.05,74.29c0-0.77-0.18-1.23-0.62-1.23c-0.51,0-0.66,0.49-0.66,1.25c0,0.73,0.08,1.26,0.63,1.26
				C146.83,75.58,147.05,75.06,147.05,74.29z"/>
			<path class="st1" d="M148.19,74.36c0,0.67,0.12,1.22,0.64,1.22c0.52,0,0.59-0.51,0.61-0.59h0.34c-0.01,0.07-0.1,0.89-0.94,0.89
				c-0.86,0-0.97-0.81-0.97-1.56c0-0.95,0.31-1.56,1-1.56c0.76,0,0.94,0.65,0.94,1.39c0,0.04,0,0.12-0.01,0.21H148.19z
				 M149.45,74.08c0-0.6-0.14-1.02-0.6-1.02c-0.61,0-0.64,0.82-0.65,1.02H149.45z"/>
			<path class="st1" d="M150.38,73.84c0-0.48,0-0.81-0.01-1.03h0.33c0.01,0.09,0.01,0.23,0.01,0.55c0.13-0.37,0.43-0.59,0.8-0.6
				v0.37c-0.53,0.03-0.8,0.42-0.8,0.97v1.72h-0.34V73.84z"/>
			<path class="st1" d="M154.9,71.55v3.52c0,0.27,0,0.57,0.01,0.75h-0.33c-0.01-0.08-0.01-0.29-0.01-0.44
				c-0.09,0.28-0.29,0.49-0.72,0.49c-0.62,0-0.9-0.52-0.9-1.6c0-0.98,0.38-1.52,0.98-1.52c0.42,0,0.57,0.18,0.64,0.34v-1.55H154.9z
				 M153.3,74.29c0,0.94,0.22,1.28,0.62,1.28c0.51,0,0.65-0.45,0.65-1.3c0-0.95-0.15-1.21-0.62-1.21
				C153.57,73.07,153.3,73.42,153.3,74.29z"/>
			<path class="st1" d="M157.48,75.02c0,0.36,0,0.66,0.01,0.8h-0.32c-0.01-0.09-0.02-0.2-0.02-0.43c-0.1,0.31-0.36,0.48-0.73,0.48
				c-0.32,0-0.75-0.12-0.75-0.9v-2.17H156v2.09c0,0.42,0.12,0.68,0.51,0.68c0.36,0,0.63-0.23,0.63-0.95v-1.82h0.34V75.02z"/>
			<path class="st1" d="M161.24,74.28c0,1.05-0.34,1.6-1,1.6c-0.69,0-1-0.54-1-1.59c0-1.04,0.39-1.53,1.02-1.53
				C160.88,72.76,161.24,73.27,161.24,74.28z M159.58,74.29c0,0.89,0.24,1.29,0.66,1.29c0.42,0,0.65-0.41,0.65-1.3
				c0-0.81-0.22-1.22-0.65-1.22C159.83,73.06,159.58,73.41,159.58,74.29z"/>
			<path class="st1" d="M163.64,75.65c0,0.77-0.17,1.34-1.02,1.34c-0.75,0-0.91-0.51-0.93-0.82h0.35c0.01,0.19,0.14,0.52,0.59,0.52
				c0.56,0,0.67-0.4,0.67-1.04v-0.33c-0.1,0.33-0.37,0.5-0.72,0.5c-0.6,0-0.91-0.5-0.91-1.47c0-1.11,0.41-1.59,0.97-1.59
				c0.41,0,0.6,0.2,0.66,0.42c0-0.15,0.01-0.32,0.02-0.37h0.32c-0.01,0.15-0.01,0.45-0.01,0.86V75.65z M162.02,74.35
				c0,0.77,0.22,1.17,0.63,1.17c0.51,0,0.66-0.51,0.66-1.23c0-0.77-0.12-1.22-0.62-1.22C162.26,73.07,162.02,73.53,162.02,74.35z"/>
			<path class="st1" d="M167.37,75.65c0,0.77-0.17,1.34-1.02,1.34c-0.75,0-0.91-0.51-0.93-0.82h0.35c0.01,0.19,0.14,0.52,0.59,0.52
				c0.56,0,0.67-0.4,0.67-1.04v-0.33c-0.1,0.33-0.37,0.5-0.72,0.5c-0.6,0-0.91-0.5-0.91-1.47c0-1.11,0.41-1.59,0.97-1.59
				c0.41,0,0.6,0.2,0.66,0.42c0-0.15,0.01-0.32,0.02-0.37h0.32c-0.01,0.15-0.01,0.45-0.01,0.86V75.65z M165.76,74.35
				c0,0.77,0.22,1.17,0.63,1.17c0.51,0,0.66-0.51,0.66-1.23c0-0.77-0.12-1.22-0.62-1.22C165.99,73.07,165.76,73.53,165.76,74.35z"/>
			<path class="st1" d="M168.49,72.81v3.26c0,0.53-0.07,0.92-0.6,0.92c-0.05,0-0.1,0-0.16-0.01v-0.3c0.05,0.01,0.1,0.01,0.13,0.01
				c0.25,0,0.29-0.16,0.29-0.52v-3.35H168.49z M168.16,72.15v-0.6h0.34v0.6H168.16z"/>
			<path class="st1" d="M171.1,74.28c0,1.06-0.34,1.6-1,1.6c-0.69,0-1-0.53-1-1.6c0-1.04,0.39-1.52,1.02-1.52
				C170.75,72.76,171.1,73.27,171.1,74.28z M169.39,75.88h-0.25l1.63-3.11h0.26L169.39,75.88z M169.44,74.29
				c0,0.9,0.25,1.3,0.66,1.3c0.42,0,0.66-0.4,0.66-1.31c0-0.82-0.22-1.22-0.66-1.22C169.7,73.06,169.44,73.4,169.44,74.29z"/>
			<path class="st1" d="M171.7,73.84c0-0.48,0-0.81-0.01-1.03h0.33c0.01,0.09,0.01,0.23,0.01,0.55c0.13-0.37,0.43-0.59,0.8-0.6v0.37
				c-0.53,0.03-0.8,0.42-0.8,0.97v1.72h-0.34V73.84z"/>
			<path class="st1" d="M174.61,74.36c0,0.67,0.12,1.22,0.64,1.22c0.52,0,0.59-0.51,0.61-0.59h0.34c-0.01,0.07-0.1,0.89-0.94,0.89
				c-0.86,0-0.97-0.81-0.97-1.56c0-0.95,0.31-1.56,1-1.56c0.76,0,0.94,0.65,0.94,1.39c0,0.04,0,0.12-0.01,0.21H174.61z
				 M175.87,74.08c0-0.6-0.14-1.02-0.6-1.02c-0.61,0-0.64,0.82-0.65,1.02H175.87z"/>
			<path class="st1" d="M176.8,73.74c0-0.62,0-0.8-0.01-0.93h0.33c0.01,0.07,0.01,0.19,0.01,0.43c0.11-0.26,0.32-0.48,0.73-0.48
				c0.42,0,0.78,0.22,0.78,0.92v2.15h-0.34v-2.09c0-0.39-0.14-0.67-0.51-0.67c-0.46,0-0.65,0.31-0.65,0.99v1.77h-0.34V73.74z"/>
			<path class="st1" d="M98.22,82.17c0.03,0.37,0.22,0.62,0.59,0.62s0.54-0.23,0.54-0.54c0-0.35-0.18-0.5-0.59-0.67
				c-0.59-0.23-0.77-0.44-0.77-0.86c0-0.4,0.25-0.77,0.82-0.77c0.63,0,0.82,0.43,0.83,0.83H99.3c-0.01-0.16-0.05-0.54-0.5-0.54
				c-0.32,0-0.47,0.2-0.47,0.47c0,0.26,0.1,0.39,0.54,0.56c0.56,0.22,0.83,0.42,0.83,0.95c0,0.53-0.33,0.85-0.91,0.85
				c-0.59,0-0.89-0.35-0.91-0.91H98.22z"/>
			<path class="st1" d="M99.87,80.01h0.44v-0.82h0.33v0.82h0.55v0.3h-0.55v2.1c0,0.22,0.05,0.36,0.28,0.36
				c0.07,0,0.17-0.01,0.23-0.02v0.27c-0.09,0.04-0.23,0.05-0.33,0.05c-0.31,0-0.51-0.13-0.51-0.58v-2.18h-0.44V80.01z"/>
			<path class="st1" d="M101.68,80.01c0.37,1.37,0.63,2.31,0.67,2.62h0.01c0.06-0.32,0.35-1.41,0.67-2.62h0.36l-0.89,3.18
				c-0.24,0.86-0.43,1-0.87,1c-0.06,0-0.14-0.01-0.19-0.02v-0.31c0.04,0.01,0.12,0.02,0.19,0.02c0.33,0,0.42-0.25,0.56-0.78
				l-0.88-3.09H101.68z"/>
			<path class="st1" d="M103.83,81.04c0-0.48,0-0.81-0.01-1.03h0.33c0.01,0.09,0.01,0.23,0.01,0.55c0.13-0.37,0.43-0.59,0.8-0.6
				v0.37c-0.53,0.03-0.8,0.42-0.8,0.97v1.72h-0.34V81.04z"/>
			<path class="st1" d="M105.73,81.48c0.19-0.26,0.79-1.07,1.07-1.47h0.38c-0.28,0.38-0.59,0.79-0.88,1.17l0.98,1.85h-0.39
				l-0.82-1.58c-0.09,0.11-0.25,0.33-0.35,0.45v1.13h-0.34v-4.27h0.34V81.48z"/>
			<path class="st1" d="M107.8,81.56c0,0.67,0.12,1.22,0.64,1.22c0.52,0,0.59-0.51,0.61-0.59h0.34c-0.01,0.07-0.1,0.89-0.94,0.89
				c-0.86,0-0.97-0.81-0.97-1.56c0-0.95,0.31-1.56,1-1.56c0.76,0,0.94,0.65,0.94,1.39c0,0.04,0,0.12-0.01,0.21H107.8z M109.06,81.28
				c0-0.6-0.14-1.02-0.6-1.02c-0.61,0-0.64,0.82-0.65,1.02H109.06z"/>
			<path class="st1" d="M111.84,81.48c0,1.06-0.34,1.6-1,1.6c-0.69,0-1-0.53-1-1.6c0-1.04,0.39-1.52,1.02-1.52
				C111.49,79.96,111.84,80.47,111.84,81.48z M110.13,83.08h-0.25l1.63-3.11h0.26L110.13,83.08z M110.18,81.49
				c0,0.9,0.25,1.3,0.66,1.3c0.42,0,0.66-0.4,0.66-1.31c0-0.82-0.22-1.22-0.66-1.22C110.44,80.26,110.18,80.6,110.18,81.49z"/>
			<path class="st1" d="M112.49,80.01c0.27,1.02,0.61,2.3,0.66,2.62h0.01c0.04-0.28,0.56-2.1,0.7-2.62h0.34l-0.87,3.02h-0.37
				l-0.83-3.02H112.49z"/>
			<path class="st1" d="M114.83,81.56c0,0.67,0.12,1.22,0.64,1.22c0.52,0,0.59-0.51,0.61-0.59h0.34c-0.01,0.07-0.1,0.89-0.94,0.89
				c-0.86,0-0.97-0.81-0.97-1.56c0-0.95,0.31-1.56,1-1.56c0.76,0,0.94,0.65,0.94,1.39c0,0.04,0,0.12-0.01,0.21H114.83z
				 M116.09,81.28c0-0.6-0.14-1.02-0.6-1.02c-0.61,0-0.64,0.82-0.65,1.02H116.09z"/>
			<path class="st1" d="M117.02,83.03v-4.27h0.34v4.27H117.02z"/>
			<path class="st1" d="M118.21,82.17c0.03,0.37,0.22,0.62,0.59,0.62s0.54-0.23,0.54-0.54c0-0.35-0.18-0.5-0.59-0.67
				c-0.59-0.23-0.77-0.44-0.77-0.86c0-0.4,0.25-0.77,0.82-0.77c0.63,0,0.82,0.43,0.83,0.83h-0.34c-0.01-0.16-0.05-0.54-0.5-0.54
				c-0.32,0-0.47,0.2-0.47,0.47c0,0.26,0.1,0.39,0.54,0.56c0.56,0.22,0.83,0.42,0.83,0.95c0,0.53-0.33,0.85-0.91,0.85
				c-0.59,0-0.89-0.35-0.91-0.91H118.21z"/>
			<path class="st1" d="M120.44,81.56c0,0.67,0.12,1.22,0.64,1.22c0.52,0,0.59-0.51,0.61-0.59h0.34c-0.01,0.07-0.1,0.89-0.94,0.89
				c-0.86,0-0.97-0.81-0.97-1.56c0-0.95,0.31-1.56,1-1.56c0.76,0,0.94,0.65,0.94,1.39c0,0.04,0,0.12-0.01,0.21H120.44z M121.7,81.28
				c0-0.6-0.14-1.02-0.6-1.02c-0.61,0-0.64,0.82-0.65,1.02H121.7z"/>
			<path class="st1" d="M122.26,83.73c0.18-0.43,0.29-0.93,0.32-1.41h0.33c-0.04,0.55-0.2,1.11-0.37,1.41H122.26z"/>
			<path class="st1" d="M124.78,81.56c0,0.67,0.12,1.22,0.64,1.22c0.52,0,0.59-0.51,0.61-0.59h0.34c-0.01,0.07-0.1,0.89-0.94,0.89
				c-0.86,0-0.97-0.81-0.97-1.56c0-0.95,0.31-1.56,1-1.56c0.76,0,0.94,0.65,0.94,1.39c0,0.04,0,0.12-0.01,0.21H124.78z
				 M126.04,81.28c0-0.6-0.14-1.02-0.6-1.02c-0.61,0-0.64,0.82-0.65,1.02H126.04z"/>
			<path class="st1" d="M126.97,80.94c0-0.62,0-0.8-0.01-0.93h0.33c0.01,0.07,0.01,0.19,0.01,0.43c0.11-0.26,0.32-0.48,0.73-0.48
				c0.42,0,0.78,0.22,0.78,0.92v2.15h-0.34v-2.09c0-0.39-0.14-0.67-0.51-0.67c-0.46,0-0.65,0.31-0.65,0.99v1.77h-0.34V80.94z"/>
			<path class="st1" d="M129.18,80.01h0.44v-0.82h0.33v0.82h0.55v0.3h-0.55v2.1c0,0.22,0.05,0.36,0.28,0.36
				c0.07,0,0.17-0.01,0.23-0.02v0.27c-0.09,0.04-0.23,0.05-0.33,0.05c-0.31,0-0.51-0.13-0.51-0.58v-2.18h-0.44V80.01z"/>
			<path class="st1" d="M131.11,81.56c0,0.67,0.12,1.22,0.64,1.22c0.52,0,0.59-0.51,0.61-0.59h0.34c-0.01,0.07-0.1,0.89-0.94,0.89
				c-0.86,0-0.97-0.81-0.97-1.56c0-0.95,0.31-1.56,1-1.56c0.76,0,0.94,0.65,0.94,1.39c0,0.04,0,0.12-0.01,0.21H131.11z
				 M132.37,81.28c0-0.6-0.14-1.02-0.6-1.02c-0.61,0-0.64,0.82-0.65,1.02H132.37z"/>
			<path class="st1" d="M133.3,80.94c0-0.62,0-0.8-0.01-0.93h0.33c0.01,0.07,0.01,0.19,0.01,0.43c0.11-0.26,0.32-0.48,0.73-0.48
				c0.42,0,0.78,0.22,0.78,0.92v2.15h-0.34v-2.09c0-0.39-0.14-0.67-0.51-0.67c-0.46,0-0.65,0.31-0.65,0.99v1.77h-0.34V80.94z"/>
			<path class="st1" d="M137.4,78.75v1.65c0.1-0.27,0.36-0.45,0.74-0.45c0.42,0,0.76,0.26,0.76,0.92v2.15h-0.34v-2.08
				c0-0.4-0.13-0.68-0.53-0.68c-0.46,0-0.64,0.38-0.64,0.96v1.8h-0.34v-4.27H137.4z"/>
			<path class="st1" d="M139.84,81.56c0,0.67,0.12,1.22,0.64,1.22c0.52,0,0.59-0.51,0.61-0.59h0.34c-0.01,0.07-0.1,0.89-0.94,0.89
				c-0.86,0-0.97-0.81-0.97-1.56c0-0.95,0.31-1.56,1-1.56c0.76,0,0.94,0.65,0.94,1.39c0,0.04,0,0.12-0.01,0.21H139.84z M141.1,81.28
				c0-0.6-0.14-1.02-0.6-1.02c-0.61,0-0.64,0.82-0.65,1.02H141.1z"/>
			<path class="st1" d="M142.03,83.03v-4.27h0.34v4.27H142.03z"/>
			<path class="st1" d="M143.31,81.56c0,0.67,0.12,1.22,0.64,1.22c0.52,0,0.59-0.51,0.61-0.59h0.34c-0.01,0.07-0.1,0.89-0.94,0.89
				c-0.86,0-0.97-0.81-0.97-1.56c0-0.95,0.31-1.56,1-1.56c0.76,0,0.94,0.65,0.94,1.39c0,0.04,0,0.12-0.01,0.21H143.31z
				 M144.57,81.28c0-0.6-0.14-1.02-0.6-1.02c-0.61,0-0.64,0.82-0.65,1.02H144.57z"/>
			<path class="st1" d="M146.66,80.92c0-0.51,0-0.76-0.01-0.91h0.33c0.01,0.1,0.01,0.26,0.01,0.42c0.11-0.27,0.32-0.46,0.68-0.46
				c0.31,0,0.54,0.13,0.63,0.46c0.1-0.25,0.34-0.46,0.73-0.46c0.36,0,0.72,0.17,0.72,0.87v2.2h-0.33v-2.14
				c0-0.33-0.09-0.62-0.47-0.62c-0.42,0-0.57,0.39-0.57,0.81v1.95h-0.34V80.9c0-0.41-0.13-0.63-0.46-0.63
				c-0.39,0-0.59,0.38-0.59,0.86v1.9h-0.34V80.92z"/>
			<path class="st1" d="M150.49,80.01h0.34v3.02h-0.34V80.01z M150.5,78.75h0.34v0.6h-0.34V78.75z"/>
			<path class="st1" d="M151.59,80.94c0-0.62,0-0.8-0.01-0.93h0.33c0.01,0.07,0.01,0.19,0.01,0.43c0.11-0.26,0.32-0.48,0.73-0.48
				c0.42,0,0.78,0.22,0.78,0.92v2.15h-0.34v-2.09c0-0.39-0.14-0.67-0.51-0.67c-0.46,0-0.65,0.31-0.65,0.99v1.77h-0.34V80.94z"/>
			<path class="st1" d="M156,82.22c0,0.36,0,0.66,0.01,0.8h-0.32c-0.01-0.09-0.02-0.2-0.02-0.43c-0.1,0.31-0.36,0.48-0.73,0.48
				c-0.32,0-0.75-0.12-0.75-0.9v-2.17h0.34v2.09c0,0.42,0.12,0.68,0.51,0.68c0.36,0,0.63-0.23,0.63-0.95v-1.82H156V82.22z"/>
			<path class="st1" d="M156.36,80.01h0.44v-0.82h0.33v0.82h0.55v0.3h-0.55v2.1c0,0.22,0.05,0.36,0.28,0.36
				c0.07,0,0.17-0.01,0.23-0.02v0.27c-0.09,0.04-0.23,0.05-0.33,0.05c-0.31,0-0.51-0.13-0.51-0.58v-2.18h-0.44V80.01z"/>
			<path class="st1" d="M157.72,80.01h0.44v-0.82h0.33v0.82h0.55v0.3h-0.55v2.1c0,0.22,0.05,0.36,0.28,0.36
				c0.07,0,0.17-0.01,0.23-0.02v0.27c-0.09,0.04-0.23,0.05-0.33,0.05c-0.31,0-0.51-0.13-0.51-0.58v-2.18h-0.44V80.01z"/>
			<path class="st1" d="M159.65,81.56c0,0.67,0.12,1.22,0.64,1.22c0.52,0,0.59-0.51,0.61-0.59h0.34c-0.01,0.07-0.1,0.89-0.94,0.89
				c-0.86,0-0.97-0.81-0.97-1.56c0-0.95,0.31-1.56,1-1.56c0.76,0,0.94,0.65,0.94,1.39c0,0.04,0,0.12-0.01,0.21H159.65z
				 M160.91,81.28c0-0.6-0.14-1.02-0.6-1.02c-0.61,0-0.64,0.82-0.65,1.02H160.91z"/>
			<path class="st1" d="M161.45,80.01h0.44v-0.82h0.33v0.82h0.55v0.3h-0.55v2.1c0,0.22,0.05,0.36,0.28,0.36
				c0.07,0,0.17-0.01,0.23-0.02v0.27c-0.09,0.04-0.23,0.05-0.33,0.05c-0.31,0-0.51-0.13-0.51-0.58v-2.18h-0.44V80.01z"/>
			<path class="st1" d="M162.83,83.73c0.18-0.43,0.29-0.93,0.32-1.41h0.33c-0.04,0.55-0.2,1.11-0.37,1.41H162.83z"/>
			<path class="st1" d="M165.35,81.56c0,0.67,0.12,1.22,0.64,1.22c0.52,0,0.59-0.51,0.61-0.59h0.34c-0.01,0.07-0.1,0.89-0.94,0.89
				c-0.86,0-0.97-0.81-0.97-1.56c0-0.95,0.31-1.56,1-1.56c0.76,0,0.94,0.65,0.94,1.39c0,0.04,0,0.12-0.01,0.21H165.35z
				 M166.61,81.28c0-0.6-0.14-1.02-0.6-1.02c-0.61,0-0.64,0.82-0.65,1.02H166.61z"/>
			<path class="st1" d="M167.15,80.01h0.44v-0.82h0.33v0.82h0.55v0.3h-0.55v2.1c0,0.22,0.05,0.36,0.28,0.36
				c0.07,0,0.17-0.01,0.23-0.02v0.27c-0.09,0.04-0.23,0.05-0.33,0.05c-0.31,0-0.51-0.13-0.51-0.58v-2.18h-0.44V80.01z"/>
			<path class="st1" d="M170.09,83.03v-2.72h-0.41v-0.3h0.41v-0.46c0-0.42,0.14-0.83,0.67-0.83c0.07,0,0.17,0.01,0.23,0.03v0.31
				c-0.05-0.01-0.13-0.03-0.21-0.03c-0.25,0-0.35,0.16-0.35,0.51v0.47h0.49v0.3h-0.49v2.72H170.09z"/>
			<path class="st1" d="M172.9,82.54c0,0.21,0.02,0.41,0.02,0.49h-0.31c-0.02-0.07-0.03-0.24-0.03-0.37
				c-0.11,0.27-0.35,0.42-0.73,0.42c-0.58,0-0.78-0.45-0.78-0.86c0-0.53,0.35-0.96,1.15-0.96c0.16,0,0.24,0,0.34,0.01v-0.43
				c0-0.26-0.05-0.59-0.5-0.59c-0.5,0-0.53,0.36-0.54,0.57h-0.33c0.01-0.43,0.22-0.86,0.88-0.86c0.56,0,0.82,0.28,0.82,0.83V82.54z
				 M172.58,81.56c-0.08-0.01-0.17-0.02-0.33-0.02c-0.59,0-0.84,0.29-0.84,0.65c0,0.31,0.17,0.59,0.52,0.59
				c0.47,0,0.65-0.33,0.65-1.04V81.56z"/>
			<path class="st1" d="M173.77,82.17c0.03,0.37,0.22,0.62,0.59,0.62s0.54-0.23,0.54-0.54c0-0.35-0.18-0.5-0.59-0.67
				c-0.59-0.23-0.77-0.44-0.77-0.86c0-0.4,0.25-0.77,0.82-0.77c0.63,0,0.82,0.43,0.83,0.83h-0.34c-0.01-0.16-0.05-0.54-0.5-0.54
				c-0.32,0-0.47,0.2-0.47,0.47c0,0.26,0.1,0.39,0.54,0.56c0.56,0.22,0.83,0.42,0.83,0.95c0,0.53-0.33,0.85-0.91,0.85
				c-0.59,0-0.89-0.35-0.91-0.91H173.77z"/>
			<path class="st1" d="M175.42,80.01h0.44v-0.82h0.33v0.82h0.55v0.3h-0.55v2.1c0,0.22,0.05,0.36,0.28,0.36
				c0.07,0,0.17-0.01,0.23-0.02v0.27c-0.09,0.04-0.23,0.05-0.33,0.05c-0.31,0-0.51-0.13-0.51-0.58v-2.18h-0.44V80.01z"/>
			<path class="st1" d="M99.78,89.74c0,0.2,0.02,0.41,0.02,0.49H99.5c-0.02-0.07-0.03-0.24-0.03-0.37
				c-0.11,0.27-0.35,0.42-0.73,0.42c-0.58,0-0.78-0.45-0.78-0.86c0-0.53,0.35-0.96,1.15-0.96c0.16,0,0.24,0,0.34,0.01v-0.43
				c0-0.26-0.05-0.59-0.5-0.59c-0.5,0-0.53,0.36-0.54,0.57h-0.33c0.01-0.43,0.22-0.86,0.88-0.86c0.56,0,0.82,0.28,0.82,0.83V89.74z
				 M99.46,88.76c-0.08-0.01-0.17-0.02-0.33-0.02c-0.59,0-0.84,0.29-0.84,0.65c0,0.31,0.17,0.59,0.52,0.59
				c0.47,0,0.65-0.33,0.65-1.04V88.76z"/>
			<path class="st1" d="M100.54,88.14c0-0.62,0-0.8-0.01-0.93h0.33c0.01,0.07,0.01,0.19,0.01,0.43c0.11-0.26,0.32-0.48,0.73-0.48
				c0.42,0,0.78,0.22,0.78,0.92v2.15h-0.34v-2.09c0-0.39-0.14-0.67-0.51-0.67c-0.46,0-0.65,0.31-0.65,0.99v1.77h-0.34V88.14z"/>
			<path class="st1" d="M102.75,87.21h0.44v-0.82h0.33v0.82h0.55v0.3h-0.55v2.1c0,0.22,0.05,0.36,0.28,0.36c0.07,0,0.17,0,0.23-0.02
				v0.27c-0.09,0.04-0.23,0.05-0.33,0.05c-0.31,0-0.51-0.13-0.51-0.58v-2.18h-0.44V87.21z"/>
			<path class="st1" d="M106.16,89.74c0,0.2,0.02,0.41,0.02,0.49h-0.31c-0.02-0.07-0.03-0.24-0.03-0.37
				c-0.11,0.27-0.35,0.42-0.73,0.42c-0.58,0-0.78-0.45-0.78-0.86c0-0.53,0.35-0.96,1.15-0.96c0.16,0,0.24,0,0.34,0.01v-0.43
				c0-0.26-0.05-0.59-0.5-0.59c-0.5,0-0.53,0.36-0.54,0.57h-0.33c0.01-0.43,0.22-0.86,0.88-0.86c0.56,0,0.82,0.28,0.82,0.83V89.74z
				 M105.84,88.76c-0.08-0.01-0.17-0.02-0.33-0.02c-0.59,0-0.84,0.29-0.84,0.65c0,0.31,0.17,0.59,0.52,0.59
				c0.47,0,0.65-0.33,0.65-1.04V88.76z"/>
			<path class="st1" d="M106.92,90.23v-4.27h0.34v4.27H106.92z"/>
			<path class="st1" d="M108.01,90.23v-4.27h0.34v4.27H108.01z"/>
			<path class="st1" d="M110.26,88.24c0-0.48,0-0.81-0.01-1.03h0.33c0.01,0.09,0.01,0.23,0.01,0.55c0.13-0.37,0.43-0.59,0.8-0.6
				v0.37c-0.53,0.03-0.8,0.42-0.8,0.97v1.72h-0.34V88.24z"/>
			<path class="st1" d="M112.01,88.76c0,0.67,0.12,1.22,0.64,1.22c0.52,0,0.59-0.51,0.61-0.59h0.34c-0.01,0.07-0.1,0.89-0.94,0.89
				c-0.86,0-0.97-0.81-0.97-1.56c0-0.95,0.31-1.56,1-1.56c0.76,0,0.94,0.65,0.94,1.39c0,0.04,0,0.12-0.01,0.21H112.01z
				 M113.27,88.48c0-0.6-0.14-1.02-0.6-1.02c-0.61,0-0.64,0.82-0.65,1.02H113.27z"/>
			<path class="st1" d="M114.54,89.89v1.45h-0.34v-3.25c0-0.42,0-0.7-0.01-0.88h0.33c0.01,0.05,0.01,0.27,0.01,0.43
				c0.11-0.29,0.33-0.48,0.74-0.48c0.58,0,0.88,0.52,0.88,1.52c0,1.05-0.37,1.6-0.97,1.6C114.8,90.28,114.62,90.09,114.54,89.89z
				 M115.8,88.7c0-0.77-0.18-1.23-0.62-1.23c-0.51,0-0.66,0.49-0.66,1.25c0,0.73,0.08,1.26,0.63,1.26
				C115.58,89.98,115.8,89.46,115.8,88.7z"/>
			<path class="st1" d="M116.94,88.76c0,0.67,0.12,1.22,0.64,1.22c0.52,0,0.59-0.51,0.61-0.59h0.34c-0.01,0.07-0.1,0.89-0.94,0.89
				c-0.86,0-0.97-0.81-0.97-1.56c0-0.95,0.31-1.56,1-1.56c0.76,0,0.94,0.65,0.94,1.39c0,0.04,0,0.12-0.01,0.21H116.94z
				 M118.21,88.48c0-0.6-0.14-1.02-0.6-1.02c-0.61,0-0.64,0.82-0.65,1.02H118.21z"/>
			<path class="st1" d="M118.74,87.21h0.44v-0.82h0.33v0.82h0.55v0.3h-0.55v2.1c0,0.22,0.05,0.36,0.28,0.36c0.07,0,0.17,0,0.23-0.02
				v0.27c-0.09,0.04-0.23,0.05-0.33,0.05c-0.31,0-0.51-0.13-0.51-0.58v-2.18h-0.44V87.21z"/>
			<path class="st1" d="M120.49,87.21h0.34v3.02h-0.34V87.21z M120.49,85.96h0.34v0.6h-0.34V85.96z"/>
			<path class="st1" d="M121.69,89.38c0.03,0.37,0.22,0.62,0.59,0.62s0.54-0.23,0.54-0.54c0-0.35-0.18-0.5-0.59-0.67
				c-0.59-0.23-0.77-0.44-0.77-0.86c0-0.4,0.25-0.77,0.82-0.77c0.63,0,0.82,0.43,0.83,0.83h-0.34c-0.01-0.16-0.05-0.54-0.5-0.54
				c-0.32,0-0.47,0.2-0.47,0.47c0,0.26,0.1,0.39,0.54,0.56c0.56,0.22,0.83,0.42,0.83,0.95c0,0.53-0.33,0.85-0.91,0.85
				c-0.59,0-0.89-0.35-0.91-0.91H121.69z"/>
			<path class="st1" d="M124.08,87.21v3.26c0,0.53-0.07,0.92-0.6,0.92c-0.05,0-0.1,0-0.16-0.01v-0.3c0.05,0.01,0.1,0.01,0.13,0.01
				c0.25,0,0.29-0.16,0.29-0.52v-3.35H124.08z M123.75,86.55v-0.6h0.34v0.6H123.75z"/>
			<path class="st1" d="M126.69,88.68c0,1.05-0.34,1.6-1,1.6c-0.69,0-1-0.54-1-1.59c0-1.04,0.39-1.53,1.02-1.53
				C126.34,87.16,126.69,87.67,126.69,88.68z M125.03,88.69c0,0.89,0.24,1.29,0.66,1.29c0.42,0,0.65-0.41,0.65-1.3
				c0-0.81-0.22-1.22-0.65-1.22C125.28,87.46,125.03,87.81,125.03,88.69z"/>
			<path class="st1" d="M127.29,88.14c0-0.62,0-0.8-0.01-0.93h0.33c0.01,0.07,0.01,0.19,0.01,0.43c0.11-0.26,0.32-0.48,0.73-0.48
				c0.42,0,0.78,0.22,0.78,0.92v2.15h-0.34v-2.09c0-0.39-0.14-0.67-0.51-0.67c-0.46,0-0.65,0.31-0.65,0.99v1.77h-0.34V88.14z"/>
			<path class="st1" d="M130.07,88.76c0,0.67,0.12,1.22,0.64,1.22c0.52,0,0.59-0.51,0.61-0.59h0.34c-0.01,0.07-0.1,0.89-0.94,0.89
				c-0.86,0-0.97-0.81-0.97-1.56c0-0.95,0.31-1.56,1-1.56c0.76,0,0.94,0.65,0.94,1.39c0,0.04,0,0.12-0.01,0.21H130.07z
				 M131.33,88.48c0-0.6-0.14-1.02-0.6-1.02c-0.61,0-0.64,0.82-0.65,1.02H131.33z"/>
			<path class="st1" d="M132.26,88.24c0-0.48,0-0.81-0.01-1.03h0.33c0.01,0.09,0.01,0.23,0.01,0.55c0.13-0.37,0.43-0.59,0.8-0.6
				v0.37c-0.53,0.03-0.8,0.42-0.8,0.97v1.72h-0.34V88.24z"/>
			<path class="st1" d="M133.46,90.93c0.18-0.43,0.29-0.93,0.32-1.41h0.33c-0.04,0.55-0.2,1.11-0.37,1.41H133.46z"/>
			<path class="st1" d="M135.98,88.76c0,0.67,0.12,1.22,0.64,1.22c0.52,0,0.59-0.51,0.61-0.59h0.34c-0.01,0.07-0.1,0.89-0.94,0.89
				c-0.86,0-0.97-0.81-0.97-1.56c0-0.95,0.31-1.56,1-1.56c0.76,0,0.94,0.65,0.94,1.39c0,0.04,0,0.12-0.01,0.21H135.98z
				 M137.24,88.48c0-0.6-0.14-1.02-0.6-1.02c-0.61,0-0.64,0.82-0.65,1.02H137.24z"/>
			<path class="st1" d="M138.17,90.23v-4.27h0.34v4.27H138.17z"/>
			<path class="st1" d="M139.26,90.23v-4.27h0.34v4.27H139.26z"/>
			<path class="st1" d="M140.54,88.76c0,0.67,0.12,1.22,0.64,1.22c0.52,0,0.59-0.51,0.61-0.59h0.34c-0.01,0.07-0.1,0.89-0.94,0.89
				c-0.86,0-0.97-0.81-0.97-1.56c0-0.95,0.31-1.56,1-1.56c0.76,0,0.94,0.65,0.94,1.39c0,0.04,0,0.12-0.01,0.21H140.54z M141.8,88.48
				c0-0.6-0.14-1.02-0.6-1.02c-0.61,0-0.64,0.82-0.65,1.02H141.8z"/>
			<path class="st1" d="M142.72,88.24c0-0.48,0-0.81-0.01-1.03h0.33c0.01,0.09,0.01,0.23,0.01,0.55c0.13-0.37,0.43-0.59,0.8-0.6
				v0.37c-0.53,0.03-0.8,0.42-0.8,0.97v1.72h-0.34V88.24z"/>
			<path class="st1" d="M145.45,87.21h0.34v3.02h-0.34V87.21z M145.45,85.96h0.34v0.6h-0.34V85.96z"/>
			<path class="st1" d="M148.89,90.23v-1.09h-1.44v-0.29l1.33-2.58h0.43v2.58h0.4l-0.04,0.3h-0.36v1.09H148.89z M148.89,87.64
				c0-0.32,0-0.75,0.01-1.04c-0.2,0.48-0.77,1.58-1.1,2.24h1.09V87.64z"/>
			<path class="st1" d="M151.99,88.2c0,1.42-0.26,2.09-1,2.09c-0.78,0-1-0.74-1-2.09c0-1.47,0.35-1.98,1.02-1.98
				C151.72,86.21,151.99,86.82,151.99,88.2z M150.33,88.19c0,1.19,0.14,1.8,0.65,1.8c0.51,0,0.65-0.58,0.65-1.79
				c0-1.22-0.17-1.69-0.64-1.69C150.54,86.51,150.33,86.92,150.33,88.19z"/>
			<path class="st1" d="M153.9,89.38c0.03,0.37,0.22,0.62,0.59,0.62s0.54-0.23,0.54-0.54c0-0.35-0.18-0.5-0.59-0.67
				c-0.59-0.23-0.77-0.44-0.77-0.86c0-0.4,0.25-0.77,0.82-0.77c0.63,0,0.82,0.43,0.83,0.83h-0.34c-0.01-0.16-0.05-0.54-0.5-0.54
				c-0.32,0-0.47,0.2-0.47,0.47c0,0.26,0.1,0.39,0.54,0.56c0.56,0.22,0.83,0.42,0.83,0.95c0,0.53-0.33,0.85-0.91,0.85
				c-0.59,0-0.89-0.35-0.91-0.91H153.9z"/>
			<path class="st1" d="M156.13,88.76c0,0.67,0.12,1.22,0.64,1.22c0.52,0,0.59-0.51,0.61-0.59h0.34c-0.01,0.07-0.1,0.89-0.94,0.89
				c-0.86,0-0.97-0.81-0.97-1.56c0-0.95,0.31-1.56,1-1.56c0.76,0,0.94,0.65,0.94,1.39c0,0.04,0,0.12-0.01,0.21H156.13z
				 M157.39,88.48c0-0.6-0.14-1.02-0.6-1.02c-0.61,0-0.64,0.82-0.65,1.02H157.39z"/>
			<path class="st1" d="M158.65,88.68c0.19-0.26,0.79-1.07,1.07-1.47h0.38c-0.28,0.38-0.59,0.79-0.88,1.17l0.98,1.85h-0.39
				L159,88.65c-0.09,0.11-0.25,0.33-0.35,0.45v1.13h-0.34v-4.27h0.34V88.68z"/>
			<path class="st1" d="M162.36,89.42c0,0.36,0,0.66,0.01,0.8h-0.32c-0.01-0.09-0.02-0.2-0.02-0.43c-0.1,0.31-0.36,0.48-0.73,0.48
				c-0.32,0-0.75-0.12-0.75-0.9v-2.17h0.34v2.09c0,0.42,0.12,0.68,0.51,0.68c0.36,0,0.63-0.23,0.63-0.95v-1.82h0.34V89.42z"/>
			<path class="st1" d="M163.11,88.14c0-0.62,0-0.8-0.01-0.93h0.33c0.01,0.07,0.01,0.19,0.01,0.43c0.11-0.26,0.32-0.48,0.73-0.48
				c0.42,0,0.78,0.22,0.78,0.92v2.15h-0.34v-2.09c0-0.39-0.14-0.67-0.51-0.67c-0.46,0-0.65,0.31-0.65,0.99v1.77h-0.34V88.14z"/>
			<path class="st1" d="M167.5,85.96v3.52c0,0.27,0,0.57,0.01,0.75h-0.33c-0.01-0.08-0.01-0.29-0.01-0.44
				c-0.09,0.28-0.29,0.49-0.72,0.49c-0.62,0-0.9-0.52-0.9-1.6c0-0.98,0.38-1.52,0.98-1.52c0.42,0,0.57,0.18,0.64,0.34v-1.55H167.5z
				 M165.9,88.69c0,0.94,0.22,1.28,0.62,1.28c0.51,0,0.65-0.45,0.65-1.3c0-0.95-0.15-1.21-0.62-1.21
				C166.17,87.47,165.9,87.82,165.9,88.69z"/>
			<path class="st1" d="M168.45,88.76c0,0.67,0.12,1.22,0.64,1.22c0.52,0,0.59-0.51,0.61-0.59h0.34c-0.01,0.07-0.1,0.89-0.94,0.89
				c-0.86,0-0.97-0.81-0.97-1.56c0-0.95,0.31-1.56,1-1.56c0.76,0,0.94,0.65,0.94,1.39c0,0.04,0,0.12-0.01,0.21H168.45z
				 M169.71,88.48c0-0.6-0.14-1.02-0.6-1.02c-0.61,0-0.64,0.82-0.65,1.02H169.71z"/>
			<path class="st1" d="M170.63,88.24c0-0.48,0-0.81-0.01-1.03h0.33c0.01,0.09,0.01,0.23,0.01,0.55c0.13-0.37,0.43-0.59,0.8-0.6
				v0.37c-0.53,0.03-0.8,0.42-0.8,0.97v1.72h-0.34V88.24z"/>
			<path class="st1" d="M173.36,88.12c0-0.51,0-0.76-0.01-0.91h0.33c0.01,0.1,0.01,0.26,0.01,0.42c0.11-0.27,0.32-0.46,0.68-0.46
				c0.31,0,0.54,0.13,0.63,0.46c0.1-0.25,0.34-0.46,0.73-0.46c0.36,0,0.72,0.17,0.72,0.87v2.2h-0.33v-2.14
				c0-0.33-0.09-0.62-0.47-0.62c-0.42,0-0.57,0.39-0.57,0.81v1.95h-0.34V88.1c0-0.41-0.13-0.63-0.46-0.63
				c-0.39,0-0.59,0.38-0.59,0.86v1.9h-0.34V88.12z"/>
			<path class="st1" d="M177.39,88.76c0,0.67,0.12,1.22,0.64,1.22c0.52,0,0.59-0.51,0.61-0.59h0.34c-0.01,0.07-0.1,0.89-0.94,0.89
				c-0.86,0-0.97-0.81-0.97-1.56c0-0.95,0.31-1.56,1-1.56c0.76,0,0.94,0.65,0.94,1.39c0,0.04,0,0.12-0.01,0.21H177.39z
				 M178.65,88.48c0-0.6-0.14-1.02-0.6-1.02c-0.61,0-0.64,0.82-0.65,1.02H178.65z"/>
			<path class="st1" d="M181.38,85.96v3.52c0,0.27,0,0.57,0.01,0.75h-0.33c-0.01-0.08-0.01-0.29-0.01-0.44
				c-0.09,0.28-0.29,0.49-0.72,0.49c-0.62,0-0.9-0.52-0.9-1.6c0-0.98,0.38-1.52,0.98-1.52c0.42,0,0.57,0.18,0.64,0.34v-1.55H181.38z
				 M179.77,88.69c0,0.94,0.22,1.28,0.62,1.28c0.51,0,0.65-0.45,0.65-1.3c0-0.95-0.15-1.21-0.62-1.21
				C180.04,87.47,179.77,87.82,179.77,88.69z"/>
			<path class="st1" d="M97.87,97.43V97.4c0-0.42,0.27-0.99,0.9-1.67c0.52-0.57,0.7-0.8,0.7-1.27c0-0.38-0.12-0.75-0.58-0.75
				c-0.4,0-0.59,0.31-0.62,0.8h-0.34c0.01-0.56,0.28-1.1,0.96-1.1c0.69,0,0.92,0.49,0.92,1.04c0,0.57-0.21,0.85-0.74,1.41
				c-0.52,0.55-0.75,0.98-0.82,1.26h1.66l-0.05,0.3H97.87z"/>
			<path class="st1" d="M102.29,95.4c0,1.42-0.26,2.09-1,2.09c-0.78,0-1-0.74-1-2.09c0-1.47,0.35-1.98,1.02-1.98
				C102.02,93.42,102.29,94.02,102.29,95.4z M100.64,95.39c0,1.19,0.14,1.8,0.65,1.8c0.51,0,0.65-0.58,0.65-1.79
				c0-1.22-0.17-1.69-0.64-1.69C100.85,93.71,100.64,94.12,100.64,95.39z"/>
			<path class="st1" d="M104.21,96.58c0.03,0.37,0.22,0.62,0.59,0.62s0.54-0.23,0.54-0.54c0-0.35-0.18-0.5-0.59-0.67
				c-0.59-0.23-0.77-0.44-0.77-0.86c0-0.4,0.25-0.77,0.82-0.77c0.63,0,0.82,0.43,0.83,0.83h-0.34c-0.01-0.16-0.05-0.54-0.5-0.54
				c-0.32,0-0.47,0.2-0.47,0.47c0,0.26,0.1,0.39,0.54,0.56c0.56,0.22,0.83,0.42,0.83,0.95c0,0.53-0.33,0.85-0.91,0.85
				c-0.59,0-0.89-0.35-0.91-0.91H104.21z"/>
			<path class="st1" d="M106.43,95.96c0,0.67,0.12,1.22,0.64,1.22c0.52,0,0.59-0.51,0.61-0.59h0.34c-0.01,0.07-0.1,0.89-0.94,0.89
				c-0.86,0-0.97-0.81-0.97-1.56c0-0.95,0.31-1.56,1-1.56c0.76,0,0.94,0.65,0.94,1.39c0,0.04,0,0.12-0.01,0.21H106.43z
				 M107.69,95.68c0-0.6-0.14-1.02-0.6-1.02c-0.61,0-0.64,0.82-0.65,1.02H107.69z"/>
			<path class="st1" d="M108.96,95.88c0.19-0.26,0.79-1.07,1.07-1.47h0.38c-0.28,0.38-0.59,0.79-0.88,1.17l0.98,1.85h-0.39
				l-0.82-1.58c-0.09,0.11-0.25,0.33-0.35,0.45v1.13h-0.34v-4.27h0.34V95.88z"/>
			<path class="st1" d="M110.84,95.34c0-0.62,0-0.8-0.01-0.93h0.33c0.01,0.07,0.01,0.19,0.01,0.43c0.11-0.26,0.32-0.48,0.73-0.48
				c0.42,0,0.78,0.22,0.78,0.92v2.15h-0.34v-2.09c0-0.39-0.14-0.67-0.51-0.67c-0.46,0-0.65,0.31-0.65,0.99v1.77h-0.34V95.34z"/>
			<path class="st1" d="M115.26,96.62c0,0.36,0,0.66,0.01,0.8h-0.32c-0.01-0.09-0.02-0.2-0.02-0.43c-0.1,0.31-0.36,0.48-0.73,0.48
				c-0.32,0-0.75-0.12-0.75-0.9v-2.17h0.34v2.09c0,0.42,0.12,0.68,0.51,0.68c0.36,0,0.63-0.23,0.63-0.95v-1.82h0.34V96.62z"/>
			<path class="st1" d="M116.01,95.34c0-0.62,0-0.8-0.01-0.93h0.33c0.01,0.07,0.01,0.19,0.01,0.43c0.11-0.26,0.32-0.48,0.73-0.48
				c0.42,0,0.78,0.22,0.78,0.92v2.15h-0.34v-2.09c0-0.39-0.14-0.67-0.51-0.67c-0.46,0-0.65,0.31-0.65,0.99v1.77h-0.34V95.34z"/>
			<path class="st1" d="M120.41,93.16v3.52c0,0.27,0,0.57,0.01,0.75h-0.33c-0.01-0.08-0.01-0.29-0.01-0.44
				c-0.09,0.28-0.29,0.49-0.72,0.49c-0.62,0-0.9-0.52-0.9-1.6c0-0.98,0.38-1.52,0.98-1.52c0.42,0,0.57,0.18,0.64,0.34v-1.55H120.41z
				 M118.8,95.89c0,0.94,0.22,1.28,0.62,1.28c0.51,0,0.65-0.45,0.65-1.3c0-0.95-0.15-1.21-0.62-1.21
				C119.07,94.67,118.8,95.02,118.8,95.89z"/>
			<path class="st1" d="M121.35,95.96c0,0.67,0.12,1.22,0.64,1.22c0.52,0,0.59-0.51,0.61-0.59h0.34c-0.01,0.07-0.1,0.89-0.94,0.89
				c-0.86,0-0.97-0.81-0.97-1.56c0-0.95,0.31-1.56,1-1.56c0.76,0,0.94,0.65,0.94,1.39c0,0.04,0,0.12-0.01,0.21H121.35z
				 M122.61,95.68c0-0.6-0.14-1.02-0.6-1.02c-0.61,0-0.64,0.82-0.65,1.02H122.61z"/>
			<path class="st1" d="M123.54,95.44c0-0.48,0-0.81-0.01-1.03h0.33c0.01,0.09,0.01,0.23,0.01,0.55c0.13-0.37,0.43-0.59,0.8-0.6
				v0.37c-0.53,0.03-0.8,0.42-0.8,0.97v1.72h-0.34V95.44z"/>
			<path class="st1" d="M126.6,97.09v1.45h-0.34v-3.25c0-0.42,0-0.7-0.01-0.88h0.33c0.01,0.05,0.01,0.27,0.01,0.43
				c0.11-0.29,0.33-0.48,0.74-0.48c0.58,0,0.88,0.52,0.88,1.52c0,1.05-0.37,1.6-0.97,1.6C126.86,97.48,126.68,97.29,126.6,97.09z
				 M127.86,95.9c0-0.77-0.18-1.23-0.62-1.23c-0.51,0-0.66,0.49-0.66,1.25c0,0.73,0.08,1.26,0.63,1.26
				C127.64,97.18,127.86,96.66,127.86,95.9z"/>
			<path class="st1" d="M130.48,96.94c0,0.21,0.02,0.41,0.02,0.49h-0.31c-0.02-0.07-0.03-0.24-0.03-0.37
				c-0.11,0.27-0.35,0.42-0.73,0.42c-0.58,0-0.78-0.45-0.78-0.86c0-0.53,0.35-0.96,1.15-0.96c0.16,0,0.24,0,0.34,0.01v-0.43
				c0-0.26-0.05-0.59-0.5-0.59c-0.5,0-0.53,0.36-0.54,0.57h-0.33c0.01-0.43,0.22-0.86,0.88-0.86c0.56,0,0.82,0.28,0.82,0.83V96.94z
				 M130.16,95.96c-0.08-0.01-0.17-0.02-0.33-0.02c-0.59,0-0.84,0.29-0.84,0.65c0,0.31,0.17,0.59,0.52,0.59
				c0.47,0,0.65-0.33,0.65-1.04V95.96z"/>
			<path class="st1" d="M133.06,96.62c0,0.36,0,0.66,0.01,0.8h-0.32c-0.01-0.09-0.02-0.2-0.02-0.43c-0.1,0.31-0.36,0.48-0.73,0.48
				c-0.32,0-0.75-0.12-0.75-0.9v-2.17h0.34v2.09c0,0.42,0.12,0.68,0.51,0.68c0.36,0,0.63-0.23,0.63-0.95v-1.82h0.34V96.62z"/>
			<path class="st1" d="M133.92,96.58c0.03,0.37,0.22,0.62,0.59,0.62s0.54-0.23,0.54-0.54c0-0.35-0.18-0.5-0.59-0.67
				c-0.59-0.23-0.77-0.44-0.77-0.86c0-0.4,0.25-0.77,0.82-0.77c0.63,0,0.82,0.43,0.83,0.83h-0.34c-0.01-0.16-0.05-0.54-0.5-0.54
				c-0.32,0-0.47,0.2-0.47,0.47c0,0.26,0.1,0.39,0.54,0.56c0.56,0.22,0.83,0.42,0.83,0.95c0,0.53-0.33,0.85-0.91,0.85
				c-0.59,0-0.89-0.35-0.91-0.91H133.92z"/>
			<path class="st1" d="M136.14,95.96c0,0.67,0.12,1.22,0.64,1.22c0.52,0,0.59-0.51,0.61-0.59h0.34c-0.01,0.07-0.1,0.89-0.94,0.89
				c-0.86,0-0.97-0.81-0.97-1.56c0-0.95,0.31-1.56,1-1.56c0.76,0,0.94,0.65,0.94,1.39c0,0.04,0,0.12-0.01,0.21H136.14z M137.4,95.68
				c0-0.6-0.14-1.02-0.6-1.02c-0.61,0-0.64,0.82-0.65,1.02H137.4z"/>
			<path class="st1" d="M139.53,97.43v-2.72h-0.41v-0.3h0.41v-0.46c0-0.42,0.14-0.83,0.67-0.83c0.07,0,0.17,0.01,0.23,0.03v0.31
				c-0.05-0.01-0.13-0.03-0.21-0.03c-0.25,0-0.35,0.16-0.35,0.51v0.47h0.49v0.3h-0.49v2.72H139.53z"/>
			<path class="st1" d="M142.53,95.88c0,1.06-0.34,1.6-1,1.6c-0.69,0-1-0.53-1-1.6c0-1.04,0.39-1.52,1.02-1.52
				C142.18,94.36,142.53,94.87,142.53,95.88z M140.82,97.48h-0.25l1.63-3.11h0.26L140.82,97.48z M140.87,95.89
				c0,0.9,0.25,1.3,0.66,1.3c0.42,0,0.66-0.4,0.66-1.31c0-0.82-0.22-1.22-0.66-1.22C141.12,94.66,140.87,95,140.87,95.89z"/>
			<path class="st1" d="M143.13,95.44c0-0.48,0-0.81-0.01-1.03h0.33c0.01,0.09,0.01,0.23,0.01,0.55c0.13-0.37,0.43-0.59,0.8-0.6
				v0.37c-0.53,0.03-0.8,0.42-0.8,0.97v1.72h-0.34V95.44z"/>
			<path class="st1" d="M147.65,93.16v3.52c0,0.27,0,0.57,0.01,0.75h-0.33c-0.01-0.08-0.01-0.29-0.01-0.44
				c-0.09,0.28-0.29,0.49-0.72,0.49c-0.62,0-0.9-0.52-0.9-1.6c0-0.98,0.38-1.52,0.98-1.52c0.42,0,0.57,0.18,0.64,0.34v-1.55H147.65z
				 M146.05,95.89c0,0.94,0.22,1.28,0.62,1.28c0.51,0,0.65-0.45,0.65-1.3c0-0.95-0.15-1.21-0.62-1.21
				C146.32,94.67,146.05,95.02,146.05,95.89z"/>
			<path class="st1" d="M150.23,96.62c0,0.36,0,0.66,0.01,0.8h-0.32c-0.01-0.09-0.02-0.2-0.02-0.43c-0.1,0.31-0.36,0.48-0.73,0.48
				c-0.32,0-0.75-0.12-0.75-0.9v-2.17h0.34v2.09c0,0.42,0.12,0.68,0.51,0.68c0.36,0,0.63-0.23,0.63-0.95v-1.82h0.34V96.62z"/>
			<path class="st1" d="M152.14,93.16h0.34v1.69c0.09-0.25,0.31-0.49,0.74-0.49c0.56,0,0.88,0.46,0.88,1.48
				c0,0.92-0.25,1.63-0.96,1.63c-0.38,0-0.57-0.19-0.67-0.43c0,0.11-0.01,0.25-0.02,0.38h-0.32c0.01-0.15,0.01-0.43,0.01-0.82V93.16
				z M153.75,95.85c0-0.82-0.21-1.18-0.6-1.18c-0.51,0-0.68,0.48-0.68,1.25c0,0.73,0.13,1.25,0.63,1.25
				C153.52,97.17,153.75,96.75,153.75,95.85z"/>
			<path class="st1" d="M154.88,95.96c0,0.67,0.12,1.22,0.64,1.22c0.52,0,0.59-0.51,0.61-0.59h0.34c-0.01,0.07-0.1,0.89-0.94,0.89
				c-0.86,0-0.97-0.81-0.97-1.56c0-0.95,0.31-1.56,1-1.56c0.76,0,0.94,0.65,0.94,1.39c0,0.04,0,0.12-0.01,0.21H154.88z
				 M156.14,95.68c0-0.6-0.14-1.02-0.6-1.02c-0.61,0-0.64,0.82-0.65,1.02H156.14z"/>
			<path class="st1" d="M158.87,97.25c0,0.77-0.17,1.34-1.02,1.34c-0.75,0-0.91-0.51-0.93-0.82h0.35c0.01,0.19,0.14,0.52,0.59,0.52
				c0.56,0,0.67-0.4,0.67-1.04v-0.33c-0.1,0.33-0.37,0.5-0.72,0.5c-0.6,0-0.91-0.5-0.91-1.47c0-1.11,0.41-1.59,0.97-1.59
				c0.41,0,0.6,0.2,0.66,0.42c0-0.15,0.01-0.32,0.02-0.37h0.32c-0.01,0.15-0.01,0.45-0.01,0.86V97.25z M157.26,95.95
				c0,0.77,0.22,1.17,0.63,1.17c0.51,0,0.66-0.51,0.66-1.23c0-0.77-0.12-1.22-0.62-1.22C157.49,94.67,157.26,95.13,157.26,95.95z"/>
			<path class="st1" d="M159.7,94.41c0.37,1.37,0.63,2.31,0.67,2.62h0.01c0.06-0.32,0.35-1.41,0.67-2.62h0.36l-0.89,3.18
				c-0.24,0.86-0.43,1-0.87,1c-0.06,0-0.14-0.01-0.19-0.02v-0.31c0.04,0.01,0.12,0.02,0.19,0.02c0.33,0,0.42-0.25,0.56-0.78
				l-0.88-3.09H159.7z"/>
			<path class="st1" d="M161.85,95.34c0-0.62,0-0.8-0.01-0.93h0.33c0.01,0.07,0.01,0.19,0.01,0.43c0.11-0.26,0.32-0.48,0.73-0.48
				c0.42,0,0.78,0.22,0.78,0.92v2.15h-0.34v-2.09c0-0.39-0.14-0.67-0.51-0.67c-0.46,0-0.65,0.31-0.65,0.99v1.77h-0.34V95.34z"/>
			<path class="st1" d="M164.44,95.34c0-0.62,0-0.8-0.01-0.93h0.33c0.01,0.07,0.01,0.19,0.01,0.43c0.11-0.26,0.32-0.48,0.73-0.48
				c0.42,0,0.78,0.22,0.78,0.92v2.15h-0.34v-2.09c0-0.39-0.14-0.67-0.51-0.67c-0.46,0-0.65,0.31-0.65,0.99v1.77h-0.34V95.34z"/>
			<path class="st1" d="M167.23,95.96c0,0.67,0.12,1.22,0.64,1.22c0.52,0,0.59-0.51,0.61-0.59h0.34c-0.01,0.07-0.1,0.89-0.94,0.89
				c-0.86,0-0.97-0.81-0.97-1.56c0-0.95,0.31-1.56,1-1.56c0.76,0,0.94,0.65,0.94,1.39c0,0.04,0,0.12-0.01,0.21H167.23z
				 M168.49,95.68c0-0.6-0.14-1.02-0.6-1.02c-0.61,0-0.64,0.82-0.65,1.02H168.49z"/>
			<path class="st1" d="M169.42,95.44c0-0.48,0-0.81-0.01-1.03h0.33c0.01,0.09,0.01,0.23,0.01,0.55c0.13-0.37,0.43-0.59,0.8-0.6
				v0.37c-0.53,0.03-0.8,0.42-0.8,0.97v1.72h-0.34V95.44z"/>
			<path class="st1" d="M172.48,97.09v1.45h-0.34v-3.25c0-0.42,0-0.7-0.01-0.88h0.33c0.01,0.05,0.01,0.27,0.01,0.43
				c0.11-0.29,0.33-0.48,0.74-0.48c0.58,0,0.88,0.52,0.88,1.52c0,1.05-0.37,1.6-0.97,1.6C172.74,97.48,172.56,97.29,172.48,97.09z
				 M173.75,95.9c0-0.77-0.18-1.23-0.62-1.23c-0.51,0-0.66,0.49-0.66,1.25c0,0.73,0.08,1.26,0.63,1.26
				C173.52,97.18,173.75,96.66,173.75,95.9z"/>
			<path class="st1" d="M176.36,96.94c0,0.21,0.02,0.41,0.02,0.49h-0.31c-0.02-0.07-0.03-0.24-0.03-0.37
				c-0.11,0.27-0.35,0.42-0.73,0.42c-0.58,0-0.78-0.45-0.78-0.86c0-0.53,0.35-0.96,1.15-0.96c0.16,0,0.24,0,0.34,0.01v-0.43
				c0-0.26-0.05-0.59-0.5-0.59c-0.5,0-0.53,0.36-0.54,0.57h-0.33c0.01-0.43,0.22-0.86,0.88-0.86c0.56,0,0.82,0.28,0.82,0.83V96.94z
				 M176.04,95.96c-0.08-0.01-0.17-0.02-0.33-0.02c-0.59,0-0.84,0.29-0.84,0.65c0,0.31,0.17,0.59,0.52,0.59
				c0.47,0,0.65-0.33,0.65-1.04V95.96z M175.03,93.51c0-0.28,0.19-0.51,0.5-0.51c0.32,0,0.51,0.22,0.51,0.5c0,0.28-0.2,0.5-0.51,0.5
				C175.23,94,175.03,93.77,175.03,93.51z M175.81,93.51c0-0.15-0.08-0.3-0.27-0.3c-0.18,0-0.28,0.13-0.28,0.29
				c0,0.15,0.09,0.3,0.28,0.3C175.72,93.79,175.81,93.65,175.81,93.51z"/>
			<path class="st1" d="M98.12,102.54c0-0.62,0-0.8-0.01-0.93h0.33c0.01,0.07,0.01,0.19,0.01,0.43c0.11-0.26,0.32-0.48,0.73-0.48
				c0.42,0,0.78,0.22,0.78,0.92v2.15h-0.34v-2.09c0-0.39-0.14-0.67-0.51-0.67c-0.46,0-0.65,0.31-0.65,0.99v1.77h-0.34V102.54z"/>
			<path class="st1" d="M100.9,103.16c0,0.67,0.12,1.22,0.64,1.22c0.52,0,0.59-0.51,0.61-0.59h0.34c-0.01,0.07-0.1,0.89-0.94,0.89
				c-0.86,0-0.97-0.81-0.97-1.56c0-0.95,0.31-1.56,1-1.56c0.76,0,0.94,0.65,0.94,1.39c0,0.04,0,0.12-0.01,0.21H100.9z
				 M102.16,102.88c0-0.6-0.14-1.02-0.6-1.02c-0.61,0-0.64,0.82-0.65,1.02H102.16z"/>
			<path class="st1" d="M103.2,103.77c0.03,0.37,0.22,0.62,0.59,0.62s0.54-0.23,0.54-0.54c0-0.35-0.18-0.5-0.59-0.67
				c-0.59-0.23-0.77-0.44-0.77-0.86c0-0.4,0.25-0.77,0.82-0.77c0.63,0,0.82,0.43,0.83,0.83h-0.34c-0.01-0.16-0.05-0.54-0.5-0.54
				c-0.32,0-0.47,0.2-0.47,0.47c0,0.26,0.1,0.39,0.54,0.56c0.56,0.22,0.83,0.42,0.83,0.95c0,0.53-0.33,0.85-0.91,0.85
				c-0.59,0-0.89-0.35-0.91-0.91H103.2z"/>
			<path class="st1" d="M104.85,101.61h0.44v-0.82h0.33v0.82h0.55v0.3h-0.55v2.1c0,0.22,0.05,0.36,0.28,0.36
				c0.07,0,0.17-0.01,0.23-0.02v0.27c-0.09,0.04-0.23,0.05-0.33,0.05c-0.31,0-0.51-0.13-0.51-0.58v-2.18h-0.44V101.61z"/>
			<path class="st1" d="M106.78,103.16c0,0.67,0.12,1.22,0.64,1.22c0.52,0,0.59-0.51,0.61-0.59h0.34c-0.01,0.07-0.1,0.89-0.94,0.89
				c-0.86,0-0.97-0.81-0.97-1.56c0-0.95,0.31-1.56,1-1.56c0.76,0,0.94,0.65,0.94,1.39c0,0.04,0,0.12-0.01,0.21H106.78z
				 M108.04,102.88c0-0.6-0.14-1.02-0.6-1.02c-0.61,0-0.64,0.82-0.65,1.02H108.04z"/>
			<path class="st1" d="M110.13,102.64c0-0.48,0-0.81-0.01-1.03h0.33c0.01,0.09,0.01,0.23,0.01,0.55c0.13-0.37,0.43-0.59,0.8-0.6
				v0.37c-0.53,0.03-0.8,0.42-0.8,0.97v1.72h-0.34V102.64z"/>
			<path class="st1" d="M113.52,103.82c0,0.36,0,0.66,0.01,0.8h-0.32c-0.01-0.09-0.02-0.2-0.02-0.43c-0.1,0.31-0.37,0.48-0.73,0.48
				c-0.32,0-0.75-0.12-0.75-0.9v-2.17h0.34v2.09c0,0.42,0.12,0.68,0.51,0.68c0.36,0,0.63-0.23,0.63-0.95v-1.82h0.34V103.82z"/>
			<path class="st1" d="M114.26,102.54c0-0.62,0-0.8-0.01-0.93h0.33c0.01,0.07,0.01,0.19,0.01,0.43c0.11-0.26,0.32-0.48,0.73-0.48
				c0.42,0,0.78,0.22,0.78,0.92v2.15h-0.34v-2.09c0-0.39-0.14-0.67-0.51-0.67c-0.46,0-0.65,0.31-0.65,0.99v1.77h-0.34V102.54z"/>
			<path class="st1" d="M118.66,100.35v3.52c0,0.27,0,0.57,0.01,0.75h-0.33c-0.01-0.08-0.01-0.29-0.01-0.44
				c-0.09,0.28-0.29,0.49-0.72,0.49c-0.62,0-0.9-0.52-0.9-1.6c0-0.98,0.38-1.52,0.98-1.52c0.42,0,0.57,0.18,0.64,0.34v-1.55H118.66z
				 M117.06,103.09c0,0.94,0.22,1.28,0.62,1.28c0.51,0,0.65-0.45,0.65-1.3c0-0.95-0.15-1.21-0.62-1.21
				C117.33,101.87,117.06,102.22,117.06,103.09z"/>
			<path class="st1" d="M119.6,103.16c0,0.67,0.12,1.22,0.64,1.22c0.52,0,0.59-0.51,0.61-0.59h0.34c-0.01,0.07-0.1,0.89-0.94,0.89
				c-0.86,0-0.97-0.81-0.97-1.56c0-0.95,0.31-1.56,1-1.56c0.76,0,0.94,0.65,0.94,1.39c0,0.04,0,0.12-0.01,0.21H119.6z
				 M120.86,102.88c0-0.6-0.14-1.02-0.6-1.02c-0.61,0-0.64,0.82-0.65,1.02H120.86z"/>
			<path class="st1" d="M122.95,104.63v-4.27h0.34v4.27H122.95z"/>
			<path class="st1" d="M125.89,103.08c0,1.06-0.34,1.6-1,1.6c-0.69,0-1-0.53-1-1.6c0-1.04,0.39-1.52,1.02-1.52
				C125.55,101.56,125.89,102.07,125.89,103.08z M124.18,104.68h-0.25l1.63-3.11h0.26L124.18,104.68z M124.23,103.09
				c0,0.9,0.25,1.3,0.66,1.3c0.42,0,0.66-0.4,0.66-1.31c0-0.82-0.22-1.22-0.66-1.22C124.49,101.86,124.23,102.2,124.23,103.09z"/>
			<path class="st1" d="M126.83,104.29v1.45h-0.34v-3.25c0-0.42,0-0.7-0.01-0.88h0.33c0.01,0.05,0.01,0.27,0.01,0.43
				c0.11-0.29,0.33-0.48,0.74-0.48c0.58,0,0.88,0.52,0.88,1.52c0,1.05-0.37,1.6-0.97,1.6C127.09,104.68,126.91,104.49,126.83,104.29
				z M128.09,103.09c0-0.77-0.18-1.23-0.62-1.23c-0.51,0-0.66,0.49-0.66,1.25c0,0.73,0.08,1.26,0.63,1.26
				C127.87,104.38,128.09,103.86,128.09,103.09z"/>
			<path class="st1" d="M129.05,101.61h0.34v3.02h-0.34V101.61z M129.05,100.35h0.34v0.6h-0.34V100.35z"/>
			<path class="st1" d="M130.14,102.54c0-0.62,0-0.8-0.01-0.93h0.33c0.01,0.07,0.01,0.19,0.01,0.43c0.11-0.26,0.32-0.48,0.73-0.48
				c0.42,0,0.78,0.22,0.78,0.92v2.15h-0.34v-2.09c0-0.39-0.14-0.67-0.51-0.67c-0.46,0-0.65,0.31-0.65,0.99v1.77h-0.34V102.54z"/>
			<path class="st1" d="M134.54,104.45c0,0.77-0.17,1.34-1.02,1.34c-0.75,0-0.91-0.51-0.93-0.82h0.35c0.01,0.19,0.14,0.52,0.59,0.52
				c0.56,0,0.67-0.4,0.67-1.04v-0.33c-0.1,0.33-0.37,0.5-0.72,0.5c-0.6,0-0.91-0.5-0.91-1.47c0-1.11,0.41-1.59,0.97-1.59
				c0.41,0,0.6,0.2,0.66,0.42c0-0.15,0.01-0.32,0.02-0.37h0.32c-0.01,0.15-0.01,0.45-0.01,0.86V104.45z M132.93,103.15
				c0,0.77,0.22,1.17,0.63,1.17c0.51,0,0.66-0.51,0.66-1.23c0-0.77-0.12-1.22-0.62-1.22C133.16,101.87,132.93,102.33,132.93,103.15z
				"/>
			<path class="st1" d="M135.16,104.63v-0.79h0.34v0.79H135.16z"/>
		</g>
	</g>
</g>
</svg>
